0
SECTION
2
HEADER
9
$INSUNITS
70
4
0
ENDSEC
0
SECTION
2
TABLES
0
TABLE
2
LTYPE
0
LTYPE
72
65
70
64
2
CONTINUOUS
3
______
73
0
40
0
0
ENDTAB
0
TABLE
2
LAYER
0
ENDTAB
0
ENDSEC
0
SECTION
2
ENTITIES
0
LINE
8
0
10
50.9999038
20
-140.0543079
11
55.0825266
21
-106.8040119
0
LINE
8
0
10
57.3113575
20
-105.0626582
11
74.3188092
21
-107.1509107
0
LINE
8
0
10
76.45171
20
-105.8223746
11
83.9054475
21
-84.375136
0
LINE
8
0
10
86.3458845
20
-83.1091688
11
103.1407031
21
-87.9250056
0
LINE
8
0
10
105.2984242
20
-87.1938389
11
108.2555308
21
-83.2064246
0
LINE
8
0
10
110.6111902
20
-82.5434135
11
127.5266715
21
-89.3777116
0
LINE
8
0
10
128.7259274
20
-91.6831543
11
127.7964283
21
-95.6982299
0
LINE
8
0
10
128.9634351
20
-97.9903147
11
142.3007496
21
-103.6516688
0
LINE
8
0
10
143.4908384
20
-105.8288131
11
142.3816743
21
-112.3344613
0
LINE
8
0
10
143.5717631
20
-114.5116056
11
154.7727931
21
-119.2661608
0
LINE
8
0
10
155.8323407
20
-121.8886327
11
153.0080072
21
-128.5423453
0
LINE
8
0
10
154.849017
20
-131.3238075
11
157.366331
21
-131.3238075
0
LINE
8
0
10
176.866331
20
-131.3238075
11
179.383645
21
-131.3238075
0
LINE
8
0
10
181.2246548
20
-128.5423453
11
178.4003213
21
-121.8886327
0
LINE
8
0
10
179.4598689
20
-119.2661608
11
190.6608989
21
-114.5116056
0
LINE
8
0
10
191.8509877
20
-112.3344613
11
190.7418236
21
-105.8288131
0
LINE
8
0
10
191.9319124
20
-103.6516688
11
205.2692269
21
-97.9903147
0
LINE
8
0
10
206.4362337
20
-95.6982299
11
205.5067346
21
-91.6831543
0
LINE
8
0
10
206.7059905
20
-89.3777116
11
223.6214718
21
-82.5434135
0
LINE
8
0
10
225.9771312
20
-83.2064246
11
228.9342378
21
-87.1938389
0
LINE
8
0
10
231.0919589
20
-87.9250056
11
247.8867775
21
-83.1091688
0
LINE
8
0
10
250.3272145
20
-84.375136
11
257.780952
21
-105.8223746
0
LINE
8
0
10
259.9138528
20
-107.1509107
11
276.9213045
21
-105.0626582
0
LINE
8
0
10
279.1501354
20
-106.8040119
11
283.2327582
21
-140.0543079
0
LINE
8
0
10
281.4914045
20
-142.2831388
11
262.3668909
21
-144.6313338
0
LINE
8
0
10
261.9191878
20
-144.7397512
11
221.5271972
21
-159.621766
0
LINE
8
0
10
220.486588
20
-162.4984408
11
223.4528407
21
-167.6361412
0
LINE
8
0
10
222.7699979
20
-170.338834
11
207.7532792
21
-179.5922121
0
LINE
8
0
10
207.6451083
20
-179.6638088
11
193.2598284
21
-189.8711891
0
LINE
8
0
10
190.5051786
20
-189.4437231
11
185.8698107
21
-183.2923822
0
LINE
8
0
10
184.936261
20
-182.6093553
11
167.7800522
21
-176.5738439
0
LINE
8
0
10
166.4526098
20
-176.5738439
11
149.296401
21
-182.6093553
0
LINE
8
0
10
148.3628513
20
-183.2923822
11
143.7274834
21
-189.4437231
0
LINE
8
0
10
140.9728336
20
-189.8711891
11
126.5875537
21
-179.6638088
0
LINE
8
0
10
126.4793828
20
-179.5922121
11
111.4626641
21
-170.338834
0
LINE
8
0
10
110.7798213
20
-167.6361412
11
113.746074
21
-162.4984408
0
LINE
8
0
10
112.7054648
20
-159.621766
11
72.3134742
21
-144.7397512
0
LINE
8
0
10
71.8657711
20
-144.6313338
11
52.7412575
21
-142.2831388
0
ARC
8
0
10
57.0676189
20
-107.0477505
40
2
50
83.0000028
51
173.0000028
0
ARC
8
0
10
74.5625477
20
-105.1658184
40
2
50
263.0000028
51
340.8357032
0
ARC
8
0
10
85.7946097
20
-85.0316922
40
2
50
73.9999976
51
160.8357032
0
ARC
8
0
10
103.6919779
20
-86.0024823
40
2
50
253.9999976
51
323.438998
0
ARC
8
0
10
109.8619771
20
-84.3977812
40
2
50
68.0000006
51
143.438998
0
ARC
8
0
10
126.7774584
20
-91.2320793
40
2
50
346.9655131
51
68.0000006
0
ARC
8
0
10
129.7448973
20
-96.1493049
40
2
50
166.9655131
51
247.0000025
0
ARC
8
0
10
141.5192874
20
-105.4926785
40
2
50
350.324533
51
67.0000025
0
ARC
8
0
10
144.3532253
20
-112.6705959
40
2
50
170.324533
51
247.0000025
0
ARC
8
0
10
153.9913309
20
-121.1071706
40
2
50
337.0000025
51
67.0000025
0
ARC
8
0
10
154.849017
20
-129.3238075
40
2
50
157.0000025
51
270
0
ARC
8
0
10
179.383645
20
-129.3238075
40
2
50
270
51
22.9999975
0
ARC
8
0
10
180.2413311
20
-121.1071706
40
2
50
112.9999975
51
202.9999975
0
ARC
8
0
10
189.8794367
20
-112.6705959
40
2
50
292.9999975
51
9.675467
0
ARC
8
0
10
192.7133746
20
-105.4926785
40
2
50
112.9999975
51
189.675467
0
ARC
8
0
10
204.4877647
20
-96.1493049
40
2
50
292.9999975
51
13.0344869
0
ARC
8
0
10
207.4552036
20
-91.2320793
40
2
50
111.9999994
51
193.0344869
0
ARC
8
0
10
224.3706849
20
-84.3977812
40
2
50
36.561002
51
111.9999994
0
ARC
8
0
10
230.5406841
20
-86.0024823
40
2
50
216.561002
51
286.0000024
0
ARC
8
0
10
248.4380523
20
-85.0316922
40
2
50
19.1642968
51
106.0000024
0
ARC
8
0
10
259.6701143
20
-105.1658184
40
2
50
199.1642968
51
276.9999972
0
ARC
8
0
10
277.1650431
20
-107.0477505
40
2
50
6.9999972
51
96.9999972
0
ARC
8
0
10
281.2476659
20
-140.2980465
40
2
50
276.9999972
51
6.9999972
0
ARC
8
0
10
262.6106295
20
-146.6164261
40
2
50
96.9999972
51
110.2258028
0
ARC
8
0
10
222.2186388
20
-161.4984408
40
2
50
110.2258028
51
210.0000001
0
ARC
8
0
10
221.7207899
20
-168.6361412
40
2
50
301.6415877
51
30.0000001
0
ARC
8
0
10
208.8024872
20
-181.2949049
40
2
50
121.6415877
51
125.3584155
0
ARC
8
0
10
192.1024496
20
-188.2400931
40
2
50
216.9999993
51
305.3584155
0
ARC
8
0
10
184.2725397
20
-184.4960122
40
2
50
36.9999993
51
70.618254
0
ARC
8
0
10
167.116331
20
-178.4605008
40
2
50
70.618254
51
109.381746
0
ARC
8
0
10
149.9601223
20
-184.4960122
40
2
50
109.381746
51
143.0000007
0
ARC
8
0
10
142.1302124
20
-188.2400931
40
2
50
234.6415845
51
323.0000007
0
ARC
8
0
10
125.4301748
20
-181.2949049
40
2
50
54.6415845
51
58.3584123
0
ARC
8
0
10
112.5118721
20
-168.6361412
40
2
50
149.9999999
51
238.3584123
0
ARC
8
0
10
112.0140232
20
-161.4984408
40
2
50
329.9999999
51
69.7741972
0
ARC
8
0
10
71.6220325
20
-146.6164261
40
2
50
69.7741972
51
83.0000028
0
ARC
8
0
10
52.9849961
20
-140.2980465
40
2
50
173.0000028
51
263.0000028
0
LINE
8
0
10
54.9870674
20
-139.1825227
11
68.6818222
21
-140.8640271
0
LINE
8
0
10
68.6818222
20
-140.8640271
11
70.3633266
21
-127.1692723
0
LINE
8
0
10
70.3633266
20
-127.1692723
11
56.6685718
21
-125.4877679
0
LINE
8
0
10
56.6685718
20
-125.4877679
11
54.9870674
21
-139.1825227
0
LINE
8
0
10
57.0588461
20
-122.3092382
11
70.7536009
21
-123.9907426
0
LINE
8
0
10
70.7536009
20
-123.9907426
11
72.4351053
21
-110.2959878
0
LINE
8
0
10
72.4351053
20
-110.2959878
11
58.7403505
21
-108.6144834
0
LINE
8
0
10
58.7403505
20
-108.6144834
11
57.0588461
21
-122.3092382
0
LINE
8
0
10
74.1302006
20
-132.8164457
11
87.393305
21
-136.6195797
0
LINE
8
0
10
87.393305
20
-136.6195797
11
91.196439
21
-123.3564753
0
LINE
8
0
10
91.196439
20
-123.3564753
11
77.9333346
21
-119.5533413
0
LINE
8
0
10
77.9333346
20
-119.5533413
11
74.1302006
21
-132.8164457
0
LINE
8
0
10
78.8160356
20
-116.4749968
11
92.07914
21
-120.2781308
0
LINE
8
0
10
92.07914
20
-120.2781308
11
95.882274
21
-107.0150264
0
LINE
8
0
10
95.882274
20
-107.0150264
11
82.6191696
21
-103.2118924
0
LINE
8
0
10
82.6191696
20
-103.2118924
11
78.8160356
21
-116.4749968
0
LINE
8
0
10
83.5018706
20
-100.133548
11
96.764975
21
-103.936682
0
LINE
8
0
10
96.764975
20
-103.936682
11
100.568109
21
-90.6735776
0
LINE
8
0
10
100.568109
20
-90.6735776
11
87.3050046
21
-86.8704436
0
LINE
8
0
10
87.3050046
20
-86.8704436
11
83.5018706
21
-100.133548
0
LINE
8
0
10
93.5870566
20
-130.8309748
11
106.3799685
21
-135.9996467
0
LINE
8
0
10
106.3799685
20
-135.9996467
11
111.5486404
21
-123.2067348
0
LINE
8
0
10
111.5486404
20
-123.2067348
11
98.7557285
21
-118.0380629
0
LINE
8
0
10
98.7557285
20
-118.0380629
11
93.5870566
21
-130.8309748
0
LINE
8
0
10
99.9553687
20
-115.0688493
11
112.7482806
21
-120.2375212
0
LINE
8
0
10
112.7482806
20
-120.2375212
11
117.9169525
21
-107.4446093
0
LINE
8
0
10
117.9169525
20
-107.4446093
11
105.1240406
21
-102.2759374
0
LINE
8
0
10
105.1240406
20
-102.2759374
11
99.9553687
21
-115.0688493
0
LINE
8
0
10
106.3236807
20
-99.3067238
11
119.1165926
21
-104.4753957
0
LINE
8
0
10
119.1165926
20
-104.4753957
11
124.2852645
21
-91.6824838
0
LINE
8
0
10
124.2852645
20
-91.6824838
11
111.4923526
21
-86.5138119
0
LINE
8
0
10
111.4923526
20
-86.5138119
11
106.3236807
21
-99.3067238
0
LINE
8
0
10
107.5254269
20
-144.4564497
11
120.2261847
21
-149.8476015
0
LINE
8
0
10
120.2261847
20
-149.8476015
11
125.6173365
21
-137.1468437
0
LINE
8
0
10
125.6173365
20
-137.1468437
11
112.9165787
21
-131.7556919
0
LINE
8
0
10
112.9165787
20
-131.7556919
11
107.5254269
21
-144.4564497
0
LINE
8
0
10
114.167856
20
-128.8078672
11
126.8686138
21
-134.199019
0
LINE
8
0
10
126.8686138
20
-134.199019
11
132.2597656
21
-121.4982612
0
LINE
8
0
10
132.2597656
20
-121.4982612
11
119.5590078
21
-116.1071094
0
LINE
8
0
10
119.5590078
20
-116.1071094
11
114.167856
21
-128.8078672
0
LINE
8
0
10
120.8102852
20
-113.1592847
11
133.511043
21
-118.5504365
0
LINE
8
0
10
133.511043
20
-118.5504365
11
138.9021948
21
-105.8496787
0
LINE
8
0
10
138.9021948
20
-105.8496787
11
126.201437
21
-100.4585269
0
LINE
8
0
10
126.201437
20
-100.4585269
11
120.8102852
21
-113.1592847
0
LINE
8
0
10
127.0249977
20
-144.5858237
11
139.7257555
21
-149.9769755
0
LINE
8
0
10
139.7257555
20
-149.9769755
11
145.1169073
21
-137.2762177
0
LINE
8
0
10
145.1169073
20
-137.2762177
11
132.4161495
21
-131.8850659
0
LINE
8
0
10
132.4161495
20
-131.8850659
11
127.0249977
21
-144.5858237
0
LINE
8
0
10
133.6674269
20
-128.9372412
11
146.3681847
21
-134.328393
0
LINE
8
0
10
146.3681847
20
-134.328393
11
151.7593365
21
-121.6276352
0
LINE
8
0
10
151.7593365
20
-121.6276352
11
139.0585787
21
-116.2364834
0
LINE
8
0
10
139.0585787
20
-116.2364834
11
133.6674269
21
-128.9372412
0
LINE
8
0
10
265.5508398
20
-140.8640271
11
279.2455946
21
-139.1825227
0
LINE
8
0
10
279.2455946
20
-139.1825227
11
277.5640902
21
-125.4877679
0
LINE
8
0
10
277.5640902
20
-125.4877679
11
263.8693354
21
-127.1692723
0
LINE
8
0
10
263.8693354
20
-127.1692723
11
265.5508398
21
-140.8640271
0
LINE
8
0
10
263.4790611
20
-123.9907426
11
277.1738159
21
-122.3092382
0
LINE
8
0
10
277.1738159
20
-122.3092382
11
275.4923115
21
-108.6144834
0
LINE
8
0
10
275.4923115
20
-108.6144834
11
261.7975567
21
-110.2959878
0
LINE
8
0
10
261.7975567
20
-110.2959878
11
263.4790611
21
-123.9907426
0
LINE
8
0
10
246.839357
20
-136.6195797
11
260.1024614
21
-132.8164457
0
LINE
8
0
10
260.1024614
20
-132.8164457
11
256.2993274
21
-119.5533413
0
LINE
8
0
10
256.2993274
20
-119.5533413
11
243.036223
21
-123.3564753
0
LINE
8
0
10
243.036223
20
-123.3564753
11
246.839357
21
-136.6195797
0
LINE
8
0
10
242.153522
20
-120.2781308
11
255.4166264
21
-116.4749968
0
LINE
8
0
10
255.4166264
20
-116.4749968
11
251.6134924
21
-103.2118924
0
LINE
8
0
10
251.6134924
20
-103.2118924
11
238.350388
21
-107.0150264
0
LINE
8
0
10
238.350388
20
-107.0150264
11
242.153522
21
-120.2781308
0
LINE
8
0
10
237.467687
20
-103.936682
11
250.7307914
21
-100.133548
0
LINE
8
0
10
250.7307914
20
-100.133548
11
246.9276574
21
-86.8704436
0
LINE
8
0
10
246.9276574
20
-86.8704436
11
233.664553
21
-90.6735776
0
LINE
8
0
10
233.664553
20
-90.6735776
11
237.467687
21
-103.936682
0
LINE
8
0
10
227.8526935
20
-135.9996467
11
240.6456054
21
-130.8309748
0
LINE
8
0
10
240.6456054
20
-130.8309748
11
235.4769335
21
-118.0380629
0
LINE
8
0
10
235.4769335
20
-118.0380629
11
222.6840216
21
-123.2067348
0
LINE
8
0
10
222.6840216
20
-123.2067348
11
227.8526935
21
-135.9996467
0
LINE
8
0
10
221.4843814
20
-120.2375212
11
234.2772933
21
-115.0688493
0
LINE
8
0
10
234.2772933
20
-115.0688493
11
229.1086214
21
-102.2759374
0
LINE
8
0
10
229.1086214
20
-102.2759374
11
216.3157095
21
-107.4446093
0
LINE
8
0
10
216.3157095
20
-107.4446093
11
221.4843814
21
-120.2375212
0
LINE
8
0
10
215.1160694
20
-104.4753957
11
227.9089813
21
-99.3067238
0
LINE
8
0
10
227.9089813
20
-99.3067238
11
222.7403094
21
-86.5138119
0
LINE
8
0
10
222.7403094
20
-86.5138119
11
209.9473975
21
-91.6824838
0
LINE
8
0
10
209.9473975
20
-91.6824838
11
215.1160694
21
-104.4753957
0
LINE
8
0
10
214.0064773
20
-149.8476015
11
226.7072351
21
-144.4564497
0
LINE
8
0
10
226.7072351
20
-144.4564497
11
221.3160833
21
-131.7556919
0
LINE
8
0
10
221.3160833
20
-131.7556919
11
208.6153255
21
-137.1468437
0
LINE
8
0
10
208.6153255
20
-137.1468437
11
214.0064773
21
-149.8476015
0
LINE
8
0
10
207.3640482
20
-134.199019
11
220.064806
21
-128.8078672
0
LINE
8
0
10
220.064806
20
-128.8078672
11
214.6736542
21
-116.1071094
0
LINE
8
0
10
214.6736542
20
-116.1071094
11
201.9728964
21
-121.4982612
0
LINE
8
0
10
201.9728964
20
-121.4982612
11
207.3640482
21
-134.199019
0
LINE
8
0
10
200.721619
20
-118.5504365
11
213.4223768
21
-113.1592847
0
LINE
8
0
10
213.4223768
20
-113.1592847
11
208.031225
21
-100.4585269
0
LINE
8
0
10
208.031225
20
-100.4585269
11
195.3304672
21
-105.8496787
0
LINE
8
0
10
195.3304672
20
-105.8496787
11
200.721619
21
-118.5504365
0
LINE
8
0
10
194.5069065
20
-149.9769755
11
207.2076643
21
-144.5858237
0
LINE
8
0
10
207.2076643
20
-144.5858237
11
201.8165125
21
-131.8850659
0
LINE
8
0
10
201.8165125
20
-131.8850659
11
189.1157547
21
-137.2762177
0
LINE
8
0
10
189.1157547
20
-137.2762177
11
194.5069065
21
-149.9769755
0
LINE
8
0
10
187.8644773
20
-134.328393
11
200.5652351
21
-128.9372412
0
LINE
8
0
10
200.5652351
20
-128.9372412
11
195.1740833
21
-116.2364834
0
LINE
8
0
10
195.1740833
20
-116.2364834
11
182.4733255
21
-121.6276352
0
LINE
8
0
10
182.4733255
20
-121.6276352
11
187.8644773
21
-134.328393
0
LINE
8
0
10
114.8189066
20
-168.3426402
11
126.7679788
21
-175.2414402
0
LINE
8
0
10
126.7679788
20
-175.2414402
11
133.6667788
21
-163.292368
0
LINE
8
0
10
133.6667788
20
-163.292368
11
121.7177066
21
-156.393568
0
LINE
8
0
10
121.7177066
20
-156.393568
11
114.8189066
21
-168.3426402
0
LINE
8
0
10
130.4796981
20
-177.6981736
11
141.4989514
21
-186.0017765
0
LINE
8
0
10
141.4989514
20
-186.0017765
11
149.8025543
21
-174.9825232
0
LINE
8
0
10
149.8025543
20
-174.9825232
11
138.783301
21
-166.6789203
0
LINE
8
0
10
138.783301
20
-166.6789203
11
130.4796981
21
-177.6981736
0
LINE
8
0
10
207.4646832
20
-175.2414402
11
219.4137554
21
-168.3426402
0
LINE
8
0
10
219.4137554
20
-168.3426402
11
212.5149554
21
-156.393568
0
LINE
8
0
10
212.5149554
20
-156.393568
11
200.5658832
21
-163.292368
0
LINE
8
0
10
200.5658832
20
-163.292368
11
207.4646832
21
-175.2414402
0
LINE
8
0
10
192.7337106
20
-186.0017765
11
203.7529639
21
-177.6981736
0
LINE
8
0
10
203.7529639
20
-177.6981736
11
195.449361
21
-166.6789203
0
LINE
8
0
10
195.449361
20
-166.6789203
11
184.4301077
21
-174.9825232
0
LINE
8
0
10
184.4301077
20
-174.9825232
11
192.7337106
21
-186.0017765
0
LINE
8
0
10
176.866331
20
-148.3824382
11
176.866331
21
-131.3238075
0
LINE
8
0
10
157.366331
20
-152.9324382
11
157.366331
21
-131.3238075
0
LINE
8
0
10
150.516331
20
-164.9324382
11
183.716331
21
-164.9324382
0
LINE
8
0
10
183.716331
20
-164.9324382
11
183.716331
21
-148.3824382
0
LINE
8
0
10
157.366331
20
-152.9324382
11
150.516331
21
-152.9324382
0
LINE
8
0
10
150.516331
20
-152.9324382
11
150.516331
21
-164.9324382
0
LINE
8
0
10
183.716331
20
-148.3824382
11
176.866331
21
-148.3824382
0
CIRCLE
8
0
10
132.1919845
20
-171.0789262
40
1
0
CIRCLE
8
0
10
202.0406776
20
-171.0789262
40
1
0
CIRCLE
8
0
10
101.7319152
20
-99.5411328
40
1
0
CIRCLE
8
0
10
232.5007468
20
-99.5411328
40
1
0
CIRCLE
8
0
10
74.6115025
20
-118.0175795
40
1
0
CIRCLE
8
0
10
259.6211595
20
-118.0175795
40
1
0
CIRCLE
8
0
10
151.2056069
20
-136.6274916
40
1
0
CIRCLE
8
0
10
183.0270551
20
-136.6274916
40
1
0
CIRCLE
8
0
10
140.9000733
20
-160.9058071
40
1
0
CIRCLE
8
0
10
193.3325887
20
-160.9058071
40
1
0
ENDSEC
0
EOF