%TF.GenerationSoftware,KiCad,Pcbnew,9.0.4*%
%TF.CreationDate,2025-10-25T19:08:00+08:00*%
%TF.ProjectId,sterna,73746572-6e61-42e6-9b69-6361645f7063,v1.0.0*%
%TF.SameCoordinates,Original*%
%TF.FileFunction,Soldermask,Top*%
%TF.FilePolarity,Negative*%
%FSLAX46Y46*%
G04 Gerber Fmt 4.6, Leading zero omitted, Abs format (unit mm)*
G04 Created by KiCad (PCBNEW 9.0.4) date 2025-10-25 19:08:00*
%MOMM*%
%LPD*%
G01*
G04 APERTURE LIST*
G04 Aperture macros list*
%AMRotRect*
0 Rectangle, with rotation*
0 The origin of the aperture is its center*
0 $1 length*
0 $2 width*
0 $3 Rotation angle, in degrees counterclockwise*
0 Add horizontal line*
21,1,$1,$2,0,0,$3*%
G04 Aperture macros list end*
%ADD10C,0.750000*%
%ADD11C,1.701800*%
%ADD12C,3.000000*%
%ADD13C,3.429000*%
%ADD14C,4.400000*%
%ADD15C,2.200000*%
%ADD16C,1.000000*%
%ADD17RotRect,0.900000X1.200000X337.000000*%
%ADD18O,2.750000X1.800000*%
%ADD19R,2.750000X1.800000*%
%ADD20C,2.000000*%
%ADD21RotRect,0.900000X1.200000X22.000000*%
%ADD22RotRect,0.900000X1.200000X23.000000*%
%ADD23RotRect,0.900000X1.200000X16.000000*%
%ADD24RotRect,0.900000X1.200000X338.000000*%
%ADD25R,1.200000X1.700000*%
%ADD26O,1.200000X1.700000*%
%ADD27RotRect,0.900000X1.200000X37.000000*%
%ADD28RotRect,0.900000X1.200000X30.000000*%
%ADD29RotRect,0.900000X1.200000X7.000000*%
%ADD30RotRect,0.900000X1.200000X353.000000*%
%ADD31RotRect,0.900000X1.200000X344.000000*%
%ADD32RotRect,0.900000X1.200000X330.000000*%
%ADD33RotRect,0.900000X1.200000X323.000000*%
G04 APERTURE END LIST*
D10*
%TO.C,B1*%
X191396414Y-127230773D03*
X193927802Y-126156263D03*
%TD*%
D11*
%TO.C,S30*%
X200280744Y-181671877D03*
D12*
X201092440Y-173610013D03*
D13*
X204673239Y-178361894D03*
D12*
X206409610Y-172357936D03*
D11*
X209065734Y-175051911D03*
%TD*%
%TO.C,S29*%
X215808383Y-170589054D03*
D12*
X217596523Y-162686203D03*
D13*
X220571523Y-167839054D03*
D12*
X223026650Y-162091459D03*
D11*
X225334663Y-165089054D03*
%TD*%
%TO.C,S16*%
X256864109Y-131624015D03*
D12*
X260511006Y-124388503D03*
D13*
X262151048Y-130108010D03*
D12*
X265923716Y-125125092D03*
D11*
X267437987Y-128592005D03*
%TD*%
%TO.C,S23*%
X216537777Y-129323632D03*
D12*
X219275704Y-121697607D03*
D13*
X221600554Y-127174611D03*
D12*
X224737837Y-121769062D03*
D11*
X226663331Y-125025590D03*
%TD*%
%TO.C,S24*%
X209895349Y-113675049D03*
D12*
X212633276Y-106049024D03*
D13*
X214958126Y-111526028D03*
D12*
X218095409Y-106120479D03*
D11*
X220020903Y-109377007D03*
%TD*%
%TO.C,S14*%
X276680164Y-135867726D03*
D12*
X281414045Y-129291795D03*
D13*
X282139168Y-135197445D03*
D12*
X286644889Y-130866050D03*
D11*
X287598172Y-134527164D03*
%TD*%
%TO.C,S25*%
X203680636Y-145101589D03*
D12*
X206418563Y-137475564D03*
D13*
X208743413Y-142952568D03*
D12*
X211880696Y-137547019D03*
D11*
X213806190Y-140803547D03*
%TD*%
%TO.C,S15*%
X274608386Y-118994443D03*
D12*
X279342267Y-112418512D03*
D13*
X280067390Y-118324162D03*
D12*
X284573111Y-113992767D03*
D11*
X285526394Y-117653881D03*
%TD*%
%TO.C,S21*%
X224410384Y-99576487D03*
D12*
X227280986Y-91999407D03*
D13*
X229509895Y-97516151D03*
D12*
X232741040Y-92166179D03*
D11*
X234609406Y-95455815D03*
%TD*%
%TO.C,S18*%
X247492433Y-98941116D03*
D12*
X251139330Y-91705604D03*
D13*
X252779372Y-97425111D03*
D12*
X256552040Y-92442193D03*
D11*
X258066311Y-95909106D03*
%TD*%
%TO.C,S20*%
X230778696Y-115338612D03*
D12*
X233649298Y-107761532D03*
D13*
X235878207Y-113278276D03*
D12*
X239109352Y-107928304D03*
D11*
X240977718Y-111217940D03*
%TD*%
%TO.C,S17*%
X252178269Y-115282564D03*
D12*
X255825166Y-108047052D03*
D13*
X257465208Y-113766559D03*
D12*
X261237876Y-108783641D03*
D11*
X262752147Y-112250554D03*
%TD*%
%TO.C,S26*%
X197038208Y-129453007D03*
D12*
X199776135Y-121826982D03*
D13*
X202100985Y-127303986D03*
D12*
X205238268Y-121898437D03*
D11*
X207163762Y-125154965D03*
%TD*%
%TO.C,S19*%
X237147008Y-131100737D03*
D12*
X240017610Y-123523657D03*
D13*
X242246519Y-129040401D03*
D12*
X245477664Y-123690429D03*
D11*
X247346030Y-126980065D03*
%TD*%
%TO.C,S22*%
X223180206Y-144972213D03*
D12*
X225918133Y-137346188D03*
D13*
X228242983Y-142823192D03*
D12*
X231380266Y-137417643D03*
D11*
X233305760Y-140674171D03*
%TD*%
D14*
%TO.C,PAD2*%
X193608761Y-138649039D03*
%TD*%
%TO.C,PAD4*%
X203914293Y-162927353D03*
%TD*%
D15*
%TO.C,PAD8*%
X243082451Y-101562681D03*
%TD*%
%TO.C,PAD6*%
X212622385Y-173100474D03*
%TD*%
%TO.C,PAD10*%
X270202863Y-120039128D03*
%TD*%
D11*
%TO.C,S28*%
X146330335Y-175051912D03*
D12*
X154303629Y-173610014D03*
D13*
X150722830Y-178361895D03*
D12*
X156972814Y-178376087D03*
D11*
X155115325Y-181671878D03*
%TD*%
%TO.C,S27*%
X130061407Y-165089054D03*
D12*
X137799547Y-162686203D03*
D13*
X134824547Y-167839054D03*
D12*
X141029674Y-167091459D03*
D11*
X139587687Y-170589054D03*
%TD*%
%TO.C,S3*%
X87958085Y-128592001D03*
D12*
X94885066Y-124388499D03*
D13*
X93245024Y-130108006D03*
D12*
X99084973Y-127881461D03*
D11*
X98531963Y-131624011D03*
%TD*%
%TO.C,S7*%
X114418351Y-111217946D03*
D12*
X121746771Y-107761538D03*
D13*
X119517862Y-113278282D03*
D12*
X125558556Y-111674376D03*
D11*
X124617373Y-115338618D03*
%TD*%
%TO.C,S10*%
X128732740Y-125025590D03*
D12*
X136120367Y-121697607D03*
D13*
X133795517Y-127174611D03*
D12*
X139863283Y-125676373D03*
D11*
X138858294Y-129323632D03*
%TD*%
%TO.C,S2*%
X69869678Y-117653882D03*
D12*
X76053805Y-112418513D03*
D13*
X75328682Y-118324163D03*
D12*
X80748423Y-115211462D03*
D11*
X80787686Y-118994444D03*
%TD*%
%TO.C,S4*%
X92643921Y-112250556D03*
D12*
X99570902Y-108047054D03*
D13*
X97930860Y-113766561D03*
D12*
X103770809Y-111540016D03*
D11*
X103217799Y-115282566D03*
%TD*%
%TO.C,S12*%
X141589879Y-140803550D03*
D12*
X148977506Y-137475567D03*
D13*
X146652656Y-142952571D03*
D12*
X152720422Y-141454333D03*
D11*
X151715433Y-145101592D03*
%TD*%
%TO.C,S9*%
X122090309Y-140674172D03*
D12*
X129477936Y-137346189D03*
D13*
X127153086Y-142823193D03*
D12*
X133220852Y-141324955D03*
D11*
X132215863Y-144972214D03*
%TD*%
%TO.C,S8*%
X120786666Y-95455821D03*
D12*
X128115086Y-91999413D03*
D13*
X125886177Y-97516157D03*
D12*
X131926871Y-95912251D03*
D11*
X130985688Y-99576493D03*
%TD*%
%TO.C,S6*%
X108050040Y-126980066D03*
D12*
X115378460Y-123523658D03*
D13*
X113149551Y-129040402D03*
D12*
X119190245Y-127436496D03*
D11*
X118249062Y-131100738D03*
%TD*%
%TO.C,S13*%
X148232306Y-125154963D03*
D12*
X155619933Y-121826980D03*
D13*
X153295083Y-127303984D03*
D12*
X159362849Y-125805746D03*
D11*
X158357860Y-129453005D03*
%TD*%
%TO.C,S11*%
X135375165Y-109377008D03*
D12*
X142762792Y-106049025D03*
D13*
X140437942Y-111526029D03*
D12*
X146505708Y-110027791D03*
D11*
X145500719Y-113675050D03*
%TD*%
%TO.C,S1*%
X67797895Y-134527163D03*
D12*
X73982022Y-129291794D03*
D13*
X73256899Y-135197444D03*
D12*
X78676640Y-132084743D03*
D11*
X78715903Y-135867725D03*
%TD*%
%TO.C,S5*%
X97329756Y-95909107D03*
D12*
X104256737Y-91705605D03*
D13*
X102616695Y-97425112D03*
D12*
X108456644Y-95198567D03*
D11*
X107903634Y-98941117D03*
%TD*%
D15*
%TO.C,PAD7*%
X112313618Y-101562684D03*
%TD*%
D14*
%TO.C,PAD3*%
X151481778Y-162927356D03*
%TD*%
D15*
%TO.C,PAD5*%
X142773689Y-173100477D03*
%TD*%
D14*
%TO.C,PAD1*%
X161787307Y-138649036D03*
%TD*%
D15*
%TO.C,PAD9*%
X85193208Y-120039128D03*
%TD*%
D16*
%TO.C,T1*%
X175648034Y-135952570D03*
X178648034Y-135952570D03*
%TD*%
D17*
%TO.C,D13*%
X149939814Y-130985653D03*
X152977480Y-132275065D03*
%TD*%
D18*
%TO.C,MCU1*%
X169603034Y-138832567D03*
X169603035Y-141372565D03*
X169603034Y-143912567D03*
X169603034Y-146452566D03*
X169603034Y-148992567D03*
X169603035Y-151532567D03*
X169603034Y-154072567D03*
X185793034Y-154072567D03*
X185793033Y-151532569D03*
X185793034Y-148992567D03*
X185793034Y-146452568D03*
X185793034Y-143912567D03*
D19*
X185793033Y-141372567D03*
D18*
X185793034Y-138832567D03*
D20*
X176428035Y-140420567D03*
X173253033Y-146135567D03*
%TD*%
D21*
%TO.C,D19*%
X242477315Y-134016267D03*
X245537021Y-132780065D03*
%TD*%
D22*
%TO.C,D26*%
X202418589Y-132275068D03*
X205456255Y-130985656D03*
%TD*%
D21*
%TO.C,D20*%
X236109001Y-118254143D03*
X239168707Y-117017941D03*
%TD*%
D17*
%TO.C,D10*%
X130440245Y-130856278D03*
X133477911Y-132145690D03*
%TD*%
D22*
%TO.C,D25*%
X209061015Y-147923645D03*
X212098681Y-146634233D03*
%TD*%
D23*
%TO.C,D18*%
X252488787Y-102397843D03*
X255660951Y-101488239D03*
%TD*%
D17*
%TO.C,D9*%
X123797817Y-146504860D03*
X126835483Y-147794272D03*
%TD*%
D23*
%TO.C,D16*%
X261860461Y-135080741D03*
X265032625Y-134171137D03*
%TD*%
D24*
%TO.C,D7*%
X116227363Y-117017943D03*
X119287069Y-118254145D03*
%TD*%
%TO.C,D6*%
X109859048Y-132780068D03*
X112918754Y-134016270D03*
%TD*%
D25*
%TO.C,JST1*%
X189848035Y-150952569D03*
D26*
X191848035Y-150952569D03*
%TD*%
D27*
%TO.C,D30*%
X206184021Y-183108479D03*
X208819519Y-181122489D03*
%TD*%
D24*
%TO.C,D8*%
X122595673Y-101255816D03*
X125655379Y-102492018D03*
%TD*%
D28*
%TO.C,D29*%
X221492581Y-172734373D03*
X224350467Y-171084373D03*
%TD*%
D22*
%TO.C,D24*%
X215275728Y-116497108D03*
X218313394Y-115207696D03*
%TD*%
D29*
%TO.C,D14*%
X281074252Y-140063494D03*
X284349654Y-139661328D03*
%TD*%
D17*
%TO.C,D11*%
X137082674Y-115207696D03*
X140120340Y-116497108D03*
%TD*%
D30*
%TO.C,D1*%
X71046413Y-139661332D03*
X74321815Y-140063498D03*
%TD*%
%TO.C,D2*%
X73118189Y-122788046D03*
X76393591Y-123190212D03*
%TD*%
D31*
%TO.C,D5*%
X99735116Y-101488240D03*
X102907282Y-102397844D03*
%TD*%
D22*
%TO.C,D23*%
X221918158Y-132145690D03*
X224955824Y-130856278D03*
%TD*%
D31*
%TO.C,D4*%
X95049278Y-117829688D03*
X98221444Y-118739292D03*
%TD*%
D17*
%TO.C,D12*%
X143297386Y-146634237D03*
X146335052Y-147923649D03*
%TD*%
D23*
%TO.C,D17*%
X257174627Y-118739292D03*
X260346791Y-117829688D03*
%TD*%
D29*
%TO.C,D15*%
X279002474Y-123190210D03*
X282277876Y-122788044D03*
%TD*%
D22*
%TO.C,D22*%
X228560589Y-147794274D03*
X231598255Y-146504862D03*
%TD*%
D21*
%TO.C,D21*%
X229740690Y-102492018D03*
X232800396Y-101255816D03*
%TD*%
D32*
%TO.C,D27*%
X131045606Y-171084373D03*
X133903488Y-172734371D03*
%TD*%
D33*
%TO.C,D28*%
X146576555Y-181122488D03*
X149212053Y-183108478D03*
%TD*%
D31*
%TO.C,D3*%
X90363446Y-134171137D03*
X93535612Y-135080741D03*
%TD*%
M02*
