M48
; DRILL file {KiCad 9.0.4} date 2025-10-25T19:08:05+0800
; FORMAT={-:-/ absolute / metric / decimal}
; #@! TF.CreationDate,2025-10-25T19:08:05+08:00
; #@! TF.GenerationSoftware,Kicad,Pcbnew,9.0.4
; #@! TF.FileFunction,Plated,1,2,PTH
FMAT,2
METRIC
; #@! TA.AperFunction,Plated,PTH,ViaDrill
T1C0.400
; #@! TA.AperFunction,Plated,PTH,ComponentDrill
T2C0.700
; #@! TA.AperFunction,Plated,PTH,ComponentDrill
T3C0.750
; #@! TA.AperFunction,Plated,PTH,ComponentDrill
T4C1.000
; #@! TA.AperFunction,Plated,PTH,ComponentDrill
T5C2.200
%
G90
G05
T1
X78.275Y-121.564
X80.788Y-139.253
X100.71Y-133.853
X105.292Y-118.418
X109.823Y-98.444
X120.845Y-131.878
X127.02Y-116.928
X133.712Y-100.298
X134.601Y-146.549
X135.779Y-171.344
X141.393Y-130.689
X142.089Y-152.852
X146.16Y-162.303
X147.846Y-115.5
X154.419Y-146.049
X155.996Y-184.559
X161.155Y-130.169
X185.321Y-160.06
X196.658Y-172.773
X206.408Y-175.605
X209.638Y-124.117
X216.632Y-140.298
X222.641Y-108.588
X227.695Y-163.237
X229.437Y-124.608
X235.831Y-139.767
X237.347Y-94.934
X243.813Y-110.738
X249.999Y-126.115
X260.888Y-95.754
X265.541Y-112.053
X270.398Y-128.918
X288.349Y-118.566
X290.458Y-135.334
T2
X173.253Y-146.136
X176.428Y-140.421
T3
X189.848Y-150.953
X191.848Y-150.953
T4
X170.078Y-138.833
X170.078Y-143.913
X170.078Y-146.453
X170.078Y-148.993
X170.078Y-154.073
X170.078Y-141.373
X170.078Y-151.533
X185.318Y-141.373
X185.318Y-151.533
X185.318Y-138.833
X185.318Y-143.913
X185.318Y-146.453
X185.318Y-148.993
X185.318Y-154.073
T5
X151.482Y-162.927
X161.787Y-138.649
X193.609Y-138.649
X203.914Y-162.927
M30
