%TF.GenerationSoftware,KiCad,Pcbnew,9.0.4*%
%TF.CreationDate,2025-10-25T19:08:00+08:00*%
%TF.ProjectId,sterna,73746572-6e61-42e6-9b69-6361645f7063,v1.0.0*%
%TF.SameCoordinates,Original*%
%TF.FileFunction,Legend,Top*%
%TF.FilePolarity,Positive*%
%FSLAX46Y46*%
G04 Gerber Fmt 4.6, Leading zero omitted, Abs format (unit mm)*
G04 Created by KiCad (PCBNEW 9.0.4) date 2025-10-25 19:08:00*
%MOMM*%
%LPD*%
G01*
G04 APERTURE LIST*
%ADD10C,0.150000*%
%ADD11C,0.625000*%
%ADD12C,0.300000*%
%ADD13C,0.100000*%
%ADD14C,0.000000*%
%ADD15C,0.120000*%
%ADD16O,2.750000X1.800000*%
%ADD17R,2.750000X1.800000*%
%ADD18C,2.000000*%
G04 APERTURE END LIST*
D10*
X249113218Y-149243063D02*
X249583714Y-149771994D01*
X249583714Y-149771994D02*
X249554734Y-149064679D01*
X250643353Y-149343872D02*
X250113534Y-149557933D01*
X250378443Y-149450902D02*
X250003837Y-148523719D01*
X250003837Y-148523719D02*
X249969049Y-148691850D01*
X249969049Y-148691850D02*
X249916422Y-148815830D01*
X249916422Y-148815830D02*
X249845957Y-148895659D01*
X251005041Y-149095023D02*
X251067031Y-149121336D01*
X251067031Y-149121336D02*
X251040717Y-149183326D01*
X251040717Y-149183326D02*
X250978727Y-149157013D01*
X250978727Y-149157013D02*
X251005041Y-149095023D01*
X251005041Y-149095023D02*
X251040717Y-149183326D01*
X251284233Y-148006405D02*
X251372536Y-147970728D01*
X251372536Y-147970728D02*
X251478678Y-147979203D01*
X251478678Y-147979203D02*
X251540668Y-148005516D01*
X251540668Y-148005516D02*
X251620496Y-148075981D01*
X251620496Y-148075981D02*
X251736002Y-148234749D01*
X251736002Y-148234749D02*
X251825194Y-148455507D01*
X251825194Y-148455507D02*
X251852396Y-148649952D01*
X251852396Y-148649952D02*
X251843921Y-148756093D01*
X251843921Y-148756093D02*
X251817608Y-148818083D01*
X251817608Y-148818083D02*
X251747143Y-148897912D01*
X251747143Y-148897912D02*
X251658840Y-148933589D01*
X251658840Y-148933589D02*
X251552698Y-148925114D01*
X251552698Y-148925114D02*
X251490708Y-148898801D01*
X251490708Y-148898801D02*
X251410879Y-148828336D01*
X251410879Y-148828336D02*
X251295374Y-148669568D01*
X251295374Y-148669568D02*
X251206182Y-148448810D01*
X251206182Y-148448810D02*
X251178980Y-148254365D01*
X251178980Y-148254365D02*
X251187455Y-148148223D01*
X251187455Y-148148223D02*
X251213768Y-148086233D01*
X251213768Y-148086233D02*
X251284233Y-148006405D01*
X253071691Y-148362760D02*
X252697085Y-147435576D01*
X252839792Y-147788789D02*
X252910257Y-147708960D01*
X252910257Y-147708960D02*
X253086863Y-147637606D01*
X253086863Y-147637606D02*
X253193005Y-147646081D01*
X253193005Y-147646081D02*
X253254995Y-147672394D01*
X253254995Y-147672394D02*
X253334823Y-147742859D01*
X253334823Y-147742859D02*
X253441854Y-148007769D01*
X253441854Y-148007769D02*
X253433379Y-148113911D01*
X253433379Y-148113911D02*
X253407066Y-148175901D01*
X253407066Y-148175901D02*
X253336601Y-148255729D01*
X253336601Y-148255729D02*
X253159995Y-148327083D01*
X253159995Y-148327083D02*
X253053853Y-148318608D01*
X253572531Y-147441384D02*
X254043027Y-147970314D01*
X254014047Y-147263000D02*
X254043027Y-147970314D01*
X254043027Y-147970314D02*
X254043916Y-148226749D01*
X254043916Y-148226749D02*
X254017603Y-148288739D01*
X254017603Y-148288739D02*
X253947138Y-148368568D01*
X255323424Y-147453000D02*
X255073686Y-146834878D01*
X255109363Y-146923181D02*
X255135676Y-146861191D01*
X255135676Y-146861191D02*
X255206141Y-146781363D01*
X255206141Y-146781363D02*
X255338596Y-146727847D01*
X255338596Y-146727847D02*
X255444738Y-146736322D01*
X255444738Y-146736322D02*
X255524566Y-146806787D01*
X255524566Y-146806787D02*
X255720789Y-147292455D01*
X255524566Y-146806787D02*
X255533041Y-146700645D01*
X255533041Y-146700645D02*
X255603506Y-146620817D01*
X255603506Y-146620817D02*
X255735961Y-146567302D01*
X255735961Y-146567302D02*
X255842102Y-146575777D01*
X255842102Y-146575777D02*
X255921931Y-146646241D01*
X255921931Y-146646241D02*
X256118153Y-147131909D01*
X256707296Y-146174857D02*
X256957033Y-146792979D01*
X256309931Y-146335403D02*
X256506154Y-146821070D01*
X256506154Y-146821070D02*
X256585982Y-146891535D01*
X256585982Y-146891535D02*
X256692124Y-146900010D01*
X256692124Y-146900010D02*
X256824579Y-146846495D01*
X256824579Y-146846495D02*
X256895043Y-146766666D01*
X256895043Y-146766666D02*
X256921357Y-146704676D01*
X257148812Y-145996473D02*
X257398550Y-146614595D01*
X257184489Y-146084776D02*
X257210802Y-146022786D01*
X257210802Y-146022786D02*
X257281267Y-145942957D01*
X257281267Y-145942957D02*
X257413722Y-145889442D01*
X257413722Y-145889442D02*
X257519863Y-145897917D01*
X257519863Y-145897917D02*
X257599692Y-145968382D01*
X257599692Y-145968382D02*
X257795914Y-146454050D01*
X258237430Y-146275665D02*
X257862824Y-145348482D01*
X258183026Y-145886776D02*
X258590643Y-146132958D01*
X258340906Y-145514836D02*
X258130400Y-146010756D01*
X259367534Y-145767715D02*
X259297069Y-145847544D01*
X259297069Y-145847544D02*
X259120463Y-145918897D01*
X259120463Y-145918897D02*
X259014321Y-145910422D01*
X259014321Y-145910422D02*
X258952331Y-145884109D01*
X258952331Y-145884109D02*
X258872503Y-145813644D01*
X258872503Y-145813644D02*
X258765472Y-145548735D01*
X258765472Y-145548735D02*
X258773947Y-145442593D01*
X258773947Y-145442593D02*
X258800260Y-145380603D01*
X258800260Y-145380603D02*
X258870725Y-145300775D01*
X258870725Y-145300775D02*
X259047332Y-145229421D01*
X259047332Y-145229421D02*
X259153473Y-145237896D01*
X260180102Y-145490775D02*
X259983879Y-145005108D01*
X259983879Y-145005108D02*
X259904051Y-144934643D01*
X259904051Y-144934643D02*
X259797909Y-144926168D01*
X259797909Y-144926168D02*
X259621303Y-144997522D01*
X259621303Y-144997522D02*
X259550838Y-145077350D01*
X260162263Y-145446624D02*
X260091798Y-145526452D01*
X260091798Y-145526452D02*
X259871040Y-145615644D01*
X259871040Y-145615644D02*
X259764899Y-145607169D01*
X259764899Y-145607169D02*
X259685070Y-145536705D01*
X259685070Y-145536705D02*
X259649394Y-145448401D01*
X259649394Y-145448401D02*
X259657868Y-145342260D01*
X259657868Y-145342260D02*
X259728333Y-145262431D01*
X259728333Y-145262431D02*
X259949091Y-145173239D01*
X259949091Y-145173239D02*
X260019556Y-145093411D01*
X172837761Y-134020256D02*
X173028237Y-134020256D01*
X173028237Y-134020256D02*
X173123475Y-134067875D01*
X173123475Y-134067875D02*
X173218713Y-134163113D01*
X173218713Y-134163113D02*
X173266332Y-134353589D01*
X173266332Y-134353589D02*
X173266332Y-134686922D01*
X173266332Y-134686922D02*
X173218713Y-134877398D01*
X173218713Y-134877398D02*
X173123475Y-134972637D01*
X173123475Y-134972637D02*
X173028237Y-135020256D01*
X173028237Y-135020256D02*
X172837761Y-135020256D01*
X172837761Y-135020256D02*
X172742523Y-134972637D01*
X172742523Y-134972637D02*
X172647285Y-134877398D01*
X172647285Y-134877398D02*
X172599666Y-134686922D01*
X172599666Y-134686922D02*
X172599666Y-134353589D01*
X172599666Y-134353589D02*
X172647285Y-134163113D01*
X172647285Y-134163113D02*
X172742523Y-134067875D01*
X172742523Y-134067875D02*
X172837761Y-134020256D01*
X173694904Y-135020256D02*
X173694904Y-134020256D01*
X173694904Y-134020256D02*
X174266332Y-135020256D01*
X174266332Y-135020256D02*
X174266332Y-134020256D01*
X180266334Y-134020256D02*
X180456810Y-134020256D01*
X180456810Y-134020256D02*
X180552048Y-134067875D01*
X180552048Y-134067875D02*
X180647286Y-134163113D01*
X180647286Y-134163113D02*
X180694905Y-134353589D01*
X180694905Y-134353589D02*
X180694905Y-134686922D01*
X180694905Y-134686922D02*
X180647286Y-134877398D01*
X180647286Y-134877398D02*
X180552048Y-134972637D01*
X180552048Y-134972637D02*
X180456810Y-135020256D01*
X180456810Y-135020256D02*
X180266334Y-135020256D01*
X180266334Y-135020256D02*
X180171096Y-134972637D01*
X180171096Y-134972637D02*
X180075858Y-134877398D01*
X180075858Y-134877398D02*
X180028239Y-134686922D01*
X180028239Y-134686922D02*
X180028239Y-134353589D01*
X180028239Y-134353589D02*
X180075858Y-134163113D01*
X180075858Y-134163113D02*
X180171096Y-134067875D01*
X180171096Y-134067875D02*
X180266334Y-134020256D01*
X181456810Y-134496446D02*
X181123477Y-134496446D01*
X181123477Y-135020256D02*
X181123477Y-134020256D01*
X181123477Y-134020256D02*
X181599667Y-134020256D01*
X182313953Y-134496446D02*
X181980620Y-134496446D01*
X181980620Y-135020256D02*
X181980620Y-134020256D01*
X181980620Y-134020256D02*
X182456810Y-134020256D01*
D11*
X242990601Y-148712335D02*
X243521309Y-148754709D01*
X243521309Y-148754709D02*
X244404341Y-148397941D01*
X244404341Y-148397941D02*
X244756665Y-147998799D01*
X244756665Y-147998799D02*
X244799039Y-147468091D01*
X244799039Y-147468091D02*
X244709847Y-147247333D01*
X244709847Y-147247333D02*
X244310705Y-146895009D01*
X244310705Y-146895009D02*
X243779997Y-146852635D01*
X243779997Y-146852635D02*
X243117722Y-147120211D01*
X243117722Y-147120211D02*
X242587014Y-147077837D01*
X242587014Y-147077837D02*
X242187872Y-146725513D01*
X242187872Y-146725513D02*
X242098680Y-146504755D01*
X242098680Y-146504755D02*
X242141054Y-145974047D01*
X242141054Y-145974047D02*
X242493378Y-145574904D01*
X242493378Y-145574904D02*
X243155652Y-145307328D01*
X243155652Y-145307328D02*
X243686361Y-145349702D01*
X245142475Y-144504600D02*
X246908539Y-143791063D01*
X245180405Y-142691717D02*
X246785862Y-146665362D01*
X246785862Y-146665362D02*
X247185004Y-147017686D01*
X247185004Y-147017686D02*
X247715712Y-147060060D01*
X247715712Y-147060060D02*
X248157228Y-146881676D01*
X251379407Y-145323038D02*
X251027083Y-145722180D01*
X251027083Y-145722180D02*
X250144051Y-146078948D01*
X250144051Y-146078948D02*
X249613342Y-146036574D01*
X249613342Y-146036574D02*
X249214200Y-145684250D01*
X249214200Y-145684250D02*
X248500664Y-143918185D01*
X248500664Y-143918185D02*
X248543038Y-143387477D01*
X248543038Y-143387477D02*
X248895362Y-142988335D01*
X248895362Y-142988335D02*
X249778394Y-142631567D01*
X249778394Y-142631567D02*
X250309102Y-142673941D01*
X250309102Y-142673941D02*
X250708245Y-143026265D01*
X250708245Y-143026265D02*
X250886629Y-143467781D01*
X250886629Y-143467781D02*
X248857432Y-144801218D01*
X253676179Y-144651875D02*
X252427491Y-141561262D01*
X252784259Y-142444295D02*
X252826633Y-141913586D01*
X252826633Y-141913586D02*
X252958199Y-141603636D01*
X252958199Y-141603636D02*
X253310523Y-141204494D01*
X253310523Y-141204494D02*
X253752039Y-141026110D01*
X255297345Y-140401766D02*
X256546034Y-143492379D01*
X255475730Y-140843282D02*
X255607296Y-140533332D01*
X255607296Y-140533332D02*
X255959620Y-140134190D01*
X255959620Y-140134190D02*
X256621894Y-139866614D01*
X256621894Y-139866614D02*
X257152602Y-139908988D01*
X257152602Y-139908988D02*
X257551744Y-140261312D01*
X257551744Y-140261312D02*
X258532857Y-142689650D01*
X262727260Y-140995001D02*
X261746148Y-138566663D01*
X261746148Y-138566663D02*
X261347006Y-138214338D01*
X261347006Y-138214338D02*
X260816297Y-138171965D01*
X260816297Y-138171965D02*
X259933265Y-138528733D01*
X259933265Y-138528733D02*
X259580941Y-138927875D01*
X262638068Y-140774243D02*
X262285744Y-141173385D01*
X262285744Y-141173385D02*
X261181954Y-141619346D01*
X261181954Y-141619346D02*
X260651246Y-141576972D01*
X260651246Y-141576972D02*
X260252103Y-141224647D01*
X260252103Y-141224647D02*
X260073719Y-140783131D01*
X260073719Y-140783131D02*
X260116093Y-140252423D01*
X260116093Y-140252423D02*
X260468417Y-139853281D01*
X260468417Y-139853281D02*
X261572208Y-139407321D01*
X261572208Y-139407321D02*
X261924532Y-139008179D01*
D12*
X231240776Y-128290160D02*
X231097919Y-128218731D01*
X231097919Y-128218731D02*
X230883633Y-128218731D01*
X230883633Y-128218731D02*
X230669347Y-128290160D01*
X230669347Y-128290160D02*
X230526490Y-128433017D01*
X230526490Y-128433017D02*
X230455061Y-128575874D01*
X230455061Y-128575874D02*
X230383633Y-128861588D01*
X230383633Y-128861588D02*
X230383633Y-129075874D01*
X230383633Y-129075874D02*
X230455061Y-129361588D01*
X230455061Y-129361588D02*
X230526490Y-129504445D01*
X230526490Y-129504445D02*
X230669347Y-129647303D01*
X230669347Y-129647303D02*
X230883633Y-129718731D01*
X230883633Y-129718731D02*
X231026490Y-129718731D01*
X231026490Y-129718731D02*
X231240776Y-129647303D01*
X231240776Y-129647303D02*
X231312204Y-129575874D01*
X231312204Y-129575874D02*
X231312204Y-129075874D01*
X231312204Y-129075874D02*
X231026490Y-129075874D01*
X232169347Y-128218731D02*
X232169347Y-128575874D01*
X231812204Y-128433017D02*
X232169347Y-128575874D01*
X232169347Y-128575874D02*
X232526490Y-128433017D01*
X231955061Y-128861588D02*
X232169347Y-128575874D01*
X232169347Y-128575874D02*
X232383633Y-128861588D01*
X233312204Y-128218731D02*
X233312204Y-128575874D01*
X232955061Y-128433017D02*
X233312204Y-128575874D01*
X233312204Y-128575874D02*
X233669347Y-128433017D01*
X233097918Y-128861588D02*
X233312204Y-128575874D01*
X233312204Y-128575874D02*
X233526490Y-128861588D01*
X234455061Y-128218731D02*
X234455061Y-128575874D01*
X234097918Y-128433017D02*
X234455061Y-128575874D01*
X234455061Y-128575874D02*
X234812204Y-128433017D01*
X234240775Y-128861588D02*
X234455061Y-128575874D01*
X234455061Y-128575874D02*
X234669347Y-128861588D01*
D10*
X181661789Y-142203631D02*
X181623693Y-142317917D01*
X181623693Y-142317917D02*
X181623693Y-142508393D01*
X181623693Y-142508393D02*
X181661789Y-142584584D01*
X181661789Y-142584584D02*
X181699884Y-142622679D01*
X181699884Y-142622679D02*
X181776074Y-142660774D01*
X181776074Y-142660774D02*
X181852265Y-142660774D01*
X181852265Y-142660774D02*
X181928455Y-142622679D01*
X181928455Y-142622679D02*
X181966550Y-142584584D01*
X181966550Y-142584584D02*
X182004646Y-142508393D01*
X182004646Y-142508393D02*
X182042741Y-142356012D01*
X182042741Y-142356012D02*
X182080836Y-142279822D01*
X182080836Y-142279822D02*
X182118931Y-142241727D01*
X182118931Y-142241727D02*
X182195122Y-142203631D01*
X182195122Y-142203631D02*
X182271312Y-142203631D01*
X182271312Y-142203631D02*
X182347503Y-142241727D01*
X182347503Y-142241727D02*
X182385598Y-142279822D01*
X182385598Y-142279822D02*
X182423693Y-142356012D01*
X182423693Y-142356012D02*
X182423693Y-142546489D01*
X182423693Y-142546489D02*
X182385598Y-142660774D01*
X182042741Y-143003632D02*
X182042741Y-143270298D01*
X181623693Y-143384584D02*
X181623693Y-143003632D01*
X181623693Y-143003632D02*
X182423693Y-143003632D01*
X182423693Y-143003632D02*
X182423693Y-143384584D01*
X182042741Y-143727442D02*
X182042741Y-143994108D01*
X181623693Y-144108394D02*
X181623693Y-143727442D01*
X181623693Y-143727442D02*
X182423693Y-143727442D01*
X182423693Y-143727442D02*
X182423693Y-144108394D01*
X182042741Y-144451252D02*
X182042741Y-144717918D01*
X181623693Y-144832204D02*
X181623693Y-144451252D01*
X181623693Y-144451252D02*
X182423693Y-144451252D01*
X182423693Y-144451252D02*
X182423693Y-144832204D01*
X181623693Y-145175062D02*
X182423693Y-145175062D01*
X182423693Y-145175062D02*
X182423693Y-145365538D01*
X182423693Y-145365538D02*
X182385598Y-145479824D01*
X182385598Y-145479824D02*
X182309408Y-145556014D01*
X182309408Y-145556014D02*
X182233217Y-145594109D01*
X182233217Y-145594109D02*
X182080836Y-145632205D01*
X182080836Y-145632205D02*
X181966550Y-145632205D01*
X181966550Y-145632205D02*
X181814169Y-145594109D01*
X181814169Y-145594109D02*
X181737979Y-145556014D01*
X181737979Y-145556014D02*
X181661789Y-145479824D01*
X181661789Y-145479824D02*
X181623693Y-145365538D01*
X181623693Y-145365538D02*
X181623693Y-145175062D01*
X182423693Y-146508395D02*
X181623693Y-147041729D01*
X182423693Y-147041729D02*
X181623693Y-146508395D01*
X181623693Y-147346491D02*
X182423693Y-147346491D01*
X181852265Y-147689347D02*
X181852265Y-148070300D01*
X181623693Y-147613157D02*
X182423693Y-147879824D01*
X182423693Y-147879824D02*
X181623693Y-148146490D01*
X182423693Y-148565538D02*
X182423693Y-148717919D01*
X182423693Y-148717919D02*
X182385598Y-148794109D01*
X182385598Y-148794109D02*
X182309408Y-148870300D01*
X182309408Y-148870300D02*
X182157027Y-148908395D01*
X182157027Y-148908395D02*
X181890360Y-148908395D01*
X181890360Y-148908395D02*
X181737979Y-148870300D01*
X181737979Y-148870300D02*
X181661789Y-148794109D01*
X181661789Y-148794109D02*
X181623693Y-148717919D01*
X181623693Y-148717919D02*
X181623693Y-148565538D01*
X181623693Y-148565538D02*
X181661789Y-148489347D01*
X181661789Y-148489347D02*
X181737979Y-148413157D01*
X181737979Y-148413157D02*
X181890360Y-148375061D01*
X181890360Y-148375061D02*
X182157027Y-148375061D01*
X182157027Y-148375061D02*
X182309408Y-148413157D01*
X182309408Y-148413157D02*
X182385598Y-148489347D01*
X182385598Y-148489347D02*
X182423693Y-148565538D01*
X182042741Y-150127442D02*
X182004646Y-150241728D01*
X182004646Y-150241728D02*
X181966550Y-150279823D01*
X181966550Y-150279823D02*
X181890360Y-150317919D01*
X181890360Y-150317919D02*
X181776074Y-150317919D01*
X181776074Y-150317919D02*
X181699884Y-150279823D01*
X181699884Y-150279823D02*
X181661789Y-150241728D01*
X181661789Y-150241728D02*
X181623693Y-150165538D01*
X181623693Y-150165538D02*
X181623693Y-149860776D01*
X181623693Y-149860776D02*
X182423693Y-149860776D01*
X182423693Y-149860776D02*
X182423693Y-150127442D01*
X182423693Y-150127442D02*
X182385598Y-150203633D01*
X182385598Y-150203633D02*
X182347503Y-150241728D01*
X182347503Y-150241728D02*
X182271312Y-150279823D01*
X182271312Y-150279823D02*
X182195122Y-150279823D01*
X182195122Y-150279823D02*
X182118931Y-150241728D01*
X182118931Y-150241728D02*
X182080836Y-150203633D01*
X182080836Y-150203633D02*
X182042741Y-150127442D01*
X182042741Y-150127442D02*
X182042741Y-149860776D01*
X181623693Y-151041728D02*
X181623693Y-150660776D01*
X181623693Y-150660776D02*
X182423693Y-150660776D01*
X182042741Y-151308395D02*
X182042741Y-151575061D01*
X181623693Y-151689347D02*
X181623693Y-151308395D01*
X181623693Y-151308395D02*
X182423693Y-151308395D01*
X182423693Y-151308395D02*
X182423693Y-151689347D01*
X180373834Y-142203631D02*
X180335738Y-142317917D01*
X180335738Y-142317917D02*
X180335738Y-142508393D01*
X180335738Y-142508393D02*
X180373834Y-142584584D01*
X180373834Y-142584584D02*
X180411929Y-142622679D01*
X180411929Y-142622679D02*
X180488119Y-142660774D01*
X180488119Y-142660774D02*
X180564310Y-142660774D01*
X180564310Y-142660774D02*
X180640500Y-142622679D01*
X180640500Y-142622679D02*
X180678595Y-142584584D01*
X180678595Y-142584584D02*
X180716691Y-142508393D01*
X180716691Y-142508393D02*
X180754786Y-142356012D01*
X180754786Y-142356012D02*
X180792881Y-142279822D01*
X180792881Y-142279822D02*
X180830976Y-142241727D01*
X180830976Y-142241727D02*
X180907167Y-142203631D01*
X180907167Y-142203631D02*
X180983357Y-142203631D01*
X180983357Y-142203631D02*
X181059548Y-142241727D01*
X181059548Y-142241727D02*
X181097643Y-142279822D01*
X181097643Y-142279822D02*
X181135738Y-142356012D01*
X181135738Y-142356012D02*
X181135738Y-142546489D01*
X181135738Y-142546489D02*
X181097643Y-142660774D01*
X180754786Y-143003632D02*
X180754786Y-143270298D01*
X180335738Y-143384584D02*
X180335738Y-143003632D01*
X180335738Y-143003632D02*
X181135738Y-143003632D01*
X181135738Y-143003632D02*
X181135738Y-143384584D01*
X180754786Y-143727442D02*
X180754786Y-143994108D01*
X180335738Y-144108394D02*
X180335738Y-143727442D01*
X180335738Y-143727442D02*
X181135738Y-143727442D01*
X181135738Y-143727442D02*
X181135738Y-144108394D01*
X180754786Y-144451252D02*
X180754786Y-144717918D01*
X180335738Y-144832204D02*
X180335738Y-144451252D01*
X180335738Y-144451252D02*
X181135738Y-144451252D01*
X181135738Y-144451252D02*
X181135738Y-144832204D01*
X180335738Y-145175062D02*
X181135738Y-145175062D01*
X181135738Y-145175062D02*
X181135738Y-145365538D01*
X181135738Y-145365538D02*
X181097643Y-145479824D01*
X181097643Y-145479824D02*
X181021453Y-145556014D01*
X181021453Y-145556014D02*
X180945262Y-145594109D01*
X180945262Y-145594109D02*
X180792881Y-145632205D01*
X180792881Y-145632205D02*
X180678595Y-145632205D01*
X180678595Y-145632205D02*
X180526214Y-145594109D01*
X180526214Y-145594109D02*
X180450024Y-145556014D01*
X180450024Y-145556014D02*
X180373834Y-145479824D01*
X180373834Y-145479824D02*
X180335738Y-145365538D01*
X180335738Y-145365538D02*
X180335738Y-145175062D01*
X181135738Y-146508395D02*
X180335738Y-147041729D01*
X181135738Y-147041729D02*
X180335738Y-146508395D01*
X180335738Y-147346491D02*
X181135738Y-147346491D01*
X180564310Y-147689347D02*
X180564310Y-148070300D01*
X180335738Y-147613157D02*
X181135738Y-147879824D01*
X181135738Y-147879824D02*
X180335738Y-148146490D01*
X181135738Y-148565538D02*
X181135738Y-148717919D01*
X181135738Y-148717919D02*
X181097643Y-148794109D01*
X181097643Y-148794109D02*
X181021453Y-148870300D01*
X181021453Y-148870300D02*
X180869072Y-148908395D01*
X180869072Y-148908395D02*
X180602405Y-148908395D01*
X180602405Y-148908395D02*
X180450024Y-148870300D01*
X180450024Y-148870300D02*
X180373834Y-148794109D01*
X180373834Y-148794109D02*
X180335738Y-148717919D01*
X180335738Y-148717919D02*
X180335738Y-148565538D01*
X180335738Y-148565538D02*
X180373834Y-148489347D01*
X180373834Y-148489347D02*
X180450024Y-148413157D01*
X180450024Y-148413157D02*
X180602405Y-148375061D01*
X180602405Y-148375061D02*
X180869072Y-148375061D01*
X180869072Y-148375061D02*
X181021453Y-148413157D01*
X181021453Y-148413157D02*
X181097643Y-148489347D01*
X181097643Y-148489347D02*
X181135738Y-148565538D01*
X180335738Y-150317919D02*
X180716691Y-150051252D01*
X180335738Y-149860776D02*
X181135738Y-149860776D01*
X181135738Y-149860776D02*
X181135738Y-150165538D01*
X181135738Y-150165538D02*
X181097643Y-150241728D01*
X181097643Y-150241728D02*
X181059548Y-150279823D01*
X181059548Y-150279823D02*
X180983357Y-150317919D01*
X180983357Y-150317919D02*
X180869072Y-150317919D01*
X180869072Y-150317919D02*
X180792881Y-150279823D01*
X180792881Y-150279823D02*
X180754786Y-150241728D01*
X180754786Y-150241728D02*
X180716691Y-150165538D01*
X180716691Y-150165538D02*
X180716691Y-149860776D01*
X180335738Y-150660776D02*
X181135738Y-150660776D01*
X181135738Y-150660776D02*
X181135738Y-150965538D01*
X181135738Y-150965538D02*
X181097643Y-151041728D01*
X181097643Y-151041728D02*
X181059548Y-151079823D01*
X181059548Y-151079823D02*
X180983357Y-151117919D01*
X180983357Y-151117919D02*
X180869072Y-151117919D01*
X180869072Y-151117919D02*
X180792881Y-151079823D01*
X180792881Y-151079823D02*
X180754786Y-151041728D01*
X180754786Y-151041728D02*
X180716691Y-150965538D01*
X180716691Y-150965538D02*
X180716691Y-150660776D01*
X181059548Y-151422680D02*
X181097643Y-151460776D01*
X181097643Y-151460776D02*
X181135738Y-151536966D01*
X181135738Y-151536966D02*
X181135738Y-151727442D01*
X181135738Y-151727442D02*
X181097643Y-151803633D01*
X181097643Y-151803633D02*
X181059548Y-151841728D01*
X181059548Y-151841728D02*
X180983357Y-151879823D01*
X180983357Y-151879823D02*
X180907167Y-151879823D01*
X180907167Y-151879823D02*
X180792881Y-151841728D01*
X180792881Y-151841728D02*
X180335738Y-151384585D01*
X180335738Y-151384585D02*
X180335738Y-151879823D01*
X181135738Y-152375062D02*
X181135738Y-152451252D01*
X181135738Y-152451252D02*
X181097643Y-152527443D01*
X181097643Y-152527443D02*
X181059548Y-152565538D01*
X181059548Y-152565538D02*
X180983357Y-152603633D01*
X180983357Y-152603633D02*
X180830976Y-152641728D01*
X180830976Y-152641728D02*
X180640500Y-152641728D01*
X180640500Y-152641728D02*
X180488119Y-152603633D01*
X180488119Y-152603633D02*
X180411929Y-152565538D01*
X180411929Y-152565538D02*
X180373834Y-152527443D01*
X180373834Y-152527443D02*
X180335738Y-152451252D01*
X180335738Y-152451252D02*
X180335738Y-152375062D01*
X180335738Y-152375062D02*
X180373834Y-152298871D01*
X180373834Y-152298871D02*
X180411929Y-152260776D01*
X180411929Y-152260776D02*
X180488119Y-152222681D01*
X180488119Y-152222681D02*
X180640500Y-152184585D01*
X180640500Y-152184585D02*
X180830976Y-152184585D01*
X180830976Y-152184585D02*
X180983357Y-152222681D01*
X180983357Y-152222681D02*
X181059548Y-152260776D01*
X181059548Y-152260776D02*
X181097643Y-152298871D01*
X181097643Y-152298871D02*
X181135738Y-152375062D01*
X180869072Y-153327443D02*
X180335738Y-153327443D01*
X181173834Y-153136967D02*
X180602405Y-152946490D01*
X180602405Y-152946490D02*
X180602405Y-153441729D01*
X181135738Y-153898872D02*
X181135738Y-153975062D01*
X181135738Y-153975062D02*
X181097643Y-154051253D01*
X181097643Y-154051253D02*
X181059548Y-154089348D01*
X181059548Y-154089348D02*
X180983357Y-154127443D01*
X180983357Y-154127443D02*
X180830976Y-154165538D01*
X180830976Y-154165538D02*
X180640500Y-154165538D01*
X180640500Y-154165538D02*
X180488119Y-154127443D01*
X180488119Y-154127443D02*
X180411929Y-154089348D01*
X180411929Y-154089348D02*
X180373834Y-154051253D01*
X180373834Y-154051253D02*
X180335738Y-153975062D01*
X180335738Y-153975062D02*
X180335738Y-153898872D01*
X180335738Y-153898872D02*
X180373834Y-153822681D01*
X180373834Y-153822681D02*
X180411929Y-153784586D01*
X180411929Y-153784586D02*
X180488119Y-153746491D01*
X180488119Y-153746491D02*
X180640500Y-153708395D01*
X180640500Y-153708395D02*
X180830976Y-153708395D01*
X180830976Y-153708395D02*
X180983357Y-153746491D01*
X180983357Y-153746491D02*
X181059548Y-153784586D01*
X181059548Y-153784586D02*
X181097643Y-153822681D01*
X181097643Y-153822681D02*
X181135738Y-153898872D01*
X179466831Y-142508393D02*
X179466831Y-142241727D01*
X179047783Y-142241727D02*
X179847783Y-142241727D01*
X179847783Y-142241727D02*
X179847783Y-142622679D01*
X179276355Y-142889345D02*
X179276355Y-143270298D01*
X179047783Y-142813155D02*
X179847783Y-143079822D01*
X179847783Y-143079822D02*
X179047783Y-143346488D01*
X179123974Y-144070298D02*
X179085879Y-144032202D01*
X179085879Y-144032202D02*
X179047783Y-143917917D01*
X179047783Y-143917917D02*
X179047783Y-143841726D01*
X179047783Y-143841726D02*
X179085879Y-143727440D01*
X179085879Y-143727440D02*
X179162069Y-143651250D01*
X179162069Y-143651250D02*
X179238259Y-143613155D01*
X179238259Y-143613155D02*
X179390640Y-143575059D01*
X179390640Y-143575059D02*
X179504926Y-143575059D01*
X179504926Y-143575059D02*
X179657307Y-143613155D01*
X179657307Y-143613155D02*
X179733498Y-143651250D01*
X179733498Y-143651250D02*
X179809688Y-143727440D01*
X179809688Y-143727440D02*
X179847783Y-143841726D01*
X179847783Y-143841726D02*
X179847783Y-143917917D01*
X179847783Y-143917917D02*
X179809688Y-144032202D01*
X179809688Y-144032202D02*
X179771593Y-144070298D01*
X179466831Y-144413155D02*
X179466831Y-144679821D01*
X179047783Y-144794107D02*
X179047783Y-144413155D01*
X179047783Y-144413155D02*
X179847783Y-144413155D01*
X179847783Y-144413155D02*
X179847783Y-144794107D01*
X179847783Y-145746489D02*
X179200164Y-145746489D01*
X179200164Y-145746489D02*
X179123974Y-145784584D01*
X179123974Y-145784584D02*
X179085879Y-145822679D01*
X179085879Y-145822679D02*
X179047783Y-145898870D01*
X179047783Y-145898870D02*
X179047783Y-146051251D01*
X179047783Y-146051251D02*
X179085879Y-146127441D01*
X179085879Y-146127441D02*
X179123974Y-146165536D01*
X179123974Y-146165536D02*
X179200164Y-146203632D01*
X179200164Y-146203632D02*
X179847783Y-146203632D01*
X179047783Y-146584584D02*
X179847783Y-146584584D01*
X179847783Y-146584584D02*
X179847783Y-146889346D01*
X179847783Y-146889346D02*
X179809688Y-146965536D01*
X179809688Y-146965536D02*
X179771593Y-147003631D01*
X179771593Y-147003631D02*
X179695402Y-147041727D01*
X179695402Y-147041727D02*
X179581117Y-147041727D01*
X179581117Y-147041727D02*
X179504926Y-147003631D01*
X179504926Y-147003631D02*
X179466831Y-146965536D01*
X179466831Y-146965536D02*
X179428736Y-146889346D01*
X179428736Y-146889346D02*
X179428736Y-146584584D01*
%TO.C,S30*%
X194870085Y-176984151D02*
X195668721Y-176382336D01*
X195471900Y-177782786D02*
X194870085Y-176984151D01*
X203295496Y-188165048D02*
X202693681Y-187366412D01*
X203295496Y-188165048D02*
X204094131Y-187563233D01*
X195668721Y-176382336D02*
X194870085Y-176984151D01*
X213677757Y-180341452D02*
X214476393Y-179739637D01*
X206050982Y-168558740D02*
X205252347Y-169160555D01*
X206050982Y-168558740D02*
X206652797Y-169357376D01*
X213874578Y-178941002D02*
X214476393Y-179739637D01*
%TO.C,S29*%
X211009345Y-165276876D02*
X211875371Y-164776876D01*
X211509345Y-166142902D02*
X211009345Y-165276876D01*
X218009345Y-177401232D02*
X217509345Y-176535206D01*
X218009345Y-177401232D02*
X218875371Y-176901232D01*
X211875371Y-164776876D02*
X211009345Y-165276876D01*
X229267675Y-170901232D02*
X230133701Y-170401232D01*
X223133701Y-158276876D02*
X222267675Y-158776876D01*
X223133701Y-158276876D02*
X223633701Y-159142902D01*
X229633701Y-169535206D02*
X230133701Y-170401232D01*
%TO.C,S16*%
X253492755Y-125308640D02*
X254454016Y-125033002D01*
X253768392Y-126269901D02*
X253492755Y-125308640D01*
X257351678Y-138766303D02*
X257076040Y-137805042D01*
X257351678Y-138766303D02*
X258312939Y-138490666D01*
X254454016Y-125033002D02*
X253492755Y-125308640D01*
X269848080Y-135183018D02*
X270809341Y-134907380D01*
X266950418Y-121449717D02*
X265989157Y-121725354D01*
X266950418Y-121449717D02*
X267226056Y-122410978D01*
X270533704Y-133946119D02*
X270809341Y-134907380D01*
%TO.C,S23*%
X212421902Y-123466195D02*
X213342407Y-123075464D01*
X212812633Y-124386700D02*
X212421902Y-123466195D01*
X217892138Y-136353263D02*
X217501407Y-135432758D01*
X217892138Y-136353263D02*
X218812643Y-135962532D01*
X213342407Y-123075464D02*
X212421902Y-123466195D01*
X229858701Y-131273758D02*
X230779206Y-130883027D01*
X225308970Y-117995959D02*
X224388465Y-118386690D01*
X225308970Y-117995959D02*
X225699701Y-118916464D01*
X230388475Y-129962522D02*
X230779206Y-130883027D01*
%TO.C,S24*%
X205779474Y-107817612D02*
X206699979Y-107426881D01*
X206170205Y-108738117D02*
X205779474Y-107817612D01*
X211249710Y-120704680D02*
X210858979Y-119784175D01*
X211249710Y-120704680D02*
X212170215Y-120313949D01*
X206699979Y-107426881D02*
X205779474Y-107817612D01*
X223216273Y-115625175D02*
X224136778Y-115234444D01*
X218666542Y-102347376D02*
X217746037Y-102738107D01*
X218666542Y-102347376D02*
X219057273Y-103267881D01*
X223746047Y-114313939D02*
X224136778Y-115234444D01*
%TO.C,S14*%
X274338260Y-129102707D02*
X275330806Y-128980838D01*
X274460129Y-130095253D02*
X274338260Y-129102707D01*
X276044430Y-142998353D02*
X275922561Y-142005807D01*
X276044430Y-142998353D02*
X277036976Y-142876484D01*
X275330806Y-128980838D02*
X274338260Y-129102707D01*
X288947530Y-141414052D02*
X289940076Y-141292183D01*
X288233906Y-127396537D02*
X287241360Y-127518406D01*
X288233906Y-127396537D02*
X288355775Y-128389083D01*
X289818207Y-140299637D02*
X289940076Y-141292183D01*
%TO.C,S25*%
X199564761Y-139244152D02*
X200485266Y-138853421D01*
X199955492Y-140164657D02*
X199564761Y-139244152D01*
X205034997Y-152131220D02*
X204644266Y-151210715D01*
X205034997Y-152131220D02*
X205955502Y-151740489D01*
X200485266Y-138853421D02*
X199564761Y-139244152D01*
X217001560Y-147051715D02*
X217922065Y-146660984D01*
X212451829Y-133773916D02*
X211531324Y-134164647D01*
X212451829Y-133773916D02*
X212842560Y-134694421D01*
X217531334Y-145740479D02*
X217922065Y-146660984D01*
%TO.C,S15*%
X272266482Y-112229424D02*
X273259028Y-112107555D01*
X272388351Y-113221970D02*
X272266482Y-112229424D01*
X273972652Y-126125070D02*
X273850783Y-125132524D01*
X273972652Y-126125070D02*
X274965198Y-126003201D01*
X273259028Y-112107555D02*
X272266482Y-112229424D01*
X286875752Y-124540769D02*
X287868298Y-124418900D01*
X286162128Y-110523254D02*
X285169582Y-110645123D01*
X286162128Y-110523254D02*
X286283997Y-111515800D01*
X287746429Y-123426354D02*
X287868298Y-124418900D01*
%TO.C,S21*%
X220397362Y-93648110D02*
X221324546Y-93273504D01*
X220771968Y-94575294D02*
X220397362Y-93648110D01*
X225641854Y-106628684D02*
X225267248Y-105701500D01*
X225641854Y-106628684D02*
X226569038Y-106254078D01*
X221324546Y-93273504D02*
X220397362Y-93648110D01*
X237695244Y-101758798D02*
X238622428Y-101384192D01*
X233377936Y-88403618D02*
X232450752Y-88778224D01*
X233377936Y-88403618D02*
X233752542Y-89330802D01*
X238247822Y-100457008D02*
X238622428Y-101384192D01*
%TO.C,S18*%
X244121079Y-92625741D02*
X245082340Y-92350103D01*
X244396716Y-93587002D02*
X244121079Y-92625741D01*
X247980002Y-106083404D02*
X247704364Y-105122143D01*
X247980002Y-106083404D02*
X248941263Y-105807767D01*
X245082340Y-92350103D02*
X244121079Y-92625741D01*
X260476404Y-102500119D02*
X261437665Y-102224481D01*
X257578742Y-88766818D02*
X256617481Y-89042455D01*
X257578742Y-88766818D02*
X257854380Y-89728079D01*
X261162028Y-101263220D02*
X261437665Y-102224481D01*
%TO.C,S20*%
X226765674Y-109410235D02*
X227692858Y-109035629D01*
X227140280Y-110337419D02*
X226765674Y-109410235D01*
X232010166Y-122390809D02*
X231635560Y-121463625D01*
X232010166Y-122390809D02*
X232937350Y-122016203D01*
X227692858Y-109035629D02*
X226765674Y-109410235D01*
X244063556Y-117520923D02*
X244990740Y-117146317D01*
X239746248Y-104165743D02*
X238819064Y-104540349D01*
X239746248Y-104165743D02*
X240120854Y-105092927D01*
X244616134Y-116219133D02*
X244990740Y-117146317D01*
%TO.C,S17*%
X248806915Y-108967189D02*
X249768176Y-108691551D01*
X249082552Y-109928450D02*
X248806915Y-108967189D01*
X252665838Y-122424852D02*
X252390200Y-121463591D01*
X252665838Y-122424852D02*
X253627099Y-122149215D01*
X249768176Y-108691551D02*
X248806915Y-108967189D01*
X265162240Y-118841567D02*
X266123501Y-118565929D01*
X262264578Y-105108266D02*
X261303317Y-105383903D01*
X262264578Y-105108266D02*
X262540216Y-106069527D01*
X265847864Y-117604668D02*
X266123501Y-118565929D01*
%TO.C,S26*%
X192922333Y-123595570D02*
X193842838Y-123204839D01*
X193313064Y-124516075D02*
X192922333Y-123595570D01*
X198392569Y-136482638D02*
X198001838Y-135562133D01*
X198392569Y-136482638D02*
X199313074Y-136091907D01*
X193842838Y-123204839D02*
X192922333Y-123595570D01*
X210359132Y-131403133D02*
X211279637Y-131012402D01*
X205809401Y-118125334D02*
X204888896Y-118516065D01*
X205809401Y-118125334D02*
X206200132Y-119045839D01*
X210888906Y-130091897D02*
X211279637Y-131012402D01*
%TO.C,S19*%
X233133986Y-125172360D02*
X234061170Y-124797754D01*
X233508592Y-126099544D02*
X233133986Y-125172360D01*
X238378478Y-138152934D02*
X238003872Y-137225750D01*
X238378478Y-138152934D02*
X239305662Y-137778328D01*
X234061170Y-124797754D02*
X233133986Y-125172360D01*
X250431868Y-133283048D02*
X251359052Y-132908442D01*
X246114560Y-119927868D02*
X245187376Y-120302474D01*
X246114560Y-119927868D02*
X246489166Y-120855052D01*
X250984446Y-131981258D02*
X251359052Y-132908442D01*
%TO.C,S22*%
X219064331Y-139114776D02*
X219984836Y-138724045D01*
X219455062Y-140035281D02*
X219064331Y-139114776D01*
X224534567Y-152001844D02*
X224143836Y-151081339D01*
X224534567Y-152001844D02*
X225455072Y-151611113D01*
X219984836Y-138724045D02*
X219064331Y-139114776D01*
X236501130Y-146922339D02*
X237421635Y-146531608D01*
X231951399Y-133644540D02*
X231030894Y-134035271D01*
X231951399Y-133644540D02*
X232342130Y-134565045D01*
X237030904Y-145611103D02*
X237421635Y-146531608D01*
%TO.C,S28*%
X149345087Y-168558741D02*
X150143722Y-169160556D01*
X148743272Y-169357377D02*
X149345087Y-168558741D01*
X140919676Y-179739638D02*
X141521491Y-178941003D01*
X140919676Y-179739638D02*
X141718312Y-180341453D01*
X150143722Y-169160556D02*
X149345087Y-168558741D01*
X151301938Y-187563234D02*
X152100573Y-188165049D01*
X160525984Y-176984152D02*
X159727348Y-176382337D01*
X160525984Y-176984152D02*
X159924169Y-177782787D01*
X152702388Y-187366413D02*
X152100573Y-188165049D01*
%TO.C,S27*%
X132262369Y-158276876D02*
X133128395Y-158776876D01*
X131762369Y-159142902D02*
X132262369Y-158276876D01*
X125262369Y-170401232D02*
X125762369Y-169535206D01*
X125262369Y-170401232D02*
X126128395Y-170901232D01*
X133128395Y-158776876D02*
X132262369Y-158276876D01*
X136520699Y-176901232D02*
X137386725Y-177401232D01*
X144386725Y-165276876D02*
X143520699Y-164776876D01*
X144386725Y-165276876D02*
X143886725Y-166142902D01*
X137886725Y-176535206D02*
X137386725Y-177401232D01*
%TO.C,S3*%
X88445654Y-121449713D02*
X89406915Y-121725350D01*
X88170016Y-122410974D02*
X88445654Y-121449713D01*
X84586731Y-134907376D02*
X84862368Y-133946115D01*
X84586731Y-134907376D02*
X85547992Y-135183014D01*
X89406915Y-121725350D02*
X88445654Y-121449713D01*
X97083133Y-138490662D02*
X98044394Y-138766299D01*
X101903317Y-125308636D02*
X100942056Y-125032998D01*
X101903317Y-125308636D02*
X101627680Y-126269897D01*
X98320032Y-137805038D02*
X98044394Y-138766299D01*
%TO.C,S7*%
X115649821Y-104165749D02*
X116577005Y-104540355D01*
X115275215Y-105092933D02*
X115649821Y-104165749D01*
X110405329Y-117146323D02*
X110779935Y-116219139D01*
X110405329Y-117146323D02*
X111332513Y-117520929D01*
X116577005Y-104540355D02*
X115649821Y-104165749D01*
X122458719Y-122016209D02*
X123385903Y-122390815D01*
X128630395Y-109410241D02*
X127703211Y-109035635D01*
X128630395Y-109410241D02*
X128255789Y-110337425D01*
X123760509Y-121463631D02*
X123385903Y-122390815D01*
%TO.C,S10*%
X130087101Y-117995959D02*
X131007606Y-118386690D01*
X129696370Y-118916464D02*
X130087101Y-117995959D01*
X124616865Y-130883027D02*
X125007596Y-129962522D01*
X124616865Y-130883027D02*
X125537370Y-131273758D01*
X131007606Y-118386690D02*
X130087101Y-117995959D01*
X136583428Y-135962532D02*
X137503933Y-136353263D01*
X142974169Y-123466195D02*
X142053664Y-123075464D01*
X142974169Y-123466195D02*
X142583438Y-124386700D01*
X137894664Y-135432758D02*
X137503933Y-136353263D01*
%TO.C,S2*%
X69233944Y-110523255D02*
X70226490Y-110645124D01*
X69112075Y-111515801D02*
X69233944Y-110523255D01*
X67527774Y-124418901D02*
X67649643Y-123426355D01*
X67527774Y-124418901D02*
X68520320Y-124540770D01*
X70226490Y-110645124D02*
X69233944Y-110523255D01*
X80430874Y-126003202D02*
X81423420Y-126125071D01*
X83129590Y-112229425D02*
X82137044Y-112107556D01*
X83129590Y-112229425D02*
X83007721Y-113221971D01*
X81545289Y-125132525D02*
X81423420Y-126125071D01*
%TO.C,S4*%
X93131490Y-105108268D02*
X94092751Y-105383905D01*
X92855852Y-106069529D02*
X93131490Y-105108268D01*
X89272567Y-118565931D02*
X89548204Y-117604670D01*
X89272567Y-118565931D02*
X90233828Y-118841569D01*
X94092751Y-105383905D02*
X93131490Y-105108268D01*
X101768969Y-122149217D02*
X102730230Y-122424854D01*
X106589153Y-108967191D02*
X105627892Y-108691553D01*
X106589153Y-108967191D02*
X106313516Y-109928452D01*
X103005868Y-121463593D02*
X102730230Y-122424854D01*
%TO.C,S12*%
X142944240Y-133773919D02*
X143864745Y-134164650D01*
X142553509Y-134694424D02*
X142944240Y-133773919D01*
X137474004Y-146660987D02*
X137864735Y-145740482D01*
X137474004Y-146660987D02*
X138394509Y-147051718D01*
X143864745Y-134164650D02*
X142944240Y-133773919D01*
X149440567Y-151740492D02*
X150361072Y-152131223D01*
X155831308Y-139244155D02*
X154910803Y-138853424D01*
X155831308Y-139244155D02*
X155440577Y-140164660D01*
X150751803Y-151210718D02*
X150361072Y-152131223D01*
%TO.C,S9*%
X123444670Y-133644541D02*
X124365175Y-134035272D01*
X123053939Y-134565046D02*
X123444670Y-133644541D01*
X117974434Y-146531609D02*
X118365165Y-145611104D01*
X117974434Y-146531609D02*
X118894939Y-146922340D01*
X124365175Y-134035272D02*
X123444670Y-133644541D01*
X129940997Y-151611114D02*
X130861502Y-152001845D01*
X136331738Y-139114777D02*
X135411233Y-138724046D01*
X136331738Y-139114777D02*
X135941007Y-140035282D01*
X131252233Y-151081340D02*
X130861502Y-152001845D01*
%TO.C,S8*%
X122018136Y-88403624D02*
X122945320Y-88778230D01*
X121643530Y-89330808D02*
X122018136Y-88403624D01*
X116773644Y-101384198D02*
X117148250Y-100457014D01*
X116773644Y-101384198D02*
X117700828Y-101758804D01*
X122945320Y-88778230D02*
X122018136Y-88403624D01*
X128827034Y-106254084D02*
X129754218Y-106628690D01*
X134998710Y-93648116D02*
X134071526Y-93273510D01*
X134998710Y-93648116D02*
X134624104Y-94575300D01*
X130128824Y-105701506D02*
X129754218Y-106628690D01*
%TO.C,S6*%
X109281510Y-119927869D02*
X110208694Y-120302475D01*
X108906904Y-120855053D02*
X109281510Y-119927869D01*
X104037018Y-132908443D02*
X104411624Y-131981259D01*
X104037018Y-132908443D02*
X104964202Y-133283049D01*
X110208694Y-120302475D02*
X109281510Y-119927869D01*
X116090408Y-137778329D02*
X117017592Y-138152935D01*
X122262084Y-125172361D02*
X121334900Y-124797755D01*
X122262084Y-125172361D02*
X121887478Y-126099545D01*
X117392198Y-137225751D02*
X117017592Y-138152935D01*
%TO.C,S13*%
X149586667Y-118125332D02*
X150507172Y-118516063D01*
X149195936Y-119045837D02*
X149586667Y-118125332D01*
X144116431Y-131012400D02*
X144507162Y-130091895D01*
X144116431Y-131012400D02*
X145036936Y-131403131D01*
X150507172Y-118516063D02*
X149586667Y-118125332D01*
X156082994Y-136091905D02*
X157003499Y-136482636D01*
X162473735Y-123595568D02*
X161553230Y-123204837D01*
X162473735Y-123595568D02*
X162083004Y-124516073D01*
X157394230Y-135562131D02*
X157003499Y-136482636D01*
%TO.C,S11*%
X136729526Y-102347377D02*
X137650031Y-102738108D01*
X136338795Y-103267882D02*
X136729526Y-102347377D01*
X131259290Y-115234445D02*
X131650021Y-114313940D01*
X131259290Y-115234445D02*
X132179795Y-115625176D01*
X137650031Y-102738108D02*
X136729526Y-102347377D01*
X143225853Y-120313950D02*
X144146358Y-120704681D01*
X149616594Y-107817613D02*
X148696089Y-107426882D01*
X149616594Y-107817613D02*
X149225863Y-108738118D01*
X144537089Y-119784176D02*
X144146358Y-120704681D01*
%TO.C,S1*%
X67162161Y-127396536D02*
X68154707Y-127518405D01*
X67040292Y-128389082D02*
X67162161Y-127396536D01*
X65455991Y-141292182D02*
X65577860Y-140299636D01*
X65455991Y-141292182D02*
X66448537Y-141414051D01*
X68154707Y-127518405D02*
X67162161Y-127396536D01*
X78359091Y-142876483D02*
X79351637Y-142998352D01*
X81057807Y-129102706D02*
X80065261Y-128980837D01*
X81057807Y-129102706D02*
X80935938Y-130095252D01*
X79473506Y-142005806D02*
X79351637Y-142998352D01*
%TO.C,S5*%
X97817325Y-88766819D02*
X98778586Y-89042456D01*
X97541687Y-89728080D02*
X97817325Y-88766819D01*
X93958402Y-102224482D02*
X94234039Y-101263221D01*
X93958402Y-102224482D02*
X94919663Y-102500120D01*
X98778586Y-89042456D02*
X97817325Y-88766819D01*
X106454804Y-105807768D02*
X107416065Y-106083405D01*
X111274988Y-92625742D02*
X110313727Y-92350104D01*
X111274988Y-92625742D02*
X110999351Y-93587003D01*
X107691703Y-105122144D02*
X107416065Y-106083405D01*
D13*
%TO.C,D13*%
X150768268Y-131337311D02*
X151136469Y-131493603D01*
X151136469Y-131493603D02*
X150921570Y-131999880D01*
X151136469Y-131493603D02*
X151351372Y-130987325D01*
X151136469Y-131493603D02*
X151845065Y-131359839D01*
X151532481Y-132096243D02*
X151136469Y-131493603D01*
X151688773Y-131728042D02*
X152149026Y-131923407D01*
X151845065Y-131359839D02*
X151532481Y-132096243D01*
D14*
%TO.C,G\u002A\u002A\u002A*%
G36*
X234799474Y-129962885D02*
G01*
X234808766Y-129982114D01*
X234804099Y-130127382D01*
X234701015Y-130255545D01*
X234531365Y-130336365D01*
X234421605Y-130349682D01*
X234211970Y-130380383D01*
X233952694Y-130477500D01*
X233626890Y-130648541D01*
X233297401Y-130849763D01*
X233036425Y-130995636D01*
X232841305Y-131061712D01*
X232723658Y-131045640D01*
X232693131Y-130971999D01*
X232753095Y-130861165D01*
X232928059Y-130709053D01*
X233210618Y-130520870D01*
X233593374Y-130301824D01*
X233802396Y-130191437D01*
X234183222Y-130013469D01*
X234479887Y-129915315D01*
X234687072Y-129898087D01*
X234799474Y-129962885D01*
G37*
G36*
X233939937Y-128730844D02*
G01*
X233989858Y-128889663D01*
X233990168Y-128892799D01*
X233995778Y-129029133D01*
X233953613Y-129087507D01*
X233828773Y-129097695D01*
X233753030Y-129095152D01*
X233458249Y-129140640D01*
X233274292Y-129239701D01*
X233082010Y-129379501D01*
X232857147Y-129550940D01*
X232625543Y-129733276D01*
X232413041Y-129905761D01*
X232245482Y-130047650D01*
X232148704Y-130138195D01*
X232137048Y-130152708D01*
X232046440Y-130209264D01*
X231916994Y-130216243D01*
X231808431Y-130178538D01*
X231776635Y-130123207D01*
X231807699Y-130034022D01*
X231907910Y-129910761D01*
X232087800Y-129743458D01*
X232357903Y-129522143D01*
X232651041Y-129295687D01*
X233064942Y-128996246D01*
X233395518Y-128791626D01*
X233648033Y-128680241D01*
X233827750Y-128660508D01*
X233939937Y-128730844D01*
G37*
G36*
X224009046Y-122809701D02*
G01*
X224165895Y-122947979D01*
X224236902Y-123135859D01*
X224235885Y-123201153D01*
X224178323Y-123352212D01*
X224077493Y-123400255D01*
X223971489Y-123339143D01*
X223922776Y-123251609D01*
X223845201Y-123127625D01*
X223765071Y-123083186D01*
X223680070Y-123107590D01*
X223496136Y-123174988D01*
X223234616Y-123276657D01*
X222916858Y-123403875D01*
X222564208Y-123547920D01*
X222198016Y-123700068D01*
X221839628Y-123851602D01*
X221510395Y-123993794D01*
X221231660Y-124117926D01*
X221224171Y-124121339D01*
X221007322Y-124215077D01*
X220875031Y-124254665D01*
X220795820Y-124246607D01*
X220756878Y-124217893D01*
X220713788Y-124123242D01*
X220776232Y-124019832D01*
X220952231Y-123898934D01*
X221137333Y-123803965D01*
X221465696Y-123652587D01*
X221836787Y-123490280D01*
X222229011Y-123325545D01*
X222620774Y-123166879D01*
X222990479Y-123022781D01*
X223316533Y-122901752D01*
X223577338Y-122812291D01*
X223751301Y-122762895D01*
X223800425Y-122755866D01*
X224009046Y-122809701D01*
G37*
G36*
X245106624Y-129243729D02*
G01*
X245182822Y-129318824D01*
X245191380Y-129377296D01*
X245173283Y-129419898D01*
X245105934Y-129456859D01*
X244966742Y-129498405D01*
X244733114Y-129554769D01*
X244586631Y-129588739D01*
X244421358Y-129642682D01*
X244157903Y-129747755D01*
X243814559Y-129895287D01*
X243409617Y-130076606D01*
X242961368Y-130283040D01*
X242488104Y-130505920D01*
X242008116Y-130736572D01*
X241539697Y-130966325D01*
X241101136Y-131186509D01*
X240710727Y-131388453D01*
X240386760Y-131563481D01*
X240221482Y-131658115D01*
X239915944Y-131832476D01*
X239583220Y-132011470D01*
X239246844Y-132183659D01*
X238930347Y-132337593D01*
X238657264Y-132461834D01*
X238451127Y-132544935D01*
X238335469Y-132575453D01*
X238335069Y-132575454D01*
X238215940Y-132533381D01*
X238192399Y-132460892D01*
X238244158Y-132376467D01*
X238403374Y-132258371D01*
X238676506Y-132102164D01*
X238830673Y-132022128D01*
X239144940Y-131859928D01*
X239464725Y-131690719D01*
X239742126Y-131540016D01*
X239861430Y-131473031D01*
X240081239Y-131352239D01*
X240388910Y-131190271D01*
X240765383Y-130996552D01*
X241191587Y-130780506D01*
X241648467Y-130551557D01*
X242116955Y-130319131D01*
X242577989Y-130092653D01*
X243012506Y-129881545D01*
X243401444Y-129695233D01*
X243725737Y-129543142D01*
X243966325Y-129434697D01*
X244076775Y-129389022D01*
X244393352Y-129288545D01*
X244687037Y-129229788D01*
X244933053Y-129214326D01*
X245106624Y-129243729D01*
G37*
G36*
X250631827Y-128084491D02*
G01*
X250873699Y-128246370D01*
X250938602Y-128297810D01*
X251135221Y-128449668D01*
X251313751Y-128562456D01*
X251498811Y-128642013D01*
X251715018Y-128694176D01*
X251986990Y-128724783D01*
X252339345Y-128739675D01*
X252796701Y-128744686D01*
X252823286Y-128744784D01*
X253231856Y-128746989D01*
X253537012Y-128752738D01*
X253766269Y-128765615D01*
X253947141Y-128789211D01*
X254107143Y-128827109D01*
X254273786Y-128882899D01*
X254474137Y-128959988D01*
X255024677Y-129126440D01*
X255534394Y-129174175D01*
X256016365Y-129103801D01*
X256210341Y-129040435D01*
X256482883Y-128947321D01*
X256660790Y-128915435D01*
X256764460Y-128943491D01*
X256805689Y-129002884D01*
X256812591Y-129083981D01*
X256752577Y-129158356D01*
X256606926Y-129239374D01*
X256356915Y-129340398D01*
X256306782Y-129359016D01*
X255777650Y-129485145D01*
X255215904Y-129489058D01*
X254634616Y-129371241D01*
X254394420Y-129288152D01*
X254197332Y-129213721D01*
X254031151Y-129159974D01*
X253868359Y-129123382D01*
X253681432Y-129100417D01*
X253442850Y-129087551D01*
X253125100Y-129081259D01*
X252757822Y-129078353D01*
X252277701Y-129070920D01*
X251902813Y-129051065D01*
X251607603Y-129012562D01*
X251366525Y-128949180D01*
X251154027Y-128854693D01*
X250944560Y-128722876D01*
X250772333Y-128594410D01*
X250601212Y-128471406D01*
X250455018Y-128383076D01*
X250416002Y-128365392D01*
X250296332Y-128278525D01*
X250252073Y-128160589D01*
X250299784Y-128060217D01*
X250309752Y-128053331D01*
X250448660Y-128022017D01*
X250631827Y-128084491D01*
G37*
G36*
X222157414Y-121121680D02*
G01*
X222332926Y-121163530D01*
X222392706Y-121220288D01*
X222411118Y-121298580D01*
X222380966Y-121352603D01*
X222281420Y-121390564D01*
X222091649Y-121420670D01*
X221811682Y-121449207D01*
X221481361Y-121493281D01*
X221099853Y-121564364D01*
X220740324Y-121648506D01*
X220680502Y-121664827D01*
X220413950Y-121738198D01*
X220056846Y-121834344D01*
X219645484Y-121943609D01*
X219216157Y-122056330D01*
X218945708Y-122126604D01*
X218270338Y-122307507D01*
X217522294Y-122518862D01*
X216721578Y-122754257D01*
X215888184Y-123007284D01*
X215042111Y-123271526D01*
X214203358Y-123540576D01*
X213391925Y-123808017D01*
X212627805Y-124067442D01*
X211931001Y-124312436D01*
X211321507Y-124536592D01*
X210835335Y-124726939D01*
X210496524Y-124860526D01*
X210256660Y-124941494D01*
X210096596Y-124973760D01*
X209997189Y-124961237D01*
X209940537Y-124909894D01*
X209943566Y-124810846D01*
X209985772Y-124749517D01*
X210098689Y-124679541D01*
X210326410Y-124575031D01*
X210658505Y-124439643D01*
X211084543Y-124277036D01*
X211594094Y-124090865D01*
X212176729Y-123884787D01*
X212822017Y-123662459D01*
X213519527Y-123427538D01*
X214258829Y-123183681D01*
X215029495Y-122934544D01*
X215821092Y-122683785D01*
X216327153Y-122526217D01*
X216754455Y-122394504D01*
X217106832Y-122287337D01*
X217415096Y-122196021D01*
X217710063Y-122111864D01*
X218022544Y-122026173D01*
X218383355Y-121930253D01*
X218823308Y-121815410D01*
X219109368Y-121741242D01*
X219519549Y-121634552D01*
X219973642Y-121515690D01*
X220411017Y-121400563D01*
X220713234Y-121320480D01*
X221148812Y-121218045D01*
X221546964Y-121150033D01*
X221889295Y-121117546D01*
X222157414Y-121121680D01*
G37*
G36*
X233820914Y-134644849D02*
G01*
X233819535Y-134755121D01*
X233739901Y-134920994D01*
X233592710Y-135127815D01*
X233388666Y-135360925D01*
X233138472Y-135605673D01*
X232852826Y-135847401D01*
X232791327Y-135894899D01*
X232597352Y-136023751D01*
X232307495Y-136192578D01*
X231945982Y-136389230D01*
X231537036Y-136601562D01*
X231104882Y-136817422D01*
X230673743Y-137024662D01*
X230267845Y-137211134D01*
X229911411Y-137364690D01*
X229681791Y-137454351D01*
X229457760Y-137531060D01*
X229145928Y-137631463D01*
X228784461Y-137743561D01*
X228411525Y-137855347D01*
X228341111Y-137875973D01*
X227940196Y-137996241D01*
X227514448Y-138129510D01*
X227113215Y-138260020D01*
X226785842Y-138372013D01*
X226769977Y-138377678D01*
X226391747Y-138510359D01*
X226118945Y-138597865D01*
X225935171Y-138642960D01*
X225824018Y-138648412D01*
X225769085Y-138616986D01*
X225753966Y-138551451D01*
X225753956Y-138549040D01*
X225803043Y-138451905D01*
X225954337Y-138342304D01*
X226213891Y-138217469D01*
X226587754Y-138074641D01*
X227081979Y-137911049D01*
X227292358Y-137845985D01*
X227939410Y-137647935D01*
X228479359Y-137479995D01*
X228930759Y-137335499D01*
X229312163Y-137207782D01*
X229642126Y-137090177D01*
X229939199Y-136976020D01*
X230221940Y-136858645D01*
X230508899Y-136731384D01*
X230818634Y-136587575D01*
X230892873Y-136552486D01*
X231389371Y-136314040D01*
X231787689Y-136113196D01*
X232109905Y-135935794D01*
X232378104Y-135767671D01*
X232614360Y-135594665D01*
X232840757Y-135402616D01*
X233079374Y-135177361D01*
X233158471Y-135099376D01*
X233369388Y-134896692D01*
X233551377Y-134734219D01*
X233681938Y-134631309D01*
X233733335Y-134604835D01*
X233820914Y-134644849D01*
G37*
G36*
X221264750Y-122073739D02*
G01*
X221570528Y-122110893D01*
X221811311Y-122149763D01*
X222083317Y-122214095D01*
X222234820Y-122296272D01*
X222275768Y-122403046D01*
X222262737Y-122455956D01*
X222205107Y-122518828D01*
X222078174Y-122532997D01*
X221943091Y-122519391D01*
X221819282Y-122511011D01*
X221683174Y-122524250D01*
X221512078Y-122565486D01*
X221283302Y-122641094D01*
X220974154Y-122757456D01*
X220673896Y-122876106D01*
X219635876Y-123270944D01*
X218472063Y-123676226D01*
X217181238Y-124092351D01*
X215762181Y-124519714D01*
X214598422Y-124851924D01*
X214256075Y-124948074D01*
X213955883Y-125033328D01*
X213721643Y-125100852D01*
X213577158Y-125143815D01*
X213545120Y-125154287D01*
X213442229Y-125136588D01*
X213395508Y-125096985D01*
X213359610Y-124975080D01*
X213377294Y-124922617D01*
X213456253Y-124876727D01*
X213655475Y-124800984D01*
X213976109Y-124695030D01*
X214419304Y-124558512D01*
X214986208Y-124391074D01*
X215677969Y-124192360D01*
X216359884Y-124000031D01*
X216745823Y-123887785D01*
X217182605Y-123753793D01*
X217652884Y-123604052D01*
X218139320Y-123444553D01*
X218624567Y-123281291D01*
X219091281Y-123120267D01*
X219522119Y-122967468D01*
X219899738Y-122828891D01*
X220206793Y-122710531D01*
X220425942Y-122618384D01*
X220539842Y-122558440D01*
X220546300Y-122553054D01*
X220659340Y-122503303D01*
X220739418Y-122494010D01*
X220824760Y-122474921D01*
X220801862Y-122425525D01*
X220747358Y-122402016D01*
X220646128Y-122401212D01*
X220489562Y-122425654D01*
X220269045Y-122477877D01*
X219975958Y-122560420D01*
X219601688Y-122675818D01*
X219137616Y-122826609D01*
X218575129Y-123015331D01*
X217905609Y-123244521D01*
X217252757Y-123470670D01*
X216748789Y-123643626D01*
X216354896Y-123772691D01*
X216058827Y-123860646D01*
X215848327Y-123910270D01*
X215711146Y-123924342D01*
X215635031Y-123905643D01*
X215607728Y-123856953D01*
X215607049Y-123844037D01*
X215617505Y-123782986D01*
X215659819Y-123726423D01*
X215750416Y-123666441D01*
X215905708Y-123595130D01*
X216142118Y-123504583D01*
X216476064Y-123386893D01*
X216752665Y-123292279D01*
X217183167Y-123145595D01*
X217658976Y-122982979D01*
X218126426Y-122822795D01*
X218531854Y-122683416D01*
X218585657Y-122664867D01*
X219170325Y-122466189D01*
X219653340Y-122311071D01*
X220055305Y-122196223D01*
X220396825Y-122118357D01*
X220698503Y-122074180D01*
X220980943Y-122060404D01*
X221264750Y-122073739D01*
G37*
G36*
X232659028Y-122124288D02*
G01*
X232793466Y-122177680D01*
X232856953Y-122232334D01*
X232929358Y-122335742D01*
X232939957Y-122450695D01*
X232898335Y-122621340D01*
X232826589Y-122800404D01*
X232706086Y-123042547D01*
X232560175Y-123301567D01*
X232526870Y-123356413D01*
X232309042Y-123740487D01*
X232179491Y-124041842D01*
X232139520Y-124256751D01*
X232173949Y-124365191D01*
X232267856Y-124432036D01*
X232441541Y-124521707D01*
X232597507Y-124589900D01*
X232809607Y-124687358D01*
X232920210Y-124773187D01*
X232954739Y-124867924D01*
X232954987Y-124878736D01*
X233008487Y-125020490D01*
X233144747Y-125162751D01*
X233148886Y-125165837D01*
X233270524Y-125282279D01*
X233361436Y-125440643D01*
X233428500Y-125663432D01*
X233478592Y-125973147D01*
X233516838Y-126369844D01*
X233554071Y-126721578D01*
X233615564Y-126978391D01*
X233722687Y-127170925D01*
X233896814Y-127329824D01*
X234159309Y-127485730D01*
X234368197Y-127590624D01*
X234692173Y-127748957D01*
X234917018Y-127871790D01*
X235059440Y-127984650D01*
X235136144Y-128113050D01*
X235163840Y-128282521D01*
X235159234Y-128518580D01*
X235143382Y-128774787D01*
X235125495Y-129082669D01*
X235120266Y-129287977D01*
X235131847Y-129418787D01*
X235164390Y-129503175D01*
X235222047Y-129569220D01*
X235266689Y-129608517D01*
X235389110Y-129763125D01*
X235399958Y-129876756D01*
X235419023Y-130006445D01*
X235513540Y-130213512D01*
X235633981Y-130415312D01*
X235762287Y-130618720D01*
X235856743Y-130777805D01*
X235899627Y-130862516D01*
X235900518Y-130867175D01*
X235858592Y-130968975D01*
X235745973Y-131143809D01*
X235580860Y-131368592D01*
X235381462Y-131620238D01*
X235165983Y-131875663D01*
X234952627Y-132111781D01*
X234785697Y-132280866D01*
X234579101Y-132507249D01*
X234387573Y-132765559D01*
X234271882Y-132963160D01*
X234142147Y-133204055D01*
X234038670Y-133328041D01*
X233952306Y-133344265D01*
X233916489Y-133318742D01*
X233872565Y-133187793D01*
X233910834Y-132987176D01*
X234020048Y-132738941D01*
X234188967Y-132465141D01*
X234406341Y-132187821D01*
X234593020Y-131992118D01*
X234792651Y-131788658D01*
X234999704Y-131557973D01*
X235194475Y-131324560D01*
X235357258Y-131112917D01*
X235468350Y-130947542D01*
X235508079Y-130854420D01*
X235471920Y-130771010D01*
X235382056Y-130632287D01*
X235351715Y-130590802D01*
X235236621Y-130420206D01*
X235096297Y-130188513D01*
X234984968Y-129989629D01*
X234892550Y-129812228D01*
X234833523Y-129670614D01*
X234802164Y-129528854D01*
X234792750Y-129351013D01*
X234799558Y-129101155D01*
X234809681Y-128888954D01*
X234844778Y-128181063D01*
X234241992Y-127901291D01*
X233912642Y-127742272D01*
X233666349Y-127598454D01*
X233488438Y-127446477D01*
X233364244Y-127262983D01*
X233279098Y-127024609D01*
X233218326Y-126708001D01*
X233167265Y-126289797D01*
X233154626Y-126169800D01*
X233113814Y-125835606D01*
X233066559Y-125610060D01*
X233002288Y-125470950D01*
X232910430Y-125396061D01*
X232780413Y-125363181D01*
X232770170Y-125361943D01*
X232643332Y-125325003D01*
X232605753Y-125226400D01*
X232607597Y-125159203D01*
X232600966Y-125049098D01*
X232544103Y-124967283D01*
X232409347Y-124886046D01*
X232271248Y-124822363D01*
X232022098Y-124678596D01*
X231867923Y-124502330D01*
X231808706Y-124282551D01*
X231844433Y-124008242D01*
X231975083Y-123668387D01*
X232200644Y-123251971D01*
X232268705Y-123139731D01*
X232443889Y-122836655D01*
X232537280Y-122624428D01*
X232551119Y-122493499D01*
X232487653Y-122434317D01*
X232435698Y-122428547D01*
X232324733Y-122444367D01*
X232117389Y-122487394D01*
X231843766Y-122550969D01*
X231547512Y-122624938D01*
X231163686Y-122721766D01*
X230888916Y-122783886D01*
X230706265Y-122812203D01*
X230598797Y-122807613D01*
X230549575Y-122771020D01*
X230541662Y-122703325D01*
X230544635Y-122678285D01*
X230567869Y-122615016D01*
X230630631Y-122559697D01*
X230753280Y-122503703D01*
X230956169Y-122438408D01*
X231259654Y-122355191D01*
X231383853Y-122322715D01*
X231846251Y-122209285D01*
X232201918Y-122139077D01*
X232467342Y-122111084D01*
X232659028Y-122124288D01*
G37*
G36*
X254080659Y-113003970D02*
G01*
X254238331Y-113130170D01*
X254359058Y-113234813D01*
X254490661Y-113300252D01*
X254674406Y-113340879D01*
X254921254Y-113368377D01*
X255177543Y-113395840D01*
X255345408Y-113432992D01*
X255467112Y-113497503D01*
X255584916Y-113607037D01*
X255642749Y-113670000D01*
X255801415Y-113881686D01*
X255844716Y-114043709D01*
X255773778Y-114166176D01*
X255703119Y-114211998D01*
X255609611Y-114283583D01*
X255448296Y-114430058D01*
X255240952Y-114630838D01*
X255009363Y-114865339D01*
X254983595Y-114892048D01*
X254731033Y-115152615D01*
X254416990Y-115473832D01*
X254072700Y-115823903D01*
X253729400Y-116171035D01*
X253537396Y-116364168D01*
X253174905Y-116732672D01*
X252889800Y-117036265D01*
X252663165Y-117298751D01*
X252476100Y-117543931D01*
X252309697Y-117795611D01*
X252145047Y-118077597D01*
X252074403Y-118206124D01*
X251913839Y-118476845D01*
X251725178Y-118759813D01*
X251601722Y-118926227D01*
X251303535Y-119349475D01*
X251030287Y-119826148D01*
X250794359Y-120326737D01*
X250608125Y-120821736D01*
X250483963Y-121281640D01*
X250434253Y-121676937D01*
X250433853Y-121710269D01*
X250445498Y-121972364D01*
X250490287Y-122193163D01*
X250583008Y-122413231D01*
X250738446Y-122673133D01*
X250839925Y-122824311D01*
X250991893Y-123083829D01*
X251123163Y-123372773D01*
X251185334Y-123558411D01*
X251356147Y-124072686D01*
X251569797Y-124472154D01*
X251784989Y-124719015D01*
X251933894Y-124829009D01*
X252093777Y-124891741D01*
X252295130Y-124910877D01*
X252568449Y-124890075D01*
X252856018Y-124847700D01*
X253065980Y-124816489D01*
X253364790Y-124776135D01*
X253711184Y-124732054D01*
X254034368Y-124693099D01*
X254388732Y-124651499D01*
X254733905Y-124610690D01*
X255028382Y-124575595D01*
X255217647Y-124552735D01*
X255459939Y-124540986D01*
X255772844Y-124550253D01*
X256098104Y-124578427D01*
X256166874Y-124587134D01*
X256504816Y-124628652D01*
X256905130Y-124671564D01*
X257299538Y-124708720D01*
X257438492Y-124720225D01*
X257813039Y-124761973D01*
X258221314Y-124826922D01*
X258594404Y-124903537D01*
X258715038Y-124933964D01*
X259211670Y-125064650D01*
X259646354Y-125171162D01*
X260002490Y-125249788D01*
X260263475Y-125296820D01*
X260393734Y-125309204D01*
X260576705Y-125347327D01*
X260796223Y-125466457D01*
X261063383Y-125674540D01*
X261389276Y-125979518D01*
X261534036Y-126125768D01*
X262061796Y-126667816D01*
X262941509Y-126705660D01*
X263486768Y-126732310D01*
X264022049Y-126764375D01*
X264526372Y-126800139D01*
X264978751Y-126837886D01*
X265358209Y-126875899D01*
X265643758Y-126912462D01*
X265785140Y-126938244D01*
X265973243Y-126979711D01*
X266256593Y-127039032D01*
X266601837Y-127109496D01*
X266975622Y-127184394D01*
X267344592Y-127257018D01*
X267675395Y-127320659D01*
X267831543Y-127349873D01*
X268160930Y-127452891D01*
X268408374Y-127617850D01*
X268554808Y-127829945D01*
X268582102Y-127932830D01*
X268562850Y-128149359D01*
X268434888Y-128293955D01*
X268284558Y-128348475D01*
X268167085Y-128364515D01*
X267949000Y-128387895D01*
X267660211Y-128415617D01*
X267330625Y-128444686D01*
X267290813Y-128448034D01*
X266874082Y-128485830D01*
X266413055Y-128532335D01*
X265971092Y-128580941D01*
X265686946Y-128615226D01*
X264901587Y-128710061D01*
X264195934Y-128782707D01*
X263521425Y-128837263D01*
X262829503Y-128877828D01*
X262315554Y-128899841D01*
X261850528Y-128919566D01*
X261502086Y-128940787D01*
X261255881Y-128966090D01*
X261097575Y-128998063D01*
X261012826Y-129039293D01*
X260987289Y-129092367D01*
X260996874Y-129137705D01*
X260987174Y-129280031D01*
X260856471Y-129419903D01*
X260614581Y-129549380D01*
X260392735Y-129627085D01*
X260056179Y-129757116D01*
X259663446Y-129955775D01*
X259252127Y-130200320D01*
X258859814Y-130468005D01*
X258524098Y-130736088D01*
X258453628Y-130800308D01*
X258240704Y-130979364D01*
X257962972Y-131183918D01*
X257670904Y-131377392D01*
X257587036Y-131428396D01*
X257258262Y-131646966D01*
X256922623Y-131908986D01*
X256642754Y-132165528D01*
X256640893Y-132167441D01*
X256383754Y-132406677D01*
X256108713Y-132621381D01*
X255865407Y-132772829D01*
X255863833Y-132773625D01*
X255630390Y-132901381D01*
X255415752Y-133035309D01*
X255304302Y-133116502D01*
X255164604Y-133222843D01*
X254951985Y-133374715D01*
X254703182Y-133546110D01*
X254591386Y-133621223D01*
X254296231Y-133822350D01*
X253980919Y-134044353D01*
X253703339Y-134246326D01*
X253647113Y-134288524D01*
X253389429Y-134463630D01*
X253041180Y-134672213D01*
X252633072Y-134898332D01*
X252195780Y-135126050D01*
X251759995Y-135339425D01*
X251356406Y-135522520D01*
X251015701Y-135659393D01*
X250990296Y-135668501D01*
X250773195Y-135737591D01*
X250460018Y-135826879D01*
X250082432Y-135927842D01*
X249672098Y-136031959D01*
X249353698Y-136108930D01*
X248877768Y-136228010D01*
X248351796Y-136370752D01*
X247826952Y-136522594D01*
X247354408Y-136668968D01*
X247160657Y-136733190D01*
X246532483Y-136941299D01*
X245925916Y-137128217D01*
X245322087Y-137298223D01*
X244702141Y-137455601D01*
X244047211Y-137604626D01*
X243338438Y-137749580D01*
X242556960Y-137894743D01*
X241683910Y-138044395D01*
X240700432Y-138202816D01*
X240646997Y-138211204D01*
X240174447Y-138286382D01*
X239738681Y-138357751D01*
X239358168Y-138422125D01*
X239051377Y-138476315D01*
X238836777Y-138517135D01*
X238732836Y-138541398D01*
X238732177Y-138541633D01*
X238613144Y-138635109D01*
X238584884Y-138724500D01*
X238528123Y-138838584D01*
X238360960Y-139010343D01*
X238088059Y-139235002D01*
X238077538Y-139243084D01*
X237819710Y-139448853D01*
X237568373Y-139663145D01*
X237365119Y-139850048D01*
X237308337Y-139907266D01*
X237127298Y-140075701D01*
X236881508Y-140276100D01*
X236617313Y-140471147D01*
X236555503Y-140513564D01*
X236267727Y-140713371D01*
X235960303Y-140935852D01*
X235693665Y-141137154D01*
X235662535Y-141161540D01*
X235054998Y-141602949D01*
X234447421Y-141973181D01*
X233866224Y-142257115D01*
X233524833Y-142385095D01*
X232998727Y-142553047D01*
X232570687Y-142682040D01*
X232215458Y-142777072D01*
X231907776Y-142843156D01*
X231622387Y-142885298D01*
X231334032Y-142908500D01*
X231017454Y-142917774D01*
X230832504Y-142918753D01*
X230459328Y-142915794D01*
X230196765Y-142905535D01*
X230024600Y-142885902D01*
X229922622Y-142854824D01*
X229878455Y-142820885D01*
X229837836Y-142687875D01*
X229917783Y-142545487D01*
X230109276Y-142403071D01*
X230403305Y-142269985D01*
X230412691Y-142266566D01*
X230677219Y-142162723D01*
X230934969Y-142048427D01*
X231089265Y-141970387D01*
X231505055Y-141732898D01*
X231814058Y-141543204D01*
X232028047Y-141393559D01*
X232158792Y-141276204D01*
X232177661Y-141253816D01*
X232263435Y-141162301D01*
X232378140Y-141084222D01*
X232553014Y-141002589D01*
X232819301Y-140900410D01*
X232844253Y-140891289D01*
X232967893Y-140836278D01*
X232984387Y-140773942D01*
X232926082Y-140678579D01*
X232832675Y-140458522D01*
X232867789Y-140254676D01*
X232971353Y-140123396D01*
X233093789Y-140022212D01*
X233220900Y-139948811D01*
X233378212Y-139897005D01*
X233591252Y-139860601D01*
X233885550Y-139833410D01*
X234261176Y-139810606D01*
X234602133Y-139788288D01*
X234908323Y-139761000D01*
X235149469Y-139731940D01*
X235295293Y-139704310D01*
X235308597Y-139699919D01*
X235469047Y-139621665D01*
X235673009Y-139498572D01*
X235891746Y-139351268D01*
X236096522Y-139200377D01*
X236258602Y-139066529D01*
X236349250Y-138970350D01*
X236359110Y-138945857D01*
X236318982Y-138890613D01*
X236184270Y-138885368D01*
X236113620Y-138894095D01*
X235938709Y-138912971D01*
X235645964Y-138936632D01*
X235248359Y-138964278D01*
X234758869Y-138995116D01*
X234190466Y-139028347D01*
X233556130Y-139063177D01*
X232868830Y-139098808D01*
X232404404Y-139121799D01*
X231999164Y-139142819D01*
X231634639Y-139164218D01*
X231332586Y-139184522D01*
X231114760Y-139202252D01*
X231002920Y-139215928D01*
X230996932Y-139217443D01*
X230896736Y-139238112D01*
X230693580Y-139272548D01*
X230414175Y-139316468D01*
X230085239Y-139365577D01*
X229976378Y-139381328D01*
X229481921Y-139453019D01*
X229086357Y-139512770D01*
X228758850Y-139566325D01*
X228468565Y-139619419D01*
X228184666Y-139677801D01*
X227876319Y-139747208D01*
X227512687Y-139833383D01*
X227390554Y-139862798D01*
X227005121Y-139955354D01*
X226617454Y-140047639D01*
X226267725Y-140130145D01*
X225996109Y-140193359D01*
X225950346Y-140203841D01*
X225196182Y-140406552D01*
X224397610Y-140676880D01*
X223632656Y-140986057D01*
X223250261Y-141147537D01*
X222755043Y-141345986D01*
X222158398Y-141577027D01*
X221471728Y-141836278D01*
X220706434Y-142119363D01*
X220222255Y-142295933D01*
X219581536Y-142534625D01*
X219009507Y-142762899D01*
X218462036Y-142999936D01*
X217894990Y-143264911D01*
X217264239Y-143577006D01*
X217202108Y-143608433D01*
X216794526Y-143812475D01*
X216382640Y-144014388D01*
X215996948Y-144199530D01*
X215667948Y-144353250D01*
X215434582Y-144457310D01*
X214735151Y-144770503D01*
X214125226Y-145077477D01*
X213565987Y-145398053D01*
X213447821Y-145471168D01*
X212981162Y-145750743D01*
X212565333Y-145974134D01*
X212217147Y-146132969D01*
X211953415Y-146218877D01*
X211941070Y-146221444D01*
X211756073Y-146260566D01*
X211616032Y-146293840D01*
X211609013Y-146295753D01*
X211494412Y-146297339D01*
X211461721Y-146279954D01*
X211426439Y-146185425D01*
X211417358Y-146085818D01*
X211372548Y-145938301D01*
X211263670Y-145782635D01*
X211253698Y-145772385D01*
X211114484Y-145566125D01*
X211107252Y-145438550D01*
X211450091Y-145438550D01*
X211504651Y-145509893D01*
X211640584Y-145603601D01*
X211816254Y-145697170D01*
X211990029Y-145768097D01*
X212107552Y-145793888D01*
X212207718Y-145762965D01*
X212396202Y-145674202D01*
X212650416Y-145539345D01*
X212947770Y-145370135D01*
X213122242Y-145266250D01*
X213514620Y-145040044D01*
X213977104Y-144790859D01*
X214458619Y-144545274D01*
X214908082Y-144329859D01*
X215017872Y-144280065D01*
X215430022Y-144091800D01*
X215870689Y-143883532D01*
X216295717Y-143676560D01*
X216660951Y-143492182D01*
X216771932Y-143434037D01*
X217041261Y-143295721D01*
X217362085Y-143138409D01*
X217712652Y-142971929D01*
X218071206Y-142806112D01*
X218415993Y-142650790D01*
X218725258Y-142515792D01*
X218977250Y-142410947D01*
X219150211Y-142346086D01*
X219216081Y-142329578D01*
X219290497Y-142306973D01*
X219468695Y-142243660D01*
X219732440Y-142146407D01*
X220063489Y-142021970D01*
X220443609Y-141877110D01*
X220630142Y-141805391D01*
X221087812Y-141628942D01*
X221561708Y-141446228D01*
X222018224Y-141270209D01*
X222423750Y-141113844D01*
X222744678Y-140990090D01*
X222775347Y-140978263D01*
X223080415Y-140856789D01*
X223345705Y-140744031D01*
X223544462Y-140651858D01*
X223649928Y-140592137D01*
X223654367Y-140588359D01*
X223707593Y-140504032D01*
X223656959Y-140460792D01*
X223523419Y-140460200D01*
X223327932Y-140503811D01*
X223185430Y-140553490D01*
X222501291Y-140823175D01*
X221930235Y-141049144D01*
X221463275Y-141235006D01*
X221091416Y-141384366D01*
X220805663Y-141500832D01*
X220597031Y-141588010D01*
X220484109Y-141637076D01*
X220228193Y-141740803D01*
X219930479Y-141846883D01*
X219764006Y-141899703D01*
X219539883Y-141969805D01*
X219235734Y-142069771D01*
X218894762Y-142185213D01*
X218618389Y-142281189D01*
X218240230Y-142413302D01*
X217798268Y-142566246D01*
X217352825Y-142719214D01*
X217031381Y-142828679D01*
X216643521Y-142961843D01*
X216345408Y-143070820D01*
X216102134Y-143171449D01*
X215878787Y-143279574D01*
X215640456Y-143411033D01*
X215352237Y-143581675D01*
X215291934Y-143618033D01*
X215048071Y-143760650D01*
X214826004Y-143882449D01*
X214665083Y-143962060D01*
X214637295Y-143973522D01*
X214460798Y-144043874D01*
X214191866Y-144155615D01*
X213855949Y-144297740D01*
X213478499Y-144459247D01*
X213084963Y-144629130D01*
X212700797Y-144796386D01*
X212351445Y-144950011D01*
X212062366Y-145079002D01*
X211859003Y-145172355D01*
X211810141Y-145195876D01*
X211620747Y-145299158D01*
X211490324Y-145388960D01*
X211450091Y-145438550D01*
X211107252Y-145438550D01*
X211107252Y-145438548D01*
X211101819Y-145342711D01*
X211131061Y-145244724D01*
X211192551Y-145172425D01*
X211334753Y-145074197D01*
X211563662Y-144947199D01*
X211885271Y-144788587D01*
X212305576Y-144595522D01*
X212830568Y-144365162D01*
X213466242Y-144094664D01*
X214216022Y-143782251D01*
X214486104Y-143659258D01*
X214813795Y-143493376D01*
X215146187Y-143311919D01*
X215298251Y-143223505D01*
X215606245Y-143052766D01*
X215950985Y-142889144D01*
X216358238Y-142721693D01*
X216853769Y-142539463D01*
X217147525Y-142437737D01*
X218137562Y-142098158D01*
X219007737Y-141795193D01*
X219757356Y-141529101D01*
X220385730Y-141300139D01*
X220892166Y-141108568D01*
X221275973Y-140954648D01*
X221536461Y-140838638D01*
X221672935Y-140760794D01*
X221695008Y-140732751D01*
X221636143Y-140707928D01*
X221482790Y-140702810D01*
X221308233Y-140714772D01*
X221057967Y-140749034D01*
X220710563Y-140807652D01*
X220296202Y-140884473D01*
X219845066Y-140973341D01*
X219387344Y-141068101D01*
X218953214Y-141162597D01*
X218572860Y-141250677D01*
X218276467Y-141326184D01*
X218192873Y-141350076D01*
X217873675Y-141444753D01*
X217520711Y-141548066D01*
X217280885Y-141617383D01*
X217053331Y-141691733D01*
X216742503Y-141805859D01*
X216384566Y-141945897D01*
X216015671Y-142097973D01*
X215906143Y-142144787D01*
X215237672Y-142409278D01*
X214553854Y-142636785D01*
X214101377Y-142761725D01*
X213733058Y-142861388D01*
X213285986Y-142994984D01*
X212803391Y-143148878D01*
X212328500Y-143309432D01*
X212050205Y-143408787D01*
X211581924Y-143574936D01*
X211058937Y-143751763D01*
X210531193Y-143922908D01*
X210048641Y-144072017D01*
X209824431Y-144137618D01*
X209298865Y-144292483D01*
X208781449Y-144454579D01*
X208291074Y-144617205D01*
X207846622Y-144773659D01*
X207466976Y-144917237D01*
X207171019Y-145041240D01*
X206977637Y-145138965D01*
X206947122Y-145158792D01*
X206765635Y-145247635D01*
X206641022Y-145233178D01*
X206581134Y-145133534D01*
X206593824Y-144966805D01*
X206686946Y-144751097D01*
X206736337Y-144672732D01*
X206944774Y-144443126D01*
X207266978Y-144191032D01*
X207689025Y-143922918D01*
X208197003Y-143645259D01*
X208776990Y-143364521D01*
X209415069Y-143087184D01*
X210097317Y-142819712D01*
X210809822Y-142568579D01*
X211538659Y-142340256D01*
X212071997Y-142191972D01*
X212342154Y-142114725D01*
X212710758Y-142000193D01*
X213155547Y-141856079D01*
X213654258Y-141690085D01*
X214184626Y-141509907D01*
X214724390Y-141323248D01*
X215251285Y-141137810D01*
X215743047Y-140961289D01*
X216177414Y-140801391D01*
X216532122Y-140665812D01*
X216784910Y-140562255D01*
X216789368Y-140560301D01*
X217036335Y-140463241D01*
X217361940Y-140350913D01*
X217717719Y-140239466D01*
X217958973Y-140170567D01*
X218261353Y-140086206D01*
X218523779Y-140009030D01*
X218716465Y-139948052D01*
X218806035Y-139914267D01*
X219008521Y-139827243D01*
X219320814Y-139715626D01*
X219725252Y-139584735D01*
X220204175Y-139439893D01*
X220739926Y-139286415D01*
X221314843Y-139129621D01*
X221911265Y-138974831D01*
X221994438Y-138953884D01*
X222834384Y-138739066D01*
X223565668Y-138541698D01*
X224208164Y-138354319D01*
X224781745Y-138169466D01*
X225306284Y-137979676D01*
X225801657Y-137777487D01*
X226287735Y-137555436D01*
X226784394Y-137306061D01*
X227311504Y-137021901D01*
X227658947Y-136826896D01*
X228184481Y-136537831D01*
X228679295Y-136283631D01*
X229118356Y-136076606D01*
X229476616Y-135929066D01*
X229509977Y-135917008D01*
X230082534Y-135690601D01*
X230585165Y-135445401D01*
X230998006Y-135192266D01*
X231301193Y-134942047D01*
X231308981Y-134934089D01*
X231488187Y-134782042D01*
X231736120Y-134612358D01*
X232001547Y-134459858D01*
X232022126Y-134449382D01*
X232242311Y-134331007D01*
X232408217Y-134227521D01*
X232491862Y-134156857D01*
X232496739Y-134145051D01*
X232470677Y-134051963D01*
X232404188Y-133886893D01*
X232354936Y-133778022D01*
X232273780Y-133587894D01*
X232251807Y-133466184D01*
X232283555Y-133367456D01*
X232301890Y-133336855D01*
X232354234Y-133214952D01*
X232415883Y-133014544D01*
X232478591Y-132771682D01*
X232534115Y-132522415D01*
X232574212Y-132302796D01*
X232590638Y-132148876D01*
X232584538Y-132100839D01*
X232505138Y-132067789D01*
X232350825Y-132051974D01*
X232328783Y-132051743D01*
X232102120Y-132100190D01*
X231960789Y-132215402D01*
X231838251Y-132328580D01*
X231736034Y-132378904D01*
X231732099Y-132379063D01*
X231670964Y-132320548D01*
X231648282Y-132161049D01*
X231663715Y-131924633D01*
X231716935Y-131635366D01*
X231743904Y-131528031D01*
X231821135Y-131206862D01*
X231845149Y-130977507D01*
X231808308Y-130809046D01*
X231702975Y-130670556D01*
X231521515Y-130531115D01*
X231492970Y-130511993D01*
X231176810Y-130246738D01*
X230963545Y-129946227D01*
X230865355Y-129629190D01*
X230860141Y-129538834D01*
X230840659Y-129370893D01*
X230769921Y-129310287D01*
X230629486Y-129349221D01*
X230532822Y-129400454D01*
X230350795Y-129465163D01*
X230129010Y-129492823D01*
X229919423Y-129482114D01*
X229773984Y-129431716D01*
X229760347Y-129420093D01*
X229690379Y-129295263D01*
X229712694Y-129135127D01*
X229831220Y-128916825D01*
X229852163Y-128885536D01*
X229974253Y-128693314D01*
X230121914Y-128443343D01*
X230244945Y-128223012D01*
X230369793Y-127971930D01*
X230437236Y-127765014D01*
X230463751Y-127538334D01*
X230466863Y-127362018D01*
X230427105Y-126737478D01*
X230315987Y-126095876D01*
X230143759Y-125477452D01*
X229920668Y-124922446D01*
X229777324Y-124654321D01*
X229639915Y-124408858D01*
X229513817Y-124157845D01*
X229450865Y-124015201D01*
X229278191Y-123725628D01*
X229038524Y-123543357D01*
X228741679Y-123475667D01*
X228722459Y-123475407D01*
X228534310Y-123492317D01*
X228242394Y-123540452D01*
X227868832Y-123615055D01*
X227435746Y-123711369D01*
X226965254Y-123824642D01*
X226479478Y-123950114D01*
X226343131Y-123986950D01*
X225990151Y-124070510D01*
X225602331Y-124142398D01*
X225249430Y-124190144D01*
X225164780Y-124197606D01*
X224563786Y-124253993D01*
X223859214Y-124341331D01*
X223073863Y-124456376D01*
X222230536Y-124595874D01*
X221695193Y-124691993D01*
X221275245Y-124768651D01*
X220864576Y-124841881D01*
X220494399Y-124906243D01*
X220195932Y-124956297D01*
X220025863Y-124982955D01*
X219773316Y-125020347D01*
X219437737Y-125070587D01*
X219065517Y-125126717D01*
X218749318Y-125174707D01*
X218374729Y-125230453D01*
X217921616Y-125295881D01*
X217441272Y-125363683D01*
X216984995Y-125426563D01*
X216883596Y-125440268D01*
X216449297Y-125500082D01*
X215986560Y-125566137D01*
X215543669Y-125631400D01*
X215168911Y-125688838D01*
X215083337Y-125702467D01*
X214710889Y-125757864D01*
X214316183Y-125809049D01*
X213956686Y-125848891D01*
X213774059Y-125864964D01*
X213226220Y-125915517D01*
X212612175Y-125988551D01*
X211993023Y-126075969D01*
X211429864Y-126169668D01*
X211319162Y-126190395D01*
X211024648Y-126233464D01*
X210655603Y-126268082D01*
X210268369Y-126289659D01*
X210042617Y-126294475D01*
X209667143Y-126304395D01*
X209269519Y-126328162D01*
X208908544Y-126361716D01*
X208733337Y-126384959D01*
X208445345Y-126425510D01*
X208254067Y-126438876D01*
X208128161Y-126425132D01*
X208039787Y-126386558D01*
X207953447Y-126349394D01*
X207840695Y-126343710D01*
X207670858Y-126372613D01*
X207413260Y-126439215D01*
X207352416Y-126456232D01*
X207068557Y-126539827D01*
X206804581Y-126623861D01*
X206607553Y-126693186D01*
X206572558Y-126707159D01*
X206382589Y-126770458D01*
X206126231Y-126835916D01*
X205917919Y-126878358D01*
X205634181Y-126932675D01*
X205295700Y-127003314D01*
X204974828Y-127075165D01*
X204969162Y-127076492D01*
X204196423Y-127234495D01*
X203398091Y-127354913D01*
X202600263Y-127436155D01*
X201829038Y-127476636D01*
X201110512Y-127474766D01*
X200470786Y-127428952D01*
X200099726Y-127372976D01*
X199842448Y-127325806D01*
X199635348Y-127297398D01*
X199442085Y-127287552D01*
X199226324Y-127296070D01*
X198951724Y-127322751D01*
X198603049Y-127364769D01*
X198243299Y-127408078D01*
X197989027Y-127433378D01*
X197816053Y-127440837D01*
X197700194Y-127430634D01*
X197617269Y-127402942D01*
X197564365Y-127372260D01*
X197439428Y-127231556D01*
X197416975Y-127067926D01*
X197477461Y-126962667D01*
X198553698Y-126962667D01*
X198564188Y-126971262D01*
X198685840Y-126977835D01*
X198898896Y-126981815D01*
X199183597Y-126982639D01*
X199241068Y-126982407D01*
X199728130Y-126990370D01*
X200126261Y-127022188D01*
X200475894Y-127081533D01*
X200567094Y-127102718D01*
X200850041Y-127165445D01*
X201076060Y-127192936D01*
X201306080Y-127188041D01*
X201601025Y-127153611D01*
X201614515Y-127151733D01*
X201960954Y-127113401D01*
X202345766Y-127086019D01*
X202677925Y-127075643D01*
X202886157Y-127069457D01*
X203125746Y-127049774D01*
X203412453Y-127014129D01*
X203762045Y-126960067D01*
X204190283Y-126885121D01*
X204712934Y-126786834D01*
X205345760Y-126662745D01*
X205427409Y-126646491D01*
X205746499Y-126574496D01*
X206118792Y-126478063D01*
X206473793Y-126375663D01*
X206540296Y-126354893D01*
X207035578Y-126199625D01*
X207423585Y-126083898D01*
X207720736Y-126004363D01*
X207943460Y-125957669D01*
X208108182Y-125940468D01*
X208231326Y-125949412D01*
X208329317Y-125981150D01*
X208342386Y-125987433D01*
X208493706Y-126041229D01*
X208675835Y-126053409D01*
X208935581Y-126026917D01*
X208946166Y-126025396D01*
X209195142Y-125999355D01*
X209521672Y-125978853D01*
X209872413Y-125966832D01*
X210042745Y-125964913D01*
X210463327Y-125949085D01*
X210922925Y-125907956D01*
X211341499Y-125848913D01*
X211384756Y-125841053D01*
X211842824Y-125761620D01*
X212340810Y-125688366D01*
X212904283Y-125617981D01*
X213558813Y-125547159D01*
X213970451Y-125506477D01*
X214350680Y-125466120D01*
X214770606Y-125415617D01*
X215158448Y-125363772D01*
X215279729Y-125345968D01*
X215586299Y-125300048D01*
X215974981Y-125242745D01*
X216398247Y-125181016D01*
X216808575Y-125121828D01*
X216850863Y-125115774D01*
X217261262Y-125056553D01*
X217694049Y-124993233D01*
X218100046Y-124933061D01*
X218430072Y-124883281D01*
X218454730Y-124879503D01*
X218828772Y-124822995D01*
X219258133Y-124759515D01*
X219668437Y-124700024D01*
X219796739Y-124681753D01*
X220095368Y-124636610D01*
X220484561Y-124573551D01*
X220926235Y-124498973D01*
X221382302Y-124419272D01*
X221695193Y-124362858D01*
X222606432Y-124202583D01*
X223437610Y-124069609D01*
X224175626Y-123965843D01*
X224807383Y-123893185D01*
X225099317Y-123867591D01*
X225396922Y-123832500D01*
X225767665Y-123770391D01*
X226158965Y-123690828D01*
X226441327Y-123623647D01*
X226824700Y-123526738D01*
X227238294Y-123424824D01*
X227624316Y-123332022D01*
X227851073Y-123279156D01*
X228146486Y-123207917D01*
X228341457Y-123147869D01*
X228464248Y-123086181D01*
X228543121Y-123010025D01*
X228584496Y-122946215D01*
X228719627Y-122793786D01*
X228860447Y-122755866D01*
X228984924Y-122733829D01*
X229027152Y-122690402D01*
X228965651Y-122644591D01*
X228790179Y-122627777D01*
X228514284Y-122639272D01*
X228151512Y-122678386D01*
X227715412Y-122744434D01*
X227611792Y-122762363D01*
X227160567Y-122832604D01*
X226764071Y-122869125D01*
X226353106Y-122876580D01*
X226041553Y-122867883D01*
X225625678Y-122844346D01*
X225326012Y-122809289D01*
X225128028Y-122758205D01*
X225017195Y-122686584D01*
X224978983Y-122589920D01*
X224981340Y-122538978D01*
X224983845Y-122477339D01*
X224956756Y-122435175D01*
X224878453Y-122407299D01*
X224727323Y-122388524D01*
X224481751Y-122373663D01*
X224248286Y-122363083D01*
X223924824Y-122347677D01*
X223709358Y-122331403D01*
X223579025Y-122308941D01*
X223510975Y-122274972D01*
X223482346Y-122224178D01*
X223474532Y-122183057D01*
X223469894Y-122123640D01*
X223489311Y-122082890D01*
X223552992Y-122057359D01*
X223681149Y-122043599D01*
X223893991Y-122038158D01*
X224211730Y-122037592D01*
X224325562Y-122037845D01*
X224703170Y-122041064D01*
X224974243Y-122053309D01*
X225163162Y-122081604D01*
X225294300Y-122132977D01*
X225392041Y-122214452D01*
X225480760Y-122333056D01*
X225510875Y-122379449D01*
X225571086Y-122464048D01*
X225639852Y-122516872D01*
X225747013Y-122545379D01*
X225922407Y-122557031D01*
X226195878Y-122559289D01*
X226230078Y-122559287D01*
X226553952Y-122547245D01*
X226948647Y-122514893D01*
X227356609Y-122467649D01*
X227619677Y-122428547D01*
X227967982Y-122375903D01*
X228309307Y-122333383D01*
X228600793Y-122305833D01*
X228775843Y-122297806D01*
X228997150Y-122305234D01*
X229137701Y-122340552D01*
X229247376Y-122422893D01*
X229323302Y-122507808D01*
X229506073Y-122676861D01*
X229723443Y-122817050D01*
X229754637Y-122831926D01*
X229935854Y-122948293D01*
X230007261Y-123065289D01*
X229977673Y-123155836D01*
X229855905Y-123192866D01*
X229651269Y-123149490D01*
X229510863Y-123110067D01*
X229433014Y-123113750D01*
X229445405Y-123180527D01*
X229500573Y-123327442D01*
X229581957Y-123517924D01*
X229672995Y-123715398D01*
X229757124Y-123883294D01*
X229817783Y-123985041D01*
X229834230Y-123999681D01*
X229889711Y-123959624D01*
X230010601Y-123856732D01*
X230111781Y-123766496D01*
X230468079Y-123497986D01*
X230840787Y-123313670D01*
X231203375Y-123223292D01*
X231529319Y-123236597D01*
X231544422Y-123240220D01*
X231683029Y-123307025D01*
X231711157Y-123392750D01*
X231642492Y-123474768D01*
X231490712Y-123530441D01*
X231362133Y-123541798D01*
X231007107Y-123604464D01*
X230638580Y-123792259D01*
X230398607Y-123974593D01*
X230219700Y-124134502D01*
X230085820Y-124268870D01*
X230024409Y-124350028D01*
X230023612Y-124352665D01*
X230047804Y-124449243D01*
X230130616Y-124595467D01*
X230158635Y-124635161D01*
X230311888Y-124842883D01*
X230536917Y-124650498D01*
X230751876Y-124510986D01*
X230986273Y-124427509D01*
X231211351Y-124400846D01*
X231398354Y-124431773D01*
X231518520Y-124521070D01*
X231547512Y-124623164D01*
X231529395Y-124704283D01*
X231452074Y-124736243D01*
X231281103Y-124732773D01*
X231273809Y-124732238D01*
X231095440Y-124732706D01*
X230954051Y-124780461D01*
X230796181Y-124897315D01*
X230733731Y-124952613D01*
X230558212Y-125132055D01*
X230482333Y-125287052D01*
X230495150Y-125463257D01*
X230564797Y-125657105D01*
X230662240Y-125890314D01*
X231149683Y-125665100D01*
X231526093Y-125516344D01*
X231830968Y-125448691D01*
X232054202Y-125463436D01*
X232167040Y-125535215D01*
X232215279Y-125654896D01*
X232146741Y-125737203D01*
X231977395Y-125767206D01*
X231721052Y-125805025D01*
X231413297Y-125906167D01*
X231104950Y-126052163D01*
X230971777Y-126132669D01*
X230723360Y-126296649D01*
X230762146Y-126702932D01*
X230788735Y-126960371D01*
X230816627Y-127198123D01*
X230833487Y-127321905D01*
X230866047Y-127534590D01*
X231272244Y-127196522D01*
X231671307Y-126904752D01*
X232063351Y-126693872D01*
X232424585Y-126575166D01*
X232629534Y-126552773D01*
X232800283Y-126564035D01*
X232875367Y-126609183D01*
X232889523Y-126682454D01*
X232836185Y-126797811D01*
X232709497Y-126849350D01*
X232370538Y-126935717D01*
X232083653Y-127053279D01*
X231795980Y-127227006D01*
X231585601Y-127380301D01*
X231364385Y-127538716D01*
X231169840Y-127659927D01*
X231033372Y-127725026D01*
X231002634Y-127731123D01*
X230907791Y-127779768D01*
X230788193Y-127932440D01*
X230635959Y-128199250D01*
X230632570Y-128205737D01*
X230498881Y-128454520D01*
X230371414Y-128679024D01*
X230274471Y-128836668D01*
X230262520Y-128854116D01*
X230158671Y-129032281D01*
X230152817Y-129130557D01*
X230244654Y-129145557D01*
X230287332Y-129134532D01*
X230564421Y-129022864D01*
X230896369Y-128849701D01*
X231239219Y-128639439D01*
X231466004Y-128480373D01*
X231742269Y-128299230D01*
X232053238Y-128136887D01*
X232380651Y-127997780D01*
X232706249Y-127886336D01*
X233011771Y-127806988D01*
X233278957Y-127764166D01*
X233489547Y-127762298D01*
X233625282Y-127805821D01*
X233667900Y-127899158D01*
X233655710Y-127949058D01*
X233564153Y-128024113D01*
X233370783Y-128079890D01*
X233302485Y-128090460D01*
X232980697Y-128153972D01*
X232635324Y-128257450D01*
X232295362Y-128388183D01*
X231989807Y-128533461D01*
X231747653Y-128680574D01*
X231597898Y-128816809D01*
X231579257Y-128845855D01*
X231528385Y-129006600D01*
X231514781Y-129135917D01*
X231468721Y-129290831D01*
X231351122Y-129367723D01*
X231218373Y-129472323D01*
X231194373Y-129633940D01*
X231278197Y-129838078D01*
X231390634Y-129987351D01*
X231522907Y-130124518D01*
X231625754Y-130207486D01*
X231654234Y-130218753D01*
X231734592Y-130259409D01*
X231870511Y-130362706D01*
X231949823Y-130431511D01*
X232184983Y-130644268D01*
X232144087Y-131184346D01*
X232103192Y-131724423D01*
X232355679Y-131724423D01*
X232579261Y-131689866D01*
X232833267Y-131600962D01*
X232915969Y-131560763D01*
X233181119Y-131439989D01*
X233381952Y-131402745D01*
X233551391Y-131444891D01*
X233604092Y-131474305D01*
X233721594Y-131515058D01*
X233851946Y-131468749D01*
X233895487Y-131441572D01*
X234094194Y-131354772D01*
X234305247Y-131328104D01*
X234492830Y-131357174D01*
X234621140Y-131437590D01*
X234657050Y-131535034D01*
X234631639Y-131617564D01*
X234533285Y-131653229D01*
X234402394Y-131658960D01*
X234228631Y-131680019D01*
X234047786Y-131754594D01*
X233821674Y-131899778D01*
X233752663Y-131949797D01*
X233529752Y-132133370D01*
X233321564Y-132338549D01*
X233152051Y-132537938D01*
X233045174Y-132704148D01*
X233020452Y-132787042D01*
X233077898Y-132820753D01*
X233218509Y-132837036D01*
X233241559Y-132837310D01*
X233439188Y-132873781D01*
X233566770Y-132967946D01*
X233596769Y-133096939D01*
X233588445Y-133125401D01*
X233516414Y-133186292D01*
X233353416Y-133191197D01*
X233302005Y-133185155D01*
X233111250Y-133179405D01*
X232969760Y-133243110D01*
X232872262Y-133330670D01*
X232741624Y-133502867D01*
X232693257Y-133660338D01*
X232735873Y-133771034D01*
X232749846Y-133781130D01*
X232829473Y-133764064D01*
X232929139Y-133680733D01*
X233114069Y-133523189D01*
X233280884Y-133462993D01*
X233408046Y-133499537D01*
X233474023Y-133632208D01*
X233478698Y-133696356D01*
X233502314Y-133798380D01*
X233531881Y-133819268D01*
X233640809Y-133795765D01*
X233843651Y-133731894D01*
X234113452Y-133637610D01*
X234423256Y-133522873D01*
X234746110Y-133397639D01*
X235055057Y-133271862D01*
X235297632Y-133167020D01*
X235668457Y-133009008D01*
X235939253Y-132915397D01*
X236122802Y-132884136D01*
X236231887Y-132913178D01*
X236279290Y-133000470D01*
X236280722Y-133009358D01*
X236261825Y-133122391D01*
X236144375Y-133186528D01*
X236117128Y-133193715D01*
X235980436Y-133239511D01*
X235760301Y-133326524D01*
X235491866Y-133440489D01*
X235311688Y-133520647D01*
X234970111Y-133667478D01*
X234594507Y-133816396D01*
X234248571Y-133942509D01*
X234137346Y-133979532D01*
X233865866Y-134074889D01*
X233625794Y-134174112D01*
X233457633Y-134259979D01*
X233424781Y-134282484D01*
X233275618Y-134373067D01*
X233153837Y-134408444D01*
X233002816Y-134438564D01*
X232776409Y-134517875D01*
X232512442Y-134629804D01*
X232248742Y-134757776D01*
X232023131Y-134885219D01*
X231942293Y-134939290D01*
X231431049Y-135299962D01*
X230991398Y-135587824D01*
X230597237Y-135817232D01*
X230222467Y-136002543D01*
X229840983Y-136158108D01*
X229532054Y-136264775D01*
X229262280Y-136367953D01*
X228928605Y-136518765D01*
X228577906Y-136695059D01*
X228320971Y-136837014D01*
X227734686Y-137174430D01*
X227236503Y-137453301D01*
X226803548Y-137684562D01*
X226412948Y-137879144D01*
X226041829Y-138047979D01*
X225667321Y-138201995D01*
X225266545Y-138352129D01*
X224835323Y-138502938D01*
X224486472Y-138615374D01*
X224034850Y-138750635D01*
X223505212Y-138901888D01*
X222922312Y-139062299D01*
X222310906Y-139225039D01*
X221695745Y-139383276D01*
X221195304Y-139507454D01*
X220835473Y-139602741D01*
X220401520Y-139729458D01*
X219941836Y-139872847D01*
X219504812Y-140018149D01*
X219395049Y-140056477D01*
X219023037Y-140185180D01*
X218664197Y-140304269D01*
X218349845Y-140403705D01*
X218111294Y-140473450D01*
X218029213Y-140494284D01*
X217818560Y-140552848D01*
X217528945Y-140647292D01*
X217202371Y-140763402D01*
X216949059Y-140859843D01*
X216432944Y-141058802D01*
X215868810Y-141269113D01*
X215280176Y-141482595D01*
X214690548Y-141691064D01*
X214123446Y-141886338D01*
X213602380Y-142060234D01*
X213150866Y-142204569D01*
X212792417Y-142311162D01*
X212726636Y-142329204D01*
X212363705Y-142432367D01*
X211936035Y-142563239D01*
X211464827Y-142714441D01*
X210971279Y-142878595D01*
X210476592Y-143048319D01*
X210001966Y-143216233D01*
X209568599Y-143374958D01*
X209197696Y-143517114D01*
X208910452Y-143635322D01*
X208733337Y-143719281D01*
X208291272Y-143966846D01*
X207967310Y-144159408D01*
X207760998Y-144297519D01*
X207671882Y-144381733D01*
X207699509Y-144412603D01*
X207843425Y-144390684D01*
X208103180Y-144316525D01*
X208295724Y-144253514D01*
X208635764Y-144143233D01*
X209046752Y-144016528D01*
X209473016Y-143890271D01*
X209804483Y-143796265D01*
X210135148Y-143699102D01*
X210552595Y-143567474D01*
X211021111Y-143413156D01*
X211504989Y-143247922D01*
X211968517Y-143083542D01*
X211988474Y-143076299D01*
X212439093Y-142917859D01*
X212901667Y-142764490D01*
X213343503Y-142626381D01*
X213731907Y-142513714D01*
X214034193Y-142436676D01*
X214059595Y-142431070D01*
X214387207Y-142359460D01*
X214635900Y-142300381D01*
X214840698Y-142241742D01*
X215036618Y-142171460D01*
X215258677Y-142077446D01*
X215541899Y-141947617D01*
X215770709Y-141840484D01*
X216416006Y-141568001D01*
X217164720Y-141308131D01*
X218022180Y-141059472D01*
X218993715Y-140820620D01*
X220084653Y-140590171D01*
X221300323Y-140366722D01*
X221482887Y-140335559D01*
X222005148Y-140235882D01*
X222504448Y-140119594D01*
X222937491Y-139997246D01*
X223110928Y-139938805D01*
X223475214Y-139824153D01*
X223823580Y-139745595D01*
X224133206Y-139705244D01*
X224381270Y-139705211D01*
X224544955Y-139747617D01*
X224596218Y-139801240D01*
X224589344Y-139923525D01*
X224464114Y-140003506D01*
X224227300Y-140037416D01*
X224169729Y-140038340D01*
X223958993Y-140050227D01*
X223870080Y-140092176D01*
X223895523Y-140173622D01*
X223987537Y-140268467D01*
X224047978Y-140316758D01*
X224114713Y-140341173D01*
X224211951Y-140338479D01*
X224363900Y-140305439D01*
X224594768Y-140238823D01*
X224887665Y-140148226D01*
X225244787Y-140041299D01*
X225613498Y-139938489D01*
X225944939Y-139853043D01*
X226146739Y-139806850D01*
X226398869Y-139752093D01*
X226736447Y-139675211D01*
X227117901Y-139585834D01*
X227501660Y-139493596D01*
X227554213Y-139480756D01*
X228194178Y-139338568D01*
X228921360Y-139201476D01*
X229692059Y-139076240D01*
X230462576Y-138969623D01*
X231189209Y-138888383D01*
X231612975Y-138852700D01*
X232029641Y-138822720D01*
X232513232Y-138787168D01*
X233000156Y-138750755D01*
X233380502Y-138721771D01*
X233792342Y-138692028D01*
X234280495Y-138659919D01*
X234790483Y-138628860D01*
X235267820Y-138602262D01*
X235377152Y-138596637D01*
X235696834Y-138578822D01*
X236001881Y-138557454D01*
X236307781Y-138530427D01*
X236630024Y-138495635D01*
X236984096Y-138450968D01*
X237385492Y-138394320D01*
X237849695Y-138323583D01*
X238392196Y-138236650D01*
X239028484Y-138131414D01*
X239774049Y-138005767D01*
X239992358Y-137968703D01*
X240485049Y-137885884D01*
X240960101Y-137807730D01*
X241394808Y-137737854D01*
X241766462Y-137679856D01*
X242052356Y-137637347D01*
X242218132Y-137615245D01*
X242536105Y-137569340D01*
X242948819Y-137496293D01*
X243424540Y-137402815D01*
X243931532Y-137295620D01*
X244438062Y-137181421D01*
X244912395Y-137066929D01*
X245322797Y-136958857D01*
X245327667Y-136957498D01*
X245671114Y-136861225D01*
X245938585Y-136784775D01*
X246164301Y-136717355D01*
X246382481Y-136648169D01*
X246627340Y-136566419D01*
X246933099Y-136461308D01*
X247258853Y-136348168D01*
X247672082Y-136213807D01*
X248151710Y-136072411D01*
X248635555Y-135941623D01*
X249026378Y-135846850D01*
X249698243Y-135686948D01*
X250309341Y-135518706D01*
X250877352Y-135333381D01*
X251419962Y-135122229D01*
X251954851Y-134876506D01*
X252499707Y-134587468D01*
X253072205Y-134246372D01*
X253690035Y-133844473D01*
X254370874Y-133373028D01*
X255114523Y-132836396D01*
X255341263Y-132682498D01*
X255573105Y-132543888D01*
X255698357Y-132479593D01*
X255852498Y-132385810D01*
X256067406Y-132224455D01*
X256311250Y-132020517D01*
X256491779Y-131856721D01*
X256755529Y-131621948D01*
X257033268Y-131397136D01*
X257284857Y-131213806D01*
X257413617Y-131132799D01*
X257662526Y-130973687D01*
X257943129Y-130767410D01*
X258191327Y-130561524D01*
X258521818Y-130292966D01*
X258918810Y-130014186D01*
X259340786Y-129751253D01*
X259746227Y-129530229D01*
X260054612Y-129391769D01*
X260302408Y-129269529D01*
X260425693Y-129131702D01*
X260430866Y-128960915D01*
X260324331Y-128739792D01*
X260305525Y-128710829D01*
X260127419Y-128525269D01*
X259847910Y-128333014D01*
X259495155Y-128146212D01*
X259097319Y-127977010D01*
X258682562Y-127837558D01*
X258279043Y-127740002D01*
X257959137Y-127698668D01*
X257762377Y-127670193D01*
X257604388Y-127620679D01*
X257599085Y-127618007D01*
X257476982Y-127578443D01*
X257264454Y-127531597D01*
X257001061Y-127485844D01*
X256914780Y-127473123D01*
X256613661Y-127423164D01*
X256322195Y-127362146D01*
X256095330Y-127301813D01*
X256063750Y-127291286D01*
X255854952Y-127235882D01*
X255570765Y-127183489D01*
X255266543Y-127144017D01*
X255212719Y-127138941D01*
X254828524Y-127090591D01*
X254430376Y-127015162D01*
X254039252Y-126919500D01*
X253676131Y-126810447D01*
X253361992Y-126694850D01*
X253117816Y-126579549D01*
X253117096Y-126579042D01*
X256867945Y-126579042D01*
X256885936Y-126624530D01*
X256980684Y-126665584D01*
X257135291Y-126654088D01*
X257333917Y-126616569D01*
X257573097Y-126575700D01*
X257634138Y-126565965D01*
X257834504Y-126505110D01*
X257949867Y-126410793D01*
X257965078Y-126303870D01*
X257900945Y-126233451D01*
X259233807Y-126233451D01*
X259258137Y-126305383D01*
X259354381Y-126447699D01*
X259504737Y-126635421D01*
X259590628Y-126734019D01*
X259796388Y-126950894D01*
X259997209Y-127126289D01*
X260229609Y-127287159D01*
X260530100Y-127460455D01*
X260691766Y-127546780D01*
X260977778Y-127691923D01*
X261232311Y-127811336D01*
X261427499Y-127892580D01*
X261534941Y-127923198D01*
X261675502Y-127880307D01*
X261805639Y-127780222D01*
X261947869Y-127593419D01*
X261984228Y-127436253D01*
X261911735Y-127277143D01*
X261741281Y-127097210D01*
X261534980Y-126923994D01*
X261265736Y-126721146D01*
X260968428Y-126512580D01*
X260677946Y-126322204D01*
X260429173Y-126173933D01*
X260297268Y-126107450D01*
X260146911Y-126065381D01*
X259955503Y-126063807D01*
X259691402Y-126100305D01*
X259469894Y-126146535D01*
X259304271Y-126195375D01*
X259233807Y-126233451D01*
X257900945Y-126233451D01*
X257886814Y-126217935D01*
X257705739Y-126162585D01*
X257484959Y-126169650D01*
X257287655Y-126232322D01*
X257209367Y-126290916D01*
X257091591Y-126389271D01*
X257006694Y-126421846D01*
X256897017Y-126470896D01*
X256867945Y-126579042D01*
X253117096Y-126579042D01*
X252964577Y-126471390D01*
X252921483Y-126391495D01*
X252872381Y-126286001D01*
X252783458Y-126201667D01*
X252694692Y-126101117D01*
X252710238Y-126018989D01*
X252803527Y-125969844D01*
X252948000Y-125968245D01*
X253107966Y-126023759D01*
X253256382Y-126051198D01*
X253468464Y-126029014D01*
X253480079Y-126026512D01*
X253993780Y-125924399D01*
X254365839Y-125865402D01*
X260711688Y-125865402D01*
X260744420Y-125898134D01*
X260777152Y-125865402D01*
X260744420Y-125832670D01*
X260711688Y-125865402D01*
X254365839Y-125865402D01*
X254506958Y-125843027D01*
X254979519Y-125787848D01*
X255371372Y-125764326D01*
X255409110Y-125763900D01*
X255693363Y-125749188D01*
X255964571Y-125712999D01*
X256161945Y-125663798D01*
X256330175Y-125620948D01*
X256587716Y-125578259D01*
X256900801Y-125538858D01*
X257235663Y-125505868D01*
X257558535Y-125482415D01*
X257835647Y-125471624D01*
X258033234Y-125476618D01*
X258089458Y-125485422D01*
X258217804Y-125497081D01*
X258380460Y-125486010D01*
X258535075Y-125459290D01*
X258639306Y-125424011D01*
X258655041Y-125390801D01*
X258500210Y-125302902D01*
X258230224Y-125224718D01*
X257860639Y-125158308D01*
X257407002Y-125105725D01*
X256884865Y-125069025D01*
X256309778Y-125050265D01*
X256063725Y-125048237D01*
X255468850Y-125063673D01*
X254954638Y-125110194D01*
X254534935Y-125185683D01*
X254223588Y-125288028D01*
X254117940Y-125345253D01*
X253984636Y-125408593D01*
X253815373Y-125432095D01*
X253566677Y-125421152D01*
X253531782Y-125418001D01*
X253296717Y-125404235D01*
X253101941Y-125420023D01*
X252894558Y-125474570D01*
X252625108Y-125575697D01*
X252291357Y-125689366D01*
X251961081Y-125768054D01*
X251758689Y-125794123D01*
X251366108Y-125827136D01*
X250977727Y-125877662D01*
X250624622Y-125940141D01*
X250337878Y-126009017D01*
X250148574Y-126078728D01*
X250139265Y-126083782D01*
X249985132Y-126216598D01*
X249844657Y-126411731D01*
X249813640Y-126471767D01*
X249719461Y-126645962D01*
X249626895Y-126727654D01*
X249497781Y-126749089D01*
X249485297Y-126749166D01*
X249295116Y-126715422D01*
X249087488Y-126632574D01*
X249058089Y-126616322D01*
X248884645Y-126521337D01*
X248643006Y-126396466D01*
X248383417Y-126267636D01*
X248365896Y-126259150D01*
X248060408Y-126090487D01*
X247803399Y-125892762D01*
X247541704Y-125624519D01*
X247519080Y-125598892D01*
X247241799Y-125314539D01*
X246987094Y-125114046D01*
X246858137Y-125043703D01*
X246667586Y-124941478D01*
X246562215Y-124816847D01*
X246513971Y-124685603D01*
X246422641Y-124493678D01*
X246258618Y-124261779D01*
X246054771Y-124027377D01*
X245843970Y-123827949D01*
X245659085Y-123700966D01*
X245644294Y-123694134D01*
X245516528Y-123595622D01*
X245357138Y-123414330D01*
X245190745Y-123185708D01*
X245041962Y-122945208D01*
X244935410Y-122728282D01*
X244902294Y-122625589D01*
X244825316Y-122450703D01*
X244702364Y-122294428D01*
X244582192Y-122129685D01*
X244541826Y-121911479D01*
X244541271Y-121877058D01*
X244537601Y-121854240D01*
X249586176Y-121854240D01*
X249636753Y-122320874D01*
X249741617Y-122855849D01*
X249815176Y-123161478D01*
X249927688Y-123596747D01*
X250022471Y-123926772D01*
X250109708Y-124174233D01*
X250199573Y-124361803D01*
X250302245Y-124512159D01*
X250427906Y-124647979D01*
X250521107Y-124734196D01*
X250700787Y-124880012D01*
X250854363Y-124953055D01*
X251043367Y-124977832D01*
X251137590Y-124979686D01*
X251329639Y-124974403D01*
X251454382Y-124958733D01*
X251481275Y-124944540D01*
X251445103Y-124874030D01*
X251354583Y-124742376D01*
X251315820Y-124690518D01*
X251208373Y-124519369D01*
X251089160Y-124284073D01*
X250975328Y-124024859D01*
X250884018Y-123781950D01*
X250832377Y-123595575D01*
X250826636Y-123542708D01*
X250793213Y-123443282D01*
X250703779Y-123265735D01*
X250574584Y-123041123D01*
X250506510Y-122930918D01*
X250298898Y-122578720D01*
X250158757Y-122269680D01*
X250084448Y-121975918D01*
X250074331Y-121669543D01*
X250126770Y-121322675D01*
X250240117Y-120907433D01*
X250365390Y-120530695D01*
X250628530Y-119872666D01*
X250929742Y-119294048D01*
X251256512Y-118818341D01*
X251314646Y-118748292D01*
X251462719Y-118551257D01*
X251626651Y-118297321D01*
X251745380Y-118088572D01*
X251918753Y-117775607D01*
X252097657Y-117493070D01*
X252300593Y-117217564D01*
X252546062Y-116925686D01*
X252852563Y-116594036D01*
X253238596Y-116199211D01*
X253240656Y-116197140D01*
X253740201Y-115694445D01*
X254153830Y-115275985D01*
X254488370Y-114933579D01*
X254750641Y-114659048D01*
X254947475Y-114444210D01*
X255085696Y-114280882D01*
X255172130Y-114160885D01*
X255213603Y-114076038D01*
X255216940Y-114018157D01*
X255188969Y-113979066D01*
X255136515Y-113950579D01*
X255120430Y-113944178D01*
X254982774Y-113949580D01*
X254808498Y-114026232D01*
X254646346Y-114146092D01*
X254548499Y-114273172D01*
X254449408Y-114398786D01*
X254283912Y-114531626D01*
X254217091Y-114572693D01*
X253818028Y-114846353D01*
X253467681Y-115199605D01*
X253229945Y-115517229D01*
X253055111Y-115753602D01*
X252828160Y-116031669D01*
X252590402Y-116301398D01*
X252523218Y-116373134D01*
X252148371Y-116777671D01*
X251788549Y-117186813D01*
X251469319Y-117570583D01*
X251216250Y-117899006D01*
X251186688Y-117940082D01*
X251018637Y-118164393D01*
X250827526Y-118403215D01*
X250758834Y-118484683D01*
X250535453Y-118790036D01*
X250304289Y-119185701D01*
X250084004Y-119633763D01*
X249893257Y-120096306D01*
X249752157Y-120530092D01*
X249644678Y-120992275D01*
X249589085Y-121422515D01*
X249586176Y-121854240D01*
X244537601Y-121854240D01*
X244537601Y-121854239D01*
X244499480Y-121617295D01*
X244385168Y-121308089D01*
X244344879Y-121224606D01*
X244244016Y-121011941D01*
X244173399Y-120836746D01*
X244149317Y-120743507D01*
X244129330Y-120647695D01*
X244074770Y-120455153D01*
X243993737Y-120192937D01*
X243894326Y-119888093D01*
X243883882Y-119856890D01*
X243618447Y-119065727D01*
X243687230Y-118504998D01*
X243722119Y-118221952D01*
X243743608Y-118026585D01*
X243752441Y-117876412D01*
X243749358Y-117728950D01*
X243735099Y-117541717D01*
X243710409Y-117272224D01*
X243709011Y-117256897D01*
X243682405Y-116986780D01*
X243655069Y-116818217D01*
X243615430Y-116722286D01*
X243551910Y-116670063D01*
X243460102Y-116634990D01*
X243311563Y-116567926D01*
X243096753Y-116449272D01*
X242856940Y-116302122D01*
X242805465Y-116268576D01*
X242560447Y-116116868D01*
X242325736Y-115988185D01*
X242145357Y-115906341D01*
X242119935Y-115897768D01*
X241975902Y-115871130D01*
X241729744Y-115843718D01*
X241410225Y-115818014D01*
X241046109Y-115796503D01*
X240843389Y-115787592D01*
X240232958Y-115778369D01*
X239625328Y-115800495D01*
X238988103Y-115856756D01*
X238288884Y-115949945D01*
X237570194Y-116069406D01*
X237373736Y-116104425D01*
X237088338Y-116155259D01*
X236753955Y-116214796D01*
X236445899Y-116269628D01*
X236021498Y-116351909D01*
X235491849Y-116465654D01*
X234877506Y-116606045D01*
X234199020Y-116768269D01*
X233476945Y-116947507D01*
X232731831Y-117138943D01*
X232693131Y-117149065D01*
X232345836Y-117235054D01*
X231935875Y-117329177D01*
X231529454Y-117416471D01*
X231351120Y-117452326D01*
X231029872Y-117522546D01*
X230626506Y-117622038D01*
X230183466Y-117739731D01*
X229743192Y-117864548D01*
X229550863Y-117922044D01*
X229056594Y-118072563D01*
X228669109Y-118189960D01*
X228369995Y-118279434D01*
X228140839Y-118346187D01*
X227963233Y-118395417D01*
X227818764Y-118432326D01*
X227689021Y-118462113D01*
X227555593Y-118489977D01*
X227501441Y-118500874D01*
X227272147Y-118557241D01*
X227139461Y-118622695D01*
X227069369Y-118715345D01*
X227061179Y-118735239D01*
X226961462Y-118864586D01*
X226866596Y-118893495D01*
X226674038Y-118934570D01*
X226401255Y-119049639D01*
X226066549Y-119226469D01*
X225688216Y-119452827D01*
X225284559Y-119716481D01*
X224873874Y-120005197D01*
X224474463Y-120306742D01*
X224104625Y-120608883D01*
X223782658Y-120899387D01*
X223618193Y-121065008D01*
X223361150Y-121354654D01*
X223196963Y-121586596D01*
X223115226Y-121783631D01*
X223105532Y-121968546D01*
X223139474Y-122113577D01*
X223186189Y-122326289D01*
X223157473Y-122432659D01*
X223045581Y-122474727D01*
X222930277Y-122400278D01*
X222828297Y-122222169D01*
X222807015Y-122163459D01*
X222760277Y-121890101D01*
X222810195Y-121618848D01*
X222963885Y-121330348D01*
X223228461Y-121005252D01*
X223235827Y-120997277D01*
X223443906Y-120767190D01*
X223563962Y-120610136D01*
X223588471Y-120517201D01*
X223509897Y-120479465D01*
X223320715Y-120488011D01*
X223013392Y-120533924D01*
X222865752Y-120559024D01*
X222623884Y-120597822D01*
X222283940Y-120648479D01*
X221877745Y-120706453D01*
X221437121Y-120767198D01*
X221007822Y-120824353D01*
X220118684Y-120941829D01*
X219345901Y-121047399D01*
X218675698Y-121143599D01*
X218094301Y-121232973D01*
X217587937Y-121318053D01*
X217142832Y-121401385D01*
X216745210Y-121485503D01*
X216381300Y-121572947D01*
X216037325Y-121666256D01*
X215699513Y-121767971D01*
X215448831Y-121849005D01*
X214799862Y-122078918D01*
X214211694Y-122322919D01*
X213630050Y-122605324D01*
X213037910Y-122929151D01*
X212238464Y-123345803D01*
X211344047Y-123736672D01*
X210345807Y-124105027D01*
X209234891Y-124454136D01*
X208013234Y-124784552D01*
X207549054Y-124906072D01*
X207179991Y-125017887D01*
X206872799Y-125136123D01*
X206594240Y-125276904D01*
X206311069Y-125456349D01*
X205990047Y-125690580D01*
X205729824Y-125892001D01*
X205386858Y-126150891D01*
X205130043Y-126320916D01*
X204952380Y-126405220D01*
X204846873Y-126406948D01*
X204806524Y-126329243D01*
X204805641Y-126307284D01*
X204857422Y-126216328D01*
X205001393Y-126066961D01*
X205220707Y-125873245D01*
X205498515Y-125649244D01*
X205817970Y-125409022D01*
X206162221Y-125166644D01*
X206214515Y-125131268D01*
X206444549Y-124986457D01*
X206676311Y-124865764D01*
X206938341Y-124758055D01*
X207259174Y-124652194D01*
X207667349Y-124537046D01*
X207882306Y-124480481D01*
X208799897Y-124234568D01*
X209609045Y-123999136D01*
X210330929Y-123766222D01*
X210986724Y-123527857D01*
X211597613Y-123276074D01*
X212184769Y-123002905D01*
X212769374Y-122700385D01*
X213097781Y-122518437D01*
X213361659Y-122372285D01*
X213595198Y-122248601D01*
X213767499Y-122163443D01*
X213834250Y-122135632D01*
X213942804Y-122076891D01*
X213970450Y-122031353D01*
X214024229Y-121978788D01*
X214079556Y-121970299D01*
X214157967Y-121956295D01*
X214158871Y-121940506D01*
X214088496Y-121945287D01*
X213913360Y-121977769D01*
X213655564Y-122033283D01*
X213337210Y-122107154D01*
X213116903Y-122160676D01*
X212737637Y-122256111D01*
X212389042Y-122348422D01*
X212045976Y-122445179D01*
X211683296Y-122553950D01*
X211275855Y-122682306D01*
X210798512Y-122837814D01*
X210226130Y-123028042D01*
X210140811Y-123056593D01*
X209559792Y-123245112D01*
X208889542Y-123452280D01*
X208168238Y-123666569D01*
X207434050Y-123876452D01*
X207325862Y-123906648D01*
X207044089Y-123989849D01*
X206675225Y-124105936D01*
X206241071Y-124247391D01*
X205763432Y-124406707D01*
X205264107Y-124576362D01*
X204764899Y-124748845D01*
X204287610Y-124916639D01*
X203854042Y-125072231D01*
X203485996Y-125208106D01*
X203205274Y-125316748D01*
X203070708Y-125373331D01*
X202421570Y-125654522D01*
X201870602Y-125870039D01*
X201405607Y-126024638D01*
X201383878Y-126031004D01*
X201061277Y-126129491D01*
X200706075Y-126244855D01*
X200452152Y-126332109D01*
X200151119Y-126436185D01*
X199800010Y-126552850D01*
X199474155Y-126657080D01*
X199470193Y-126658313D01*
X199210237Y-126741254D01*
X198986108Y-126816553D01*
X198837325Y-126870827D01*
X198815554Y-126879980D01*
X198642433Y-126941217D01*
X198553698Y-126962667D01*
X197477461Y-126962667D01*
X197499456Y-126924391D01*
X197537242Y-126896388D01*
X197654187Y-126845634D01*
X197863725Y-126774705D01*
X198131336Y-126694797D01*
X198306443Y-126646928D01*
X198756420Y-126522040D01*
X199272955Y-126368292D01*
X199832818Y-126193513D01*
X200412777Y-126005524D01*
X200989596Y-125812154D01*
X201540045Y-125621228D01*
X202040893Y-125440569D01*
X202468906Y-125278001D01*
X202800850Y-125141354D01*
X202874317Y-125108386D01*
X203123145Y-125001116D01*
X203438969Y-124875182D01*
X203764538Y-124753197D01*
X203856275Y-124720498D01*
X204678514Y-124434231D01*
X205446635Y-124171881D01*
X206147855Y-123937642D01*
X206769388Y-123735711D01*
X207298452Y-123570281D01*
X207722260Y-123445548D01*
X207841833Y-123412692D01*
X208184002Y-123316814D01*
X208606115Y-123192233D01*
X209064120Y-123052293D01*
X209513964Y-122910340D01*
X209707554Y-122847536D01*
X210128858Y-122709426D01*
X210568671Y-122565252D01*
X210986215Y-122428381D01*
X211340713Y-122312178D01*
X211482822Y-122265597D01*
X211823647Y-122158411D01*
X212176347Y-122054975D01*
X212488240Y-121970430D01*
X212628440Y-121936301D01*
X212961499Y-121855874D01*
X213391282Y-121744767D01*
X213889400Y-121610869D01*
X214427458Y-121462070D01*
X214977063Y-121306260D01*
X215509825Y-121151329D01*
X215997348Y-121005167D01*
X216163492Y-120953983D01*
X216557245Y-120835508D01*
X216571328Y-120831495D01*
X216571332Y-120831494D01*
X218049259Y-120831494D01*
X218109297Y-120833677D01*
X218250033Y-120826255D01*
X218446707Y-120811238D01*
X218674560Y-120790640D01*
X218908832Y-120766470D01*
X219124763Y-120740740D01*
X219240296Y-120724627D01*
X219442461Y-120695801D01*
X219741562Y-120655369D01*
X220104589Y-120607692D01*
X220498527Y-120557129D01*
X220713235Y-120530068D01*
X221185648Y-120468486D01*
X221717252Y-120395235D01*
X222249124Y-120318649D01*
X222722335Y-120247075D01*
X222809382Y-120233361D01*
X223173890Y-120177293D01*
X223505990Y-120129678D01*
X223778133Y-120094207D01*
X223962771Y-120074572D01*
X224014515Y-120071846D01*
X224201210Y-120023098D01*
X224445516Y-119885014D01*
X224552335Y-119808591D01*
X224810655Y-119623197D01*
X225099381Y-119429959D01*
X225267259Y-119324712D01*
X225442638Y-119207830D01*
X225550100Y-119113642D01*
X225566405Y-119062619D01*
X225483172Y-119063902D01*
X225296157Y-119094080D01*
X225028171Y-119148627D01*
X224702024Y-119223021D01*
X224464647Y-119281132D01*
X223585536Y-119495857D01*
X222744321Y-119689283D01*
X221971491Y-119854594D01*
X221398196Y-119966606D01*
X221142998Y-120018922D01*
X220800053Y-120096483D01*
X220407961Y-120190204D01*
X220005323Y-120291000D01*
X219859794Y-120328689D01*
X219501940Y-120422106D01*
X219178059Y-120506242D01*
X218914169Y-120574369D01*
X218736288Y-120619761D01*
X218683852Y-120632760D01*
X218499820Y-120687295D01*
X218389264Y-120729226D01*
X218217323Y-120787988D01*
X218094677Y-120817694D01*
X218049259Y-120831494D01*
X216571332Y-120831494D01*
X216971314Y-120717488D01*
X217359115Y-120612825D01*
X217674065Y-120534410D01*
X217701894Y-120528024D01*
X217995211Y-120460225D01*
X218261144Y-120396530D01*
X218459439Y-120346675D01*
X218520194Y-120330113D01*
X218849945Y-120238730D01*
X219258865Y-120131516D01*
X219714833Y-120016295D01*
X220185737Y-119900891D01*
X220639456Y-119793126D01*
X221043880Y-119700825D01*
X221366889Y-119631810D01*
X221466069Y-119612483D01*
X222278600Y-119452501D01*
X223101785Y-119274805D01*
X223885189Y-119090659D01*
X224444678Y-118947520D01*
X224752363Y-118865782D01*
X225023159Y-118794804D01*
X225226520Y-118742530D01*
X225328440Y-118717646D01*
X225942796Y-118569530D01*
X226539522Y-118398078D01*
X226844801Y-118310927D01*
X227165961Y-118229364D01*
X227423286Y-118173128D01*
X227662114Y-118120475D01*
X227974584Y-118041393D01*
X228309561Y-117949128D01*
X228470708Y-117901830D01*
X229125142Y-117705101D01*
X229655058Y-117546094D01*
X230061246Y-117424567D01*
X230344496Y-117340289D01*
X230505596Y-117293021D01*
X230534605Y-117284810D01*
X230629696Y-117262535D01*
X230829329Y-117218348D01*
X231109946Y-117157382D01*
X231447981Y-117084762D01*
X231712956Y-117028297D01*
X232171481Y-116927482D01*
X232701546Y-116805472D01*
X233248293Y-116675208D01*
X233756864Y-116549629D01*
X233936945Y-116503703D01*
X235008533Y-116241183D01*
X236062089Y-116013003D01*
X237141370Y-115810582D01*
X238290134Y-115625341D01*
X238781276Y-115553795D01*
X239222157Y-115496506D01*
X239603778Y-115461133D01*
X239976138Y-115445278D01*
X240389234Y-115446548D01*
X240777925Y-115458106D01*
X241280486Y-115480328D01*
X241676656Y-115508860D01*
X241990970Y-115549244D01*
X242247965Y-115607018D01*
X242472174Y-115687720D01*
X242688133Y-115796890D01*
X242920376Y-115940067D01*
X242924402Y-115942693D01*
X243171671Y-116096161D01*
X243406421Y-116228367D01*
X243586344Y-116315807D01*
X243618176Y-116328050D01*
X243834035Y-116436377D01*
X243958982Y-116594957D01*
X244011976Y-116833916D01*
X244017309Y-116962310D01*
X244036197Y-117230149D01*
X244093634Y-117387170D01*
X244199944Y-117435737D01*
X244365449Y-117378210D01*
X244600472Y-117216954D01*
X244717831Y-117122637D01*
X244926684Y-116974486D01*
X245137809Y-116863063D01*
X245260813Y-116822789D01*
X245613211Y-116713891D01*
X245960096Y-116507886D01*
X246137055Y-116367218D01*
X246361575Y-116201296D01*
X246616789Y-116047646D01*
X246693497Y-116009042D01*
X247018046Y-115836937D01*
X247413248Y-115595225D01*
X247852068Y-115301464D01*
X248307460Y-114973215D01*
X248423285Y-114885874D01*
X248943342Y-114535949D01*
X249458821Y-114289419D01*
X250010818Y-114126980D01*
X250061969Y-114116180D01*
X250322907Y-114048906D01*
X250633468Y-113949283D01*
X250911551Y-113844752D01*
X251281439Y-113719501D01*
X251691705Y-113622767D01*
X251905342Y-113589709D01*
X252290367Y-113532811D01*
X252663083Y-113457022D01*
X252994571Y-113370013D01*
X253255910Y-113279450D01*
X253418180Y-113193008D01*
X253426132Y-113186398D01*
X253673176Y-113008662D01*
X253884783Y-112948307D01*
X254080659Y-113003970D01*
G37*
D15*
%TO.C,MCU1*%
X168808034Y-135952567D02*
X186588034Y-135952567D01*
X168808034Y-137852567D02*
X168808034Y-135952567D01*
X168808034Y-139827567D02*
X168808034Y-140357567D01*
X168808034Y-142367568D02*
X168808034Y-142897567D01*
X168808034Y-144907567D02*
X168808034Y-145437567D01*
X168808034Y-147447568D02*
X168808034Y-147977567D01*
X168808034Y-149987567D02*
X168808034Y-150517567D01*
X168808034Y-152527568D02*
X168808035Y-153057567D01*
X168808034Y-156952567D02*
X168808034Y-155052566D01*
D10*
X184048034Y-140102567D02*
X184048034Y-142642566D01*
X184048034Y-140102567D02*
X186588034Y-140102567D01*
X184048034Y-142642566D02*
X186588034Y-142642567D01*
D15*
X186588035Y-135962568D02*
X186588035Y-137802567D01*
X186588034Y-139842567D02*
X186588033Y-140372566D01*
X186588034Y-142377566D02*
X186588033Y-142907567D01*
X186588034Y-144917566D02*
X186588033Y-145447568D01*
X186588034Y-147447566D02*
X186588034Y-147977567D01*
X186588034Y-149997567D02*
X186588034Y-150527567D01*
X186588034Y-152537567D02*
X186588034Y-153067567D01*
X186588034Y-155062567D02*
X186588034Y-156952567D01*
X186588034Y-156952567D02*
X168808034Y-156952567D01*
D13*
%TO.C,D19*%
X243311780Y-133679121D02*
X243682654Y-133529278D01*
X243682654Y-133529278D02*
X243476620Y-133019328D01*
X243682654Y-133529278D02*
X243888686Y-134039229D01*
X243682654Y-133529278D02*
X244089121Y-132933641D01*
X244089121Y-132933641D02*
X244388807Y-133675388D01*
X244238964Y-133304514D02*
X244702556Y-133117211D01*
X244388807Y-133675388D02*
X243682654Y-133529278D01*
%TO.C,D26*%
X203247044Y-131923410D02*
X203615243Y-131767116D01*
X203615243Y-131767116D02*
X203400344Y-131260841D01*
X203615243Y-131767116D02*
X203830147Y-132273396D01*
X203615243Y-131767116D02*
X204011256Y-131164477D01*
X204011256Y-131164477D02*
X204323841Y-131900881D01*
X204167548Y-131532679D02*
X204627800Y-131337314D01*
X204323841Y-131900881D02*
X203615243Y-131767116D01*
%TO.C,D20*%
X236943466Y-117916997D02*
X237314340Y-117767154D01*
X237314340Y-117767154D02*
X237108306Y-117257204D01*
X237314340Y-117767154D02*
X237520372Y-118277105D01*
X237314340Y-117767154D02*
X237720807Y-117171517D01*
X237720807Y-117171517D02*
X238020493Y-117913264D01*
X237870650Y-117542390D02*
X238334242Y-117355087D01*
X238020493Y-117913264D02*
X237314340Y-117767154D01*
%TO.C,D10*%
X131268699Y-131207936D02*
X131636900Y-131364228D01*
X131636900Y-131364228D02*
X131422001Y-131870505D01*
X131636900Y-131364228D02*
X131851803Y-130857950D01*
X131636900Y-131364228D02*
X132345496Y-131230464D01*
X132032912Y-131966868D02*
X131636900Y-131364228D01*
X132189204Y-131598667D02*
X132649457Y-131794032D01*
X132345496Y-131230464D02*
X132032912Y-131966868D01*
%TO.C,D25*%
X209889470Y-147571987D02*
X210257669Y-147415693D01*
X210257669Y-147415693D02*
X210042770Y-146909418D01*
X210257669Y-147415693D02*
X210472573Y-147921973D01*
X210257669Y-147415693D02*
X210653682Y-146813054D01*
X210653682Y-146813054D02*
X210966267Y-147549458D01*
X210809974Y-147181256D02*
X211270226Y-146985891D01*
X210966267Y-147549458D02*
X210257669Y-147415693D01*
%TO.C,D18*%
X253353923Y-102149769D02*
X253738427Y-102039514D01*
X253738427Y-102039514D02*
X253586828Y-101510820D01*
X253738427Y-102039514D02*
X253890028Y-102568208D01*
X253738427Y-102039514D02*
X254204929Y-101489629D01*
X254204929Y-101489629D02*
X254425439Y-102258636D01*
X254315183Y-101874131D02*
X254795815Y-101736313D01*
X254425439Y-102258636D02*
X253738427Y-102039514D01*
%TO.C,D9*%
X124626271Y-146856518D02*
X124994472Y-147012810D01*
X124994472Y-147012810D02*
X124779573Y-147519087D01*
X124994472Y-147012810D02*
X125209375Y-146506532D01*
X124994472Y-147012810D02*
X125703068Y-146879046D01*
X125390484Y-147615450D02*
X124994472Y-147012810D01*
X125546776Y-147247249D02*
X126007029Y-147442614D01*
X125703068Y-146879046D02*
X125390484Y-147615450D01*
%TO.C,D16*%
X262725597Y-134832667D02*
X263110101Y-134722412D01*
X263110101Y-134722412D02*
X262958502Y-134193718D01*
X263110101Y-134722412D02*
X263261702Y-135251106D01*
X263110101Y-134722412D02*
X263576603Y-134172527D01*
X263576603Y-134172527D02*
X263797113Y-134941534D01*
X263686857Y-134557029D02*
X264167489Y-134419211D01*
X263797113Y-134941534D02*
X263110101Y-134722412D01*
%TO.C,D7*%
X117061829Y-117355092D02*
X117432702Y-117504932D01*
X117432702Y-117504932D02*
X117226668Y-118014882D01*
X117432702Y-117504932D02*
X117638735Y-116994981D01*
X117432702Y-117504932D02*
X118138855Y-117358822D01*
X117839169Y-118100569D02*
X117432702Y-117504932D01*
X117989012Y-117729696D02*
X118452603Y-117916996D01*
X118138855Y-117358822D02*
X117839169Y-118100569D01*
%TO.C,D6*%
X110693514Y-133117217D02*
X111064387Y-133267057D01*
X111064387Y-133267057D02*
X110858353Y-133777007D01*
X111064387Y-133267057D02*
X111270420Y-132757106D01*
X111064387Y-133267057D02*
X111770540Y-133120947D01*
X111470854Y-133862694D02*
X111064387Y-133267057D01*
X111620697Y-133491821D02*
X112084288Y-133679121D01*
X111770540Y-133120947D02*
X111470854Y-133862694D01*
D10*
%TO.C,JST1*%
X187898035Y-149602569D02*
X187898035Y-157202570D01*
X187898035Y-157202570D02*
X193798035Y-157202569D01*
X188598034Y-149602569D02*
X187898035Y-149602569D01*
X188598035Y-151202569D02*
X188598034Y-149602569D01*
X189598036Y-152702569D02*
X190098035Y-152702569D01*
X189848035Y-152452569D02*
X189848035Y-152952569D01*
X193098035Y-151202569D02*
X188598035Y-151202569D01*
X193098036Y-149602568D02*
X193098035Y-151202569D01*
X193798035Y-149602569D02*
X193098036Y-149602568D01*
X193798035Y-157202569D02*
X193798035Y-149602569D01*
D13*
%TO.C,D30*%
X206902793Y-182566845D02*
X207222248Y-182326120D01*
X207222248Y-182326120D02*
X206891249Y-181886870D01*
X207222248Y-182326120D02*
X207460703Y-181645576D01*
X207222248Y-182326120D02*
X207553246Y-182765369D01*
X207460703Y-181645576D02*
X207942155Y-182284484D01*
X207701429Y-181965030D02*
X208100747Y-181664123D01*
X207942155Y-182284484D02*
X207222248Y-182326120D01*
%TO.C,D8*%
X123430139Y-101592965D02*
X123801012Y-101742805D01*
X123801012Y-101742805D02*
X123594978Y-102252755D01*
X123801012Y-101742805D02*
X124007045Y-101232854D01*
X123801012Y-101742805D02*
X124507165Y-101596695D01*
X124207479Y-102338442D02*
X123801012Y-101742805D01*
X124357322Y-101967569D02*
X124820913Y-102154869D01*
X124507165Y-101596695D02*
X124207479Y-102338442D01*
%TO.C,D29*%
X222272005Y-172284373D02*
X222618415Y-172084373D01*
X222618415Y-172084373D02*
X222343416Y-171608059D01*
X222618415Y-172084373D02*
X222893415Y-172560687D01*
X222618415Y-172084373D02*
X222938030Y-171437964D01*
X222938030Y-171437964D02*
X223338030Y-172130783D01*
X223138030Y-171784373D02*
X223571043Y-171534373D01*
X223338030Y-172130783D02*
X222618415Y-172084373D01*
%TO.C,D24*%
X216104183Y-116145450D02*
X216472382Y-115989156D01*
X216472382Y-115989156D02*
X216257483Y-115482881D01*
X216472382Y-115989156D02*
X216687286Y-116495436D01*
X216472382Y-115989156D02*
X216868395Y-115386517D01*
X216868395Y-115386517D02*
X217180980Y-116122921D01*
X217024687Y-115754719D02*
X217484939Y-115559354D01*
X217180980Y-116122921D02*
X216472382Y-115989156D01*
%TO.C,D14*%
X281967543Y-139953814D02*
X282364561Y-139905064D01*
X282364561Y-139905064D02*
X282297534Y-139359165D01*
X282364561Y-139905064D02*
X282431590Y-140450967D01*
X282364561Y-139905064D02*
X282911342Y-139434925D01*
X282911342Y-139434925D02*
X283008837Y-140228961D01*
X282960089Y-139831944D02*
X283456363Y-139771008D01*
X283008837Y-140228961D02*
X282364561Y-139905064D01*
%TO.C,D11*%
X137911128Y-115559354D02*
X138279329Y-115715646D01*
X138279329Y-115715646D02*
X138064430Y-116221923D01*
X138279329Y-115715646D02*
X138494232Y-115209368D01*
X138279329Y-115715646D02*
X138987925Y-115581882D01*
X138675341Y-116318286D02*
X138279329Y-115715646D01*
X138831633Y-115950085D02*
X139291886Y-116145450D01*
X138987925Y-115581882D02*
X138675341Y-116318286D01*
%TO.C,D1*%
X71939704Y-139771012D02*
X72336723Y-139819761D01*
X72336723Y-139819761D02*
X72269695Y-140365661D01*
X72336723Y-139819761D02*
X72403751Y-139273859D01*
X72336723Y-139819761D02*
X72980997Y-139495864D01*
X72883503Y-140289901D02*
X72336723Y-139819761D01*
X72932250Y-139892882D02*
X73428524Y-139953818D01*
X72980997Y-139495864D02*
X72883503Y-140289901D01*
%TO.C,D2*%
X74011480Y-122897726D02*
X74408499Y-122946475D01*
X74408499Y-122946475D02*
X74341471Y-123492375D01*
X74408499Y-122946475D02*
X74475527Y-122400573D01*
X74408499Y-122946475D02*
X75052773Y-122622578D01*
X74955279Y-123416615D02*
X74408499Y-122946475D01*
X75004026Y-123019596D02*
X75500300Y-123080532D01*
X75052773Y-122622578D02*
X74955279Y-123416615D01*
%TO.C,D5*%
X100600253Y-101736315D02*
X100984757Y-101846569D01*
X100984757Y-101846569D02*
X100833158Y-102375263D01*
X100984757Y-101846569D02*
X101136358Y-101317874D01*
X100984757Y-101846569D02*
X101671769Y-101627447D01*
X101451259Y-102396455D02*
X100984757Y-101846569D01*
X101561512Y-102011951D02*
X102042145Y-102149769D01*
X101671769Y-101627447D02*
X101451259Y-102396455D01*
%TO.C,D23*%
X222746613Y-131794032D02*
X223114812Y-131637738D01*
X223114812Y-131637738D02*
X222899913Y-131131463D01*
X223114812Y-131637738D02*
X223329716Y-132144018D01*
X223114812Y-131637738D02*
X223510825Y-131035099D01*
X223510825Y-131035099D02*
X223823410Y-131771503D01*
X223667117Y-131403301D02*
X224127369Y-131207936D01*
X223823410Y-131771503D02*
X223114812Y-131637738D01*
%TO.C,D4*%
X95914415Y-118077763D02*
X96298919Y-118188017D01*
X96298919Y-118188017D02*
X96147320Y-118716711D01*
X96298919Y-118188017D02*
X96450520Y-117659322D01*
X96298919Y-118188017D02*
X96985931Y-117968895D01*
X96765421Y-118737903D02*
X96298919Y-118188017D01*
X96875674Y-118353399D02*
X97356307Y-118491217D01*
X96985931Y-117968895D02*
X96765421Y-118737903D01*
%TO.C,D12*%
X144125840Y-146985895D02*
X144494041Y-147142187D01*
X144494041Y-147142187D02*
X144279142Y-147648464D01*
X144494041Y-147142187D02*
X144708944Y-146635909D01*
X144494041Y-147142187D02*
X145202637Y-147008423D01*
X144890053Y-147744827D02*
X144494041Y-147142187D01*
X145046345Y-147376626D02*
X145506598Y-147571991D01*
X145202637Y-147008423D02*
X144890053Y-147744827D01*
%TO.C,D17*%
X258039763Y-118491218D02*
X258424267Y-118380963D01*
X258424267Y-118380963D02*
X258272668Y-117852269D01*
X258424267Y-118380963D02*
X258575868Y-118909657D01*
X258424267Y-118380963D02*
X258890769Y-117831078D01*
X258890769Y-117831078D02*
X259111279Y-118600085D01*
X259001023Y-118215580D02*
X259481655Y-118077762D01*
X259111279Y-118600085D02*
X258424267Y-118380963D01*
%TO.C,D15*%
X279895765Y-123080530D02*
X280292783Y-123031780D01*
X280292783Y-123031780D02*
X280225756Y-122485881D01*
X280292783Y-123031780D02*
X280359812Y-123577683D01*
X280292783Y-123031780D02*
X280839564Y-122561641D01*
X280839564Y-122561641D02*
X280937059Y-123355677D01*
X280888311Y-122958660D02*
X281384585Y-122897724D01*
X280937059Y-123355677D02*
X280292783Y-123031780D01*
%TO.C,D22*%
X229389044Y-147442616D02*
X229757243Y-147286322D01*
X229757243Y-147286322D02*
X229542344Y-146780047D01*
X229757243Y-147286322D02*
X229972147Y-147792602D01*
X229757243Y-147286322D02*
X230153256Y-146683683D01*
X230153256Y-146683683D02*
X230465841Y-147420087D01*
X230309548Y-147051885D02*
X230769800Y-146856520D01*
X230465841Y-147420087D02*
X229757243Y-147286322D01*
%TO.C,D21*%
X230575155Y-102154872D02*
X230946029Y-102005029D01*
X230946029Y-102005029D02*
X230739995Y-101495079D01*
X230946029Y-102005029D02*
X231152061Y-102514980D01*
X230946029Y-102005029D02*
X231352496Y-101409392D01*
X231352496Y-101409392D02*
X231652182Y-102151139D01*
X231502339Y-101780265D02*
X231965931Y-101592962D01*
X231652182Y-102151139D02*
X230946029Y-102005029D01*
%TO.C,D27*%
X131825028Y-171534372D02*
X132171438Y-171734372D01*
X132171438Y-171734372D02*
X131896438Y-172210686D01*
X132171438Y-171734372D02*
X132446437Y-171258058D01*
X132171438Y-171734372D02*
X132891054Y-171687963D01*
X132491053Y-172380781D02*
X132171438Y-171734372D01*
X132691053Y-172034372D02*
X133124066Y-172284372D01*
X132891054Y-171687963D02*
X132491053Y-172380781D01*
%TO.C,D28*%
X147295327Y-181664122D02*
X147614783Y-181904848D01*
X147614783Y-181904848D02*
X147283783Y-182344097D01*
X147614783Y-181904848D02*
X147945781Y-181465597D01*
X147614783Y-181904848D02*
X148334689Y-181946484D01*
X147853237Y-182585391D02*
X147614783Y-181904848D01*
X148093963Y-182265937D02*
X148493281Y-182566844D01*
X148334689Y-181946484D02*
X147853237Y-182585391D01*
%TO.C,D3*%
X91228583Y-134419212D02*
X91613087Y-134529466D01*
X91613087Y-134529466D02*
X91461488Y-135058160D01*
X91613087Y-134529466D02*
X91764688Y-134000771D01*
X91613087Y-134529466D02*
X92300099Y-134310344D01*
X92079589Y-135079352D02*
X91613087Y-134529466D01*
X92189842Y-134694848D02*
X92670475Y-134832666D01*
X92300099Y-134310344D02*
X92079589Y-135079352D01*
%TD*%
D16*
%TO.C,MCU1*%
X169603034Y-138832567D03*
X169603035Y-141372565D03*
X169603034Y-143912567D03*
X169603034Y-146452566D03*
X169603034Y-148992567D03*
X169603035Y-151532567D03*
X169603034Y-154072567D03*
X185793034Y-154072567D03*
X185793033Y-151532569D03*
X185793034Y-148992567D03*
X185793034Y-146452568D03*
X185793034Y-143912567D03*
D17*
X185793033Y-141372567D03*
D16*
X185793034Y-138832567D03*
D18*
X176428035Y-140420567D03*
X173253033Y-146135567D03*
%TD*%
M02*
