%TF.GenerationSoftware,KiCad,Pcbnew,9.0.4*%
%TF.CreationDate,2025-10-25T14:25:06+08:00*%
%TF.ProjectId,sterna,73746572-6e61-42e6-9b69-6361645f7063,v1.0.0*%
%TF.SameCoordinates,Original*%
%TF.FileFunction,Profile,NP*%
%FSLAX46Y46*%
G04 Gerber Fmt 4.6, Leading zero omitted, Abs format (unit mm)*
G04 Created by KiCad (PCBNEW 9.0.4) date 2025-10-25 14:25:06*
%MOMM*%
%LPD*%
G01*
G04 APERTURE LIST*
%TA.AperFunction,Profile*%
%ADD10C,0.150000*%
%TD*%
G04 APERTURE END LIST*
D10*
X114976664Y-160342879D02*
X74584672Y-145460863D01*
X192776375Y-190164835D02*
X188141011Y-184013493D01*
X57353726Y-107525123D02*
G75*
G02*
X59582562Y-105783712I1985174J-243777D01*
G01*
X262185051Y-107872021D02*
G75*
G02*
X260052183Y-106543474I-243751J1985021D01*
G01*
X228248331Y-83927536D02*
X231205434Y-87914950D01*
X150634048Y-184013493D02*
X145998683Y-190164834D01*
X233363158Y-88646118D02*
G75*
G02*
X231205422Y-87914959I-551258J1922618D01*
G01*
X193013021Y-106549925D02*
G75*
G02*
X194203132Y-104372829I1971479J336125D01*
G01*
X264190386Y-145460862D02*
G75*
G02*
X264638091Y-145352449I691314J-1876238D01*
G01*
X194122187Y-113055574D02*
X193013024Y-106549925D01*
X194122185Y-113055573D02*
G75*
G02*
X192932101Y-115232728I-1971585J-336127D01*
G01*
X114976664Y-160342879D02*
G75*
G02*
X116017322Y-163219579I-691464J-1876721D01*
G01*
X233363155Y-88646117D02*
X250157976Y-83830281D01*
X158103539Y-122609744D02*
X155279205Y-129263456D01*
X209916305Y-180384920D02*
G75*
G02*
X210024476Y-180313323I1158695J-1633080D01*
G01*
X208977187Y-90098823D02*
X225892669Y-83264525D01*
X168723807Y-177294955D02*
G75*
G02*
X170051246Y-177294974I663693J-1886645D01*
G01*
X53271101Y-140775419D02*
X57353725Y-107525123D01*
X145842961Y-115232717D02*
X157043989Y-119987272D01*
X250157974Y-83830280D02*
G75*
G02*
X252598409Y-85096250I551326J-1922420D01*
G01*
X145842961Y-115232717D02*
G75*
G02*
X144652899Y-113055578I781339J1840917D01*
G01*
X208707433Y-96419342D02*
X207777933Y-92404265D01*
X143244033Y-190592301D02*
X128858752Y-180384920D01*
X208707433Y-96419342D02*
G75*
G02*
X207540432Y-98711444I-1948533J-451058D01*
G01*
X157120211Y-132044919D02*
G75*
G02*
X155279296Y-129263495I-11J1999919D01*
G01*
X86176646Y-85096250D02*
G75*
G02*
X88617081Y-83830288I1889154J-656550D01*
G01*
X225041197Y-171059948D02*
X210024476Y-180313323D01*
X150634048Y-184013493D02*
G75*
G02*
X151567600Y-183330476I1597452J-1203907D01*
G01*
X222757785Y-163219552D02*
G75*
G02*
X223798406Y-160342911I1732115J999952D01*
G01*
X107569623Y-87914950D02*
G75*
G02*
X105411888Y-88646163I-1606523J1191450D01*
G01*
X285503955Y-140775419D02*
G75*
G02*
X283762607Y-143004264I-1985055J-243781D01*
G01*
X88617082Y-83830282D02*
X105411901Y-88646118D01*
X183495854Y-129263459D02*
G75*
G02*
X181654844Y-132044932I-1841054J-781441D01*
G01*
X78722910Y-106543488D02*
G75*
G02*
X76590018Y-107871948I-1889110J656588D01*
G01*
X283762605Y-143004250D02*
X264638091Y-145352446D01*
X55012455Y-143004249D02*
G75*
G02*
X53271044Y-140775412I243745J1985149D01*
G01*
X145762035Y-106549926D02*
X144652870Y-113055573D01*
X107569621Y-87914951D02*
X110526730Y-83927536D01*
X157043989Y-119987272D02*
G75*
G02*
X158103546Y-122609747I-781489J-1841028D01*
G01*
X112882390Y-83264526D02*
X129797871Y-90098826D01*
X252598414Y-85096248D02*
X260052148Y-106543486D01*
X113051018Y-168357252D02*
X116017274Y-163219552D01*
X225724039Y-168357254D02*
G75*
G02*
X225041209Y-171059967I-1731939J-1000046D01*
G01*
X74136968Y-145352445D02*
X55012457Y-143004250D01*
X129797868Y-90098822D02*
G75*
G02*
X130997162Y-92404274I-749168J-1854378D01*
G01*
X264190386Y-145460862D02*
X223798394Y-160342879D01*
X279192504Y-105783770D02*
G75*
G02*
X281421320Y-107525124I243696J-1985130D01*
G01*
X128750583Y-180313323D02*
X113733861Y-171059945D01*
X187207460Y-183330467D02*
G75*
G02*
X188141016Y-184013489I-663760J-1886733D01*
G01*
X131234633Y-98711426D02*
G75*
G02*
X130067666Y-96419350I781367J1840926D01*
G01*
X187207460Y-183330467D02*
X170051252Y-177294956D01*
X281421332Y-107525123D02*
X285503957Y-140775422D01*
X181731067Y-119987272D02*
X192932097Y-115232718D01*
X180671519Y-122609744D02*
G75*
G02*
X181731082Y-119987308I1840981J781444D01*
G01*
X262185052Y-107872023D02*
X279192503Y-105783771D01*
X195531028Y-190592301D02*
G75*
G02*
X192776415Y-190164805I-1157328J1631201D01*
G01*
X130997125Y-92404266D02*
X130067626Y-96419341D01*
X209916305Y-180384920D02*
X195531027Y-190592303D01*
X128750583Y-180313323D02*
G75*
G02*
X128858751Y-180384922I-1051383J-1705877D01*
G01*
X194203112Y-104372781D02*
X207540425Y-98711427D01*
X225892669Y-83264525D02*
G75*
G02*
X228248348Y-83927523I749231J-1854375D01*
G01*
X145998679Y-190164834D02*
G75*
G02*
X143244026Y-190592310I-1597279J1203634D01*
G01*
X144571948Y-104372783D02*
G75*
G02*
X145762053Y-106549929I-781448J-1841017D01*
G01*
X59582555Y-105783770D02*
X76590009Y-107872022D01*
X183495851Y-129263456D02*
X180671519Y-122609744D01*
X207777933Y-92404266D02*
G75*
G02*
X208977192Y-90098835I1948467J451066D01*
G01*
X157120217Y-132044919D02*
X181654844Y-132044922D01*
X113733861Y-171059945D02*
G75*
G02*
X113050996Y-168357239I1049339J1702745D01*
G01*
X222757785Y-163219552D02*
X225724039Y-168357254D01*
X131234633Y-98711426D02*
X144571947Y-104372780D01*
X168723807Y-177294955D02*
X151567597Y-183330466D01*
X78722908Y-106543486D02*
X86176643Y-85096247D01*
X74136968Y-145352445D02*
G75*
G02*
X74584671Y-145460866I-243768J-1985155D01*
G01*
X110526730Y-83927536D02*
G75*
G02*
X112882412Y-83264471I1606470J-1191264D01*
G01*
M02*
