%TF.GenerationSoftware,KiCad,Pcbnew,9.0.4*%
%TF.CreationDate,2025-10-25T14:25:05+08:00*%
%TF.ProjectId,sterna,73746572-6e61-42e6-9b69-6361645f7063,v1.0.0*%
%TF.SameCoordinates,Original*%
%TF.FileFunction,Copper,L2,Bot*%
%TF.FilePolarity,Positive*%
%FSLAX46Y46*%
G04 Gerber Fmt 4.6, Leading zero omitted, Abs format (unit mm)*
G04 Created by KiCad (PCBNEW 9.0.4) date 2025-10-25 14:25:05*
%MOMM*%
%LPD*%
G01*
G04 APERTURE LIST*
G04 Aperture macros list*
%AMRotRect*
0 Rectangle, with rotation*
0 The origin of the aperture is its center*
0 $1 length*
0 $2 width*
0 $3 Rotation angle, in degrees counterclockwise*
0 Add horizontal line*
21,1,$1,$2,0,0,$3*%
G04 Aperture macros list end*
%TA.AperFunction,SMDPad,CuDef*%
%ADD10R,0.900000X0.900000*%
%TD*%
%TA.AperFunction,WasherPad*%
%ADD11C,1.000000*%
%TD*%
%TA.AperFunction,SMDPad,CuDef*%
%ADD12R,0.900000X1.250000*%
%TD*%
%TA.AperFunction,SMDPad,CuDef*%
%ADD13RotRect,2.600000X2.600000X37.000000*%
%TD*%
%TA.AperFunction,ComponentPad*%
%ADD14O,2.750000X1.800000*%
%TD*%
%TA.AperFunction,ComponentPad*%
%ADD15R,2.750000X1.800000*%
%TD*%
%TA.AperFunction,ComponentPad*%
%ADD16C,2.000000*%
%TD*%
%TA.AperFunction,SMDPad,CuDef*%
%ADD17RotRect,2.600000X2.600000X30.000000*%
%TD*%
%TA.AperFunction,ComponentPad*%
%ADD18C,4.400000*%
%TD*%
%TA.AperFunction,SMDPad,CuDef*%
%ADD19RotRect,2.600000X2.600000X16.000000*%
%TD*%
%TA.AperFunction,SMDPad,CuDef*%
%ADD20RotRect,2.600000X2.600000X344.000000*%
%TD*%
%TA.AperFunction,SMDPad,CuDef*%
%ADD21RotRect,2.600000X2.600000X338.000000*%
%TD*%
%TA.AperFunction,SMDPad,CuDef*%
%ADD22RotRect,2.600000X2.600000X23.000000*%
%TD*%
%TA.AperFunction,SMDPad,CuDef*%
%ADD23RotRect,2.600000X2.600000X337.000000*%
%TD*%
%TA.AperFunction,SMDPad,CuDef*%
%ADD24RotRect,2.600000X2.600000X7.000000*%
%TD*%
%TA.AperFunction,ComponentPad*%
%ADD25R,1.200000X1.700000*%
%TD*%
%TA.AperFunction,ComponentPad*%
%ADD26O,1.200000X1.700000*%
%TD*%
%TA.AperFunction,SMDPad,CuDef*%
%ADD27RotRect,2.600000X2.600000X353.000000*%
%TD*%
%TA.AperFunction,SMDPad,CuDef*%
%ADD28RotRect,2.600000X2.600000X22.000000*%
%TD*%
%TA.AperFunction,SMDPad,CuDef*%
%ADD29RotRect,2.600000X2.600000X330.000000*%
%TD*%
%TA.AperFunction,SMDPad,CuDef*%
%ADD30RotRect,2.600000X2.600000X323.000000*%
%TD*%
%TA.AperFunction,SMDPad,CuDef*%
%ADD31RotRect,1.550000X1.000000X113.000000*%
%TD*%
%TA.AperFunction,ViaPad*%
%ADD32C,0.800000*%
%TD*%
%TA.AperFunction,Conductor*%
%ADD33C,0.250000*%
%TD*%
G04 APERTURE END LIST*
D10*
%TO.P,T1,*%
%TO.N,*%
X165137528Y-133552132D03*
X165137528Y-135752132D03*
D11*
X167337528Y-134652132D03*
X170337528Y-134652132D03*
D10*
X172537528Y-133552132D03*
X172537528Y-135752132D03*
D12*
%TO.P,T1,1*%
%TO.N,BAT+*%
X166587528Y-136727132D03*
%TO.P,T1,2*%
%TO.N,BAT_POS*%
X169587528Y-136727133D03*
%TO.P,T1,3*%
%TO.N,N/C*%
X171087528Y-136727132D03*
%TD*%
D13*
%TO.P,S30,1*%
%TO.N,R3*%
X190166403Y-174280523D03*
%TO.P,S30,2*%
%TO.N,mirror_reachy_thumb*%
X200714637Y-169086557D03*
%TD*%
D14*
%TO.P,MCU1,1*%
%TO.N,R0*%
X161292529Y-137532132D03*
%TO.P,MCU1,2*%
%TO.N,R1*%
X161292530Y-140072132D03*
%TO.P,MCU1,3*%
%TO.N,R2*%
X161292529Y-142612132D03*
%TO.P,MCU1,4*%
%TO.N,C0*%
X161292529Y-145152132D03*
%TO.P,MCU1,5*%
%TO.N,C1*%
X161292529Y-147692132D03*
%TO.P,MCU1,6*%
%TO.N,C2*%
X161292530Y-150232132D03*
%TO.P,MCU1,7*%
%TO.N,C3*%
X161292529Y-152772132D03*
%TO.P,MCU1,8*%
%TO.N,C4*%
X177482529Y-152772132D03*
%TO.P,MCU1,9*%
%TO.N,R3*%
X177482528Y-150232132D03*
%TO.P,MCU1,10*%
%TO.N,R4*%
X177482529Y-147692132D03*
%TO.P,MCU1,11*%
%TO.N,R5*%
X177482529Y-145152132D03*
%TO.P,MCU1,12*%
%TO.N,VCC*%
X177482529Y-142612132D03*
D15*
%TO.P,MCU1,13*%
%TO.N,GND*%
X177482528Y-140072132D03*
D14*
%TO.P,MCU1,14*%
%TO.N,VUSB*%
X177482529Y-137532132D03*
D16*
%TO.P,MCU1,17*%
%TO.N,RST*%
X168117530Y-139120132D03*
%TO.P,MCU1,19*%
%TO.N,BAT+*%
X164942529Y-144835132D03*
%TD*%
D17*
%TO.P,S29,1*%
%TO.N,R3*%
X206449782Y-163023265D03*
%TO.P,S29,2*%
%TO.N,mirror_home_thumb*%
X217552375Y-159153520D03*
%TD*%
D18*
%TO.P,PAD2,*%
%TO.N,*%
X185298255Y-137348603D03*
%TD*%
D19*
%TO.P,S16,1*%
%TO.N,R3*%
X249052366Y-123990776D03*
%TO.P,S16,2*%
%TO.N,mirror_ring_bottom*%
X260761339Y-122921941D03*
%TD*%
D20*
%TO.P,S3,1*%
%TO.N,R2*%
X83426427Y-122185352D03*
%TO.P,S3,2*%
%TO.N,ring_bottom*%
X93922598Y-127483739D03*
%TD*%
D18*
%TO.P,PAD4,*%
%TO.N,*%
X195603788Y-161626917D03*
%TD*%
%TO.P,PAD3,*%
%TO.N,*%
X143171271Y-161626918D03*
%TD*%
D21*
%TO.P,S7,1*%
%TO.N,R1*%
X110399741Y-105234262D03*
%TO.P,S7,2*%
%TO.N,middle_home*%
X120284580Y-111600772D03*
%TD*%
D22*
%TO.P,S23,1*%
%TO.N,R4*%
X207950544Y-121676816D03*
%TO.P,S23,2*%
%TO.N,mirror_index_home*%
X219441985Y-119188982D03*
%TD*%
%TO.P,S24,1*%
%TO.N,R5*%
X201308115Y-106028234D03*
%TO.P,S24,2*%
%TO.N,mirror_index_top*%
X212799556Y-103540400D03*
%TD*%
D23*
%TO.P,S10,1*%
%TO.N,R1*%
X124795207Y-119117528D03*
%TO.P,S10,2*%
%TO.N,index_home*%
X134567429Y-125655583D03*
%TD*%
D24*
%TO.P,S14,1*%
%TO.N,R4*%
X269852952Y-128390480D03*
%TO.P,S14,2*%
%TO.N,mirror_pinky_bottom*%
X281584972Y-129166492D03*
%TD*%
D25*
%TO.P,JST1,1*%
%TO.N,BAT_POS*%
X181537529Y-149652132D03*
D26*
%TO.P,JST1,2*%
%TO.N,GND*%
X183537529Y-149652132D03*
%TD*%
D27*
%TO.P,S2,1*%
%TO.N,R0*%
X64492710Y-110718954D03*
%TO.P,S2,2*%
%TO.N,pinky_home*%
X75688504Y-114310147D03*
%TD*%
D20*
%TO.P,S4,1*%
%TO.N,R1*%
X88112265Y-105843904D03*
%TO.P,S4,2*%
%TO.N,ring_home*%
X98608436Y-111142291D03*
%TD*%
D22*
%TO.P,S25,1*%
%TO.N,R4*%
X195093401Y-137454774D03*
%TO.P,S25,2*%
%TO.N,mirror_inner_home*%
X206584842Y-134966940D03*
%TD*%
D18*
%TO.P,PAD1,*%
%TO.N,*%
X153476803Y-137348603D03*
%TD*%
D23*
%TO.P,S12,1*%
%TO.N,R1*%
X137652349Y-134895485D03*
%TO.P,S12,2*%
%TO.N,inner_home*%
X147424571Y-141433540D03*
%TD*%
%TO.P,S9,1*%
%TO.N,R2*%
X118152779Y-134766110D03*
%TO.P,S9,2*%
%TO.N,index_bottom*%
X127925001Y-141304165D03*
%TD*%
D24*
%TO.P,S15,1*%
%TO.N,R5*%
X267781173Y-111517196D03*
%TO.P,S15,2*%
%TO.N,mirror_pinky_home*%
X279513193Y-112293208D03*
%TD*%
D21*
%TO.P,S8,1*%
%TO.N,R0*%
X116768053Y-89472137D03*
%TO.P,S8,2*%
%TO.N,middle_top*%
X126652892Y-95838647D03*
%TD*%
D28*
%TO.P,S21,1*%
%TO.N,R5*%
X215933953Y-91925810D03*
%TO.P,S21,2*%
%TO.N,mirror_middle_top*%
X227467061Y-89638908D03*
%TD*%
D20*
%TO.P,S5,1*%
%TO.N,R0*%
X92798098Y-89502456D03*
%TO.P,S5,2*%
%TO.N,ring_top*%
X103294269Y-94800843D03*
%TD*%
D19*
%TO.P,S18,1*%
%TO.N,R5*%
X239680695Y-91307879D03*
%TO.P,S18,2*%
%TO.N,mirror_ring_top*%
X251389668Y-90239044D03*
%TD*%
D28*
%TO.P,S20,1*%
%TO.N,R4*%
X222302265Y-107687933D03*
%TO.P,S20,2*%
%TO.N,mirror_middle_home*%
X233835373Y-105401031D03*
%TD*%
D21*
%TO.P,S6,1*%
%TO.N,R2*%
X104031427Y-120996386D03*
%TO.P,S6,2*%
%TO.N,middle_bottom*%
X113916266Y-127362896D03*
%TD*%
D23*
%TO.P,S13,1*%
%TO.N,R0*%
X144294776Y-119246901D03*
%TO.P,S13,2*%
%TO.N,inner_top*%
X154066998Y-125784956D03*
%TD*%
D19*
%TO.P,S17,1*%
%TO.N,R4*%
X244366529Y-107649328D03*
%TO.P,S17,2*%
%TO.N,mirror_ring_home*%
X256075502Y-106580493D03*
%TD*%
D29*
%TO.P,S27,1*%
%TO.N,R2*%
X126652809Y-159748266D03*
%TO.P,S27,2*%
%TO.N,home_thumb*%
X135555402Y-167428520D03*
%TD*%
D23*
%TO.P,S11,1*%
%TO.N,R0*%
X131437634Y-103468945D03*
%TO.P,S11,2*%
%TO.N,index_top*%
X141209856Y-110007000D03*
%TD*%
D22*
%TO.P,S26,1*%
%TO.N,R5*%
X188450972Y-121806192D03*
%TO.P,S26,2*%
%TO.N,mirror_inner_top*%
X199942413Y-119318358D03*
%TD*%
D28*
%TO.P,S19,1*%
%TO.N,R3*%
X228670576Y-123450059D03*
%TO.P,S19,2*%
%TO.N,mirror_middle_bottom*%
X240203684Y-121163157D03*
%TD*%
D22*
%TO.P,S22,1*%
%TO.N,R3*%
X214592970Y-137325399D03*
%TO.P,S22,2*%
%TO.N,mirror_index_bottom*%
X226084411Y-134837565D03*
%TD*%
D30*
%TO.P,S28,1*%
%TO.N,R2*%
X143377592Y-170338634D03*
%TO.P,S28,2*%
%TO.N,reachy_thumb*%
X151277838Y-179046595D03*
%TD*%
D27*
%TO.P,S1,1*%
%TO.N,R1*%
X62420929Y-127592237D03*
%TO.P,S1,2*%
%TO.N,pinky_bottom*%
X73616723Y-131183430D03*
%TD*%
D31*
%TO.P,B1,1*%
%TO.N,RST*%
X184594845Y-128141529D03*
X182543506Y-123308878D03*
%TO.P,B1,2*%
%TO.N,GND*%
X186159702Y-127477286D03*
X184108363Y-122644635D03*
%TD*%
D32*
%TO.N,pinky_bottom*%
X72477630Y-137952080D03*
%TO.N,pinky_home*%
X69964541Y-120263972D03*
%TO.N,ring_bottom*%
X92399432Y-132552831D03*
%TO.N,ring_home*%
X96981378Y-117117862D03*
%TO.N,ring_top*%
X101512712Y-97143077D03*
%TO.N,middle_bottom*%
X112534648Y-130577472D03*
%TO.N,middle_home*%
X118709815Y-115627088D03*
%TO.N,middle_top*%
X125401464Y-98997958D03*
%TO.N,index_bottom*%
X126290333Y-145248733D03*
%TO.N,index_home*%
X133082511Y-129388223D03*
%TO.N,index_top*%
X139535980Y-114199771D03*
%TO.N,inner_home*%
X146108335Y-144748676D03*
%TO.N,inner_top*%
X152844139Y-128868961D03*
%TO.N,mirror_pinky_bottom*%
X282147272Y-134033538D03*
%TO.N,mirror_pinky_home*%
X280038048Y-117265609D03*
%TO.N,mirror_ring_bottom*%
X262087297Y-127617227D03*
%TO.N,mirror_ring_home*%
X257230277Y-110752700D03*
%TO.N,mirror_ring_top*%
X252577810Y-94453699D03*
%TO.N,mirror_middle_bottom*%
X241688211Y-124815040D03*
%TO.N,mirror_middle_home*%
X235502288Y-109437611D03*
%TO.N,mirror_middle_top*%
X229036341Y-93634036D03*
%TO.N,mirror_index_bottom*%
X227520464Y-138466415D03*
%TO.N,mirror_index_home*%
X221126387Y-123307888D03*
%TO.N,mirror_index_top*%
X214330077Y-107287276D03*
%TO.N,mirror_inner_home*%
X208321287Y-138997202D03*
%TO.N,mirror_inner_top*%
X201327784Y-122816063D03*
%TO.N,home_thumb*%
X127468974Y-170043737D03*
%TO.N,reachy_thumb*%
X147685953Y-183258083D03*
%TO.N,mirror_home_thumb*%
X219384769Y-161936669D03*
%TO.N,mirror_reachy_thumb*%
X198097971Y-174304534D03*
%TO.N,C4*%
X177010763Y-158759460D03*
%TO.N,C0*%
X188347520Y-171472790D03*
X133778581Y-151551531D03*
X137849320Y-161002670D03*
%TD*%
D33*
%TO.N,R1*%
X62595879Y-126211573D02*
X62418608Y-127655309D01*
X109944304Y-108386295D02*
X109537044Y-107426840D01*
X82937154Y-108523867D02*
X78692344Y-123327296D01*
X88581219Y-104263453D02*
X88109943Y-105906972D01*
X127859246Y-128512897D02*
X128945608Y-125824069D01*
X159268885Y-140134184D02*
X158618882Y-139484190D01*
X156767880Y-133785182D02*
X156579322Y-133865221D01*
X89824068Y-103574534D02*
X88581219Y-104263453D01*
X138418370Y-133056850D02*
X137650034Y-134958555D01*
X146253022Y-131037125D02*
X145410152Y-133123297D01*
X78444262Y-124192432D02*
X74857252Y-126180742D01*
X109537044Y-107426840D02*
X110397430Y-105297334D01*
X145410152Y-133123297D02*
X143717820Y-133841644D01*
X102630264Y-107246647D02*
X89824068Y-103574534D01*
X114090950Y-114807197D02*
X115064920Y-112396520D01*
X140055442Y-132361942D02*
X138418370Y-133056850D01*
X161419904Y-140135212D02*
X161418884Y-140134183D01*
X115064920Y-112396520D02*
X114070271Y-110053300D01*
X156579322Y-133865221D02*
X147875222Y-130348541D01*
X123981845Y-121188004D02*
X124792890Y-119180598D01*
X88109943Y-105906972D02*
X87812195Y-105821593D01*
X121521553Y-119373238D02*
X114892171Y-116694795D01*
X124500730Y-122410411D02*
X123981845Y-121188004D01*
X137650034Y-134958555D02*
X129134948Y-131518237D01*
X158618882Y-139484190D02*
X158618873Y-133785187D01*
X128116747Y-123871379D02*
X124500730Y-122410411D01*
X87812195Y-105821593D02*
X82937154Y-108523867D01*
X158618873Y-133785187D02*
X156767880Y-133785182D01*
X143717820Y-133841644D02*
X140055442Y-132361942D01*
X78692344Y-123327296D02*
X78444262Y-124192432D01*
X128945608Y-125824069D02*
X128116747Y-123871379D01*
X74857252Y-126180742D02*
X64295239Y-124883888D01*
X114070271Y-110053300D02*
X109944304Y-108386295D01*
X129134948Y-131518237D02*
X127859246Y-128512897D01*
X64295239Y-124883888D02*
X62595879Y-126211573D01*
X110397430Y-105297334D02*
X107596063Y-104494064D01*
X147875222Y-130348541D02*
X146253022Y-131037125D01*
X107596063Y-104494064D02*
X102630264Y-107246647D01*
X161418884Y-140134183D02*
X159268885Y-140134184D01*
X161765210Y-140135207D02*
X161419904Y-140135212D01*
X124792890Y-119180598D02*
X123349358Y-118597374D01*
X123349358Y-118597374D02*
X121521553Y-119373238D01*
X114892171Y-116694795D02*
X114090950Y-114807197D01*
%TO.N,pinky_bottom*%
X72477630Y-137952080D02*
X72824319Y-137681217D01*
X72824319Y-137681217D02*
X73614402Y-131246502D01*
%TO.N,R0*%
X64667653Y-109338290D02*
X64490391Y-110782026D01*
X85925957Y-92840137D02*
X81295245Y-108989334D01*
X156468888Y-133334189D02*
X148143136Y-129970369D01*
X148314293Y-125668362D02*
X147678834Y-124171302D01*
X92161580Y-89383673D02*
X85925957Y-92840137D01*
X116626371Y-93182357D02*
X115942819Y-91572003D01*
X94915630Y-86806063D02*
X93334613Y-87682441D01*
X120932176Y-96539808D02*
X120103310Y-94587123D01*
X115942819Y-91572003D02*
X116765735Y-89535213D01*
X92795785Y-89565531D02*
X92161580Y-89383673D01*
X143795018Y-120541205D02*
X144292462Y-119309978D01*
X112705420Y-87894733D02*
X107063738Y-90289483D01*
X131491376Y-106576178D02*
X130832511Y-105024000D01*
X135563514Y-110378482D02*
X134458347Y-107774902D01*
X107063738Y-90289483D02*
X94915630Y-86806063D01*
X81295245Y-108989334D02*
X79810975Y-109812081D01*
X79810975Y-109812081D02*
X66200258Y-108140891D01*
X66200258Y-108140891D02*
X64667653Y-109338290D01*
X130832511Y-105024000D02*
X131435319Y-103532014D01*
X134833033Y-112186493D02*
X135563514Y-110378482D01*
X120445188Y-97745151D02*
X120932176Y-96539808D01*
X144850917Y-123028748D02*
X143795018Y-120541205D01*
X131435319Y-103532014D02*
X121135081Y-99370450D01*
X161765220Y-137595204D02*
X161765214Y-135930513D01*
X120103310Y-94587123D02*
X116626371Y-93182357D01*
X93335363Y-87683792D02*
X92795785Y-89565531D01*
X134458347Y-107774902D02*
X131491376Y-106576178D01*
X136524577Y-116171549D02*
X134833033Y-112186493D01*
X147678834Y-124171302D02*
X144850917Y-123028748D01*
X121135081Y-99370450D02*
X120445188Y-97745151D01*
X161765214Y-135930513D02*
X159168882Y-133334176D01*
X148143136Y-129970369D02*
X147340313Y-128079044D01*
X144292462Y-119309978D02*
X136524577Y-116171549D01*
X116765735Y-89535213D02*
X112705420Y-87894733D01*
X159168882Y-133334176D02*
X156468888Y-133334189D01*
X93334613Y-87682441D02*
X93335363Y-87683792D01*
X147340313Y-128079044D02*
X148314293Y-125668362D01*
%TO.N,pinky_home*%
X71183360Y-116081325D02*
X70347550Y-116734332D01*
X70323173Y-116932843D02*
X69921006Y-120208247D01*
X75686189Y-114373214D02*
X73185289Y-116327134D01*
X69964541Y-120263972D02*
X70008072Y-120319691D01*
X69921006Y-120208247D02*
X69964541Y-120263972D01*
X70347550Y-116734332D02*
X70323173Y-116932843D01*
X73185289Y-116327134D02*
X71183360Y-116081325D01*
%TO.N,R2*%
X118086051Y-138153809D02*
X121470282Y-139521120D01*
X107090401Y-125460482D02*
X108112664Y-127868792D01*
X144138572Y-169270085D02*
X143375275Y-170401703D01*
X103845258Y-124149363D02*
X107090401Y-125460482D01*
X126650496Y-159811337D02*
X127195259Y-159003687D01*
X104029117Y-121059462D02*
X103299849Y-122864457D01*
X130552129Y-149958573D02*
X131166022Y-153116789D01*
X121250242Y-144069931D02*
X122161997Y-146217878D01*
X101452291Y-120018356D02*
X104029117Y-121059462D01*
X83424113Y-122248416D02*
X83909165Y-120556840D01*
X129254956Y-149083617D02*
X130552129Y-149958573D01*
X83909165Y-120556840D02*
X85392097Y-119734840D01*
X96982231Y-121915780D02*
X101452291Y-120018356D01*
X143872205Y-167899771D02*
X144138572Y-169270085D01*
X96784354Y-122605825D02*
X96982231Y-121915780D01*
X157109014Y-143870940D02*
X157109014Y-156667962D01*
X157109014Y-156667962D02*
X143375276Y-170401706D01*
X161765204Y-142675203D02*
X158304748Y-142675198D01*
X158304748Y-142675198D02*
X157109014Y-143870940D01*
X127195259Y-159003687D02*
X129902916Y-158477369D01*
X103299849Y-122864457D02*
X103845258Y-124149363D01*
X122161997Y-146217878D02*
X129254956Y-149083617D01*
X117430856Y-136610259D02*
X118086051Y-138153809D01*
X129902916Y-158477369D02*
X143872205Y-167899771D01*
X108112664Y-127868792D02*
X107513295Y-129352289D01*
X96313891Y-122866614D02*
X96784354Y-122605825D01*
X107513295Y-129352289D02*
X108314530Y-131239891D01*
X85392097Y-119734840D02*
X96313891Y-122866614D01*
X117686149Y-135026275D02*
X118150463Y-134829181D01*
X122299150Y-141473808D02*
X121250242Y-144069931D01*
X131166022Y-153116789D02*
X126650496Y-159811337D01*
X118150463Y-134829181D02*
X117430856Y-136610259D01*
X121470282Y-139521120D02*
X122299150Y-141473808D01*
X108314530Y-131239891D02*
X117686149Y-135026275D01*
%TO.N,ring_bottom*%
X92500972Y-132496545D02*
X93920286Y-127546820D01*
X92399432Y-132552831D02*
X92500972Y-132496545D01*
%TO.N,ring_home*%
X96934821Y-117033857D02*
X98606122Y-111205363D01*
X96981378Y-117117862D02*
X96934821Y-117033857D01*
%TO.N,ring_top*%
X102851149Y-96401161D02*
X103291949Y-94863916D01*
X101512712Y-97143077D02*
X102851149Y-96401161D01*
%TO.N,middle_bottom*%
X112534648Y-130577472D02*
X112662613Y-130523152D01*
X112662613Y-130523152D02*
X113913949Y-127425968D01*
%TO.N,middle_home*%
X118709815Y-115627088D02*
X118723622Y-115659632D01*
X120282269Y-111663836D02*
X118695055Y-115592331D01*
X118695055Y-115592331D02*
X118709815Y-115627088D01*
%TO.N,middle_top*%
X126650575Y-95901717D02*
X125400511Y-98995738D01*
X125400511Y-98995738D02*
X125401464Y-98997958D01*
%TO.N,index_bottom*%
X127922688Y-141367244D02*
X126367730Y-145215878D01*
X126367730Y-145215878D02*
X126290333Y-145248733D01*
%TO.N,index_home*%
X133082511Y-129388223D02*
X133047349Y-129475244D01*
X134565114Y-125718651D02*
X133082511Y-129388223D01*
X133047349Y-129475244D02*
X133039349Y-129478651D01*
%TO.N,index_top*%
X139539666Y-114198209D02*
X139535980Y-114199771D01*
X141207542Y-110070075D02*
X139539666Y-114198209D01*
%TO.N,inner_home*%
X147422255Y-141496616D02*
X146108335Y-144748676D01*
X146108335Y-144748676D02*
X146059383Y-144769452D01*
%TO.N,inner_top*%
X154064684Y-125848036D02*
X152844139Y-128868961D01*
X152844139Y-128868961D02*
X152799501Y-128887911D01*
%TO.N,R4*%
X232570724Y-112477276D02*
X244364213Y-107712403D01*
X244887793Y-109538361D02*
X246566973Y-110469145D01*
X265864481Y-126965221D02*
X268052109Y-128674384D01*
X268052109Y-128674384D02*
X269850635Y-128453558D01*
X227815677Y-108615260D02*
X229507999Y-109333615D01*
X224867413Y-109860363D02*
X227788045Y-108680355D01*
X195091089Y-137517849D02*
X194390432Y-135783684D01*
X246566973Y-110469145D02*
X250171699Y-109435501D01*
X257904755Y-116268688D02*
X262534081Y-114941247D01*
X264584856Y-116543495D02*
X265864481Y-126965221D01*
X194390432Y-135783684D02*
X195699388Y-132699996D01*
X229507999Y-109333615D02*
X229647078Y-109277427D01*
X207896117Y-121610901D02*
X209684996Y-117396557D01*
X195699388Y-132699996D02*
X201818803Y-130227587D01*
X217797854Y-114118742D02*
X220128381Y-108628378D01*
X244364213Y-107712403D02*
X244887793Y-109538361D01*
X230602323Y-111641741D02*
X232570724Y-112477276D01*
X201818803Y-130227587D02*
X204898607Y-122972015D01*
X262534081Y-114941247D02*
X264584856Y-116543495D01*
X220128381Y-108628378D02*
X222299947Y-107751005D01*
X195578148Y-138723367D02*
X195091089Y-137517849D01*
X222299947Y-107751005D02*
X222797132Y-108981579D01*
X207948226Y-121739892D02*
X207896117Y-121610901D01*
X250171699Y-109435501D02*
X252027059Y-110463933D01*
X252895311Y-113491907D02*
X257904755Y-116268688D01*
X177005210Y-147755202D02*
X190297862Y-147755203D01*
X192043785Y-147049806D02*
X195578148Y-138723367D01*
X209684996Y-117396557D02*
X217797854Y-114118742D01*
X229647078Y-109277427D02*
X230602323Y-111641741D01*
X227788045Y-108680355D02*
X227815677Y-108615260D01*
X252027059Y-110463933D02*
X252895311Y-113491907D01*
X222797132Y-108981579D02*
X224867413Y-109860363D01*
X190297862Y-147755203D02*
X192043785Y-147049806D01*
X204898607Y-122972015D02*
X207948226Y-121739892D01*
%TO.N,mirror_pinky_bottom*%
X282169086Y-134005618D02*
X282147272Y-134033538D01*
X281582653Y-129229563D02*
X282169086Y-134005618D01*
%TO.N,R5*%
X267708622Y-111525395D02*
X267778857Y-111580263D01*
X262568114Y-112156570D02*
X267708622Y-111525395D01*
X240270877Y-93437223D02*
X241578978Y-94162318D01*
X215166650Y-90095470D02*
X215492857Y-89326983D01*
X189102157Y-134256702D02*
X191331532Y-129004618D01*
X187839453Y-120361419D02*
X188483482Y-118844194D01*
X258591545Y-109049737D02*
X262568114Y-112156570D01*
X245424024Y-93059769D02*
X247526754Y-94225330D01*
X213332136Y-98127187D02*
X213329181Y-98119873D01*
X191826851Y-144537675D02*
X192559031Y-142812765D01*
X250676558Y-98679683D02*
X253992909Y-97728734D01*
X200970521Y-105261462D02*
X202066852Y-102678659D01*
X233641631Y-93804346D02*
X233638756Y-93811123D01*
X248450143Y-97445563D02*
X250676558Y-98679683D01*
X233638756Y-93811123D02*
X239678384Y-91370948D01*
X226572692Y-84850427D02*
X229371548Y-86038467D01*
X229371548Y-86038467D02*
X232274756Y-93224140D01*
X188483482Y-118844194D02*
X197338088Y-115266699D01*
X213329181Y-98119873D02*
X215931630Y-91988879D01*
X202066852Y-102678659D02*
X213332136Y-98127187D01*
X239678384Y-91370948D02*
X240270877Y-93437223D01*
X232274756Y-93224140D02*
X233641631Y-93804346D01*
X177005212Y-145215202D02*
X190149893Y-145215211D01*
X215931630Y-91988879D02*
X215166650Y-90095470D01*
X191331532Y-129004618D02*
X188448661Y-121869266D01*
X201217701Y-106126899D02*
X201305795Y-106091305D01*
X190149893Y-145215211D02*
X191826851Y-144537675D01*
X247526754Y-94225330D02*
X248450143Y-97445563D01*
X255600879Y-98620046D02*
X258591545Y-109049737D01*
X188448661Y-121869266D02*
X187839453Y-120361419D01*
X241578978Y-94162318D02*
X245424024Y-93059769D01*
X192559031Y-142812765D02*
X189102157Y-134256702D01*
X201305795Y-106091305D02*
X200970521Y-105261462D01*
X253992909Y-97728734D02*
X255600879Y-98620046D01*
X215492857Y-89326983D02*
X226572692Y-84850427D01*
X197338088Y-115266699D02*
X201217701Y-106126899D01*
%TO.N,mirror_pinky_home*%
X280103393Y-117181959D02*
X280038048Y-117265609D01*
X279510879Y-112356277D02*
X280103393Y-117181959D01*
%TO.N,R3*%
X237295151Y-127272752D02*
X239142324Y-128056834D01*
X231448799Y-125482476D02*
X234044906Y-124433582D01*
X189773306Y-173693230D02*
X190435610Y-171036877D01*
X190435610Y-171036877D02*
X204482775Y-162596487D01*
X214590661Y-137388475D02*
X212195528Y-138356174D01*
X212866092Y-145824939D02*
X206004479Y-161989889D01*
X229053058Y-124465547D02*
X231448799Y-125482476D01*
X190164085Y-174343598D02*
X189773306Y-173693230D01*
X228668247Y-123513128D02*
X229053058Y-124465547D01*
X204482775Y-162596487D02*
X206447470Y-163086342D01*
X180518884Y-152284183D02*
X180568887Y-152334183D01*
X177005217Y-150295206D02*
X178529907Y-150295197D01*
X178529907Y-150295197D02*
X180518884Y-152284183D01*
X190088257Y-152326360D02*
X204609367Y-158490207D01*
X204609367Y-158490207D02*
X204599701Y-158512952D01*
X212195528Y-138356174D02*
X210993060Y-141189017D01*
X210993060Y-141189017D02*
X212866092Y-145824939D01*
X214590661Y-137388475D02*
X213978841Y-135874166D01*
X234044906Y-124433582D02*
X236583396Y-125511105D01*
X206004479Y-161989889D02*
X206447468Y-163086340D01*
X215161723Y-133087486D02*
X224618997Y-129266507D01*
X180568887Y-152334183D02*
X190068882Y-152334182D01*
X226728494Y-124296843D02*
X228668247Y-123513128D01*
X236583396Y-125511105D02*
X237295151Y-127272752D01*
X224618997Y-129266507D02*
X226728494Y-124296843D01*
X190068882Y-152334182D02*
X190088257Y-152326360D01*
X213978841Y-135874166D02*
X215161723Y-133087486D01*
X204599701Y-158512952D02*
X206447468Y-163086340D01*
X239142324Y-128056834D02*
X249050059Y-124053847D01*
%TO.N,mirror_ring_bottom*%
X260759035Y-122985012D02*
X262087297Y-127617227D01*
X262087297Y-127617227D02*
X262095464Y-127645715D01*
X262095464Y-127645715D02*
X262012934Y-127794594D01*
%TO.N,mirror_ring_home*%
X256073189Y-106643566D02*
X257244248Y-110727514D01*
X257244248Y-110727514D02*
X257230277Y-110752700D01*
%TO.N,mirror_ring_top*%
X252577810Y-94453699D02*
X251387360Y-90302118D01*
%TO.N,mirror_middle_bottom*%
X240201364Y-121226227D02*
X241643707Y-124796154D01*
X241643707Y-124796154D02*
X241688211Y-124815040D01*
%TO.N,mirror_middle_home*%
X233833056Y-105464105D02*
X235425245Y-109404906D01*
X235425245Y-109404906D02*
X235502288Y-109437611D01*
X235502288Y-109437611D02*
X235534827Y-109451421D01*
%TO.N,mirror_middle_top*%
X229045079Y-93613450D02*
X229036341Y-93634036D01*
X227464741Y-89701977D02*
X229045079Y-93613450D01*
%TO.N,mirror_index_bottom*%
X226082107Y-134900643D02*
X227521651Y-138463627D01*
X227521651Y-138463627D02*
X227520464Y-138466415D01*
%TO.N,mirror_index_home*%
X219439674Y-119252057D02*
X221068388Y-123283274D01*
X221068388Y-123283274D02*
X221126387Y-123307888D01*
%TO.N,mirror_index_top*%
X212797242Y-103603473D02*
X214276379Y-107264480D01*
X214276379Y-107264480D02*
X214330077Y-107287276D01*
%TO.N,mirror_inner_home*%
X206746570Y-135099643D02*
X208321287Y-138997202D01*
X206582525Y-135030007D02*
X206746570Y-135099643D01*
%TO.N,mirror_inner_top*%
X201327784Y-122816063D02*
X199940100Y-119381430D01*
%TO.N,home_thumb*%
X128893937Y-168109961D02*
X127607793Y-170016748D01*
X132526418Y-168268299D02*
X131531581Y-167597254D01*
X135553087Y-167491593D02*
X135406848Y-167708389D01*
X131531581Y-167597254D02*
X128893937Y-168109961D01*
X135406848Y-167708389D02*
X132526418Y-168268299D01*
X127607793Y-170016748D02*
X127468974Y-170043737D01*
%TO.N,reachy_thumb*%
X151267022Y-179111320D02*
X148588299Y-183082681D01*
X148588299Y-183082681D02*
X147685953Y-183258083D01*
X151275528Y-179109668D02*
X151267022Y-179111320D01*
%TO.N,mirror_home_thumb*%
X219384769Y-161936669D02*
X219420322Y-161989379D01*
X217550054Y-159216594D02*
X219384769Y-161936669D01*
X219420322Y-161989379D02*
X219470874Y-161999205D01*
%TO.N,mirror_reachy_thumb*%
X201341774Y-171513448D02*
X201557652Y-170402886D01*
X198232891Y-173610419D02*
X201341774Y-171513448D01*
X198097971Y-174304534D02*
X198232891Y-173610419D01*
X201557652Y-170402886D02*
X200712315Y-169149636D01*
%TO.N,C4*%
X177010763Y-158759460D02*
X177010763Y-152840757D01*
X177005214Y-152835200D02*
X177005216Y-152870520D01*
X177010763Y-152840757D02*
X177005210Y-152835205D01*
%TO.N,C0*%
X133778581Y-151551531D02*
X137778151Y-160973921D01*
X188347520Y-171472790D02*
X188347522Y-171381005D01*
X165160761Y-148610762D02*
X161765205Y-145215202D01*
X176893111Y-159926593D02*
X165160760Y-159926594D01*
X165160760Y-159926594D02*
X165160761Y-148610762D01*
X137778151Y-160973921D02*
X137849320Y-161002670D01*
X188347522Y-171381005D02*
X176893111Y-159926593D01*
%TO.N,GND*%
X186852896Y-129193003D02*
X186159705Y-127477286D01*
X183877755Y-123187919D02*
X184108363Y-122644635D01*
X177005217Y-140135205D02*
X178413527Y-140135201D01*
X186113273Y-130935450D02*
X186852896Y-129193003D01*
X178413527Y-140135201D02*
X182014839Y-136533889D01*
X182014839Y-136533889D02*
X182014837Y-135033890D01*
X186159705Y-127477286D02*
X185497143Y-127196046D01*
X182014837Y-135033890D02*
X186113273Y-130935450D01*
X185497143Y-127196046D02*
X183877755Y-123187919D01*
%TO.N,RST*%
X168115208Y-139183207D02*
X172719855Y-139183205D01*
X185207793Y-129658627D02*
X184594844Y-128141528D01*
X184631414Y-131016493D02*
X184114535Y-132234191D01*
X177368884Y-134534192D02*
X181814532Y-134534190D01*
X184866435Y-127501702D02*
X183302611Y-123631099D01*
X181814532Y-134534190D02*
X184114535Y-132234191D01*
X183302611Y-123631099D02*
X182543507Y-123308880D01*
X172719855Y-139183205D02*
X177368884Y-134534192D01*
X184631414Y-131016493D02*
X185207793Y-129658627D01*
X184594844Y-128141528D02*
X184866435Y-127501702D01*
%TO.N,BAT+*%
X164940206Y-144898201D02*
X164940212Y-138112850D01*
X164940212Y-138112850D02*
X166262857Y-136790213D01*
X166262857Y-136790213D02*
X166585211Y-136790207D01*
%TO.N,BAT_POS*%
X169585208Y-136790201D02*
X169579186Y-136784182D01*
X166268884Y-142484188D02*
X172482346Y-148697650D01*
X180854191Y-149034188D02*
X181535215Y-149715209D01*
X166268886Y-138884180D02*
X166268884Y-142484188D01*
X172482346Y-148949995D02*
X180835392Y-148949995D01*
X168368887Y-136784183D02*
X166268886Y-138884180D01*
X169579186Y-136784182D02*
X168368887Y-136784183D01*
X180835392Y-148949995D02*
X181537529Y-149652132D01*
X172482346Y-148697650D02*
X172482346Y-148949995D01*
%TD*%
%TA.AperFunction,Conductor*%
%TO.N,index_top*%
G36*
X139726996Y-113422419D02*
G01*
X139943748Y-113509993D01*
X139950135Y-113516269D01*
X139951060Y-113521193D01*
X139928708Y-114264020D01*
X139925034Y-114272186D01*
X139916661Y-114275363D01*
X139914759Y-114275149D01*
X139537918Y-114201152D01*
X139533648Y-114199383D01*
X139214736Y-113985163D01*
X139209779Y-113977705D01*
X139211548Y-113968927D01*
X139212662Y-113967517D01*
X139714027Y-113425323D01*
X139722158Y-113421577D01*
X139726996Y-113422419D01*
G37*
%TD.AperFunction*%
%TD*%
%TA.AperFunction,Conductor*%
%TO.N,inner_top*%
G36*
X153032571Y-128090537D02*
G01*
X153249321Y-128178112D01*
X153255707Y-128184387D01*
X153256633Y-128189270D01*
X153236821Y-128933160D01*
X153233175Y-128941339D01*
X153224814Y-128944545D01*
X153222871Y-128944330D01*
X152846077Y-128870342D01*
X152841807Y-128868573D01*
X152522855Y-128654326D01*
X152517898Y-128646868D01*
X152519667Y-128638090D01*
X152520750Y-128636713D01*
X153019571Y-128093472D01*
X153027691Y-128089697D01*
X153032571Y-128090537D01*
G37*
%TD.AperFunction*%
%TD*%
%TA.AperFunction,Conductor*%
%TO.N,R4*%
G36*
X178462958Y-146946707D02*
G01*
X179734055Y-147626895D01*
X179739733Y-147633820D01*
X179740235Y-147637211D01*
X179740235Y-147872544D01*
X179736808Y-147880817D01*
X179733218Y-147883266D01*
X178462642Y-148438227D01*
X178453689Y-148438398D01*
X178452596Y-148437904D01*
X177377142Y-147883266D01*
X177026692Y-147702530D01*
X177020911Y-147695693D01*
X177021657Y-147686769D01*
X177026692Y-147681733D01*
X178452079Y-146946625D01*
X178461003Y-146945880D01*
X178462958Y-146946707D01*
G37*
%TD.AperFunction*%
%TD*%
%TA.AperFunction,Conductor*%
%TO.N,mirror_middle_bottom*%
G36*
X241477478Y-124049646D02*
G01*
X241481187Y-124052151D01*
X242010763Y-124582756D01*
X242014182Y-124591032D01*
X242010747Y-124599302D01*
X242009006Y-124600733D01*
X241690542Y-124814652D01*
X241686272Y-124816421D01*
X241308909Y-124890520D01*
X241300131Y-124888751D01*
X241295174Y-124881293D01*
X241294983Y-124879845D01*
X241290603Y-124816421D01*
X241244500Y-124148787D01*
X241247349Y-124140298D01*
X241251786Y-124137135D01*
X241468523Y-124049568D01*
X241477478Y-124049646D01*
G37*
%TD.AperFunction*%
%TD*%
%TA.AperFunction,Conductor*%
%TO.N,R0*%
G36*
X144298492Y-119258029D02*
G01*
X144300646Y-119261476D01*
X144979537Y-120941746D01*
X144979459Y-120950700D01*
X144974188Y-120956456D01*
X144267394Y-121332818D01*
X144266467Y-121333261D01*
X144045776Y-121426940D01*
X144036821Y-121427018D01*
X144031441Y-121422618D01*
X143972287Y-121333063D01*
X143233630Y-120214785D01*
X143231931Y-120205996D01*
X143235562Y-120199647D01*
X144281969Y-119257164D01*
X144290409Y-119254175D01*
X144298492Y-119258029D01*
G37*
%TD.AperFunction*%
%TD*%
%TA.AperFunction,Conductor*%
%TO.N,mirror_ring_home*%
G36*
X256087421Y-106588641D02*
G01*
X257376784Y-107551799D01*
X257381361Y-107559495D01*
X257380346Y-107566202D01*
X256813046Y-108757581D01*
X256806395Y-108763577D01*
X256805707Y-108763798D01*
X256575598Y-108829781D01*
X256566701Y-108828767D01*
X256565985Y-108828336D01*
X255469922Y-108114078D01*
X255464863Y-108106691D01*
X255465451Y-108099925D01*
X256069561Y-106593656D01*
X256075820Y-106587256D01*
X256084774Y-106587155D01*
X256087421Y-106588641D01*
G37*
%TD.AperFunction*%
%TD*%
%TA.AperFunction,Conductor*%
%TO.N,RST*%
G36*
X168682462Y-138293717D02*
G01*
X170092173Y-139054891D01*
X170097824Y-139061837D01*
X170098314Y-139065186D01*
X170098314Y-139300650D01*
X170094887Y-139308923D01*
X170091428Y-139311314D01*
X168682127Y-139947526D01*
X168673177Y-139947806D01*
X168667590Y-139943370D01*
X168120887Y-139126640D01*
X168119133Y-139117859D01*
X168120887Y-139113624D01*
X168667182Y-138297502D01*
X168674630Y-138292535D01*
X168682462Y-138293717D01*
G37*
%TD.AperFunction*%
%TD*%
%TA.AperFunction,Conductor*%
%TO.N,ring_top*%
G36*
X102147993Y-96651758D02*
G01*
X102151213Y-96655451D01*
X102264581Y-96859971D01*
X102265595Y-96868868D01*
X102263265Y-96873217D01*
X101852034Y-97357376D01*
X101844067Y-97361463D01*
X101836638Y-97359545D01*
X101515899Y-97146261D01*
X101510908Y-97138826D01*
X101510897Y-97138773D01*
X101437049Y-96762844D01*
X101438817Y-96754069D01*
X101446275Y-96749111D01*
X101446830Y-96749017D01*
X102139316Y-96649542D01*
X102147993Y-96651758D01*
G37*
%TD.AperFunction*%
%TD*%
%TA.AperFunction,Conductor*%
%TO.N,R4*%
G36*
X242894694Y-107203905D02*
G01*
X244352853Y-107644541D01*
X244359782Y-107650215D01*
X244360669Y-107659125D01*
X244359408Y-107661913D01*
X243446721Y-109131654D01*
X243439446Y-109136875D01*
X243432484Y-109136364D01*
X242294829Y-108687034D01*
X242288393Y-108680808D01*
X242288279Y-108680535D01*
X242198591Y-108458547D01*
X242198669Y-108449592D01*
X242199184Y-108448532D01*
X242881065Y-107209462D01*
X242888054Y-107203869D01*
X242894694Y-107203905D01*
G37*
%TD.AperFunction*%
%TD*%
%TA.AperFunction,Conductor*%
%TO.N,R4*%
G36*
X222316310Y-107693895D02*
G01*
X223984278Y-108401904D01*
X223990554Y-108408291D01*
X223990663Y-108416776D01*
X223688486Y-109223852D01*
X223688299Y-109224322D01*
X223594530Y-109445227D01*
X223588143Y-109451503D01*
X223581173Y-109452065D01*
X222507472Y-109208608D01*
X222197903Y-109138414D01*
X222190593Y-109133244D01*
X222188827Y-109126095D01*
X222300077Y-107703753D01*
X222304138Y-107695773D01*
X222312653Y-107693002D01*
X222316310Y-107693895D01*
G37*
%TD.AperFunction*%
%TD*%
%TA.AperFunction,Conductor*%
%TO.N,R4*%
G36*
X268428910Y-127390396D02*
G01*
X269841259Y-128382329D01*
X269846060Y-128389889D01*
X269844110Y-128398628D01*
X269842041Y-128400879D01*
X268672879Y-129378786D01*
X268664335Y-129381465D01*
X268657797Y-129378727D01*
X267607054Y-128485881D01*
X267602968Y-128477912D01*
X267605409Y-128469765D01*
X267752413Y-128281609D01*
X268412796Y-127392990D01*
X268420480Y-127388396D01*
X268428910Y-127390396D01*
G37*
%TD.AperFunction*%
%TD*%
%TA.AperFunction,Conductor*%
%TO.N,RST*%
G36*
X184609563Y-128151135D02*
G01*
X184620457Y-128158739D01*
X185338876Y-128660165D01*
X185343699Y-128667710D01*
X185343513Y-128672668D01*
X185189879Y-129271246D01*
X185184503Y-129278407D01*
X185182929Y-129279185D01*
X184962102Y-129368405D01*
X184953147Y-129368327D01*
X184951576Y-129367514D01*
X184444140Y-129054439D01*
X184438898Y-129047179D01*
X184438754Y-129042495D01*
X184591339Y-128158737D01*
X184596123Y-128151170D01*
X184604859Y-128149201D01*
X184609563Y-128151135D01*
G37*
%TD.AperFunction*%
%TD*%
%TA.AperFunction,Conductor*%
%TO.N,pinky_bottom*%
G36*
X72979439Y-137342290D02*
G01*
X72987232Y-137346699D01*
X72989625Y-137355328D01*
X72989532Y-137355946D01*
X72872025Y-138018383D01*
X72867206Y-138025930D01*
X72858461Y-138027859D01*
X72858251Y-138027820D01*
X72482292Y-137954011D01*
X72474834Y-137949054D01*
X72474807Y-137949014D01*
X72262065Y-137629499D01*
X72260333Y-137620714D01*
X72265320Y-137613276D01*
X72265538Y-137613134D01*
X72740033Y-137315532D01*
X72747674Y-137313832D01*
X72979439Y-137342290D01*
G37*
%TD.AperFunction*%
%TD*%
%TA.AperFunction,Conductor*%
%TO.N,ring_top*%
G36*
X103297711Y-94812328D02*
G01*
X103298851Y-94815204D01*
X103656884Y-96248252D01*
X103655565Y-96257109D01*
X103650160Y-96261834D01*
X102362129Y-96816355D01*
X102353175Y-96816479D01*
X102347269Y-96811281D01*
X102337774Y-96794152D01*
X102231199Y-96601889D01*
X101702043Y-95705235D01*
X101700789Y-95696369D01*
X101706173Y-95689213D01*
X101706352Y-95689109D01*
X103281789Y-94807828D01*
X103290681Y-94806781D01*
X103297711Y-94812328D01*
G37*
%TD.AperFunction*%
%TD*%
%TA.AperFunction,Conductor*%
%TO.N,ring_home*%
G36*
X97021838Y-116309029D02*
G01*
X97132836Y-116340858D01*
X97246645Y-116373493D01*
X97253653Y-116379068D01*
X97254934Y-116382659D01*
X97371652Y-117028537D01*
X97369751Y-117037288D01*
X97362446Y-117042088D01*
X96985885Y-117117860D01*
X96977098Y-117116133D01*
X96977054Y-117116103D01*
X96658147Y-116901918D01*
X96653189Y-116894460D01*
X96654720Y-116886051D01*
X97008665Y-116314119D01*
X97015933Y-116308888D01*
X97021838Y-116309029D01*
G37*
%TD.AperFunction*%
%TD*%
%TA.AperFunction,Conductor*%
%TO.N,R4*%
G36*
X207691250Y-121610239D02*
G01*
X207936719Y-121672689D01*
X207943892Y-121678050D01*
X207945173Y-121686913D01*
X207944049Y-121689732D01*
X207153171Y-123106025D01*
X207146146Y-123111578D01*
X207139363Y-123111456D01*
X206729845Y-122979320D01*
X205892383Y-122709103D01*
X205885562Y-122703301D01*
X205885128Y-122702351D01*
X205795455Y-122480401D01*
X205795533Y-122471446D01*
X205795732Y-122471003D01*
X206362873Y-121282008D01*
X206369528Y-121276017D01*
X206376316Y-121275707D01*
X207691250Y-121610239D01*
G37*
%TD.AperFunction*%
%TD*%
%TA.AperFunction,Conductor*%
%TO.N,R2*%
G36*
X160322978Y-141866626D02*
G01*
X161748364Y-142601733D01*
X161754146Y-142608571D01*
X161753400Y-142617495D01*
X161748364Y-142622531D01*
X160322461Y-143357904D01*
X160313537Y-143358650D01*
X160312415Y-143358227D01*
X159041839Y-142803262D01*
X159035629Y-142796810D01*
X159034822Y-142792540D01*
X159034822Y-142557204D01*
X159038249Y-142548934D01*
X159040994Y-142546896D01*
X160312096Y-141866708D01*
X160321006Y-141865827D01*
X160322978Y-141866626D01*
G37*
%TD.AperFunction*%
%TD*%
%TA.AperFunction,Conductor*%
%TO.N,R0*%
G36*
X93632567Y-87387274D02*
G01*
X93748286Y-87596036D01*
X94292495Y-88570351D01*
X94293537Y-88579244D01*
X94288408Y-88586023D01*
X92810218Y-89494949D01*
X92801376Y-89496363D01*
X92794123Y-89491110D01*
X92792877Y-89488321D01*
X92360132Y-88033024D01*
X92361059Y-88024119D01*
X92366039Y-88019264D01*
X93617029Y-87382518D01*
X93625954Y-87381820D01*
X93632567Y-87387274D01*
G37*
%TD.AperFunction*%
%TD*%
%TA.AperFunction,Conductor*%
%TO.N,reachy_thumb*%
G36*
X151272818Y-179051153D02*
G01*
X151278607Y-179057984D01*
X151279152Y-179060976D01*
X151362009Y-180728496D01*
X151358997Y-180736929D01*
X151353087Y-180740446D01*
X150121121Y-181039945D01*
X150112272Y-181038569D01*
X150111814Y-181038276D01*
X149913349Y-180904408D01*
X149908407Y-180896940D01*
X149908259Y-180895956D01*
X149762940Y-179541524D01*
X149765464Y-179532936D01*
X149770998Y-179529139D01*
X151263895Y-179050416D01*
X151272818Y-179051153D01*
G37*
%TD.AperFunction*%
%TD*%
%TA.AperFunction,Conductor*%
%TO.N,BAT+*%
G36*
X165066231Y-142857774D02*
G01*
X165068434Y-142860837D01*
X165769418Y-144270351D01*
X165770034Y-144279285D01*
X165765450Y-144285284D01*
X164949037Y-144831774D01*
X164940256Y-144833528D01*
X164936021Y-144831774D01*
X164119585Y-144285269D01*
X164114616Y-144277819D01*
X164115602Y-144270365D01*
X164811988Y-142860863D01*
X164818725Y-142854965D01*
X164822477Y-142854347D01*
X165057960Y-142854347D01*
X165066231Y-142857774D01*
G37*
%TD.AperFunction*%
%TD*%
%TA.AperFunction,Conductor*%
%TO.N,C0*%
G36*
X162648726Y-144980343D02*
G01*
X162653379Y-144986559D01*
X163081659Y-146350239D01*
X163080869Y-146359159D01*
X163078770Y-146362018D01*
X162912028Y-146528759D01*
X162903755Y-146532186D01*
X162900233Y-146531643D01*
X161393282Y-146056020D01*
X161386424Y-146050262D01*
X161385647Y-146041341D01*
X161386044Y-146040267D01*
X161764392Y-145157095D01*
X161770800Y-145150840D01*
X161772866Y-145150228D01*
X162639945Y-144978588D01*
X162648726Y-144980343D01*
G37*
%TD.AperFunction*%
%TD*%
%TA.AperFunction,Conductor*%
%TO.N,R3*%
G36*
X214456763Y-137290137D02*
G01*
X214579145Y-137321272D01*
X214586318Y-137326633D01*
X214587599Y-137335496D01*
X214586475Y-137338315D01*
X213795598Y-138754611D01*
X213788573Y-138760164D01*
X213781790Y-138760042D01*
X213395342Y-138635351D01*
X212534812Y-138357693D01*
X212527991Y-138351891D01*
X212527557Y-138350941D01*
X212437883Y-138128991D01*
X212437961Y-138120036D01*
X212438160Y-138119593D01*
X213005301Y-136930595D01*
X213011956Y-136924604D01*
X213018745Y-136924294D01*
X214456763Y-137290137D01*
G37*
%TD.AperFunction*%
%TD*%
%TA.AperFunction,Conductor*%
%TO.N,mirror_middle_top*%
G36*
X228871316Y-92849703D02*
G01*
X228875516Y-92852731D01*
X229360094Y-93401798D01*
X229362999Y-93410269D01*
X229359064Y-93418312D01*
X229357846Y-93419252D01*
X229038672Y-93633648D01*
X229034402Y-93635417D01*
X228657875Y-93709352D01*
X228649097Y-93707583D01*
X228644140Y-93700125D01*
X228643921Y-93697959D01*
X228638301Y-92948129D01*
X228641666Y-92939832D01*
X228645614Y-92937197D01*
X228862362Y-92849625D01*
X228871316Y-92849703D01*
G37*
%TD.AperFunction*%
%TD*%
%TA.AperFunction,Conductor*%
%TO.N,R0*%
G36*
X115924817Y-88092436D02*
G01*
X115929865Y-88096949D01*
X116761052Y-89459514D01*
X116762435Y-89468361D01*
X116757157Y-89475595D01*
X116754382Y-89476827D01*
X115184632Y-89941026D01*
X115175727Y-89940086D01*
X115170950Y-89935236D01*
X114930782Y-89476827D01*
X114568982Y-88786259D01*
X114568179Y-88777342D01*
X114568492Y-88776465D01*
X114658174Y-88554496D01*
X114664449Y-88548111D01*
X114664994Y-88547896D01*
X115915871Y-88092049D01*
X115924817Y-88092436D01*
G37*
%TD.AperFunction*%
%TD*%
%TA.AperFunction,Conductor*%
%TO.N,C4*%
G36*
X177014324Y-152777922D02*
G01*
X177901472Y-153664461D01*
X177904902Y-153672733D01*
X177902076Y-153680362D01*
X177139265Y-154568057D01*
X177131274Y-154572099D01*
X177130391Y-154572132D01*
X176893112Y-154572132D01*
X176884839Y-154568705D01*
X176882572Y-154565512D01*
X176263616Y-153281295D01*
X176263111Y-153272354D01*
X176267645Y-153266494D01*
X176999547Y-152776475D01*
X177008326Y-152774721D01*
X177014324Y-152777922D01*
G37*
%TD.AperFunction*%
%TD*%
%TA.AperFunction,Conductor*%
%TO.N,R3*%
G36*
X214156297Y-135162824D02*
G01*
X214376845Y-135256443D01*
X215270809Y-135616416D01*
X215277204Y-135622685D01*
X215277292Y-135631639D01*
X215277287Y-135631652D01*
X214598457Y-137311770D01*
X214592180Y-137318157D01*
X214583226Y-137318235D01*
X214580313Y-137316533D01*
X213444295Y-136410280D01*
X213439964Y-136402442D01*
X213441427Y-136395338D01*
X214141563Y-135167797D01*
X214148638Y-135162310D01*
X214156297Y-135162824D01*
G37*
%TD.AperFunction*%
%TD*%
%TA.AperFunction,Conductor*%
%TO.N,R4*%
G36*
X244378452Y-107657111D02*
G01*
X245807062Y-108580008D01*
X245812151Y-108587376D01*
X245810897Y-108595596D01*
X245246146Y-109594138D01*
X245130588Y-109802611D01*
X245123580Y-109808186D01*
X245114779Y-109807225D01*
X243892609Y-109144693D01*
X243886969Y-109137737D01*
X243887051Y-109130811D01*
X244360972Y-107663341D01*
X244366775Y-107656525D01*
X244375701Y-107655806D01*
X244378452Y-107657111D01*
G37*
%TD.AperFunction*%
%TD*%
%TA.AperFunction,Conductor*%
%TO.N,mirror_ring_home*%
G36*
X257151195Y-109949642D02*
G01*
X257155080Y-109953125D01*
X257555954Y-110520687D01*
X257557927Y-110529422D01*
X257553147Y-110536994D01*
X257552920Y-110537150D01*
X257234600Y-110750941D01*
X257225822Y-110752709D01*
X257225769Y-110752698D01*
X256848446Y-110676773D01*
X256841011Y-110671782D01*
X256839123Y-110664035D01*
X256909118Y-110023058D01*
X256913423Y-110015207D01*
X256917523Y-110013082D01*
X257142299Y-109948628D01*
X257151195Y-109949642D01*
G37*
%TD.AperFunction*%
%TD*%
%TA.AperFunction,Conductor*%
%TO.N,mirror_index_home*%
G36*
X219454727Y-119195777D02*
G01*
X220828264Y-120004451D01*
X220833655Y-120011601D01*
X220833387Y-120018353D01*
X220397562Y-121279900D01*
X220391621Y-121286601D01*
X220390886Y-121286928D01*
X220168935Y-121376602D01*
X220159980Y-121376524D01*
X220159299Y-121376209D01*
X219981604Y-121286928D01*
X219003349Y-120795412D01*
X218997496Y-120788636D01*
X218997333Y-120781817D01*
X219437523Y-119202716D01*
X219443045Y-119195669D01*
X219451935Y-119194590D01*
X219454727Y-119195777D01*
G37*
%TD.AperFunction*%
%TD*%
%TA.AperFunction,Conductor*%
%TO.N,R1*%
G36*
X123857405Y-118022578D02*
G01*
X124785523Y-119104774D01*
X124788308Y-119113285D01*
X124784259Y-119121272D01*
X124781025Y-119123239D01*
X123100616Y-119802187D01*
X123091662Y-119802109D01*
X123085768Y-119796572D01*
X122749060Y-119123239D01*
X122693421Y-119011975D01*
X122693129Y-119011342D01*
X122599527Y-118790833D01*
X122599450Y-118781880D01*
X122604199Y-118776278D01*
X123842427Y-118020208D01*
X123851273Y-118018823D01*
X123857405Y-118022578D01*
G37*
%TD.AperFunction*%
%TD*%
%TA.AperFunction,Conductor*%
%TO.N,R3*%
G36*
X178807359Y-149977741D02*
G01*
X178810260Y-149980899D01*
X179502145Y-151087704D01*
X179503625Y-151096536D01*
X179500497Y-151102179D01*
X179334026Y-151268649D01*
X179325753Y-151272076D01*
X179325048Y-151272055D01*
X177018514Y-151132795D01*
X177010462Y-151128876D01*
X177007519Y-151121125D01*
X177007493Y-151087704D01*
X177006828Y-150241577D01*
X177010248Y-150233304D01*
X177016873Y-150229989D01*
X178798686Y-149975519D01*
X178807359Y-149977741D01*
G37*
%TD.AperFunction*%
%TD*%
%TA.AperFunction,Conductor*%
%TO.N,C0*%
G36*
X137610192Y-160250303D02*
G01*
X138064113Y-160663317D01*
X138067926Y-160671420D01*
X138065981Y-160678451D01*
X137852411Y-160999528D01*
X137844975Y-161004518D01*
X137844924Y-161004529D01*
X137469476Y-161078257D01*
X137460697Y-161076488D01*
X137455740Y-161069031D01*
X137455596Y-161068097D01*
X137375489Y-160351602D01*
X137377976Y-160343001D01*
X137382541Y-160339536D01*
X137597746Y-160248186D01*
X137606701Y-160248109D01*
X137610192Y-160250303D01*
G37*
%TD.AperFunction*%
%TD*%
%TA.AperFunction,Conductor*%
%TO.N,pinky_bottom*%
G36*
X73622727Y-131193146D02*
G01*
X73624599Y-131195535D01*
X74448971Y-132587719D01*
X74450238Y-132596583D01*
X74446716Y-132602390D01*
X73469793Y-133478623D01*
X73461346Y-133481596D01*
X73460555Y-133481526D01*
X73222959Y-133452353D01*
X73215165Y-133447943D01*
X73214715Y-133447327D01*
X72946140Y-133053048D01*
X72474165Y-132360171D01*
X72472341Y-132351405D01*
X72475483Y-132345393D01*
X73606183Y-131193300D01*
X73614422Y-131189797D01*
X73622727Y-131193146D01*
G37*
%TD.AperFunction*%
%TD*%
%TA.AperFunction,Conductor*%
%TO.N,R1*%
G36*
X124797882Y-119128436D02*
G01*
X124799108Y-119131214D01*
X125266223Y-120720937D01*
X125265268Y-120729840D01*
X125259516Y-120735027D01*
X124126696Y-121209265D01*
X124126670Y-121209277D01*
X124018050Y-121255383D01*
X123908071Y-121302067D01*
X123899116Y-121302145D01*
X123892729Y-121295869D01*
X123892451Y-121295146D01*
X123428878Y-119957434D01*
X123429407Y-119948498D01*
X123433855Y-119943608D01*
X124781808Y-119124512D01*
X124790657Y-119123146D01*
X124797882Y-119128436D01*
G37*
%TD.AperFunction*%
%TD*%
%TA.AperFunction,Conductor*%
%TO.N,middle_top*%
G36*
X126656229Y-95849573D02*
G01*
X126657431Y-95852360D01*
X127101758Y-97413919D01*
X127100726Y-97422814D01*
X127095838Y-97427535D01*
X125931868Y-98023604D01*
X125922942Y-98024325D01*
X125922152Y-98024038D01*
X125700202Y-97934364D01*
X125693815Y-97928088D01*
X125693555Y-97927419D01*
X125253139Y-96682955D01*
X125253610Y-96674013D01*
X125258179Y-96669002D01*
X126640191Y-95845510D01*
X126649050Y-95844220D01*
X126656229Y-95849573D01*
G37*
%TD.AperFunction*%
%TD*%
%TA.AperFunction,Conductor*%
%TO.N,RST*%
G36*
X184791955Y-126996223D02*
G01*
X184798231Y-127002610D01*
X184798625Y-127003751D01*
X185099350Y-128046364D01*
X185098350Y-128055262D01*
X185091350Y-128060848D01*
X185090005Y-128061151D01*
X184602513Y-128141257D01*
X184593794Y-128139217D01*
X184591004Y-128136383D01*
X184148924Y-127499453D01*
X184147022Y-127490703D01*
X184150399Y-127484375D01*
X184561599Y-127086517D01*
X184565341Y-127084084D01*
X184783000Y-126996145D01*
X184791955Y-126996223D01*
G37*
%TD.AperFunction*%
%TD*%
%TA.AperFunction,Conductor*%
%TO.N,R5*%
G36*
X188463714Y-121812987D02*
G01*
X189837253Y-122621660D01*
X189842644Y-122628810D01*
X189842376Y-122635562D01*
X189406551Y-123897109D01*
X189400610Y-123903810D01*
X189399875Y-123904137D01*
X189177924Y-123993812D01*
X189168969Y-123993734D01*
X189168288Y-123993419D01*
X188012338Y-123412622D01*
X188006484Y-123405845D01*
X188006321Y-123399025D01*
X188219144Y-122635562D01*
X188446510Y-121819926D01*
X188452032Y-121812879D01*
X188460922Y-121811800D01*
X188463714Y-121812987D01*
G37*
%TD.AperFunction*%
%TD*%
%TA.AperFunction,Conductor*%
%TO.N,R4*%
G36*
X194475944Y-135290920D02*
G01*
X194695783Y-135384237D01*
X195705661Y-135773879D01*
X195712146Y-135780054D01*
X195712416Y-135788871D01*
X195098330Y-137441379D01*
X195092236Y-137447940D01*
X195083287Y-137448270D01*
X195080573Y-137446831D01*
X193858298Y-136575886D01*
X193853549Y-136568295D01*
X193854537Y-136561303D01*
X194460825Y-135296631D01*
X194467490Y-135290654D01*
X194475944Y-135290920D01*
G37*
%TD.AperFunction*%
%TD*%
%TA.AperFunction,Conductor*%
%TO.N,R0*%
G36*
X116770731Y-89483043D02*
G01*
X116771957Y-89485818D01*
X117232977Y-91053312D01*
X117232023Y-91062216D01*
X117226383Y-91067358D01*
X116075035Y-91563573D01*
X116074976Y-91563598D01*
X115856460Y-91656352D01*
X115847505Y-91656430D01*
X115841118Y-91650154D01*
X115840830Y-91649405D01*
X115384102Y-90322750D01*
X115384649Y-90313813D01*
X115389086Y-90308945D01*
X116754658Y-89479119D01*
X116763506Y-89477753D01*
X116770731Y-89483043D01*
G37*
%TD.AperFunction*%
%TD*%
%TA.AperFunction,Conductor*%
%TO.N,pinky_home*%
G36*
X70127704Y-119488959D02*
G01*
X70135497Y-119493369D01*
X70137425Y-119497021D01*
X70352891Y-120173492D01*
X70352137Y-120182415D01*
X70345294Y-120188191D01*
X70344053Y-120188513D01*
X69969202Y-120264000D01*
X69960415Y-120262274D01*
X69960370Y-120262244D01*
X69640071Y-120047194D01*
X69635113Y-120039737D01*
X69635875Y-120032787D01*
X69883519Y-119467384D01*
X69889976Y-119461183D01*
X69895657Y-119460467D01*
X70127704Y-119488959D01*
G37*
%TD.AperFunction*%
%TD*%
%TA.AperFunction,Conductor*%
%TO.N,reachy_thumb*%
G36*
X148439099Y-182981430D02*
G01*
X148446674Y-182986205D01*
X148448608Y-182990729D01*
X148493226Y-183220264D01*
X148491441Y-183229040D01*
X148487891Y-183232450D01*
X147917764Y-183584749D01*
X147908925Y-183586183D01*
X147901901Y-183581319D01*
X147687690Y-183262321D01*
X147685924Y-183253544D01*
X147761746Y-182876908D01*
X147766737Y-182869477D01*
X147775190Y-182867688D01*
X148439099Y-182981430D01*
G37*
%TD.AperFunction*%
%TD*%
%TA.AperFunction,Conductor*%
%TO.N,R1*%
G36*
X63240670Y-125561535D02*
G01*
X63388348Y-125750555D01*
X63388812Y-125751192D01*
X63716168Y-126233975D01*
X63863531Y-126451304D01*
X63865337Y-126460074D01*
X63861050Y-126467090D01*
X62433060Y-127582758D01*
X62424431Y-127585151D01*
X62416637Y-127580741D01*
X62414797Y-127577355D01*
X61951611Y-126233973D01*
X61952154Y-126225036D01*
X61957262Y-126219787D01*
X63226044Y-125558362D01*
X63234962Y-125557577D01*
X63240670Y-125561535D01*
G37*
%TD.AperFunction*%
%TD*%
%TA.AperFunction,Conductor*%
%TO.N,R2*%
G36*
X144962202Y-168644067D02*
G01*
X144963257Y-168645002D01*
X145132572Y-168814318D01*
X145135999Y-168822591D01*
X145135999Y-168822608D01*
X145134279Y-170024773D01*
X145130840Y-170033041D01*
X145124578Y-170036284D01*
X143391931Y-170336731D01*
X143383194Y-170334768D01*
X143378404Y-170327202D01*
X143378281Y-170324138D01*
X143515946Y-168825171D01*
X143520114Y-168817249D01*
X143526187Y-168814629D01*
X144953577Y-168641660D01*
X144962202Y-168644067D01*
G37*
%TD.AperFunction*%
%TD*%
%TA.AperFunction,Conductor*%
%TO.N,R5*%
G36*
X239692172Y-91316281D02*
G01*
X241016095Y-92268817D01*
X241020809Y-92276430D01*
X241019471Y-92284029D01*
X240410591Y-93371777D01*
X240295456Y-93579483D01*
X240288448Y-93585058D01*
X240279551Y-93584044D01*
X240278904Y-93583658D01*
X239109651Y-92831433D01*
X239104548Y-92824076D01*
X239105047Y-92817432D01*
X239308080Y-92284029D01*
X239674407Y-91321617D01*
X239680553Y-91315105D01*
X239689504Y-91314845D01*
X239692172Y-91316281D01*
G37*
%TD.AperFunction*%
%TD*%
%TA.AperFunction,Conductor*%
%TO.N,middle_top*%
G36*
X125588326Y-98218885D02*
G01*
X125805076Y-98306458D01*
X125811463Y-98312734D01*
X125812389Y-98317593D01*
X125794118Y-99062127D01*
X125790490Y-99070314D01*
X125782135Y-99073536D01*
X125780168Y-99073321D01*
X125403402Y-98999339D01*
X125399132Y-98997570D01*
X125080156Y-98783307D01*
X125075199Y-98775849D01*
X125076968Y-98767071D01*
X125078035Y-98765712D01*
X125575309Y-98221837D01*
X125583420Y-98218045D01*
X125588326Y-98218885D01*
G37*
%TD.AperFunction*%
%TD*%
%TA.AperFunction,Conductor*%
%TO.N,mirror_index_bottom*%
G36*
X226097153Y-134844360D02*
G01*
X227470696Y-135653032D01*
X227476087Y-135660182D01*
X227475819Y-135666934D01*
X227039997Y-136928479D01*
X227034056Y-136935180D01*
X227033321Y-136935507D01*
X226811370Y-137025182D01*
X226802415Y-137025104D01*
X226801734Y-137024789D01*
X225645781Y-136443994D01*
X225639927Y-136437217D01*
X225639764Y-136430397D01*
X226079949Y-134851299D01*
X226085471Y-134844252D01*
X226094361Y-134843173D01*
X226097153Y-134844360D01*
G37*
%TD.AperFunction*%
%TD*%
%TA.AperFunction,Conductor*%
%TO.N,mirror_inner_home*%
G36*
X208141811Y-138218857D02*
G01*
X208145857Y-138221714D01*
X208396249Y-138494405D01*
X208644664Y-138764943D01*
X208647735Y-138773353D01*
X208643959Y-138781473D01*
X208642570Y-138782567D01*
X208323618Y-138996814D01*
X208319348Y-138998583D01*
X207942554Y-139072571D01*
X207933776Y-139070802D01*
X207928819Y-139063344D01*
X207928604Y-139061407D01*
X207908794Y-138317510D01*
X207912000Y-138309150D01*
X207916107Y-138306352D01*
X208132857Y-138218779D01*
X208141811Y-138218857D01*
G37*
%TD.AperFunction*%
%TD*%
%TA.AperFunction,Conductor*%
%TO.N,mirror_ring_bottom*%
G36*
X261989506Y-126821949D02*
G01*
X261993199Y-126825169D01*
X262412502Y-127385139D01*
X262414718Y-127393816D01*
X262410150Y-127401517D01*
X262409660Y-127401865D01*
X262091620Y-127615468D01*
X262082842Y-127617236D01*
X262082789Y-127617225D01*
X261705180Y-127541242D01*
X261697745Y-127536251D01*
X261695827Y-127528822D01*
X261706196Y-127401517D01*
X261747392Y-126895686D01*
X261751479Y-126887720D01*
X261755826Y-126885390D01*
X261980610Y-126820935D01*
X261989506Y-126821949D01*
G37*
%TD.AperFunction*%
%TD*%
%TA.AperFunction,Conductor*%
%TO.N,mirror_middle_home*%
G36*
X233848066Y-105407911D02*
G01*
X235227857Y-106232278D01*
X235233201Y-106239463D01*
X235232882Y-106246237D01*
X234790728Y-107491422D01*
X234784730Y-107498072D01*
X234784085Y-107498355D01*
X234562135Y-107588029D01*
X234553180Y-107587951D01*
X234552408Y-107587589D01*
X233390152Y-106990846D01*
X233384357Y-106984019D01*
X233384246Y-106977225D01*
X233830816Y-105414738D01*
X233836384Y-105407727D01*
X233845280Y-105406705D01*
X233848066Y-105407911D01*
G37*
%TD.AperFunction*%
%TD*%
%TA.AperFunction,Conductor*%
%TO.N,mirror_middle_top*%
G36*
X227479754Y-89645788D02*
G01*
X228859543Y-90470156D01*
X228864887Y-90477341D01*
X228864568Y-90484115D01*
X228422415Y-91729300D01*
X228416417Y-91735950D01*
X228415772Y-91736233D01*
X228193821Y-91825906D01*
X228184866Y-91825828D01*
X228184094Y-91825466D01*
X227021839Y-91228724D01*
X227016044Y-91221897D01*
X227015933Y-91215103D01*
X227462504Y-89652615D01*
X227468072Y-89645604D01*
X227476968Y-89644582D01*
X227479754Y-89645788D01*
G37*
%TD.AperFunction*%
%TD*%
%TA.AperFunction,Conductor*%
%TO.N,R5*%
G36*
X215185627Y-89760777D02*
G01*
X215404990Y-89853893D01*
X215405035Y-89853912D01*
X215750989Y-89997061D01*
X216475231Y-90296740D01*
X216481565Y-90303069D01*
X216481836Y-90311310D01*
X215938459Y-91912304D01*
X215932555Y-91919037D01*
X215923620Y-91919623D01*
X215920889Y-91918278D01*
X214631623Y-91058533D01*
X214626641Y-91051092D01*
X214627345Y-91044223D01*
X215170290Y-89766968D01*
X215176679Y-89760698D01*
X215185627Y-89760777D01*
G37*
%TD.AperFunction*%
%TD*%
%TA.AperFunction,Conductor*%
%TO.N,BAT_POS*%
G36*
X180939576Y-148805477D02*
G01*
X180941202Y-148807327D01*
X181531033Y-149641530D01*
X181533011Y-149650264D01*
X181528235Y-149657838D01*
X181527207Y-149658487D01*
X180947369Y-149983982D01*
X180938478Y-149985044D01*
X180931653Y-149979872D01*
X180381547Y-149077800D01*
X180379836Y-149071708D01*
X180379836Y-148836224D01*
X180383263Y-148827951D01*
X180391054Y-148824535D01*
X180931171Y-148802392D01*
X180939576Y-148805477D01*
G37*
%TD.AperFunction*%
%TD*%
%TA.AperFunction,Conductor*%
%TO.N,R0*%
G36*
X161719303Y-135712418D02*
G01*
X161721047Y-135714645D01*
X162270898Y-136626082D01*
X162510087Y-137022563D01*
X162511426Y-137031417D01*
X162506580Y-137038328D01*
X161775887Y-137527714D01*
X161767106Y-137529471D01*
X161761457Y-137526606D01*
X160800261Y-136642908D01*
X160796490Y-136634786D01*
X160799567Y-136626376D01*
X160799822Y-136626107D01*
X161536550Y-135878625D01*
X161702758Y-135712417D01*
X161711030Y-135708991D01*
X161719303Y-135712418D01*
G37*
%TD.AperFunction*%
%TD*%
%TA.AperFunction,Conductor*%
%TO.N,mirror_reachy_thumb*%
G36*
X200729475Y-169093118D02*
G01*
X200731530Y-169094176D01*
X201989941Y-169742084D01*
X201995727Y-169748917D01*
X201995705Y-169756118D01*
X201542162Y-171144337D01*
X201536336Y-171151137D01*
X201528808Y-171152189D01*
X201293786Y-171106504D01*
X201293302Y-171106399D01*
X200469120Y-170909614D01*
X200461869Y-170904360D01*
X200460251Y-170896605D01*
X200621581Y-169748917D01*
X200712533Y-169101889D01*
X200717078Y-169094176D01*
X200725748Y-169091934D01*
X200729475Y-169093118D01*
G37*
%TD.AperFunction*%
%TD*%
%TA.AperFunction,Conductor*%
%TO.N,R1*%
G36*
X86922022Y-105310709D02*
G01*
X88104142Y-105839396D01*
X88110295Y-105845901D01*
X88110702Y-105852968D01*
X87793694Y-107095495D01*
X87788328Y-107102665D01*
X87782361Y-107104303D01*
X85761487Y-107105054D01*
X85753213Y-107101630D01*
X85751250Y-107099026D01*
X85637218Y-106893307D01*
X85636204Y-106884410D01*
X85638361Y-106880269D01*
X86908159Y-105314019D01*
X86916029Y-105309752D01*
X86922022Y-105310709D01*
G37*
%TD.AperFunction*%
%TD*%
%TA.AperFunction,Conductor*%
%TO.N,R3*%
G36*
X205681152Y-160846870D02*
G01*
X205920881Y-160944350D01*
X206809336Y-161305616D01*
X206815709Y-161311906D01*
X206816368Y-161318911D01*
X206453358Y-163009278D01*
X206448271Y-163016647D01*
X206439462Y-163018260D01*
X206436581Y-163017232D01*
X205080416Y-162321945D01*
X205074618Y-162315122D01*
X205074460Y-162308481D01*
X205443445Y-160944349D01*
X205448913Y-160937259D01*
X205450349Y-160936559D01*
X205672364Y-160846861D01*
X205681152Y-160846870D01*
G37*
%TD.AperFunction*%
%TD*%
%TA.AperFunction,Conductor*%
%TO.N,mirror_index_home*%
G36*
X220906194Y-122546413D02*
G01*
X220909776Y-122548793D01*
X221341642Y-122968523D01*
X221345187Y-122976746D01*
X221343230Y-122983393D01*
X221129462Y-123304753D01*
X221122026Y-123309743D01*
X221121974Y-123309754D01*
X220746915Y-123383402D01*
X220738137Y-123381633D01*
X220733180Y-123374175D01*
X220733001Y-123372890D01*
X220673218Y-122645710D01*
X220675956Y-122637186D01*
X220680493Y-122633906D01*
X220897240Y-122546335D01*
X220906194Y-122546413D01*
G37*
%TD.AperFunction*%
%TD*%
%TA.AperFunction,Conductor*%
%TO.N,R3*%
G36*
X190359800Y-171835427D02*
G01*
X190366998Y-171840753D01*
X190367422Y-171841523D01*
X191187424Y-173472479D01*
X191188079Y-173481410D01*
X191184170Y-173486958D01*
X190173987Y-174275385D01*
X190165356Y-174277774D01*
X190158861Y-174274767D01*
X189200629Y-173392040D01*
X189196866Y-173383914D01*
X189198421Y-173377589D01*
X190118031Y-171783882D01*
X190125132Y-171778431D01*
X190130992Y-171778380D01*
X190359800Y-171835427D01*
G37*
%TD.AperFunction*%
%TD*%
%TA.AperFunction,Conductor*%
%TO.N,index_home*%
G36*
X134570688Y-125666529D02*
G01*
X134571873Y-125669324D01*
X135009808Y-127247446D01*
X135008718Y-127256335D01*
X135003776Y-127261035D01*
X133846157Y-127841141D01*
X133837225Y-127841784D01*
X133836532Y-127841529D01*
X133614581Y-127751855D01*
X133608194Y-127745579D01*
X133607901Y-127744816D01*
X133173828Y-126484030D01*
X133174375Y-126475092D01*
X133178965Y-126470134D01*
X134554675Y-125662363D01*
X134563544Y-125661130D01*
X134570688Y-125666529D01*
G37*
%TD.AperFunction*%
%TD*%
%TA.AperFunction,Conductor*%
%TO.N,R4*%
G36*
X222288463Y-107683710D02*
G01*
X222295601Y-107689117D01*
X222296825Y-107697988D01*
X222295683Y-107700801D01*
X221488595Y-109124235D01*
X221481533Y-109129741D01*
X221474729Y-109129568D01*
X220243284Y-108720549D01*
X220236513Y-108714689D01*
X220236124Y-108713828D01*
X220146450Y-108491879D01*
X220146528Y-108482924D01*
X220146771Y-108482389D01*
X220730203Y-107286261D01*
X220736909Y-107280329D01*
X220743673Y-107280072D01*
X222288463Y-107683710D01*
G37*
%TD.AperFunction*%
%TD*%
%TA.AperFunction,Conductor*%
%TO.N,mirror_pinky_home*%
G36*
X279521333Y-112301218D02*
G01*
X279523720Y-112303093D01*
X280651861Y-113455477D01*
X280655199Y-113463786D01*
X280653162Y-113470260D01*
X279910633Y-114557676D01*
X279903138Y-114562576D01*
X279902397Y-114562691D01*
X279664800Y-114591864D01*
X279656171Y-114589471D01*
X279655552Y-114588952D01*
X278680604Y-113712495D01*
X278676743Y-113704416D01*
X278678365Y-113697822D01*
X279505300Y-112305302D01*
X279512470Y-112299940D01*
X279521333Y-112301218D01*
G37*
%TD.AperFunction*%
%TD*%
%TA.AperFunction,Conductor*%
%TO.N,mirror_pinky_home*%
G36*
X280140487Y-116464535D02*
G01*
X280144153Y-116469423D01*
X280425169Y-117174542D01*
X280425048Y-117183496D01*
X280418632Y-117189743D01*
X280416611Y-117190343D01*
X280040481Y-117266135D01*
X280035860Y-117266136D01*
X279658963Y-117190237D01*
X279651529Y-117185244D01*
X279649803Y-117176457D01*
X279650246Y-117174855D01*
X279650357Y-117174542D01*
X279890260Y-116498328D01*
X279896255Y-116491679D01*
X279899858Y-116490629D01*
X280131859Y-116462142D01*
X280140487Y-116464535D01*
G37*
%TD.AperFunction*%
%TD*%
%TA.AperFunction,Conductor*%
%TO.N,middle_home*%
G36*
X120287917Y-111611698D02*
G01*
X120289119Y-111614485D01*
X120733448Y-113176045D01*
X120732416Y-113184940D01*
X120727528Y-113189661D01*
X119563559Y-113785730D01*
X119554633Y-113786451D01*
X119553843Y-113786164D01*
X119331893Y-113696490D01*
X119325506Y-113690214D01*
X119325246Y-113689545D01*
X118884828Y-112445080D01*
X118885299Y-112436138D01*
X118889868Y-112431127D01*
X120271879Y-111607635D01*
X120280738Y-111606345D01*
X120287917Y-111611698D01*
G37*
%TD.AperFunction*%
%TD*%
%TA.AperFunction,Conductor*%
%TO.N,GND*%
G36*
X179408670Y-138969603D02*
G01*
X179409355Y-138970236D01*
X179575690Y-139136571D01*
X179579117Y-139144844D01*
X179577302Y-139151103D01*
X178861461Y-140281564D01*
X178854140Y-140286721D01*
X178850226Y-140286927D01*
X177125002Y-140086564D01*
X177015318Y-140073825D01*
X177007497Y-140069468D01*
X177005186Y-140064443D01*
X176833983Y-139184985D01*
X176835765Y-139176211D01*
X176843231Y-139171267D01*
X176844522Y-139171089D01*
X179400150Y-138966846D01*
X179408670Y-138969603D01*
G37*
%TD.AperFunction*%
%TD*%
%TA.AperFunction,Conductor*%
%TO.N,R2*%
G36*
X118156024Y-134776863D02*
G01*
X118157396Y-134779595D01*
X118724887Y-136412302D01*
X118724367Y-136421241D01*
X118718274Y-136426969D01*
X117887154Y-136767649D01*
X117671058Y-136856229D01*
X117671041Y-136856236D01*
X117671022Y-136856244D01*
X117451639Y-136949365D01*
X117442685Y-136949443D01*
X117436325Y-136943229D01*
X116875772Y-135643575D01*
X116875642Y-135634621D01*
X116879941Y-135629263D01*
X118139773Y-134773756D01*
X118148542Y-134771944D01*
X118156024Y-134776863D01*
G37*
%TD.AperFunction*%
%TD*%
%TA.AperFunction,Conductor*%
%TO.N,middle_home*%
G36*
X118873843Y-114838555D02*
G01*
X119090587Y-114926125D01*
X119096974Y-114932401D01*
X119097904Y-114936892D01*
X119102062Y-115539403D01*
X119098692Y-115547700D01*
X119092669Y-115550954D01*
X118714223Y-115627053D01*
X118705436Y-115625325D01*
X118705392Y-115625295D01*
X118388157Y-115412202D01*
X118383200Y-115404745D01*
X118384969Y-115395966D01*
X118385803Y-115394869D01*
X118778938Y-114936892D01*
X118860582Y-114841781D01*
X118868571Y-114837737D01*
X118873843Y-114838555D01*
G37*
%TD.AperFunction*%
%TD*%
%TA.AperFunction,Conductor*%
%TO.N,mirror_inner_top*%
G36*
X201148308Y-122037718D02*
G01*
X201152354Y-122040575D01*
X201402746Y-122313266D01*
X201651161Y-122583804D01*
X201654232Y-122592214D01*
X201650456Y-122600334D01*
X201649067Y-122601428D01*
X201330115Y-122815675D01*
X201325845Y-122817444D01*
X200949051Y-122891432D01*
X200940273Y-122889663D01*
X200935316Y-122882205D01*
X200935101Y-122880268D01*
X200915291Y-122136371D01*
X200918497Y-122128011D01*
X200922604Y-122125213D01*
X201139354Y-122037640D01*
X201148308Y-122037718D01*
G37*
%TD.AperFunction*%
%TD*%
%TA.AperFunction,Conductor*%
%TO.N,R2*%
G36*
X104034688Y-121007130D02*
G01*
X104036059Y-121009853D01*
X104597604Y-122618365D01*
X104597096Y-122627305D01*
X104591152Y-122632981D01*
X103529770Y-123086143D01*
X103529748Y-123086153D01*
X103310341Y-123179285D01*
X103301386Y-123179363D01*
X103295021Y-123173138D01*
X103257603Y-123086143D01*
X102740679Y-121884311D01*
X102740559Y-121875359D01*
X102744847Y-121870017D01*
X104018437Y-121004033D01*
X104027203Y-121002216D01*
X104034688Y-121007130D01*
G37*
%TD.AperFunction*%
%TD*%
%TA.AperFunction,Conductor*%
%TO.N,R3*%
G36*
X228686061Y-123456632D02*
G01*
X230024690Y-124024846D01*
X230355080Y-124165088D01*
X230361356Y-124171475D01*
X230362164Y-124176876D01*
X230302679Y-124858268D01*
X230301793Y-124861822D01*
X230208407Y-125081824D01*
X230202020Y-125088100D01*
X230195803Y-125088807D01*
X228690065Y-124849789D01*
X228682431Y-124845108D01*
X228680199Y-124838325D01*
X228669791Y-123467491D01*
X228673155Y-123459193D01*
X228681402Y-123455703D01*
X228686061Y-123456632D01*
G37*
%TD.AperFunction*%
%TD*%
%TA.AperFunction,Conductor*%
%TO.N,inner_home*%
G36*
X146296765Y-143970253D02*
G01*
X146513514Y-144057826D01*
X146519901Y-144064102D01*
X146520827Y-144068985D01*
X146501017Y-144812875D01*
X146497371Y-144821054D01*
X146489010Y-144824260D01*
X146487067Y-144824045D01*
X146110273Y-144750057D01*
X146106003Y-144748288D01*
X145787051Y-144534041D01*
X145782094Y-144526583D01*
X145783863Y-144517805D01*
X145784947Y-144516428D01*
X146283764Y-143973187D01*
X146291884Y-143969412D01*
X146296765Y-143970253D01*
G37*
%TD.AperFunction*%
%TD*%
%TA.AperFunction,Conductor*%
%TO.N,R0*%
G36*
X91640415Y-88856446D02*
G01*
X92790166Y-89497065D01*
X92795725Y-89504086D01*
X92795421Y-89511407D01*
X92342756Y-90714329D01*
X92336635Y-90720865D01*
X92329909Y-90721753D01*
X90542489Y-90428086D01*
X90534881Y-90423363D01*
X90534153Y-90422213D01*
X90419735Y-90215796D01*
X90418721Y-90206899D01*
X90421255Y-90202315D01*
X91626011Y-88858856D01*
X91634086Y-88854985D01*
X91640415Y-88856446D01*
G37*
%TD.AperFunction*%
%TD*%
%TA.AperFunction,Conductor*%
%TO.N,RST*%
G36*
X182957718Y-123000138D02*
G01*
X182958338Y-123001014D01*
X183558915Y-123938742D01*
X183560491Y-123947557D01*
X183555372Y-123954905D01*
X183553445Y-123955900D01*
X183336561Y-124043528D01*
X183332745Y-124044366D01*
X182734447Y-124073406D01*
X182726018Y-124070385D01*
X182722496Y-124064419D01*
X182717543Y-124043528D01*
X182544866Y-123315264D01*
X182546291Y-123306426D01*
X182549062Y-123303336D01*
X182941299Y-122998090D01*
X182949933Y-122995714D01*
X182957718Y-123000138D01*
G37*
%TD.AperFunction*%
%TD*%
%TA.AperFunction,Conductor*%
%TO.N,R0*%
G36*
X65312445Y-108688252D02*
G01*
X65460123Y-108877272D01*
X65460587Y-108877909D01*
X65935312Y-109578022D01*
X65937118Y-109586791D01*
X65932831Y-109593807D01*
X64504841Y-110709475D01*
X64496212Y-110711868D01*
X64488418Y-110707458D01*
X64486578Y-110704072D01*
X64023389Y-109360689D01*
X64023932Y-109351752D01*
X64029038Y-109346504D01*
X65297819Y-108685079D01*
X65306737Y-108684294D01*
X65312445Y-108688252D01*
G37*
%TD.AperFunction*%
%TD*%
%TA.AperFunction,Conductor*%
%TO.N,mirror_middle_bottom*%
G36*
X240216377Y-121170037D02*
G01*
X241596165Y-121994405D01*
X241601509Y-122001590D01*
X241601190Y-122008364D01*
X241159037Y-123253550D01*
X241153039Y-123260200D01*
X241152394Y-123260483D01*
X240930443Y-123350156D01*
X240921488Y-123350078D01*
X240920716Y-123349716D01*
X239758462Y-122752973D01*
X239752667Y-122746146D01*
X239752556Y-122739352D01*
X240199127Y-121176864D01*
X240204695Y-121169853D01*
X240213591Y-121168831D01*
X240216377Y-121170037D01*
G37*
%TD.AperFunction*%
%TD*%
%TA.AperFunction,Conductor*%
%TO.N,mirror_ring_bottom*%
G36*
X260773258Y-122930089D02*
G01*
X262062623Y-123893247D01*
X262067200Y-123900943D01*
X262066185Y-123907650D01*
X261498887Y-125099028D01*
X261492236Y-125105024D01*
X261491548Y-125105245D01*
X261261439Y-125171227D01*
X261252542Y-125170213D01*
X261251826Y-125169782D01*
X261152791Y-125105245D01*
X260155761Y-124455525D01*
X260150702Y-124448138D01*
X260151290Y-124441372D01*
X260755399Y-122935104D01*
X260761657Y-122928704D01*
X260770611Y-122928603D01*
X260773258Y-122930089D01*
G37*
%TD.AperFunction*%
%TD*%
%TA.AperFunction,Conductor*%
%TO.N,BAT+*%
G36*
X166147243Y-136489885D02*
G01*
X166576466Y-136720112D01*
X166582137Y-136727042D01*
X166581246Y-136735952D01*
X166580430Y-136737260D01*
X166141610Y-137346463D01*
X166133993Y-137351173D01*
X166130601Y-137351227D01*
X165911661Y-137322640D01*
X165904903Y-137319311D01*
X165737475Y-137151883D01*
X165734048Y-137143610D01*
X165735783Y-137137480D01*
X166131750Y-136494061D01*
X166139003Y-136488813D01*
X166147243Y-136489885D01*
G37*
%TD.AperFunction*%
%TD*%
%TA.AperFunction,Conductor*%
%TO.N,C0*%
G36*
X187929274Y-170782569D02*
G01*
X188558710Y-171134038D01*
X188564263Y-171141063D01*
X188563221Y-171149957D01*
X188562750Y-171150729D01*
X188350927Y-171469434D01*
X188343494Y-171474428D01*
X188343442Y-171474438D01*
X187965128Y-171548873D01*
X187956349Y-171547108D01*
X187951838Y-171541290D01*
X187747231Y-170961987D01*
X187747707Y-170953045D01*
X187749987Y-170949821D01*
X187915298Y-170784510D01*
X187923570Y-170781084D01*
X187929274Y-170782569D01*
G37*
%TD.AperFunction*%
%TD*%
%TA.AperFunction,Conductor*%
%TO.N,R3*%
G36*
X205615339Y-162014262D02*
G01*
X206444014Y-163014752D01*
X206446652Y-163023309D01*
X206443483Y-163030276D01*
X205522340Y-163999213D01*
X205514156Y-164002848D01*
X205508011Y-164001285D01*
X203919120Y-163084082D01*
X203914940Y-163079975D01*
X203885078Y-163030276D01*
X203794395Y-162879355D01*
X203793073Y-162870501D01*
X203798399Y-162863302D01*
X203799417Y-162862757D01*
X205601330Y-162011146D01*
X205610273Y-162010710D01*
X205615339Y-162014262D01*
G37*
%TD.AperFunction*%
%TD*%
%TA.AperFunction,Conductor*%
%TO.N,BAT_POS*%
G36*
X169144864Y-136311658D02*
G01*
X169579968Y-136719118D01*
X169583665Y-136727273D01*
X169580511Y-136735654D01*
X169580493Y-136735673D01*
X169144280Y-137199412D01*
X169136116Y-137203091D01*
X169129307Y-137201157D01*
X168890368Y-137043240D01*
X168692776Y-136912650D01*
X168687764Y-136905230D01*
X168687528Y-136902899D01*
X168687528Y-136664860D01*
X168690955Y-136656588D01*
X168691981Y-136655675D01*
X169129632Y-136311006D01*
X169138250Y-136308581D01*
X169144864Y-136311658D01*
G37*
%TD.AperFunction*%
%TD*%
%TA.AperFunction,Conductor*%
%TO.N,R5*%
G36*
X201307970Y-106031040D02*
G01*
X201312848Y-106036134D01*
X201880030Y-107188081D01*
X201880610Y-107197017D01*
X201877311Y-107201989D01*
X200307579Y-108599036D01*
X200299121Y-108601976D01*
X200295229Y-108601066D01*
X200078972Y-108509270D01*
X200072696Y-108502883D01*
X200071845Y-108498616D01*
X200051535Y-106403667D01*
X200054881Y-106395364D01*
X200059948Y-106392328D01*
X201299070Y-106030072D01*
X201307970Y-106031040D01*
G37*
%TD.AperFunction*%
%TD*%
%TA.AperFunction,Conductor*%
%TO.N,mirror_inner_top*%
G36*
X199955155Y-119325153D02*
G01*
X201328694Y-120133826D01*
X201334085Y-120140976D01*
X201333817Y-120147728D01*
X200897993Y-121409275D01*
X200892052Y-121415976D01*
X200891317Y-121416303D01*
X200669366Y-121505978D01*
X200660411Y-121505900D01*
X200659730Y-121505585D01*
X200482033Y-121416303D01*
X199503778Y-120924787D01*
X199497925Y-120918011D01*
X199497762Y-120911191D01*
X199710585Y-120147728D01*
X199937951Y-119332092D01*
X199943473Y-119325045D01*
X199952363Y-119323966D01*
X199955155Y-119325153D01*
G37*
%TD.AperFunction*%
%TD*%
%TA.AperFunction,Conductor*%
%TO.N,home_thumb*%
G36*
X134481403Y-166706735D02*
G01*
X135548226Y-167422854D01*
X135553184Y-167430309D01*
X135552399Y-167437311D01*
X135029665Y-168615815D01*
X135023178Y-168621988D01*
X135017186Y-168622634D01*
X132985878Y-168309161D01*
X132978224Y-168304513D01*
X132976177Y-168299831D01*
X132931321Y-168069077D01*
X132933106Y-168060304D01*
X132935065Y-168058073D01*
X134467149Y-166707672D01*
X134475619Y-166704773D01*
X134481403Y-166706735D01*
G37*
%TD.AperFunction*%
%TD*%
%TA.AperFunction,Conductor*%
%TO.N,mirror_pinky_bottom*%
G36*
X282199960Y-133232387D02*
G01*
X282203300Y-133236534D01*
X282475464Y-133802174D01*
X282475963Y-133811115D01*
X282471443Y-133816961D01*
X282151442Y-134031810D01*
X282142663Y-134033576D01*
X282142610Y-134033566D01*
X281767340Y-133957995D01*
X281759906Y-133953002D01*
X281758180Y-133944215D01*
X281758383Y-133943373D01*
X281949413Y-133266924D01*
X281954960Y-133259895D01*
X281959246Y-133258492D01*
X282191333Y-133229994D01*
X282199960Y-133232387D01*
G37*
%TD.AperFunction*%
%TD*%
%TA.AperFunction,Conductor*%
%TO.N,index_bottom*%
G36*
X126533076Y-144492813D02*
G01*
X126749831Y-144580388D01*
X126756218Y-144586664D01*
X126757088Y-144592416D01*
X126683941Y-145313994D01*
X126679698Y-145321879D01*
X126671121Y-145324454D01*
X126670050Y-145324295D01*
X126606356Y-145311788D01*
X126294745Y-145250599D01*
X126287287Y-145245642D01*
X126287257Y-145245598D01*
X126073610Y-144924421D01*
X126071882Y-144915635D01*
X126075382Y-144909375D01*
X126520729Y-144495094D01*
X126529120Y-144491970D01*
X126533076Y-144492813D01*
G37*
%TD.AperFunction*%
%TD*%
%TA.AperFunction,Conductor*%
%TO.N,mirror_middle_home*%
G36*
X235268746Y-108681666D02*
G01*
X235272146Y-108683873D01*
X235717243Y-109098252D01*
X235720964Y-109106397D01*
X235719013Y-109113295D01*
X235505363Y-109434476D01*
X235497927Y-109439466D01*
X235497875Y-109439477D01*
X235122578Y-109513172D01*
X235113800Y-109511403D01*
X235108843Y-109503945D01*
X235108683Y-109502867D01*
X235102185Y-109438538D01*
X235035782Y-108781185D01*
X235038360Y-108772610D01*
X235043039Y-108769162D01*
X235259792Y-108681588D01*
X235268746Y-108681666D01*
G37*
%TD.AperFunction*%
%TD*%
%TA.AperFunction,Conductor*%
%TO.N,R5*%
G36*
X238208860Y-90862456D02*
G01*
X239667019Y-91303092D01*
X239673948Y-91308766D01*
X239674835Y-91317676D01*
X239673574Y-91320464D01*
X238760887Y-92790205D01*
X238753612Y-92795426D01*
X238746650Y-92794915D01*
X237608996Y-92345585D01*
X237602560Y-92339359D01*
X237602446Y-92339086D01*
X237512757Y-92117098D01*
X237512835Y-92108143D01*
X237513350Y-92107083D01*
X238195231Y-90868013D01*
X238202220Y-90862420D01*
X238208860Y-90862456D01*
G37*
%TD.AperFunction*%
%TD*%
%TA.AperFunction,Conductor*%
%TO.N,index_top*%
G36*
X141213115Y-110017946D02*
G01*
X141214300Y-110020741D01*
X141652236Y-111598864D01*
X141651146Y-111607753D01*
X141646204Y-111612453D01*
X140488587Y-112192559D01*
X140479655Y-112193202D01*
X140478962Y-112192947D01*
X140257011Y-112103272D01*
X140250624Y-112096996D01*
X140250331Y-112096233D01*
X139816257Y-110835448D01*
X139816804Y-110826510D01*
X139821394Y-110821552D01*
X141197102Y-110013780D01*
X141205971Y-110012547D01*
X141213115Y-110017946D01*
G37*
%TD.AperFunction*%
%TD*%
%TA.AperFunction,Conductor*%
%TO.N,inner_top*%
G36*
X154070257Y-125795902D02*
G01*
X154071442Y-125798697D01*
X154509375Y-127376818D01*
X154508285Y-127385707D01*
X154503343Y-127390407D01*
X153345724Y-127970513D01*
X153336792Y-127971156D01*
X153336099Y-127970901D01*
X153114148Y-127881226D01*
X153107761Y-127874950D01*
X153107468Y-127874187D01*
X152673396Y-126613403D01*
X152673943Y-126604465D01*
X152678533Y-126599507D01*
X154054244Y-125791736D01*
X154063113Y-125790503D01*
X154070257Y-125795902D01*
G37*
%TD.AperFunction*%
%TD*%
%TA.AperFunction,Conductor*%
%TO.N,R5*%
G36*
X215933891Y-91928623D02*
G01*
X215938863Y-91933610D01*
X216531560Y-93077020D01*
X216532325Y-93085942D01*
X216529240Y-93090879D01*
X214975010Y-94570263D01*
X214966654Y-94573484D01*
X214962371Y-94572558D01*
X214746269Y-94480828D01*
X214739993Y-94474441D01*
X214739144Y-94470331D01*
X214689596Y-92324520D01*
X214692831Y-92316171D01*
X214697788Y-92313088D01*
X215924974Y-91927831D01*
X215933891Y-91928623D01*
G37*
%TD.AperFunction*%
%TD*%
%TA.AperFunction,Conductor*%
%TO.N,mirror_reachy_thumb*%
G36*
X198246232Y-173465821D02*
G01*
X198248875Y-173468610D01*
X198378193Y-173660330D01*
X198379974Y-173664619D01*
X198488038Y-174215056D01*
X198486269Y-174223834D01*
X198478851Y-174228783D01*
X198101916Y-174304138D01*
X198093131Y-174302399D01*
X198093099Y-174302378D01*
X197775656Y-174089204D01*
X197770699Y-174081747D01*
X197772466Y-174072968D01*
X197772828Y-174072460D01*
X198229845Y-173468094D01*
X198237566Y-173463564D01*
X198246232Y-173465821D01*
G37*
%TD.AperFunction*%
%TD*%
%TA.AperFunction,Conductor*%
%TO.N,R1*%
G36*
X136824740Y-133521610D02*
G01*
X136829735Y-133526143D01*
X137101075Y-133977437D01*
X137645430Y-134882810D01*
X137646756Y-134891666D01*
X137641432Y-134898866D01*
X137638647Y-134900080D01*
X136051874Y-135358008D01*
X136042975Y-135357010D01*
X136038219Y-135352106D01*
X135452067Y-134209110D01*
X135451341Y-134200185D01*
X135451623Y-134199406D01*
X135541304Y-133977435D01*
X135547579Y-133971050D01*
X135548215Y-133970802D01*
X136815799Y-133521146D01*
X136824740Y-133521610D01*
G37*
%TD.AperFunction*%
%TD*%
%TA.AperFunction,Conductor*%
%TO.N,mirror_home_thumb*%
G36*
X219047833Y-161208491D02*
G01*
X219597718Y-161597516D01*
X219602493Y-161605091D01*
X219600704Y-161613545D01*
X219388028Y-161933436D01*
X219380594Y-161938428D01*
X219380541Y-161938438D01*
X219003508Y-162012532D01*
X218994729Y-162010765D01*
X218989866Y-162003742D01*
X218835836Y-161351490D01*
X218837270Y-161342652D01*
X218840678Y-161339103D01*
X219034537Y-161208342D01*
X219043311Y-161206558D01*
X219047833Y-161208491D01*
G37*
%TD.AperFunction*%
%TD*%
%TA.AperFunction,Conductor*%
%TO.N,R5*%
G36*
X188019612Y-119643654D02*
G01*
X188240181Y-119737282D01*
X188240214Y-119737296D01*
X188819414Y-119971875D01*
X189128842Y-120097196D01*
X189135224Y-120103478D01*
X189135298Y-120112423D01*
X188456470Y-121792538D01*
X188450193Y-121798925D01*
X188441239Y-121799003D01*
X188438311Y-121797289D01*
X187304828Y-120890012D01*
X187300510Y-120882167D01*
X187301987Y-120875061D01*
X188004892Y-119648605D01*
X188011978Y-119643133D01*
X188019612Y-119643654D01*
G37*
%TD.AperFunction*%
%TD*%
%TA.AperFunction,Conductor*%
%TO.N,R1*%
G36*
X110403078Y-105245188D02*
G01*
X110404280Y-105247975D01*
X110848606Y-106809534D01*
X110847574Y-106818429D01*
X110842686Y-106823150D01*
X109678714Y-107419219D01*
X109669788Y-107419940D01*
X109668998Y-107419653D01*
X109447048Y-107329977D01*
X109440661Y-107323700D01*
X109440401Y-107323032D01*
X108999986Y-106078569D01*
X109000457Y-106069627D01*
X109005026Y-106064616D01*
X110387040Y-105241125D01*
X110395899Y-105239835D01*
X110403078Y-105245188D01*
G37*
%TD.AperFunction*%
%TD*%
%TA.AperFunction,Conductor*%
%TO.N,pinky_home*%
G36*
X75679650Y-114307643D02*
G01*
X75687110Y-114312596D01*
X75689099Y-114319354D01*
X75663848Y-115608039D01*
X75660259Y-115616244D01*
X75655146Y-115619120D01*
X73603934Y-116162532D01*
X73595059Y-116161338D01*
X73591718Y-116158425D01*
X73447133Y-115973365D01*
X73444740Y-115964736D01*
X73445914Y-115960877D01*
X74405592Y-114066772D01*
X74412387Y-114060943D01*
X74418276Y-114060580D01*
X75679650Y-114307643D01*
G37*
%TD.AperFunction*%
%TD*%
%TA.AperFunction,Conductor*%
%TO.N,R1*%
G36*
X109513455Y-103978850D02*
G01*
X110391898Y-105222077D01*
X110393874Y-105230812D01*
X110389095Y-105238384D01*
X110386386Y-105239808D01*
X108761449Y-105838178D01*
X108752501Y-105837821D01*
X108747325Y-105833137D01*
X108397845Y-105239808D01*
X108126973Y-104779935D01*
X108125728Y-104771068D01*
X108125798Y-104770806D01*
X108191801Y-104540624D01*
X108197375Y-104533618D01*
X108198424Y-104533103D01*
X109499286Y-103974849D01*
X109508240Y-103974737D01*
X109513455Y-103978850D01*
G37*
%TD.AperFunction*%
%TD*%
%TA.AperFunction,Conductor*%
%TO.N,GND*%
G36*
X186174420Y-127486892D02*
G01*
X186185314Y-127494496D01*
X186903734Y-127995922D01*
X186908557Y-128003467D01*
X186908371Y-128008425D01*
X186754737Y-128607004D01*
X186749361Y-128614165D01*
X186747787Y-128614943D01*
X186526960Y-128704162D01*
X186518005Y-128704084D01*
X186516434Y-128703271D01*
X186008997Y-128390196D01*
X186003755Y-128382936D01*
X186003611Y-128378252D01*
X186156196Y-127494494D01*
X186160980Y-127486927D01*
X186169716Y-127484958D01*
X186174420Y-127486892D01*
G37*
%TD.AperFunction*%
%TD*%
%TA.AperFunction,Conductor*%
%TO.N,R0*%
G36*
X130610025Y-102095069D02*
G01*
X130615020Y-102099602D01*
X130882520Y-102544509D01*
X131430715Y-103456270D01*
X131432041Y-103465126D01*
X131426717Y-103472326D01*
X131423932Y-103473540D01*
X129837159Y-103931468D01*
X129828260Y-103930470D01*
X129823504Y-103925566D01*
X129237352Y-102782569D01*
X129236626Y-102773644D01*
X129236908Y-102772865D01*
X129326589Y-102550894D01*
X129332864Y-102544509D01*
X129333500Y-102544261D01*
X130601084Y-102094605D01*
X130610025Y-102095069D01*
G37*
%TD.AperFunction*%
%TD*%
%TA.AperFunction,Conductor*%
%TO.N,mirror_index_bottom*%
G36*
X227342947Y-137687257D02*
G01*
X227347013Y-137690136D01*
X227434461Y-137785881D01*
X227843892Y-138234158D01*
X227846941Y-138242577D01*
X227843143Y-138250687D01*
X227841777Y-138251760D01*
X227522795Y-138466027D01*
X227518525Y-138467796D01*
X227141767Y-138541776D01*
X227132989Y-138540007D01*
X227128032Y-138532549D01*
X227127816Y-138530584D01*
X227109930Y-137785879D01*
X227113158Y-137777528D01*
X227117242Y-137774753D01*
X227333994Y-137687179D01*
X227342947Y-137687257D01*
G37*
%TD.AperFunction*%
%TD*%
%TA.AperFunction,Conductor*%
%TO.N,R1*%
G36*
X138651432Y-132825790D02*
G01*
X138657646Y-132831995D01*
X138750831Y-133051522D01*
X139188786Y-134127044D01*
X139188732Y-134135998D01*
X139183117Y-134141953D01*
X137665097Y-134889147D01*
X137656161Y-134889726D01*
X137649433Y-134883817D01*
X137648456Y-134880939D01*
X137346173Y-133361938D01*
X137347919Y-133353156D01*
X137353246Y-133348814D01*
X138642477Y-132825725D01*
X138651432Y-132825790D01*
G37*
%TD.AperFunction*%
%TD*%
%TA.AperFunction,Conductor*%
%TO.N,R2*%
G36*
X117259304Y-133564764D02*
G01*
X118144571Y-134754211D01*
X118146761Y-134762894D01*
X118142171Y-134770583D01*
X118139469Y-134772085D01*
X116466024Y-135430490D01*
X116457070Y-135430330D01*
X116451828Y-135425818D01*
X116041892Y-134772085D01*
X115813842Y-134408408D01*
X115812350Y-134399578D01*
X115812902Y-134397819D01*
X115902572Y-134175880D01*
X115908569Y-134169618D01*
X117245071Y-133561101D01*
X117254019Y-133560792D01*
X117259304Y-133564764D01*
G37*
%TD.AperFunction*%
%TD*%
%TA.AperFunction,Conductor*%
%TO.N,middle_bottom*%
G36*
X112810204Y-129842727D02*
G01*
X113026991Y-129930314D01*
X113033378Y-129936590D01*
X113034178Y-129942903D01*
X112928782Y-130643410D01*
X112924162Y-130651081D01*
X112915471Y-130653239D01*
X112914958Y-130653150D01*
X112539060Y-130579338D01*
X112531602Y-130574381D01*
X112531572Y-130574337D01*
X112318269Y-130253677D01*
X112316541Y-130244891D01*
X112320570Y-130238169D01*
X112798386Y-129844545D01*
X112806949Y-129841930D01*
X112810204Y-129842727D01*
G37*
%TD.AperFunction*%
%TD*%
%TA.AperFunction,Conductor*%
%TO.N,mirror_index_top*%
G36*
X214112901Y-106524550D02*
G01*
X214116522Y-106526968D01*
X214436951Y-106841468D01*
X214545401Y-106947912D01*
X214548904Y-106956153D01*
X214546947Y-106962742D01*
X214333152Y-107284141D01*
X214325716Y-107289131D01*
X214325664Y-107289142D01*
X213950659Y-107362779D01*
X213941881Y-107361010D01*
X213936924Y-107353552D01*
X213936742Y-107352222D01*
X213879924Y-106623796D01*
X213882698Y-106615283D01*
X213887203Y-106612041D01*
X214103947Y-106524472D01*
X214112901Y-106524550D01*
G37*
%TD.AperFunction*%
%TD*%
%TA.AperFunction,Conductor*%
%TO.N,home_thumb*%
G36*
X127890275Y-169386793D02*
G01*
X128084072Y-169517512D01*
X128089014Y-169524980D01*
X128088449Y-169531414D01*
X127864817Y-170112599D01*
X127858647Y-170119089D01*
X127851641Y-170119877D01*
X127473201Y-170045506D01*
X127465744Y-170040549D01*
X127465714Y-170040504D01*
X127253989Y-169722043D01*
X127252262Y-169713256D01*
X127257254Y-169705822D01*
X127258366Y-169705168D01*
X127878380Y-169386089D01*
X127887302Y-169385351D01*
X127890275Y-169386793D01*
G37*
%TD.AperFunction*%
%TD*%
%TA.AperFunction,Conductor*%
%TO.N,R2*%
G36*
X144071866Y-168279404D02*
G01*
X144076204Y-168284804D01*
X144608496Y-169631761D01*
X144608350Y-169640715D01*
X144603376Y-169646244D01*
X143392737Y-170331154D01*
X143383849Y-170332245D01*
X143376793Y-170326732D01*
X143375390Y-170322600D01*
X143123155Y-168528224D01*
X143125397Y-168519554D01*
X143131629Y-168515316D01*
X143826808Y-168323583D01*
X143827652Y-168323385D01*
X144063092Y-168277619D01*
X144071866Y-168279404D01*
G37*
%TD.AperFunction*%
%TD*%
%TA.AperFunction,Conductor*%
%TO.N,mirror_inner_home*%
G36*
X206597844Y-134973280D02*
G01*
X208036464Y-135754862D01*
X208042098Y-135761823D01*
X208042051Y-135768619D01*
X207656342Y-137008352D01*
X207650612Y-137015233D01*
X207649553Y-137015724D01*
X207427604Y-137105397D01*
X207418649Y-137105319D01*
X207418295Y-137105161D01*
X206211970Y-136545215D01*
X206205909Y-136538624D01*
X206205524Y-136531853D01*
X206580887Y-134980808D01*
X206586164Y-134973574D01*
X206595011Y-134972189D01*
X206597844Y-134973280D01*
G37*
%TD.AperFunction*%
%TD*%
%TA.AperFunction,Conductor*%
%TO.N,C0*%
G36*
X134166310Y-151477888D02*
G01*
X134171267Y-151485346D01*
X134171475Y-151487102D01*
X134202885Y-152223931D01*
X134199814Y-152232342D01*
X134195768Y-152235199D01*
X133980579Y-152326542D01*
X133971624Y-152326620D01*
X133967519Y-152323823D01*
X133455516Y-151783803D01*
X133452310Y-151775442D01*
X133455956Y-151767263D01*
X133457478Y-151766043D01*
X133776237Y-151551922D01*
X133780498Y-151550157D01*
X134157532Y-151476119D01*
X134166310Y-151477888D01*
G37*
%TD.AperFunction*%
%TD*%
%TA.AperFunction,Conductor*%
%TO.N,ring_bottom*%
G36*
X93927040Y-127494263D02*
G01*
X93928521Y-127496910D01*
X94530229Y-129002467D01*
X94530118Y-129011421D01*
X94525742Y-129016618D01*
X93427839Y-129730366D01*
X93419035Y-129732003D01*
X93418237Y-129731804D01*
X93188129Y-129665821D01*
X93181121Y-129660246D01*
X93180785Y-129659593D01*
X92615342Y-128468765D01*
X92614890Y-128459823D01*
X92618919Y-128454367D01*
X93910668Y-127491871D01*
X93919349Y-127489677D01*
X93927040Y-127494263D01*
G37*
%TD.AperFunction*%
%TD*%
%TA.AperFunction,Conductor*%
%TO.N,R0*%
G36*
X143467165Y-117873029D02*
G01*
X143472160Y-117877562D01*
X143879935Y-118555771D01*
X144287857Y-119234226D01*
X144289183Y-119243082D01*
X144283859Y-119250282D01*
X144281074Y-119251496D01*
X142694300Y-119709428D01*
X142685401Y-119708430D01*
X142680645Y-119703526D01*
X142094491Y-118560531D01*
X142093765Y-118551606D01*
X142094047Y-118550827D01*
X142183728Y-118328856D01*
X142190003Y-118322471D01*
X142190639Y-118322222D01*
X143458224Y-117872565D01*
X143467165Y-117873029D01*
G37*
%TD.AperFunction*%
%TD*%
%TA.AperFunction,Conductor*%
%TO.N,R2*%
G36*
X103188191Y-119616685D02*
G01*
X103193239Y-119621198D01*
X104024426Y-120983763D01*
X104025809Y-120992610D01*
X104020531Y-120999844D01*
X104017756Y-121001076D01*
X102448006Y-121465274D01*
X102439101Y-121464334D01*
X102434324Y-121459484D01*
X102193511Y-120999844D01*
X101832357Y-120310508D01*
X101831554Y-120301591D01*
X101831867Y-120300714D01*
X101921549Y-120078745D01*
X101927824Y-120072360D01*
X101928369Y-120072145D01*
X103179245Y-119616298D01*
X103188191Y-119616685D01*
G37*
%TD.AperFunction*%
%TD*%
%TA.AperFunction,Conductor*%
%TO.N,ring_home*%
G36*
X98612878Y-111152815D02*
G01*
X98614360Y-111155464D01*
X99216064Y-112661019D01*
X99215953Y-112669973D01*
X99211577Y-112675170D01*
X98113672Y-113388917D01*
X98104868Y-113390554D01*
X98104070Y-113390355D01*
X97873960Y-113324371D01*
X97866952Y-113318796D01*
X97866616Y-113318142D01*
X97301177Y-112127317D01*
X97300724Y-112118374D01*
X97304753Y-112112918D01*
X98596506Y-111150423D01*
X98605187Y-111148229D01*
X98612878Y-111152815D01*
G37*
%TD.AperFunction*%
%TD*%
%TA.AperFunction,Conductor*%
%TO.N,ring_bottom*%
G36*
X92581590Y-131787909D02*
G01*
X92770036Y-131841946D01*
X92806271Y-131852337D01*
X92813279Y-131857912D01*
X92814741Y-131863935D01*
X92792159Y-132617079D01*
X92788485Y-132625245D01*
X92780113Y-132628423D01*
X92778210Y-132628209D01*
X92401469Y-132554246D01*
X92397201Y-132552478D01*
X92257683Y-132458775D01*
X92078238Y-132338255D01*
X92073280Y-132330797D01*
X92075048Y-132322019D01*
X92076195Y-132320573D01*
X92569810Y-131791177D01*
X92577958Y-131787464D01*
X92581590Y-131787909D01*
G37*
%TD.AperFunction*%
%TD*%
%TA.AperFunction,Conductor*%
%TO.N,mirror_pinky_bottom*%
G36*
X281593112Y-129174502D02*
G01*
X281595499Y-129176377D01*
X281818008Y-129403667D01*
X282723641Y-130328762D01*
X282726979Y-130337070D01*
X282724942Y-130343544D01*
X281982413Y-131430960D01*
X281974918Y-131435860D01*
X281974177Y-131435975D01*
X281736579Y-131465148D01*
X281727950Y-131462755D01*
X281727331Y-131462236D01*
X280752383Y-130585779D01*
X280748522Y-130577700D01*
X280750144Y-130571106D01*
X281577079Y-129178586D01*
X281584249Y-129173224D01*
X281593112Y-129174502D01*
G37*
%TD.AperFunction*%
%TD*%
%TA.AperFunction,Conductor*%
%TO.N,R1*%
G36*
X160322767Y-139326520D02*
G01*
X161716949Y-140046358D01*
X161748083Y-140062433D01*
X161753862Y-140069273D01*
X161753111Y-140078197D01*
X161748075Y-140083229D01*
X160323239Y-140817506D01*
X160314315Y-140818250D01*
X160311963Y-140817200D01*
X159028056Y-140064725D01*
X159022651Y-140057585D01*
X159023878Y-140048715D01*
X159025696Y-140046361D01*
X159190404Y-139881650D01*
X159193485Y-139879439D01*
X160312219Y-139326427D01*
X160321152Y-139325834D01*
X160322767Y-139326520D01*
G37*
%TD.AperFunction*%
%TD*%
%TA.AperFunction,Conductor*%
%TO.N,R5*%
G36*
X178462958Y-144406707D02*
G01*
X179734055Y-145086896D01*
X179739733Y-145093821D01*
X179740235Y-145097212D01*
X179740235Y-145332545D01*
X179736808Y-145340818D01*
X179733218Y-145343267D01*
X178462642Y-145898227D01*
X178453689Y-145898398D01*
X178452596Y-145897904D01*
X177377144Y-145343267D01*
X177026692Y-145162530D01*
X177020911Y-145155693D01*
X177021657Y-145146769D01*
X177026692Y-145141733D01*
X178452079Y-144406625D01*
X178461003Y-144405880D01*
X178462958Y-144406707D01*
G37*
%TD.AperFunction*%
%TD*%
%TA.AperFunction,Conductor*%
%TO.N,middle_bottom*%
G36*
X113919603Y-127373822D02*
G01*
X113920805Y-127376609D01*
X114365135Y-128938169D01*
X114364103Y-128947064D01*
X114359215Y-128951785D01*
X113195247Y-129547855D01*
X113186321Y-129548576D01*
X113185531Y-129548289D01*
X112963581Y-129458615D01*
X112957194Y-129452339D01*
X112956934Y-129451670D01*
X112516516Y-128207205D01*
X112516987Y-128198263D01*
X112521556Y-128193252D01*
X113903565Y-127369759D01*
X113912424Y-127368469D01*
X113919603Y-127373822D01*
G37*
%TD.AperFunction*%
%TD*%
%TA.AperFunction,Conductor*%
%TO.N,index_bottom*%
G36*
X127928260Y-141315111D02*
G01*
X127929445Y-141317906D01*
X128367380Y-142896028D01*
X128366290Y-142904917D01*
X128361348Y-142909617D01*
X127203730Y-143489724D01*
X127194798Y-143490367D01*
X127194105Y-143490112D01*
X126972154Y-143400437D01*
X126965767Y-143394161D01*
X126965474Y-143393398D01*
X126531400Y-142132612D01*
X126531947Y-142123674D01*
X126536537Y-142118716D01*
X127912247Y-141310945D01*
X127921116Y-141309712D01*
X127928260Y-141315111D01*
G37*
%TD.AperFunction*%
%TD*%
%TA.AperFunction,Conductor*%
%TO.N,R5*%
G36*
X201514285Y-103682978D02*
G01*
X201665286Y-103747072D01*
X201732251Y-103775497D01*
X201738241Y-103781232D01*
X201994606Y-104318980D01*
X201995073Y-104327923D01*
X201994893Y-104328398D01*
X201315066Y-106010983D01*
X201308789Y-106017370D01*
X201299835Y-106017448D01*
X201295213Y-106014069D01*
X200447051Y-104991485D01*
X200444407Y-104982930D01*
X200446994Y-104976616D01*
X201500653Y-103686347D01*
X201508539Y-103682107D01*
X201514285Y-103682978D01*
G37*
%TD.AperFunction*%
%TD*%
%TA.AperFunction,Conductor*%
%TO.N,mirror_index_top*%
G36*
X212812298Y-103547195D02*
G01*
X214185834Y-104355869D01*
X214191225Y-104363019D01*
X214190957Y-104369771D01*
X213755130Y-105631319D01*
X213749189Y-105638020D01*
X213748454Y-105638347D01*
X213526503Y-105728022D01*
X213517548Y-105727944D01*
X213516867Y-105727629D01*
X212360919Y-105146832D01*
X212355065Y-105140055D01*
X212354902Y-105133236D01*
X212795094Y-103554134D01*
X212800616Y-103547087D01*
X212809506Y-103546008D01*
X212812298Y-103547195D01*
G37*
%TD.AperFunction*%
%TD*%
%TA.AperFunction,Conductor*%
%TO.N,GND*%
G36*
X184110013Y-122646746D02*
G01*
X184112647Y-122648951D01*
X184646666Y-123250012D01*
X184649599Y-123258473D01*
X184648441Y-123262899D01*
X184319679Y-123939121D01*
X184313540Y-123944853D01*
X184097095Y-124032302D01*
X184088140Y-124032224D01*
X184081864Y-124025837D01*
X184081754Y-124025554D01*
X183619588Y-122774408D01*
X183619936Y-122765461D01*
X183626509Y-122759380D01*
X183627828Y-122758979D01*
X184101169Y-122645345D01*
X184110013Y-122646746D01*
G37*
%TD.AperFunction*%
%TD*%
%TA.AperFunction,Conductor*%
%TO.N,R2*%
G36*
X128718595Y-158577852D02*
G01*
X128726596Y-158581873D01*
X128729226Y-158587288D01*
X128774330Y-158819324D01*
X128772708Y-158827851D01*
X127860507Y-160257351D01*
X127853168Y-160262482D01*
X127846023Y-160261806D01*
X126661196Y-159752483D01*
X126654949Y-159746067D01*
X126654538Y-159738625D01*
X127006447Y-158462061D01*
X127011949Y-158454997D01*
X127018577Y-158453502D01*
X128718595Y-158577852D01*
G37*
%TD.AperFunction*%
%TD*%
%TA.AperFunction,Conductor*%
%TO.N,R2*%
G36*
X84379817Y-120165199D02*
G01*
X84495864Y-120374555D01*
X85019564Y-121281213D01*
X85020735Y-121290091D01*
X85015285Y-121297196D01*
X85015142Y-121297278D01*
X83438909Y-122178369D01*
X83430015Y-122179414D01*
X83422987Y-122173865D01*
X83421849Y-122170992D01*
X83064353Y-120738052D01*
X83065675Y-120729197D01*
X83071026Y-120724497D01*
X84364908Y-120160146D01*
X84373860Y-120159980D01*
X84379817Y-120165199D01*
G37*
%TD.AperFunction*%
%TD*%
%TA.AperFunction,Conductor*%
%TO.N,R0*%
G36*
X131441428Y-103479616D02*
G01*
X131443077Y-103482462D01*
X132121984Y-105162773D01*
X132121906Y-105171727D01*
X132115588Y-105177976D01*
X131194556Y-105556974D01*
X130974167Y-105650523D01*
X130965212Y-105650601D01*
X130959332Y-105645370D01*
X130910955Y-105556979D01*
X130274553Y-104394187D01*
X130273588Y-104385286D01*
X130277586Y-104379374D01*
X131425002Y-103477645D01*
X131433622Y-103475228D01*
X131441428Y-103479616D01*
G37*
%TD.AperFunction*%
%TD*%
%TA.AperFunction,Conductor*%
%TO.N,inner_home*%
G36*
X147427830Y-141444486D02*
G01*
X147429015Y-141447281D01*
X147866949Y-143025403D01*
X147865859Y-143034292D01*
X147860917Y-143038992D01*
X146703299Y-143619098D01*
X146694367Y-143619741D01*
X146693674Y-143619486D01*
X146471723Y-143529811D01*
X146465336Y-143523535D01*
X146465043Y-143522772D01*
X146030970Y-142261987D01*
X146031517Y-142253049D01*
X146036107Y-142248091D01*
X147411817Y-141440320D01*
X147420686Y-141439087D01*
X147427830Y-141444486D01*
G37*
%TD.AperFunction*%
%TD*%
%TA.AperFunction,Conductor*%
%TO.N,R2*%
G36*
X127869682Y-157788176D02*
G01*
X127870598Y-157788734D01*
X128069070Y-157922604D01*
X128074012Y-157930071D01*
X128074090Y-157930517D01*
X128265550Y-159169536D01*
X128263427Y-159178236D01*
X128257881Y-159182356D01*
X126666616Y-159744024D01*
X126657674Y-159743546D01*
X126651689Y-159736885D01*
X126651058Y-159733906D01*
X126607791Y-159182356D01*
X126529555Y-158185047D01*
X126532324Y-158176534D01*
X126537942Y-158172903D01*
X127860781Y-157787202D01*
X127869682Y-157788176D01*
G37*
%TD.AperFunction*%
%TD*%
%TA.AperFunction,Conductor*%
%TO.N,index_home*%
G36*
X133270941Y-128609800D02*
G01*
X133487690Y-128697373D01*
X133494077Y-128703649D01*
X133495003Y-128708532D01*
X133475193Y-129452422D01*
X133471547Y-129460601D01*
X133463186Y-129463807D01*
X133461243Y-129463592D01*
X133084449Y-129389604D01*
X133080179Y-129387835D01*
X132761227Y-129173588D01*
X132756270Y-129166130D01*
X132758039Y-129157352D01*
X132759123Y-129155975D01*
X133257940Y-128612734D01*
X133266060Y-128608959D01*
X133270941Y-128609800D01*
G37*
%TD.AperFunction*%
%TD*%
%TA.AperFunction,Conductor*%
%TO.N,mirror_ring_top*%
G36*
X252480018Y-93658421D02*
G01*
X252483711Y-93661641D01*
X252903015Y-94221611D01*
X252905231Y-94230288D01*
X252900663Y-94237989D01*
X252900173Y-94238337D01*
X252582133Y-94451940D01*
X252573355Y-94453708D01*
X252573302Y-94453697D01*
X252195693Y-94377714D01*
X252188258Y-94372723D01*
X252186340Y-94365294D01*
X252196709Y-94237989D01*
X252237905Y-93732159D01*
X252241992Y-93724193D01*
X252246339Y-93721863D01*
X252471122Y-93657407D01*
X252480018Y-93658421D01*
G37*
%TD.AperFunction*%
%TD*%
%TA.AperFunction,Conductor*%
%TO.N,R3*%
G36*
X206407380Y-160745259D02*
G01*
X206625725Y-160837941D01*
X206630615Y-160841829D01*
X206922330Y-161242915D01*
X206924425Y-161251621D01*
X206924169Y-161252826D01*
X206454533Y-163005002D01*
X206449081Y-163012106D01*
X206440203Y-163013274D01*
X206435105Y-163010390D01*
X205483135Y-162091239D01*
X205479564Y-162083027D01*
X205481618Y-162076199D01*
X206393169Y-160749403D01*
X206400676Y-160744526D01*
X206407380Y-160745259D01*
G37*
%TD.AperFunction*%
%TD*%
%TA.AperFunction,Conductor*%
%TO.N,R4*%
G36*
X195106222Y-137465245D02*
G01*
X196140222Y-138412730D01*
X196144007Y-138420845D01*
X196142019Y-138427895D01*
X195330207Y-139632097D01*
X195322741Y-139637041D01*
X195315934Y-139636327D01*
X195095259Y-139542656D01*
X195094152Y-139542116D01*
X194413739Y-139164401D01*
X194408169Y-139157389D01*
X194408569Y-139149790D01*
X195087473Y-137469489D01*
X195093750Y-137463103D01*
X195102704Y-137463025D01*
X195106222Y-137465245D01*
G37*
%TD.AperFunction*%
%TD*%
%TA.AperFunction,Conductor*%
%TO.N,R3*%
G36*
X228656098Y-123445832D02*
G01*
X228663429Y-123450973D01*
X228664978Y-123459793D01*
X228663937Y-123462652D01*
X227886366Y-124957709D01*
X227879508Y-124963467D01*
X227871555Y-124963138D01*
X226772517Y-124513377D01*
X226772376Y-124513319D01*
X226553261Y-124420310D01*
X226546985Y-124413923D01*
X226547063Y-124404968D01*
X226547158Y-124404751D01*
X227125729Y-123115100D01*
X227132241Y-123108956D01*
X227138942Y-123108470D01*
X228656098Y-123445832D01*
G37*
%TD.AperFunction*%
%TD*%
%TA.AperFunction,Conductor*%
%TO.N,mirror_ring_top*%
G36*
X251401587Y-90247192D02*
G01*
X252690952Y-91210350D01*
X252695529Y-91218046D01*
X252694514Y-91224753D01*
X252127215Y-92416131D01*
X252120564Y-92422127D01*
X252119876Y-92422348D01*
X251889768Y-92488331D01*
X251880871Y-92487317D01*
X251880155Y-92486886D01*
X251771578Y-92416131D01*
X250784090Y-91772628D01*
X250779031Y-91765241D01*
X250779619Y-91758475D01*
X251383728Y-90252207D01*
X251389986Y-90245807D01*
X251398940Y-90245706D01*
X251401587Y-90247192D01*
G37*
%TD.AperFunction*%
%TD*%
%TA.AperFunction,Conductor*%
%TO.N,GND*%
G36*
X185985568Y-126643165D02*
G01*
X186069476Y-126668237D01*
X186076421Y-126673889D01*
X186077765Y-126678249D01*
X186159350Y-127471159D01*
X186156787Y-127479740D01*
X186154160Y-127482120D01*
X185746659Y-127751291D01*
X185737867Y-127752991D01*
X185730447Y-127747977D01*
X185729853Y-127746970D01*
X185103562Y-126552179D01*
X185102757Y-126543260D01*
X185108493Y-126536384D01*
X185109524Y-126535907D01*
X185325559Y-126448623D01*
X185333290Y-126448262D01*
X185985568Y-126643165D01*
G37*
%TD.AperFunction*%
%TD*%
%TA.AperFunction,Conductor*%
%TO.N,C4*%
G36*
X177135922Y-157970573D02*
G01*
X177138607Y-157974745D01*
X177398264Y-158668564D01*
X177397954Y-158677514D01*
X177391407Y-158683623D01*
X177389617Y-158684135D01*
X177013074Y-158759994D01*
X177008452Y-158759994D01*
X176631908Y-158684135D01*
X176624475Y-158679141D01*
X176622749Y-158670354D01*
X176623258Y-158668572D01*
X176882919Y-157974744D01*
X176889028Y-157968198D01*
X176893877Y-157967146D01*
X177127649Y-157967146D01*
X177135922Y-157970573D01*
G37*
%TD.AperFunction*%
%TD*%
%TA.AperFunction,Conductor*%
%TO.N,R4*%
G36*
X208864103Y-119030534D02*
G01*
X209051452Y-119110059D01*
X209080270Y-119122292D01*
X209086546Y-119128679D01*
X209087385Y-119132514D01*
X209186889Y-121254510D01*
X209183854Y-121262935D01*
X209178918Y-121266152D01*
X207959468Y-121674616D01*
X207950535Y-121673994D01*
X207945469Y-121669103D01*
X207331093Y-120537026D01*
X207330158Y-120528120D01*
X207333178Y-120523097D01*
X208851340Y-119032954D01*
X208859644Y-119029606D01*
X208864103Y-119030534D01*
G37*
%TD.AperFunction*%
%TD*%
%TA.AperFunction,Conductor*%
%TO.N,R1*%
G36*
X89095525Y-103847436D02*
G01*
X89211648Y-104056929D01*
X89714397Y-104942312D01*
X89715502Y-104951198D01*
X89710000Y-104958263D01*
X89709895Y-104958322D01*
X88124884Y-105836908D01*
X88115987Y-105837922D01*
X88108979Y-105832347D01*
X88107829Y-105829379D01*
X87769135Y-104402124D01*
X87770559Y-104393284D01*
X87775997Y-104388632D01*
X89080775Y-103842315D01*
X89089728Y-103842282D01*
X89095525Y-103847436D01*
G37*
%TD.AperFunction*%
%TD*%
%TA.AperFunction,Conductor*%
%TO.N,R3*%
G36*
X247580531Y-123545354D02*
G01*
X249038690Y-123985989D01*
X249045619Y-123991663D01*
X249046506Y-124000573D01*
X249045245Y-124003361D01*
X248132558Y-125473102D01*
X248125283Y-125478323D01*
X248118321Y-125477812D01*
X246980668Y-125028483D01*
X246974232Y-125022257D01*
X246974118Y-125021984D01*
X246884429Y-124799996D01*
X246884507Y-124791041D01*
X246885022Y-124789981D01*
X247566902Y-123550911D01*
X247573891Y-123545318D01*
X247580531Y-123545354D01*
G37*
%TD.AperFunction*%
%TD*%
%TA.AperFunction,Conductor*%
%TO.N,mirror_home_thumb*%
G36*
X217566075Y-159158031D02*
G01*
X217571189Y-159159946D01*
X219121027Y-159740334D01*
X219127572Y-159746444D01*
X219128453Y-159753277D01*
X218912480Y-161006759D01*
X218907698Y-161014330D01*
X218907493Y-161014472D01*
X218709026Y-161148341D01*
X218700251Y-161150126D01*
X218699014Y-161149815D01*
X217404657Y-160747998D01*
X217397772Y-160742272D01*
X217396482Y-160735681D01*
X217492882Y-159753277D01*
X217550329Y-159167842D01*
X217554546Y-159159946D01*
X217563115Y-159157344D01*
X217566075Y-159158031D01*
G37*
%TD.AperFunction*%
%TD*%
%TA.AperFunction,Conductor*%
%TO.N,R5*%
G36*
X266377210Y-110687565D02*
G01*
X267769056Y-111509335D01*
X267774438Y-111516492D01*
X267773183Y-111525358D01*
X267771314Y-111527750D01*
X266619525Y-112661044D01*
X266611224Y-112664404D01*
X266604743Y-112662381D01*
X265517855Y-111923848D01*
X265512938Y-111916364D01*
X265512818Y-111915597D01*
X265483645Y-111677999D01*
X265486038Y-111669370D01*
X265486526Y-111668785D01*
X266362544Y-110689837D01*
X266370614Y-110685958D01*
X266377210Y-110687565D01*
G37*
%TD.AperFunction*%
%TD*%
M02*
