%TF.GenerationSoftware,KiCad,Pcbnew,9.0.4*%
%TF.CreationDate,2025-10-25T14:25:06+08:00*%
%TF.ProjectId,sterna,73746572-6e61-42e6-9b69-6361645f7063,v1.0.0*%
%TF.SameCoordinates,Original*%
%TF.FileFunction,Legend,Bot*%
%TF.FilePolarity,Positive*%
%FSLAX46Y46*%
G04 Gerber Fmt 4.6, Leading zero omitted, Abs format (unit mm)*
G04 Created by KiCad (PCBNEW 9.0.4) date 2025-10-25 14:25:06*
%MOMM*%
%LPD*%
G01*
G04 APERTURE LIST*
%ADD10C,0.150000*%
%ADD11C,0.120000*%
%ADD12O,2.750000X1.800000*%
%ADD13R,2.750000X1.800000*%
%ADD14C,2.000000*%
G04 APERTURE END LIST*
D10*
X163671927Y-142881903D02*
X163871927Y-142596189D01*
X164014784Y-142881903D02*
X164014784Y-142281903D01*
X164014784Y-142281903D02*
X163786213Y-142281903D01*
X163786213Y-142281903D02*
X163729070Y-142310474D01*
X163729070Y-142310474D02*
X163700499Y-142339046D01*
X163700499Y-142339046D02*
X163671927Y-142396189D01*
X163671927Y-142396189D02*
X163671927Y-142481903D01*
X163671927Y-142481903D02*
X163700499Y-142539046D01*
X163700499Y-142539046D02*
X163729070Y-142567617D01*
X163729070Y-142567617D02*
X163786213Y-142596189D01*
X163786213Y-142596189D02*
X164014784Y-142596189D01*
X163443356Y-142339046D02*
X163414784Y-142310474D01*
X163414784Y-142310474D02*
X163357642Y-142281903D01*
X163357642Y-142281903D02*
X163214784Y-142281903D01*
X163214784Y-142281903D02*
X163157642Y-142310474D01*
X163157642Y-142310474D02*
X163129070Y-142339046D01*
X163129070Y-142339046D02*
X163100499Y-142396189D01*
X163100499Y-142396189D02*
X163100499Y-142453332D01*
X163100499Y-142453332D02*
X163129070Y-142539046D01*
X163129070Y-142539046D02*
X163471927Y-142881903D01*
X163471927Y-142881903D02*
X163100499Y-142881903D01*
X163671927Y-150444760D02*
X163700499Y-150473332D01*
X163700499Y-150473332D02*
X163786213Y-150501903D01*
X163786213Y-150501903D02*
X163843356Y-150501903D01*
X163843356Y-150501903D02*
X163929070Y-150473332D01*
X163929070Y-150473332D02*
X163986213Y-150416189D01*
X163986213Y-150416189D02*
X164014784Y-150359046D01*
X164014784Y-150359046D02*
X164043356Y-150244760D01*
X164043356Y-150244760D02*
X164043356Y-150159046D01*
X164043356Y-150159046D02*
X164014784Y-150044760D01*
X164014784Y-150044760D02*
X163986213Y-149987617D01*
X163986213Y-149987617D02*
X163929070Y-149930474D01*
X163929070Y-149930474D02*
X163843356Y-149901903D01*
X163843356Y-149901903D02*
X163786213Y-149901903D01*
X163786213Y-149901903D02*
X163700499Y-149930474D01*
X163700499Y-149930474D02*
X163671927Y-149959046D01*
X163443356Y-149959046D02*
X163414784Y-149930474D01*
X163414784Y-149930474D02*
X163357642Y-149901903D01*
X163357642Y-149901903D02*
X163214784Y-149901903D01*
X163214784Y-149901903D02*
X163157642Y-149930474D01*
X163157642Y-149930474D02*
X163129070Y-149959046D01*
X163129070Y-149959046D02*
X163100499Y-150016189D01*
X163100499Y-150016189D02*
X163100499Y-150073332D01*
X163100499Y-150073332D02*
X163129070Y-150159046D01*
X163129070Y-150159046D02*
X163471927Y-150501903D01*
X163471927Y-150501903D02*
X163100499Y-150501903D01*
X163671927Y-140341903D02*
X163871927Y-140056189D01*
X164014784Y-140341903D02*
X164014784Y-139741903D01*
X164014784Y-139741903D02*
X163786213Y-139741903D01*
X163786213Y-139741903D02*
X163729070Y-139770474D01*
X163729070Y-139770474D02*
X163700499Y-139799046D01*
X163700499Y-139799046D02*
X163671927Y-139856189D01*
X163671927Y-139856189D02*
X163671927Y-139941903D01*
X163671927Y-139941903D02*
X163700499Y-139999046D01*
X163700499Y-139999046D02*
X163729070Y-140027617D01*
X163729070Y-140027617D02*
X163786213Y-140056189D01*
X163786213Y-140056189D02*
X164014784Y-140056189D01*
X163100499Y-140341903D02*
X163443356Y-140341903D01*
X163271927Y-140341903D02*
X163271927Y-139741903D01*
X163271927Y-139741903D02*
X163329070Y-139827617D01*
X163329070Y-139827617D02*
X163386213Y-139884760D01*
X163386213Y-139884760D02*
X163443356Y-139913332D01*
X175303130Y-150501903D02*
X175503130Y-150216189D01*
X175645987Y-150501903D02*
X175645987Y-149901903D01*
X175645987Y-149901903D02*
X175417416Y-149901903D01*
X175417416Y-149901903D02*
X175360273Y-149930474D01*
X175360273Y-149930474D02*
X175331702Y-149959046D01*
X175331702Y-149959046D02*
X175303130Y-150016189D01*
X175303130Y-150016189D02*
X175303130Y-150101903D01*
X175303130Y-150101903D02*
X175331702Y-150159046D01*
X175331702Y-150159046D02*
X175360273Y-150187617D01*
X175360273Y-150187617D02*
X175417416Y-150216189D01*
X175417416Y-150216189D02*
X175645987Y-150216189D01*
X175103130Y-149901903D02*
X174731702Y-149901903D01*
X174731702Y-149901903D02*
X174931702Y-150130474D01*
X174931702Y-150130474D02*
X174845987Y-150130474D01*
X174845987Y-150130474D02*
X174788845Y-150159046D01*
X174788845Y-150159046D02*
X174760273Y-150187617D01*
X174760273Y-150187617D02*
X174731702Y-150244760D01*
X174731702Y-150244760D02*
X174731702Y-150387617D01*
X174731702Y-150387617D02*
X174760273Y-150444760D01*
X174760273Y-150444760D02*
X174788845Y-150473332D01*
X174788845Y-150473332D02*
X174845987Y-150501903D01*
X174845987Y-150501903D02*
X175017416Y-150501903D01*
X175017416Y-150501903D02*
X175074559Y-150473332D01*
X175074559Y-150473332D02*
X175103130Y-150444760D01*
X175331702Y-139770474D02*
X175388845Y-139741903D01*
X175388845Y-139741903D02*
X175474559Y-139741903D01*
X175474559Y-139741903D02*
X175560273Y-139770474D01*
X175560273Y-139770474D02*
X175617416Y-139827617D01*
X175617416Y-139827617D02*
X175645987Y-139884760D01*
X175645987Y-139884760D02*
X175674559Y-139999046D01*
X175674559Y-139999046D02*
X175674559Y-140084760D01*
X175674559Y-140084760D02*
X175645987Y-140199046D01*
X175645987Y-140199046D02*
X175617416Y-140256189D01*
X175617416Y-140256189D02*
X175560273Y-140313332D01*
X175560273Y-140313332D02*
X175474559Y-140341903D01*
X175474559Y-140341903D02*
X175417416Y-140341903D01*
X175417416Y-140341903D02*
X175331702Y-140313332D01*
X175331702Y-140313332D02*
X175303130Y-140284760D01*
X175303130Y-140284760D02*
X175303130Y-140084760D01*
X175303130Y-140084760D02*
X175417416Y-140084760D01*
X175045987Y-140341903D02*
X175045987Y-139741903D01*
X175045987Y-139741903D02*
X174703130Y-140341903D01*
X174703130Y-140341903D02*
X174703130Y-139741903D01*
X174417416Y-140341903D02*
X174417416Y-139741903D01*
X174417416Y-139741903D02*
X174274559Y-139741903D01*
X174274559Y-139741903D02*
X174188845Y-139770474D01*
X174188845Y-139770474D02*
X174131702Y-139827617D01*
X174131702Y-139827617D02*
X174103131Y-139884760D01*
X174103131Y-139884760D02*
X174074559Y-139999046D01*
X174074559Y-139999046D02*
X174074559Y-140084760D01*
X174074559Y-140084760D02*
X174103131Y-140199046D01*
X174103131Y-140199046D02*
X174131702Y-140256189D01*
X174131702Y-140256189D02*
X174188845Y-140313332D01*
X174188845Y-140313332D02*
X174274559Y-140341903D01*
X174274559Y-140341903D02*
X174417416Y-140341903D01*
X163671927Y-147904760D02*
X163700499Y-147933332D01*
X163700499Y-147933332D02*
X163786213Y-147961903D01*
X163786213Y-147961903D02*
X163843356Y-147961903D01*
X163843356Y-147961903D02*
X163929070Y-147933332D01*
X163929070Y-147933332D02*
X163986213Y-147876189D01*
X163986213Y-147876189D02*
X164014784Y-147819046D01*
X164014784Y-147819046D02*
X164043356Y-147704760D01*
X164043356Y-147704760D02*
X164043356Y-147619046D01*
X164043356Y-147619046D02*
X164014784Y-147504760D01*
X164014784Y-147504760D02*
X163986213Y-147447617D01*
X163986213Y-147447617D02*
X163929070Y-147390474D01*
X163929070Y-147390474D02*
X163843356Y-147361903D01*
X163843356Y-147361903D02*
X163786213Y-147361903D01*
X163786213Y-147361903D02*
X163700499Y-147390474D01*
X163700499Y-147390474D02*
X163671927Y-147419046D01*
X163100499Y-147961903D02*
X163443356Y-147961903D01*
X163271927Y-147961903D02*
X163271927Y-147361903D01*
X163271927Y-147361903D02*
X163329070Y-147447617D01*
X163329070Y-147447617D02*
X163386213Y-147504760D01*
X163386213Y-147504760D02*
X163443356Y-147533332D01*
X168446100Y-141221903D02*
X168646100Y-140936189D01*
X168788957Y-141221903D02*
X168788957Y-140621903D01*
X168788957Y-140621903D02*
X168560386Y-140621903D01*
X168560386Y-140621903D02*
X168503243Y-140650474D01*
X168503243Y-140650474D02*
X168474672Y-140679046D01*
X168474672Y-140679046D02*
X168446100Y-140736189D01*
X168446100Y-140736189D02*
X168446100Y-140821903D01*
X168446100Y-140821903D02*
X168474672Y-140879046D01*
X168474672Y-140879046D02*
X168503243Y-140907617D01*
X168503243Y-140907617D02*
X168560386Y-140936189D01*
X168560386Y-140936189D02*
X168788957Y-140936189D01*
X168217529Y-141193332D02*
X168131815Y-141221903D01*
X168131815Y-141221903D02*
X167988957Y-141221903D01*
X167988957Y-141221903D02*
X167931815Y-141193332D01*
X167931815Y-141193332D02*
X167903243Y-141164760D01*
X167903243Y-141164760D02*
X167874672Y-141107617D01*
X167874672Y-141107617D02*
X167874672Y-141050474D01*
X167874672Y-141050474D02*
X167903243Y-140993332D01*
X167903243Y-140993332D02*
X167931815Y-140964760D01*
X167931815Y-140964760D02*
X167988957Y-140936189D01*
X167988957Y-140936189D02*
X168103243Y-140907617D01*
X168103243Y-140907617D02*
X168160386Y-140879046D01*
X168160386Y-140879046D02*
X168188957Y-140850474D01*
X168188957Y-140850474D02*
X168217529Y-140793332D01*
X168217529Y-140793332D02*
X168217529Y-140736189D01*
X168217529Y-140736189D02*
X168188957Y-140679046D01*
X168188957Y-140679046D02*
X168160386Y-140650474D01*
X168160386Y-140650474D02*
X168103243Y-140621903D01*
X168103243Y-140621903D02*
X167960386Y-140621903D01*
X167960386Y-140621903D02*
X167874672Y-140650474D01*
X167703243Y-140621903D02*
X167360386Y-140621903D01*
X167531814Y-141221903D02*
X167531814Y-140621903D01*
X175731702Y-142281903D02*
X175531702Y-142881903D01*
X175531702Y-142881903D02*
X175331702Y-142281903D01*
X174788844Y-142824760D02*
X174817416Y-142853332D01*
X174817416Y-142853332D02*
X174903130Y-142881903D01*
X174903130Y-142881903D02*
X174960273Y-142881903D01*
X174960273Y-142881903D02*
X175045987Y-142853332D01*
X175045987Y-142853332D02*
X175103130Y-142796189D01*
X175103130Y-142796189D02*
X175131701Y-142739046D01*
X175131701Y-142739046D02*
X175160273Y-142624760D01*
X175160273Y-142624760D02*
X175160273Y-142539046D01*
X175160273Y-142539046D02*
X175131701Y-142424760D01*
X175131701Y-142424760D02*
X175103130Y-142367617D01*
X175103130Y-142367617D02*
X175045987Y-142310474D01*
X175045987Y-142310474D02*
X174960273Y-142281903D01*
X174960273Y-142281903D02*
X174903130Y-142281903D01*
X174903130Y-142281903D02*
X174817416Y-142310474D01*
X174817416Y-142310474D02*
X174788844Y-142339046D01*
X174188844Y-142824760D02*
X174217416Y-142853332D01*
X174217416Y-142853332D02*
X174303130Y-142881903D01*
X174303130Y-142881903D02*
X174360273Y-142881903D01*
X174360273Y-142881903D02*
X174445987Y-142853332D01*
X174445987Y-142853332D02*
X174503130Y-142796189D01*
X174503130Y-142796189D02*
X174531701Y-142739046D01*
X174531701Y-142739046D02*
X174560273Y-142624760D01*
X174560273Y-142624760D02*
X174560273Y-142539046D01*
X174560273Y-142539046D02*
X174531701Y-142424760D01*
X174531701Y-142424760D02*
X174503130Y-142367617D01*
X174503130Y-142367617D02*
X174445987Y-142310474D01*
X174445987Y-142310474D02*
X174360273Y-142281903D01*
X174360273Y-142281903D02*
X174303130Y-142281903D01*
X174303130Y-142281903D02*
X174217416Y-142310474D01*
X174217416Y-142310474D02*
X174188844Y-142339046D01*
X163671927Y-137801903D02*
X163871927Y-137516189D01*
X164014784Y-137801903D02*
X164014784Y-137201903D01*
X164014784Y-137201903D02*
X163786213Y-137201903D01*
X163786213Y-137201903D02*
X163729070Y-137230474D01*
X163729070Y-137230474D02*
X163700499Y-137259046D01*
X163700499Y-137259046D02*
X163671927Y-137316189D01*
X163671927Y-137316189D02*
X163671927Y-137401903D01*
X163671927Y-137401903D02*
X163700499Y-137459046D01*
X163700499Y-137459046D02*
X163729070Y-137487617D01*
X163729070Y-137487617D02*
X163786213Y-137516189D01*
X163786213Y-137516189D02*
X164014784Y-137516189D01*
X163300499Y-137201903D02*
X163243356Y-137201903D01*
X163243356Y-137201903D02*
X163186213Y-137230474D01*
X163186213Y-137230474D02*
X163157642Y-137259046D01*
X163157642Y-137259046D02*
X163129070Y-137316189D01*
X163129070Y-137316189D02*
X163100499Y-137430474D01*
X163100499Y-137430474D02*
X163100499Y-137573332D01*
X163100499Y-137573332D02*
X163129070Y-137687617D01*
X163129070Y-137687617D02*
X163157642Y-137744760D01*
X163157642Y-137744760D02*
X163186213Y-137773332D01*
X163186213Y-137773332D02*
X163243356Y-137801903D01*
X163243356Y-137801903D02*
X163300499Y-137801903D01*
X163300499Y-137801903D02*
X163357642Y-137773332D01*
X163357642Y-137773332D02*
X163386213Y-137744760D01*
X163386213Y-137744760D02*
X163414784Y-137687617D01*
X163414784Y-137687617D02*
X163443356Y-137573332D01*
X163443356Y-137573332D02*
X163443356Y-137430474D01*
X163443356Y-137430474D02*
X163414784Y-137316189D01*
X163414784Y-137316189D02*
X163386213Y-137259046D01*
X163386213Y-137259046D02*
X163357642Y-137230474D01*
X163357642Y-137230474D02*
X163300499Y-137201903D01*
X163671927Y-145364760D02*
X163700499Y-145393332D01*
X163700499Y-145393332D02*
X163786213Y-145421903D01*
X163786213Y-145421903D02*
X163843356Y-145421903D01*
X163843356Y-145421903D02*
X163929070Y-145393332D01*
X163929070Y-145393332D02*
X163986213Y-145336189D01*
X163986213Y-145336189D02*
X164014784Y-145279046D01*
X164014784Y-145279046D02*
X164043356Y-145164760D01*
X164043356Y-145164760D02*
X164043356Y-145079046D01*
X164043356Y-145079046D02*
X164014784Y-144964760D01*
X164014784Y-144964760D02*
X163986213Y-144907617D01*
X163986213Y-144907617D02*
X163929070Y-144850474D01*
X163929070Y-144850474D02*
X163843356Y-144821903D01*
X163843356Y-144821903D02*
X163786213Y-144821903D01*
X163786213Y-144821903D02*
X163700499Y-144850474D01*
X163700499Y-144850474D02*
X163671927Y-144879046D01*
X163300499Y-144821903D02*
X163243356Y-144821903D01*
X163243356Y-144821903D02*
X163186213Y-144850474D01*
X163186213Y-144850474D02*
X163157642Y-144879046D01*
X163157642Y-144879046D02*
X163129070Y-144936189D01*
X163129070Y-144936189D02*
X163100499Y-145050474D01*
X163100499Y-145050474D02*
X163100499Y-145193332D01*
X163100499Y-145193332D02*
X163129070Y-145307617D01*
X163129070Y-145307617D02*
X163157642Y-145364760D01*
X163157642Y-145364760D02*
X163186213Y-145393332D01*
X163186213Y-145393332D02*
X163243356Y-145421903D01*
X163243356Y-145421903D02*
X163300499Y-145421903D01*
X163300499Y-145421903D02*
X163357642Y-145393332D01*
X163357642Y-145393332D02*
X163386213Y-145364760D01*
X163386213Y-145364760D02*
X163414784Y-145307617D01*
X163414784Y-145307617D02*
X163443356Y-145193332D01*
X163443356Y-145193332D02*
X163443356Y-145050474D01*
X163443356Y-145050474D02*
X163414784Y-144936189D01*
X163414784Y-144936189D02*
X163386213Y-144879046D01*
X163386213Y-144879046D02*
X163357642Y-144850474D01*
X163357642Y-144850474D02*
X163300499Y-144821903D01*
X175303130Y-145421903D02*
X175503130Y-145136189D01*
X175645987Y-145421903D02*
X175645987Y-144821903D01*
X175645987Y-144821903D02*
X175417416Y-144821903D01*
X175417416Y-144821903D02*
X175360273Y-144850474D01*
X175360273Y-144850474D02*
X175331702Y-144879046D01*
X175331702Y-144879046D02*
X175303130Y-144936189D01*
X175303130Y-144936189D02*
X175303130Y-145021903D01*
X175303130Y-145021903D02*
X175331702Y-145079046D01*
X175331702Y-145079046D02*
X175360273Y-145107617D01*
X175360273Y-145107617D02*
X175417416Y-145136189D01*
X175417416Y-145136189D02*
X175645987Y-145136189D01*
X174760273Y-144821903D02*
X175045987Y-144821903D01*
X175045987Y-144821903D02*
X175074559Y-145107617D01*
X175074559Y-145107617D02*
X175045987Y-145079046D01*
X175045987Y-145079046D02*
X174988845Y-145050474D01*
X174988845Y-145050474D02*
X174845987Y-145050474D01*
X174845987Y-145050474D02*
X174788845Y-145079046D01*
X174788845Y-145079046D02*
X174760273Y-145107617D01*
X174760273Y-145107617D02*
X174731702Y-145164760D01*
X174731702Y-145164760D02*
X174731702Y-145307617D01*
X174731702Y-145307617D02*
X174760273Y-145364760D01*
X174760273Y-145364760D02*
X174788845Y-145393332D01*
X174788845Y-145393332D02*
X174845987Y-145421903D01*
X174845987Y-145421903D02*
X174988845Y-145421903D01*
X174988845Y-145421903D02*
X175045987Y-145393332D01*
X175045987Y-145393332D02*
X175074559Y-145364760D01*
X163671927Y-152984760D02*
X163700499Y-153013332D01*
X163700499Y-153013332D02*
X163786213Y-153041903D01*
X163786213Y-153041903D02*
X163843356Y-153041903D01*
X163843356Y-153041903D02*
X163929070Y-153013332D01*
X163929070Y-153013332D02*
X163986213Y-152956189D01*
X163986213Y-152956189D02*
X164014784Y-152899046D01*
X164014784Y-152899046D02*
X164043356Y-152784760D01*
X164043356Y-152784760D02*
X164043356Y-152699046D01*
X164043356Y-152699046D02*
X164014784Y-152584760D01*
X164014784Y-152584760D02*
X163986213Y-152527617D01*
X163986213Y-152527617D02*
X163929070Y-152470474D01*
X163929070Y-152470474D02*
X163843356Y-152441903D01*
X163843356Y-152441903D02*
X163786213Y-152441903D01*
X163786213Y-152441903D02*
X163700499Y-152470474D01*
X163700499Y-152470474D02*
X163671927Y-152499046D01*
X163471927Y-152441903D02*
X163100499Y-152441903D01*
X163100499Y-152441903D02*
X163300499Y-152670474D01*
X163300499Y-152670474D02*
X163214784Y-152670474D01*
X163214784Y-152670474D02*
X163157642Y-152699046D01*
X163157642Y-152699046D02*
X163129070Y-152727617D01*
X163129070Y-152727617D02*
X163100499Y-152784760D01*
X163100499Y-152784760D02*
X163100499Y-152927617D01*
X163100499Y-152927617D02*
X163129070Y-152984760D01*
X163129070Y-152984760D02*
X163157642Y-153013332D01*
X163157642Y-153013332D02*
X163214784Y-153041903D01*
X163214784Y-153041903D02*
X163386213Y-153041903D01*
X163386213Y-153041903D02*
X163443356Y-153013332D01*
X163443356Y-153013332D02*
X163471927Y-152984760D01*
X175731702Y-137201903D02*
X175531702Y-137801903D01*
X175531702Y-137801903D02*
X175331702Y-137201903D01*
X175131701Y-137201903D02*
X175131701Y-137687617D01*
X175131701Y-137687617D02*
X175103130Y-137744760D01*
X175103130Y-137744760D02*
X175074559Y-137773332D01*
X175074559Y-137773332D02*
X175017416Y-137801903D01*
X175017416Y-137801903D02*
X174903130Y-137801903D01*
X174903130Y-137801903D02*
X174845987Y-137773332D01*
X174845987Y-137773332D02*
X174817416Y-137744760D01*
X174817416Y-137744760D02*
X174788844Y-137687617D01*
X174788844Y-137687617D02*
X174788844Y-137201903D01*
X174531702Y-137773332D02*
X174445988Y-137801903D01*
X174445988Y-137801903D02*
X174303130Y-137801903D01*
X174303130Y-137801903D02*
X174245988Y-137773332D01*
X174245988Y-137773332D02*
X174217416Y-137744760D01*
X174217416Y-137744760D02*
X174188845Y-137687617D01*
X174188845Y-137687617D02*
X174188845Y-137630474D01*
X174188845Y-137630474D02*
X174217416Y-137573332D01*
X174217416Y-137573332D02*
X174245988Y-137544760D01*
X174245988Y-137544760D02*
X174303130Y-137516189D01*
X174303130Y-137516189D02*
X174417416Y-137487617D01*
X174417416Y-137487617D02*
X174474559Y-137459046D01*
X174474559Y-137459046D02*
X174503130Y-137430474D01*
X174503130Y-137430474D02*
X174531702Y-137373332D01*
X174531702Y-137373332D02*
X174531702Y-137316189D01*
X174531702Y-137316189D02*
X174503130Y-137259046D01*
X174503130Y-137259046D02*
X174474559Y-137230474D01*
X174474559Y-137230474D02*
X174417416Y-137201903D01*
X174417416Y-137201903D02*
X174274559Y-137201903D01*
X174274559Y-137201903D02*
X174188845Y-137230474D01*
X173731701Y-137487617D02*
X173645987Y-137516189D01*
X173645987Y-137516189D02*
X173617416Y-137544760D01*
X173617416Y-137544760D02*
X173588844Y-137601903D01*
X173588844Y-137601903D02*
X173588844Y-137687617D01*
X173588844Y-137687617D02*
X173617416Y-137744760D01*
X173617416Y-137744760D02*
X173645987Y-137773332D01*
X173645987Y-137773332D02*
X173703130Y-137801903D01*
X173703130Y-137801903D02*
X173931701Y-137801903D01*
X173931701Y-137801903D02*
X173931701Y-137201903D01*
X173931701Y-137201903D02*
X173731701Y-137201903D01*
X173731701Y-137201903D02*
X173674559Y-137230474D01*
X173674559Y-137230474D02*
X173645987Y-137259046D01*
X173645987Y-137259046D02*
X173617416Y-137316189D01*
X173617416Y-137316189D02*
X173617416Y-137373332D01*
X173617416Y-137373332D02*
X173645987Y-137430474D01*
X173645987Y-137430474D02*
X173674559Y-137459046D01*
X173674559Y-137459046D02*
X173731701Y-137487617D01*
X173731701Y-137487617D02*
X173931701Y-137487617D01*
X168201815Y-144790617D02*
X168116101Y-144819189D01*
X168116101Y-144819189D02*
X168087530Y-144847760D01*
X168087530Y-144847760D02*
X168058958Y-144904903D01*
X168058958Y-144904903D02*
X168058958Y-144990617D01*
X168058958Y-144990617D02*
X168087530Y-145047760D01*
X168087530Y-145047760D02*
X168116101Y-145076332D01*
X168116101Y-145076332D02*
X168173244Y-145104903D01*
X168173244Y-145104903D02*
X168401815Y-145104903D01*
X168401815Y-145104903D02*
X168401815Y-144504903D01*
X168401815Y-144504903D02*
X168201815Y-144504903D01*
X168201815Y-144504903D02*
X168144673Y-144533474D01*
X168144673Y-144533474D02*
X168116101Y-144562046D01*
X168116101Y-144562046D02*
X168087530Y-144619189D01*
X168087530Y-144619189D02*
X168087530Y-144676332D01*
X168087530Y-144676332D02*
X168116101Y-144733474D01*
X168116101Y-144733474D02*
X168144673Y-144762046D01*
X168144673Y-144762046D02*
X168201815Y-144790617D01*
X168201815Y-144790617D02*
X168401815Y-144790617D01*
X167830387Y-144933474D02*
X167544673Y-144933474D01*
X167887530Y-145104903D02*
X167687530Y-144504903D01*
X167687530Y-144504903D02*
X167487530Y-145104903D01*
X167373244Y-144504903D02*
X167030387Y-144504903D01*
X167201815Y-145104903D02*
X167201815Y-144504903D01*
X166830386Y-144876332D02*
X166373244Y-144876332D01*
X166601815Y-145104903D02*
X166601815Y-144647760D01*
X175303130Y-147961903D02*
X175503130Y-147676189D01*
X175645987Y-147961903D02*
X175645987Y-147361903D01*
X175645987Y-147361903D02*
X175417416Y-147361903D01*
X175417416Y-147361903D02*
X175360273Y-147390474D01*
X175360273Y-147390474D02*
X175331702Y-147419046D01*
X175331702Y-147419046D02*
X175303130Y-147476189D01*
X175303130Y-147476189D02*
X175303130Y-147561903D01*
X175303130Y-147561903D02*
X175331702Y-147619046D01*
X175331702Y-147619046D02*
X175360273Y-147647617D01*
X175360273Y-147647617D02*
X175417416Y-147676189D01*
X175417416Y-147676189D02*
X175645987Y-147676189D01*
X174788845Y-147561903D02*
X174788845Y-147961903D01*
X174931702Y-147333332D02*
X175074559Y-147761903D01*
X175074559Y-147761903D02*
X174703130Y-147761903D01*
X175303130Y-152984760D02*
X175331702Y-153013332D01*
X175331702Y-153013332D02*
X175417416Y-153041903D01*
X175417416Y-153041903D02*
X175474559Y-153041903D01*
X175474559Y-153041903D02*
X175560273Y-153013332D01*
X175560273Y-153013332D02*
X175617416Y-152956189D01*
X175617416Y-152956189D02*
X175645987Y-152899046D01*
X175645987Y-152899046D02*
X175674559Y-152784760D01*
X175674559Y-152784760D02*
X175674559Y-152699046D01*
X175674559Y-152699046D02*
X175645987Y-152584760D01*
X175645987Y-152584760D02*
X175617416Y-152527617D01*
X175617416Y-152527617D02*
X175560273Y-152470474D01*
X175560273Y-152470474D02*
X175474559Y-152441903D01*
X175474559Y-152441903D02*
X175417416Y-152441903D01*
X175417416Y-152441903D02*
X175331702Y-152470474D01*
X175331702Y-152470474D02*
X175303130Y-152499046D01*
X174788845Y-152641903D02*
X174788845Y-153041903D01*
X174931702Y-152413332D02*
X175074559Y-152841903D01*
X175074559Y-152841903D02*
X174703130Y-152841903D01*
%TO.C,T1*%
X165537527Y-133302132D02*
X165537528Y-136152132D01*
X165537528Y-136152132D02*
X172137528Y-136152132D01*
X168837528Y-133302132D02*
X165537527Y-133302132D01*
X168837528Y-133302132D02*
X172137529Y-133302132D01*
X170787528Y-133302132D02*
X166887528Y-133302132D01*
X172137528Y-136152132D02*
X172137529Y-133302132D01*
D11*
%TO.C,B1*%
X181730453Y-123952748D02*
X182091878Y-124804215D01*
X183205462Y-127427654D02*
X183566888Y-128279121D01*
X183647452Y-123030394D02*
X183141174Y-123245295D01*
X185136320Y-122507043D02*
X186972755Y-126833416D01*
X185562034Y-127540869D02*
X185055756Y-127755770D01*
%TD*%
D12*
%TO.C,MCU1*%
X161292529Y-137532132D03*
X161292530Y-140072132D03*
X161292529Y-142612132D03*
X161292529Y-145152132D03*
X161292529Y-147692132D03*
X161292530Y-150232132D03*
X161292529Y-152772132D03*
X177482529Y-152772132D03*
X177482528Y-150232132D03*
X177482529Y-147692132D03*
X177482529Y-145152132D03*
X177482529Y-142612132D03*
D13*
X177482528Y-140072132D03*
D12*
X177482529Y-137532132D03*
D14*
X168117530Y-139120132D03*
X164942529Y-144835132D03*
%TD*%
M02*
