M48
; DRILL file {KiCad 9.0.4} date 2025-10-25T19:08:05+0800
; FORMAT={-:-/ absolute / metric / decimal}
; #@! TF.CreationDate,2025-10-25T19:08:05+08:00
; #@! TF.GenerationSoftware,Kicad,Pcbnew,9.0.4
; #@! TF.FileFunction,NonPlated,1,2,NPTH
FMAT,2
METRIC
; #@! TA.AperFunction,NonPlated,NPTH,ComponentDrill
T1C0.750
; #@! TA.AperFunction,NonPlated,NPTH,ComponentDrill
T2C0.900
; #@! TA.AperFunction,NonPlated,NPTH,ComponentDrill
T3C1.702
; #@! TA.AperFunction,NonPlated,NPTH,ComponentDrill
T4C2.200
; #@! TA.AperFunction,NonPlated,NPTH,ComponentDrill
T5C3.000
; #@! TA.AperFunction,NonPlated,NPTH,ComponentDrill
T6C3.429
%
G90
G05
T1
X191.396Y-127.231
X193.928Y-126.156
T2
X175.648Y-135.953
X178.648Y-135.953
T3
X67.798Y-134.527
X69.87Y-117.654
X78.716Y-135.868
X80.788Y-118.994
X87.958Y-128.592
X92.644Y-112.251
X97.33Y-95.909
X98.532Y-131.624
X103.218Y-115.283
X107.904Y-98.941
X108.05Y-126.98
X114.418Y-111.218
X118.249Y-131.101
X120.787Y-95.456
X122.09Y-140.674
X124.617Y-115.339
X128.733Y-125.026
X130.061Y-165.089
X130.986Y-99.576
X132.216Y-144.972
X135.375Y-109.377
X138.858Y-129.324
X139.588Y-170.589
X141.59Y-140.804
X145.501Y-113.675
X146.33Y-175.052
X148.232Y-125.155
X151.715Y-145.102
X155.115Y-181.672
X158.358Y-129.453
X197.038Y-129.453
X200.281Y-181.672
X203.681Y-145.102
X207.164Y-125.155
X209.066Y-175.052
X209.895Y-113.675
X213.806Y-140.804
X215.808Y-170.589
X216.538Y-129.324
X220.021Y-109.377
X223.18Y-144.972
X224.41Y-99.576
X225.335Y-165.089
X226.663Y-125.026
X230.779Y-115.339
X233.306Y-140.674
X234.609Y-95.456
X237.147Y-131.101
X240.978Y-111.218
X247.346Y-126.98
X247.492Y-98.941
X252.178Y-115.283
X256.864Y-131.624
X258.066Y-95.909
X262.752Y-112.251
X267.438Y-128.592
X274.608Y-118.994
X276.68Y-135.868
X285.526Y-117.654
X287.598Y-134.527
T4
X85.193Y-120.039
X112.314Y-101.563
X142.774Y-173.1
X212.622Y-173.1
X243.082Y-101.563
X270.203Y-120.039
T5
X73.982Y-129.292
X76.054Y-112.419
X78.677Y-132.085
X80.748Y-115.211
X94.885Y-124.388
X99.085Y-127.881
X99.571Y-108.047
X103.771Y-111.54
X104.257Y-91.706
X108.457Y-95.199
X115.378Y-123.524
X119.19Y-127.436
X121.747Y-107.762
X125.559Y-111.674
X128.115Y-91.999
X129.478Y-137.346
X131.927Y-95.912
X133.221Y-141.325
X136.12Y-121.698
X137.8Y-162.686
X139.863Y-125.676
X141.03Y-167.091
X142.763Y-106.049
X146.506Y-110.028
X148.978Y-137.476
X152.72Y-141.454
X154.304Y-173.61
X155.62Y-121.827
X156.973Y-178.376
X159.363Y-125.806
X199.776Y-121.827
X201.092Y-173.61
X205.238Y-121.898
X206.41Y-172.358
X206.419Y-137.476
X211.881Y-137.547
X212.633Y-106.049
X217.597Y-162.686
X218.095Y-106.12
X219.276Y-121.698
X223.027Y-162.091
X224.738Y-121.769
X225.918Y-137.346
X227.281Y-91.999
X231.38Y-137.418
X232.741Y-92.166
X233.649Y-107.762
X239.109Y-107.928
X240.018Y-123.524
X245.478Y-123.69
X251.139Y-91.706
X255.825Y-108.047
X256.552Y-92.442
X260.511Y-124.389
X261.238Y-108.784
X265.924Y-125.125
X279.342Y-112.419
X281.414Y-129.292
X284.573Y-113.993
X286.645Y-130.866
T6
X73.257Y-135.197
X75.329Y-118.324
X93.245Y-130.108
X97.931Y-113.767
X102.617Y-97.425
X113.15Y-129.04
X119.518Y-113.278
X125.886Y-97.516
X127.153Y-142.823
X133.796Y-127.175
X134.825Y-167.839
X140.438Y-111.526
X146.653Y-142.953
X150.723Y-178.362
X153.295Y-127.304
X202.101Y-127.304
X204.673Y-178.362
X208.743Y-142.953
X214.958Y-111.526
X220.572Y-167.839
X221.601Y-127.175
X228.243Y-142.823
X229.51Y-97.516
X235.878Y-113.278
X242.247Y-129.04
X252.779Y-97.425
X257.465Y-113.767
X262.151Y-130.108
X280.067Y-118.324
X282.139Y-135.197
M30
