M48
; DRILL file {KiCad 9.0.4} date 2025-10-25T14:12:21+0800
; FORMAT={-:-/ absolute / metric / decimal}
; #@! TF.CreationDate,2025-10-25T14:12:21+08:00
; #@! TF.GenerationSoftware,Kicad,Pcbnew,9.0.4
; #@! TF.FileFunction,NonPlated,1,2,NPTH
FMAT,2
METRIC
; #@! TA.AperFunction,NonPlated,NPTH,ComponentDrill
T1C0.750
; #@! TA.AperFunction,NonPlated,NPTH,ComponentDrill
T2C0.900
; #@! TA.AperFunction,NonPlated,NPTH,ComponentDrill
T3C1.702
; #@! TA.AperFunction,NonPlated,NPTH,ComponentDrill
T4C2.200
; #@! TA.AperFunction,NonPlated,NPTH,ComponentDrill
T5C3.000
; #@! TA.AperFunction,NonPlated,NPTH,ComponentDrill
T6C3.429
%
G90
G05
T1
X183.086Y-125.93
X185.617Y-124.856
T2
X167.338Y-134.652
X170.338Y-134.652
T3
X59.487Y-133.227
X61.559Y-116.353
X70.405Y-134.567
X72.477Y-117.694
X79.648Y-127.292
X84.333Y-110.95
X89.019Y-94.609
X90.221Y-130.324
X94.907Y-113.982
X99.593Y-97.641
X99.74Y-125.68
X106.108Y-109.918
X109.939Y-129.8
X112.476Y-94.155
X113.78Y-139.374
X116.307Y-114.038
X120.422Y-123.725
X121.751Y-163.789
X122.675Y-98.276
X123.905Y-143.672
X127.065Y-108.077
X130.548Y-128.023
X131.277Y-169.289
X133.279Y-139.503
X137.19Y-112.375
X138.02Y-173.751
X139.922Y-123.855
X143.405Y-143.801
X146.805Y-180.371
X150.047Y-128.153
X188.728Y-128.153
X191.97Y-180.371
X195.37Y-143.801
X198.853Y-123.855
X200.755Y-173.751
X201.585Y-112.375
X205.496Y-139.503
X207.498Y-169.289
X208.227Y-128.023
X211.71Y-108.077
X214.87Y-143.672
X216.1Y-98.276
X217.024Y-163.789
X218.353Y-123.725
X222.468Y-114.038
X224.995Y-139.374
X226.299Y-94.155
X228.837Y-129.8
X232.667Y-109.918
X239.036Y-125.68
X239.182Y-97.641
X243.868Y-113.982
X248.554Y-130.324
X249.756Y-94.609
X254.442Y-110.95
X259.127Y-127.292
X266.298Y-117.694
X268.37Y-134.567
X277.216Y-116.353
X279.288Y-133.227
T4
X76.883Y-118.739
X104.003Y-100.262
X134.463Y-171.8
X204.312Y-171.8
X234.772Y-100.262
X261.892Y-118.739
T5
X65.672Y-127.991
X67.743Y-111.118
X70.366Y-130.784
X72.438Y-113.911
X86.575Y-123.088
X90.774Y-126.581
X91.26Y-106.747
X95.46Y-110.24
X95.946Y-90.405
X100.146Y-93.898
X107.068Y-122.223
X110.88Y-126.136
X113.436Y-106.461
X117.248Y-110.374
X119.805Y-90.699
X121.167Y-136.046
X123.616Y-94.612
X124.91Y-140.025
X127.81Y-120.397
X129.489Y-161.386
X131.553Y-124.376
X132.719Y-165.791
X134.452Y-104.749
X138.195Y-108.727
X140.667Y-136.175
X144.41Y-140.154
X145.993Y-172.31
X147.309Y-120.527
X148.662Y-177.076
X151.052Y-124.505
X191.466Y-120.527
X192.782Y-172.31
X196.928Y-120.598
X198.099Y-171.058
X198.108Y-136.175
X203.57Y-136.247
X204.323Y-104.749
X209.286Y-161.386
X209.785Y-104.82
X210.965Y-120.397
X214.716Y-160.791
X216.427Y-120.469
X217.608Y-136.046
X218.97Y-90.699
X223.07Y-136.117
X224.431Y-90.866
X225.339Y-106.461
X230.799Y-106.628
X231.707Y-122.223
X237.167Y-122.39
X242.829Y-90.405
X247.515Y-106.747
X248.242Y-91.142
X252.2Y-123.088
X252.927Y-107.483
X257.613Y-123.825
X271.032Y-111.118
X273.104Y-127.991
X276.263Y-112.692
X278.334Y-129.566
T6
X64.946Y-133.897
X67.018Y-117.024
X84.935Y-128.808
X89.62Y-112.466
X94.306Y-96.125
X104.839Y-127.74
X111.207Y-111.978
X117.576Y-96.216
X118.843Y-141.523
X125.485Y-125.874
X126.514Y-166.539
X132.127Y-110.226
X138.342Y-141.652
X142.412Y-177.061
X144.985Y-126.004
X193.79Y-126.004
X196.363Y-177.061
X200.433Y-141.652
X206.648Y-110.226
X212.261Y-166.539
X213.29Y-125.874
X219.932Y-141.523
X221.199Y-96.216
X227.568Y-111.978
X233.936Y-127.74
X244.469Y-96.125
X249.155Y-112.466
X253.841Y-128.808
X271.757Y-117.024
X273.829Y-133.897
M30
