%TF.GenerationSoftware,KiCad,Pcbnew,9.0.4*%
%TF.CreationDate,2025-10-25T19:08:00+08:00*%
%TF.ProjectId,sterna,73746572-6e61-42e6-9b69-6361645f7063,v1.0.0*%
%TF.SameCoordinates,Original*%
%TF.FileFunction,Soldermask,Bot*%
%TF.FilePolarity,Negative*%
%FSLAX46Y46*%
G04 Gerber Fmt 4.6, Leading zero omitted, Abs format (unit mm)*
G04 Created by KiCad (PCBNEW 9.0.4) date 2025-10-25 19:08:00*
%MOMM*%
%LPD*%
G01*
G04 APERTURE LIST*
G04 Aperture macros list*
%AMRotRect*
0 Rectangle, with rotation*
0 The origin of the aperture is its center*
0 $1 length*
0 $2 width*
0 $3 Rotation angle, in degrees counterclockwise*
0 Add horizontal line*
21,1,$1,$2,0,0,$3*%
G04 Aperture macros list end*
%ADD10C,0.750000*%
%ADD11RotRect,1.550000X1.000000X113.000000*%
%ADD12C,1.701800*%
%ADD13C,3.000000*%
%ADD14C,3.429000*%
%ADD15RotRect,2.600000X2.600000X217.000000*%
%ADD16RotRect,2.600000X2.600000X210.000000*%
%ADD17RotRect,2.600000X2.600000X196.000000*%
%ADD18RotRect,2.600000X2.600000X203.000000*%
%ADD19RotRect,2.600000X2.600000X187.000000*%
%ADD20RotRect,2.600000X2.600000X202.000000*%
%ADD21C,4.400000*%
%ADD22C,2.200000*%
%ADD23RotRect,2.600000X2.600000X143.000000*%
%ADD24RotRect,2.600000X2.600000X150.000000*%
%ADD25RotRect,2.600000X2.600000X164.000000*%
%ADD26RotRect,2.600000X2.600000X158.000000*%
%ADD27RotRect,2.600000X2.600000X157.000000*%
%ADD28RotRect,2.600000X2.600000X173.000000*%
%ADD29R,0.900000X0.900000*%
%ADD30R,0.900000X1.250000*%
%ADD31C,1.000000*%
%ADD32O,2.750000X1.800000*%
%ADD33R,2.750000X1.800000*%
%ADD34C,2.000000*%
%ADD35R,1.200000X1.700000*%
%ADD36O,1.200000X1.700000*%
G04 APERTURE END LIST*
D10*
%TO.C,B1*%
X191396414Y-127230773D03*
X193927802Y-126156263D03*
D11*
X190854010Y-124609314D03*
X192905348Y-129441965D03*
X192418868Y-123945071D03*
X194470206Y-128777722D03*
%TD*%
D12*
%TO.C,S30*%
X200280744Y-181671877D03*
D13*
X201092440Y-173610013D03*
D14*
X204673239Y-178361894D03*
D13*
X206409610Y-172357936D03*
D12*
X209065734Y-175051911D03*
D15*
X198476908Y-175580957D03*
X209025142Y-170386992D03*
%TD*%
D12*
%TO.C,S29*%
X215808383Y-170589054D03*
D13*
X217596523Y-162686203D03*
D14*
X220571523Y-167839054D03*
D13*
X223026650Y-162091459D03*
D12*
X225334663Y-165089054D03*
D16*
X214760290Y-164323703D03*
X225862883Y-160453959D03*
%TD*%
D12*
%TO.C,S16*%
X256864109Y-131624015D03*
D13*
X260511006Y-124388503D03*
D14*
X262151048Y-130108010D03*
D13*
X265923716Y-125125092D03*
D12*
X267437987Y-128592005D03*
D17*
X257362874Y-125291215D03*
X269071848Y-124222380D03*
%TD*%
D12*
%TO.C,S23*%
X216537777Y-129323632D03*
D13*
X219275704Y-121697607D03*
D14*
X221600554Y-127174611D03*
D13*
X224737837Y-121769062D03*
D12*
X226663331Y-125025590D03*
D18*
X216261050Y-122977252D03*
X227752490Y-120489418D03*
%TD*%
D12*
%TO.C,S24*%
X209895349Y-113675049D03*
D13*
X212633276Y-106049024D03*
D14*
X214958126Y-111526028D03*
D13*
X218095409Y-106120479D03*
D12*
X220020903Y-109377007D03*
D18*
X209618622Y-107328669D03*
X221110062Y-104840835D03*
%TD*%
D12*
%TO.C,S14*%
X276680164Y-135867726D03*
D13*
X281414045Y-129291795D03*
D14*
X282139168Y-135197445D03*
D13*
X286644889Y-130866050D03*
D12*
X287598172Y-134527164D03*
D19*
X278163457Y-129690917D03*
X289895477Y-130466928D03*
%TD*%
D12*
%TO.C,S25*%
X203680636Y-145101589D03*
D13*
X206418563Y-137475564D03*
D14*
X208743413Y-142952568D03*
D13*
X211880696Y-137547019D03*
D12*
X213806190Y-140803547D03*
D18*
X203403909Y-138755209D03*
X214895349Y-136267375D03*
%TD*%
D12*
%TO.C,S15*%
X274608386Y-118994443D03*
D13*
X279342267Y-112418512D03*
D14*
X280067390Y-118324162D03*
D13*
X284573111Y-113992767D03*
D12*
X285526394Y-117653881D03*
D19*
X276091679Y-112817634D03*
X287823699Y-113593645D03*
%TD*%
D12*
%TO.C,S21*%
X224410384Y-99576487D03*
D13*
X227280986Y-91999407D03*
D14*
X229509895Y-97516151D03*
D13*
X232741040Y-92166179D03*
D12*
X234609406Y-95455815D03*
D20*
X224244459Y-93226244D03*
X235777567Y-90939342D03*
%TD*%
D12*
%TO.C,S18*%
X247492433Y-98941116D03*
D13*
X251139330Y-91705604D03*
D14*
X252779372Y-97425111D03*
D13*
X256552040Y-92442193D03*
D12*
X258066311Y-95909106D03*
D17*
X247991198Y-92608316D03*
X259700172Y-91539481D03*
%TD*%
D12*
%TO.C,S20*%
X230778696Y-115338612D03*
D13*
X233649298Y-107761532D03*
D14*
X235878207Y-113278276D03*
D13*
X239109352Y-107928304D03*
D12*
X240977718Y-111217940D03*
D20*
X230612771Y-108988369D03*
X242145879Y-106701467D03*
%TD*%
D12*
%TO.C,S17*%
X252178269Y-115282564D03*
D13*
X255825166Y-108047052D03*
D14*
X257465208Y-113766559D03*
D13*
X261237876Y-108783641D03*
D12*
X262752147Y-112250554D03*
D17*
X252677034Y-108949764D03*
X264386008Y-107880929D03*
%TD*%
D12*
%TO.C,S26*%
X197038208Y-129453007D03*
D13*
X199776135Y-121826982D03*
D14*
X202100985Y-127303986D03*
D13*
X205238268Y-121898437D03*
D12*
X207163762Y-125154965D03*
D18*
X196761481Y-123106627D03*
X208252921Y-120618793D03*
%TD*%
D12*
%TO.C,S19*%
X237147008Y-131100737D03*
D13*
X240017610Y-123523657D03*
D14*
X242246519Y-129040401D03*
D13*
X245477664Y-123690429D03*
D12*
X247346030Y-126980065D03*
D20*
X236981083Y-124750494D03*
X248514191Y-122463592D03*
%TD*%
D12*
%TO.C,S22*%
X223180206Y-144972213D03*
D13*
X225918133Y-137346188D03*
D14*
X228242983Y-142823192D03*
D13*
X231380266Y-137417643D03*
D12*
X233305760Y-140674171D03*
D18*
X222903479Y-138625833D03*
X234394919Y-136137999D03*
%TD*%
D21*
%TO.C,PAD2*%
X193608761Y-138649039D03*
%TD*%
%TO.C,PAD4*%
X203914293Y-162927353D03*
%TD*%
D22*
%TO.C,PAD8*%
X243082451Y-101562681D03*
%TD*%
%TO.C,PAD6*%
X212622385Y-173100474D03*
%TD*%
%TO.C,PAD10*%
X270202863Y-120039128D03*
%TD*%
D12*
%TO.C,S28*%
X146330335Y-175051912D03*
D13*
X154303629Y-173610014D03*
D14*
X150722830Y-178361895D03*
D13*
X156972814Y-178376087D03*
D12*
X155115325Y-181671878D03*
D23*
X151688098Y-171639070D03*
X159588345Y-180347031D03*
%TD*%
D12*
%TO.C,S27*%
X130061407Y-165089054D03*
D13*
X137799547Y-162686203D03*
D14*
X134824547Y-167839054D03*
D13*
X141029674Y-167091459D03*
D12*
X139587687Y-170589054D03*
D24*
X134963314Y-161048703D03*
X143865907Y-168728959D03*
%TD*%
D12*
%TO.C,S3*%
X87958085Y-128592001D03*
D13*
X94885066Y-124388499D03*
D14*
X93245024Y-130108006D03*
D13*
X99084973Y-127881461D03*
D12*
X98531963Y-131624011D03*
D25*
X91736934Y-123485787D03*
X102233105Y-128784174D03*
%TD*%
D12*
%TO.C,S7*%
X114418351Y-111217946D03*
D13*
X121746771Y-107761538D03*
D14*
X119517862Y-113278282D03*
D13*
X125558556Y-111674376D03*
D12*
X124617373Y-115338618D03*
D26*
X118710244Y-106534701D03*
X128595083Y-112901212D03*
%TD*%
D12*
%TO.C,S10*%
X128732740Y-125025590D03*
D13*
X136120367Y-121697607D03*
D14*
X133795517Y-127174611D03*
D13*
X139863283Y-125676373D03*
D12*
X138858294Y-129323632D03*
D27*
X133105714Y-120417963D03*
X142877936Y-126956018D03*
%TD*%
D12*
%TO.C,S2*%
X69869678Y-117653882D03*
D13*
X76053805Y-112418513D03*
D14*
X75328682Y-118324163D03*
D13*
X80748423Y-115211462D03*
D12*
X80787686Y-118994444D03*
D28*
X72803216Y-112019391D03*
X83999011Y-115610584D03*
%TD*%
D12*
%TO.C,S4*%
X92643921Y-112250556D03*
D13*
X99570902Y-108047054D03*
D14*
X97930860Y-113766561D03*
D13*
X103770809Y-111540016D03*
D12*
X103217799Y-115282566D03*
D25*
X96422770Y-107144342D03*
X106918941Y-112442729D03*
%TD*%
D12*
%TO.C,S12*%
X141589879Y-140803550D03*
D13*
X148977506Y-137475567D03*
D14*
X146652656Y-142952571D03*
D13*
X152720422Y-141454333D03*
D12*
X151715433Y-145101592D03*
D27*
X145962853Y-136195923D03*
X155735075Y-142733978D03*
%TD*%
D12*
%TO.C,S9*%
X122090309Y-140674172D03*
D13*
X129477936Y-137346189D03*
D14*
X127153086Y-142823193D03*
D13*
X133220852Y-141324955D03*
D12*
X132215863Y-144972214D03*
D27*
X126463283Y-136066545D03*
X136235505Y-142604600D03*
%TD*%
D12*
%TO.C,S8*%
X120786666Y-95455821D03*
D13*
X128115086Y-91999413D03*
D14*
X125886177Y-97516157D03*
D13*
X131926871Y-95912251D03*
D12*
X130985688Y-99576493D03*
D26*
X125078559Y-90772576D03*
X134963398Y-97139087D03*
%TD*%
D12*
%TO.C,S6*%
X108050040Y-126980066D03*
D13*
X115378460Y-123523658D03*
D14*
X113149551Y-129040402D03*
D13*
X119190245Y-127436496D03*
D12*
X118249062Y-131100738D03*
D26*
X112341933Y-122296821D03*
X122226772Y-128663332D03*
%TD*%
D12*
%TO.C,S13*%
X148232306Y-125154963D03*
D13*
X155619933Y-121826980D03*
D14*
X153295083Y-127303984D03*
D13*
X159362849Y-125805746D03*
D12*
X158357860Y-129453005D03*
D27*
X152605280Y-120547336D03*
X162377502Y-127085391D03*
%TD*%
D12*
%TO.C,S11*%
X135375165Y-109377008D03*
D13*
X142762792Y-106049025D03*
D14*
X140437942Y-111526029D03*
D13*
X146505708Y-110027791D03*
D12*
X145500719Y-113675050D03*
D27*
X139748139Y-104769381D03*
X149520361Y-111307436D03*
%TD*%
D12*
%TO.C,S1*%
X67797895Y-134527163D03*
D13*
X73982022Y-129291794D03*
D14*
X73256899Y-135197444D03*
D13*
X78676640Y-132084743D03*
D12*
X78715903Y-135867725D03*
D28*
X70731433Y-128892672D03*
X81927228Y-132483865D03*
%TD*%
D12*
%TO.C,S5*%
X97329756Y-95909107D03*
D13*
X104256737Y-91705605D03*
D14*
X102616695Y-97425112D03*
D13*
X108456644Y-95198567D03*
D12*
X107903634Y-98941117D03*
D25*
X101108605Y-90802893D03*
X111604776Y-96101280D03*
%TD*%
D22*
%TO.C,PAD7*%
X112313618Y-101562684D03*
%TD*%
D21*
%TO.C,PAD3*%
X151481778Y-162927356D03*
%TD*%
D22*
%TO.C,PAD5*%
X142773689Y-173100477D03*
%TD*%
D21*
%TO.C,PAD1*%
X161787307Y-138649036D03*
%TD*%
D22*
%TO.C,PAD9*%
X85193208Y-120039128D03*
%TD*%
D29*
%TO.C,T1*%
X173448034Y-134852571D03*
X173448034Y-137052570D03*
X180848034Y-134852570D03*
X180848034Y-137052569D03*
D30*
X174898034Y-138027570D03*
X177898034Y-138027571D03*
X179398034Y-138027570D03*
D31*
X175648034Y-135952570D03*
X178648034Y-135952570D03*
%TD*%
D32*
%TO.C,MCU1*%
X169603034Y-138832567D03*
X169603035Y-141372565D03*
X169603034Y-143912567D03*
X169603034Y-146452566D03*
X169603034Y-148992567D03*
X169603035Y-151532567D03*
X169603034Y-154072567D03*
X185793034Y-154072567D03*
X185793033Y-151532569D03*
X185793034Y-148992567D03*
X185793034Y-146452568D03*
X185793034Y-143912567D03*
D33*
X185793033Y-141372567D03*
D32*
X185793034Y-138832567D03*
D34*
X176428035Y-140420567D03*
X173253033Y-146135567D03*
%TD*%
D35*
%TO.C,JST1*%
X189848035Y-150952569D03*
D36*
X191848035Y-150952569D03*
%TD*%
M02*
