%TF.GenerationSoftware,KiCad,Pcbnew,9.0.4*%
%TF.CreationDate,2025-10-25T14:25:05+08:00*%
%TF.ProjectId,sterna,73746572-6e61-42e6-9b69-6361645f7063,v1.0.0*%
%TF.SameCoordinates,Original*%
%TF.FileFunction,Paste,Bot*%
%TF.FilePolarity,Positive*%
%FSLAX46Y46*%
G04 Gerber Fmt 4.6, Leading zero omitted, Abs format (unit mm)*
G04 Created by KiCad (PCBNEW 9.0.4) date 2025-10-25 14:25:05*
%MOMM*%
%LPD*%
G01*
G04 APERTURE LIST*
G04 Aperture macros list*
%AMRotRect*
0 Rectangle, with rotation*
0 The origin of the aperture is its center*
0 $1 length*
0 $2 width*
0 $3 Rotation angle, in degrees counterclockwise*
0 Add horizontal line*
21,1,$1,$2,0,0,$3*%
G04 Aperture macros list end*
%ADD10R,0.900000X0.900000*%
%ADD11R,0.900000X1.250000*%
%ADD12RotRect,2.600000X2.600000X37.000000*%
%ADD13RotRect,2.600000X2.600000X30.000000*%
%ADD14RotRect,2.600000X2.600000X16.000000*%
%ADD15RotRect,2.600000X2.600000X344.000000*%
%ADD16RotRect,2.600000X2.600000X338.000000*%
%ADD17RotRect,2.600000X2.600000X23.000000*%
%ADD18RotRect,2.600000X2.600000X337.000000*%
%ADD19RotRect,2.600000X2.600000X7.000000*%
%ADD20RotRect,2.600000X2.600000X353.000000*%
%ADD21RotRect,2.600000X2.600000X22.000000*%
%ADD22RotRect,2.600000X2.600000X330.000000*%
%ADD23RotRect,2.600000X2.600000X323.000000*%
%ADD24RotRect,1.550000X1.000000X113.000000*%
G04 APERTURE END LIST*
D10*
%TO.C,T1*%
X165137528Y-133552132D03*
X165137528Y-135752132D03*
X172537528Y-133552132D03*
X172537528Y-135752132D03*
D11*
X166587528Y-136727132D03*
X169587528Y-136727133D03*
X171087528Y-136727132D03*
%TD*%
D12*
%TO.C,S30*%
X190166403Y-174280523D03*
X200714637Y-169086557D03*
%TD*%
D13*
%TO.C,S29*%
X206449782Y-163023265D03*
X217552375Y-159153520D03*
%TD*%
D14*
%TO.C,S16*%
X249052366Y-123990776D03*
X260761339Y-122921941D03*
%TD*%
D15*
%TO.C,S3*%
X83426427Y-122185352D03*
X93922598Y-127483739D03*
%TD*%
D16*
%TO.C,S7*%
X110399741Y-105234262D03*
X120284580Y-111600772D03*
%TD*%
D17*
%TO.C,S23*%
X207950544Y-121676816D03*
X219441985Y-119188982D03*
%TD*%
%TO.C,S24*%
X201308115Y-106028234D03*
X212799556Y-103540400D03*
%TD*%
D18*
%TO.C,S10*%
X124795207Y-119117528D03*
X134567429Y-125655583D03*
%TD*%
D19*
%TO.C,S14*%
X269852952Y-128390480D03*
X281584972Y-129166492D03*
%TD*%
D20*
%TO.C,S2*%
X64492710Y-110718954D03*
X75688504Y-114310147D03*
%TD*%
D15*
%TO.C,S4*%
X88112265Y-105843904D03*
X98608436Y-111142291D03*
%TD*%
D17*
%TO.C,S25*%
X195093401Y-137454774D03*
X206584842Y-134966940D03*
%TD*%
D18*
%TO.C,S12*%
X137652349Y-134895485D03*
X147424571Y-141433540D03*
%TD*%
%TO.C,S9*%
X118152779Y-134766110D03*
X127925001Y-141304165D03*
%TD*%
D19*
%TO.C,S15*%
X267781173Y-111517196D03*
X279513193Y-112293208D03*
%TD*%
D16*
%TO.C,S8*%
X116768053Y-89472137D03*
X126652892Y-95838647D03*
%TD*%
D21*
%TO.C,S21*%
X215933953Y-91925810D03*
X227467061Y-89638908D03*
%TD*%
D15*
%TO.C,S5*%
X92798098Y-89502456D03*
X103294269Y-94800843D03*
%TD*%
D14*
%TO.C,S18*%
X239680695Y-91307879D03*
X251389668Y-90239044D03*
%TD*%
D21*
%TO.C,S20*%
X222302265Y-107687933D03*
X233835373Y-105401031D03*
%TD*%
D16*
%TO.C,S6*%
X104031427Y-120996386D03*
X113916266Y-127362896D03*
%TD*%
D18*
%TO.C,S13*%
X144294776Y-119246901D03*
X154066998Y-125784956D03*
%TD*%
D14*
%TO.C,S17*%
X244366529Y-107649328D03*
X256075502Y-106580493D03*
%TD*%
D22*
%TO.C,S27*%
X126652809Y-159748266D03*
X135555402Y-167428520D03*
%TD*%
D18*
%TO.C,S11*%
X131437634Y-103468945D03*
X141209856Y-110007000D03*
%TD*%
D17*
%TO.C,S26*%
X188450972Y-121806192D03*
X199942413Y-119318358D03*
%TD*%
D21*
%TO.C,S19*%
X228670576Y-123450059D03*
X240203684Y-121163157D03*
%TD*%
D17*
%TO.C,S22*%
X214592970Y-137325399D03*
X226084411Y-134837565D03*
%TD*%
D23*
%TO.C,S28*%
X143377592Y-170338634D03*
X151277838Y-179046595D03*
%TD*%
D20*
%TO.C,S1*%
X62420929Y-127592237D03*
X73616723Y-131183430D03*
%TD*%
D24*
%TO.C,B1*%
X184594845Y-128141529D03*
X182543506Y-123308878D03*
X186159702Y-127477286D03*
X184108363Y-122644635D03*
%TD*%
M02*
