%TF.GenerationSoftware,KiCad,Pcbnew,9.0.4*%
%TF.CreationDate,2025-10-25T19:08:00+08:00*%
%TF.ProjectId,sterna,73746572-6e61-42e6-9b69-6361645f7063,v1.0.0*%
%TF.SameCoordinates,Original*%
%TF.FileFunction,Profile,NP*%
%FSLAX46Y46*%
G04 Gerber Fmt 4.6, Leading zero omitted, Abs format (unit mm)*
G04 Created by KiCad (PCBNEW 9.0.4) date 2025-10-25 19:08:00*
%MOMM*%
%LPD*%
G01*
G04 APERTURE LIST*
%TA.AperFunction,Profile*%
%ADD10C,0.150000*%
%TD*%
G04 APERTURE END LIST*
D10*
X123287169Y-161643315D02*
X82895177Y-146761297D01*
X201086883Y-191465272D02*
X196451519Y-185313930D01*
X65664233Y-108825563D02*
G75*
G02*
X67893066Y-107084149I1985172J-243772D01*
G01*
X270495555Y-109172458D02*
G75*
G02*
X268362688Y-107843909I-243750J1985019D01*
G01*
X236558837Y-85227974D02*
X239515941Y-89215387D01*
X158944553Y-185313928D02*
X154309189Y-191465273D01*
X241673663Y-89946555D02*
G75*
G02*
X239515927Y-89215397I-551259J1922618D01*
G01*
X201323527Y-107850360D02*
G75*
G02*
X202513639Y-105673272I1971477J336119D01*
G01*
X272500893Y-146761298D02*
G75*
G02*
X272948596Y-146652886I691313J-1876237D01*
G01*
X202432691Y-114356009D02*
X201323530Y-107850362D01*
X202432691Y-114356007D02*
G75*
G02*
X201242607Y-116533165I-1971588J-336128D01*
G01*
X123287169Y-161643315D02*
G75*
G02*
X124327824Y-164520015I-691465J-1876720D01*
G01*
X241673661Y-89946557D02*
X258468484Y-85130718D01*
X166414045Y-123910179D02*
X163589709Y-130563893D01*
X218226813Y-181685357D02*
G75*
G02*
X218334980Y-181613763I1158693J-1633079D01*
G01*
X217287693Y-91399261D02*
X234203175Y-84564961D01*
X177034312Y-178595388D02*
G75*
G02*
X178361752Y-178595407I663693J-1886652D01*
G01*
X61581607Y-142075854D02*
X65664232Y-108825562D01*
X154153465Y-116533153D02*
X165354494Y-121287709D01*
X258468481Y-85130717D02*
G75*
G02*
X260908915Y-86396684I551325J-1922422D01*
G01*
X154153465Y-116533153D02*
G75*
G02*
X152963404Y-114356013I781340J1840917D01*
G01*
X217017940Y-97719781D02*
X216088439Y-93704703D01*
X151554539Y-191892739D02*
X137169258Y-181685355D01*
X217017940Y-97719781D02*
G75*
G02*
X215850939Y-100011881I-1948532J-451057D01*
G01*
X165430716Y-133345355D02*
G75*
G02*
X163589800Y-130563932I-11J1999920D01*
G01*
X94487151Y-86396688D02*
G75*
G02*
X96927584Y-85130727I1889153J-656550D01*
G01*
X233351702Y-172360385D02*
X218334980Y-181613763D01*
X158944553Y-185313928D02*
G75*
G02*
X159878105Y-184630912I1597452J-1203910D01*
G01*
X231068290Y-164519989D02*
G75*
G02*
X232108909Y-161643350I1732118J999950D01*
G01*
X115880128Y-89215388D02*
G75*
G02*
X113722393Y-89946600I-1606522J1191451D01*
G01*
X293814459Y-142075858D02*
G75*
G02*
X292073112Y-144304700I-1985054J-243779D01*
G01*
X96927588Y-85130716D02*
X113722406Y-89946553D01*
X191806360Y-130563897D02*
G75*
G02*
X189965350Y-133345368I-1841054J-781439D01*
G01*
X87033416Y-107843926D02*
G75*
G02*
X84900524Y-109172384I-1889109J656589D01*
G01*
X292073110Y-144304686D02*
X272948596Y-146652882D01*
X63322960Y-144304688D02*
G75*
G02*
X61581545Y-142075846I243745J1985153D01*
G01*
X154072541Y-107850360D02*
X152963377Y-114356008D01*
X115880127Y-89215386D02*
X118837235Y-85227973D01*
X165354494Y-121287709D02*
G75*
G02*
X166414055Y-123910183I-781489J-1841031D01*
G01*
X121192896Y-84564963D02*
X138108376Y-91399261D01*
X260908921Y-86396687D02*
X268362655Y-107843921D01*
X121361524Y-169657687D02*
X124327779Y-164519989D01*
X234034547Y-169657692D02*
G75*
G02*
X233351714Y-172360404I-1731939J-1000044D01*
G01*
X82447475Y-146652883D02*
X63322961Y-144304689D01*
X138108375Y-91399259D02*
G75*
G02*
X139307667Y-93704710I-749169J-1854377D01*
G01*
X272500893Y-146761298D02*
X232108896Y-161643316D01*
X287503009Y-107084204D02*
G75*
G02*
X289731828Y-108825559I243696J-1985133D01*
G01*
X137061088Y-181613761D02*
X122044364Y-172360382D01*
X195517965Y-184630904D02*
G75*
G02*
X196451523Y-185313927I-663760J-1886734D01*
G01*
X139545139Y-100011862D02*
G75*
G02*
X138378176Y-97719787I781368J1840923D01*
G01*
X195517965Y-184630904D02*
X178361756Y-178595395D01*
X289731838Y-108825558D02*
X293814462Y-142075858D01*
X190041573Y-121287710D02*
X201242602Y-116533154D01*
X188982023Y-123910182D02*
G75*
G02*
X190041587Y-121287742I1840985J781445D01*
G01*
X270495555Y-109172460D02*
X287503009Y-107084208D01*
X203841536Y-191892738D02*
G75*
G02*
X201086921Y-191465244I-1157330J1631201D01*
G01*
X139307632Y-93704702D02*
X138378130Y-97719776D01*
X218226813Y-181685357D02*
X203841532Y-191892738D01*
X137061088Y-181613761D02*
G75*
G02*
X137169255Y-181685359I-1051382J-1705876D01*
G01*
X202513617Y-105673220D02*
X215850931Y-100011863D01*
X234203175Y-84564961D02*
G75*
G02*
X236558854Y-85227961I749230J-1854375D01*
G01*
X154309186Y-191465272D02*
G75*
G02*
X151554533Y-191892747I-1597279J1203639D01*
G01*
X152882455Y-105673221D02*
G75*
G02*
X154072559Y-107850363I-781447J-1841015D01*
G01*
X67893059Y-107084206D02*
X84900515Y-109172457D01*
X191806355Y-130563891D02*
X188982023Y-123910182D01*
X216088438Y-93704704D02*
G75*
G02*
X217287698Y-91399272I1948469J451065D01*
G01*
X165430722Y-133345354D02*
X189965350Y-133345361D01*
X122044364Y-172360382D02*
G75*
G02*
X121361503Y-169657675I1049343J1702744D01*
G01*
X231068290Y-164519989D02*
X234034547Y-169657692D01*
X139545139Y-100011862D02*
X152882453Y-105673220D01*
X177034312Y-178595388D02*
X159878101Y-184630900D01*
X87033413Y-107843923D02*
X94487151Y-86396684D01*
X82447475Y-146652883D02*
G75*
G02*
X82895175Y-146761303I-243771J-1985156D01*
G01*
X118837235Y-85227973D02*
G75*
G02*
X121192918Y-84564908I1606470J-1191263D01*
G01*
M02*
