%TF.GenerationSoftware,KiCad,Pcbnew,9.0.4*%
%TF.CreationDate,2025-10-25T19:07:59+08:00*%
%TF.ProjectId,sterna,73746572-6e61-42e6-9b69-6361645f7063,v1.0.0*%
%TF.SameCoordinates,Original*%
%TF.FileFunction,Paste,Top*%
%TF.FilePolarity,Positive*%
%FSLAX46Y46*%
G04 Gerber Fmt 4.6, Leading zero omitted, Abs format (unit mm)*
G04 Created by KiCad (PCBNEW 9.0.4) date 2025-10-25 19:07:59*
%MOMM*%
%LPD*%
G01*
G04 APERTURE LIST*
G04 Aperture macros list*
%AMRotRect*
0 Rectangle, with rotation*
0 The origin of the aperture is its center*
0 $1 length*
0 $2 width*
0 $3 Rotation angle, in degrees counterclockwise*
0 Add horizontal line*
21,1,$1,$2,0,0,$3*%
G04 Aperture macros list end*
%ADD10RotRect,0.900000X1.200000X337.000000*%
%ADD11RotRect,0.900000X1.200000X22.000000*%
%ADD12RotRect,0.900000X1.200000X23.000000*%
%ADD13RotRect,0.900000X1.200000X16.000000*%
%ADD14RotRect,0.900000X1.200000X338.000000*%
%ADD15RotRect,0.900000X1.200000X37.000000*%
%ADD16RotRect,0.900000X1.200000X30.000000*%
%ADD17RotRect,0.900000X1.200000X7.000000*%
%ADD18RotRect,0.900000X1.200000X353.000000*%
%ADD19RotRect,0.900000X1.200000X344.000000*%
%ADD20RotRect,0.900000X1.200000X330.000000*%
%ADD21RotRect,0.900000X1.200000X323.000000*%
G04 APERTURE END LIST*
D10*
%TO.C,D13*%
X149939814Y-130985653D03*
X152977480Y-132275065D03*
%TD*%
D11*
%TO.C,D19*%
X242477315Y-134016267D03*
X245537021Y-132780065D03*
%TD*%
D12*
%TO.C,D26*%
X202418589Y-132275068D03*
X205456255Y-130985656D03*
%TD*%
D11*
%TO.C,D20*%
X236109001Y-118254143D03*
X239168707Y-117017941D03*
%TD*%
D10*
%TO.C,D10*%
X130440245Y-130856278D03*
X133477911Y-132145690D03*
%TD*%
D12*
%TO.C,D25*%
X209061015Y-147923645D03*
X212098681Y-146634233D03*
%TD*%
D13*
%TO.C,D18*%
X252488787Y-102397843D03*
X255660951Y-101488239D03*
%TD*%
D10*
%TO.C,D9*%
X123797817Y-146504860D03*
X126835483Y-147794272D03*
%TD*%
D13*
%TO.C,D16*%
X261860461Y-135080741D03*
X265032625Y-134171137D03*
%TD*%
D14*
%TO.C,D7*%
X116227363Y-117017943D03*
X119287069Y-118254145D03*
%TD*%
%TO.C,D6*%
X109859048Y-132780068D03*
X112918754Y-134016270D03*
%TD*%
D15*
%TO.C,D30*%
X206184021Y-183108479D03*
X208819519Y-181122489D03*
%TD*%
D14*
%TO.C,D8*%
X122595673Y-101255816D03*
X125655379Y-102492018D03*
%TD*%
D16*
%TO.C,D29*%
X221492581Y-172734373D03*
X224350467Y-171084373D03*
%TD*%
D12*
%TO.C,D24*%
X215275728Y-116497108D03*
X218313394Y-115207696D03*
%TD*%
D17*
%TO.C,D14*%
X281074252Y-140063494D03*
X284349654Y-139661328D03*
%TD*%
D10*
%TO.C,D11*%
X137082674Y-115207696D03*
X140120340Y-116497108D03*
%TD*%
D18*
%TO.C,D1*%
X71046413Y-139661332D03*
X74321815Y-140063498D03*
%TD*%
%TO.C,D2*%
X73118189Y-122788046D03*
X76393591Y-123190212D03*
%TD*%
D19*
%TO.C,D5*%
X99735116Y-101488240D03*
X102907282Y-102397844D03*
%TD*%
D12*
%TO.C,D23*%
X221918158Y-132145690D03*
X224955824Y-130856278D03*
%TD*%
D19*
%TO.C,D4*%
X95049278Y-117829688D03*
X98221444Y-118739292D03*
%TD*%
D10*
%TO.C,D12*%
X143297386Y-146634237D03*
X146335052Y-147923649D03*
%TD*%
D13*
%TO.C,D17*%
X257174627Y-118739292D03*
X260346791Y-117829688D03*
%TD*%
D17*
%TO.C,D15*%
X279002474Y-123190210D03*
X282277876Y-122788044D03*
%TD*%
D12*
%TO.C,D22*%
X228560589Y-147794274D03*
X231598255Y-146504862D03*
%TD*%
D11*
%TO.C,D21*%
X229740690Y-102492018D03*
X232800396Y-101255816D03*
%TD*%
D20*
%TO.C,D27*%
X131045606Y-171084373D03*
X133903488Y-172734371D03*
%TD*%
D21*
%TO.C,D28*%
X146576555Y-181122488D03*
X149212053Y-183108478D03*
%TD*%
D19*
%TO.C,D3*%
X90363446Y-134171137D03*
X93535612Y-135080741D03*
%TD*%
M02*
