M48
; DRILL file {KiCad 9.0.4} date 2025-10-25T14:12:21+0800
; FORMAT={-:-/ absolute / metric / decimal}
; #@! TF.CreationDate,2025-10-25T14:12:21+08:00
; #@! TF.GenerationSoftware,Kicad,Pcbnew,9.0.4
; #@! TF.FileFunction,Plated,1,2,PTH
FMAT,2
METRIC
; #@! TA.AperFunction,Plated,PTH,ViaDrill
T1C0.400
; #@! TA.AperFunction,Plated,PTH,ComponentDrill
T2C0.700
; #@! TA.AperFunction,Plated,PTH,ComponentDrill
T3C0.750
; #@! TA.AperFunction,Plated,PTH,ComponentDrill
T4C1.000
; #@! TA.AperFunction,Plated,PTH,ComponentDrill
T5C2.200
%
G90
G05
T1
X69.965Y-120.264
X72.478Y-137.952
X92.399Y-132.553
X96.981Y-117.118
X101.513Y-97.143
X112.535Y-130.577
X118.71Y-115.627
X125.401Y-98.998
X126.29Y-145.249
X127.469Y-170.044
X133.083Y-129.388
X133.779Y-151.552
X137.849Y-161.003
X139.536Y-114.2
X146.108Y-144.749
X147.686Y-183.258
X152.844Y-128.869
X177.011Y-158.759
X188.348Y-171.473
X198.098Y-174.305
X201.328Y-122.816
X208.321Y-138.997
X214.33Y-107.287
X219.385Y-161.937
X221.126Y-123.308
X227.52Y-138.466
X229.036Y-93.634
X235.502Y-109.438
X241.688Y-124.815
X252.578Y-94.454
X257.23Y-110.753
X262.087Y-127.617
X280.038Y-117.266
X282.147Y-134.034
T2
X164.943Y-144.835
X168.118Y-139.12
T3
X181.538Y-149.652
X183.538Y-149.652
T4
X161.768Y-137.532
X161.768Y-142.612
X161.768Y-145.152
X161.768Y-147.692
X161.768Y-152.772
X161.768Y-140.072
X161.768Y-150.232
X177.008Y-140.072
X177.008Y-150.232
X177.008Y-137.532
X177.008Y-142.612
X177.008Y-145.152
X177.008Y-147.692
X177.008Y-152.772
T5
X143.171Y-161.627
X153.477Y-137.349
X185.298Y-137.349
X195.604Y-161.627
M30
