%TF.GenerationSoftware,KiCad,Pcbnew,9.0.4*%
%TF.CreationDate,2025-10-25T14:25:06+08:00*%
%TF.ProjectId,sterna,73746572-6e61-42e6-9b69-6361645f7063,v1.0.0*%
%TF.SameCoordinates,Original*%
%TF.FileFunction,Soldermask,Top*%
%TF.FilePolarity,Negative*%
%FSLAX46Y46*%
G04 Gerber Fmt 4.6, Leading zero omitted, Abs format (unit mm)*
G04 Created by KiCad (PCBNEW 9.0.4) date 2025-10-25 14:25:06*
%MOMM*%
%LPD*%
G01*
G04 APERTURE LIST*
G04 Aperture macros list*
%AMRotRect*
0 Rectangle, with rotation*
0 The origin of the aperture is its center*
0 $1 length*
0 $2 width*
0 $3 Rotation angle, in degrees counterclockwise*
0 Add horizontal line*
21,1,$1,$2,0,0,$3*%
G04 Aperture macros list end*
%ADD10C,1.000000*%
%ADD11RotRect,0.900000X1.200000X337.000000*%
%ADD12C,1.701800*%
%ADD13C,3.000000*%
%ADD14C,3.429000*%
%ADD15O,2.750000X1.800000*%
%ADD16R,2.750000X1.800000*%
%ADD17C,2.000000*%
%ADD18RotRect,0.900000X1.200000X22.000000*%
%ADD19C,4.400000*%
%ADD20RotRect,0.900000X1.200000X23.000000*%
%ADD21C,2.200000*%
%ADD22RotRect,0.900000X1.200000X16.000000*%
%ADD23RotRect,0.900000X1.200000X338.000000*%
%ADD24R,1.200000X1.700000*%
%ADD25O,1.200000X1.700000*%
%ADD26RotRect,0.900000X1.200000X37.000000*%
%ADD27RotRect,0.900000X1.200000X30.000000*%
%ADD28RotRect,0.900000X1.200000X7.000000*%
%ADD29RotRect,0.900000X1.200000X353.000000*%
%ADD30RotRect,0.900000X1.200000X344.000000*%
%ADD31RotRect,0.900000X1.200000X330.000000*%
%ADD32RotRect,0.900000X1.200000X323.000000*%
%ADD33C,0.750000*%
G04 APERTURE END LIST*
D10*
%TO.C,T1*%
X167337528Y-134652132D03*
X170337528Y-134652132D03*
%TD*%
D11*
%TO.C,D13*%
X141629309Y-129685216D03*
X144666975Y-130974628D03*
%TD*%
D12*
%TO.C,S30*%
X191970239Y-180371442D03*
D13*
X192781935Y-172309578D03*
D14*
X196362734Y-177061459D03*
D13*
X198099105Y-171057501D03*
D12*
X200755229Y-173751476D03*
%TD*%
D15*
%TO.C,MCU1*%
X161292529Y-137532132D03*
X161292530Y-140072132D03*
X161292529Y-142612132D03*
X161292529Y-145152132D03*
X161292529Y-147692132D03*
X161292530Y-150232132D03*
X161292529Y-152772132D03*
X177482529Y-152772132D03*
X177482528Y-150232132D03*
X177482529Y-147692132D03*
X177482529Y-145152132D03*
X177482529Y-142612132D03*
D16*
X177482528Y-140072132D03*
D15*
X177482529Y-137532132D03*
D17*
X168117530Y-139120132D03*
X164942529Y-144835132D03*
%TD*%
D12*
%TO.C,S29*%
X207497875Y-169288616D03*
D13*
X209286015Y-161385765D03*
D14*
X212261015Y-166538616D03*
D13*
X214716142Y-160791021D03*
D12*
X217024155Y-163788616D03*
%TD*%
D18*
%TO.C,D19*%
X234166809Y-132715831D03*
X237226515Y-131479629D03*
%TD*%
D19*
%TO.C,PAD2*%
X185298255Y-137348603D03*
%TD*%
D20*
%TO.C,D26*%
X194108082Y-130974628D03*
X197145748Y-129685216D03*
%TD*%
D21*
%TO.C,PAD7*%
X104003111Y-100262244D03*
%TD*%
D12*
%TO.C,S16*%
X248553601Y-130323576D03*
D13*
X252200498Y-123088064D03*
D14*
X253840540Y-128807571D03*
D13*
X257613208Y-123824653D03*
D12*
X259127479Y-127291566D03*
%TD*%
%TO.C,S3*%
X79647578Y-127291566D03*
D13*
X86574559Y-123088063D03*
D14*
X84934517Y-128807571D03*
D13*
X90774466Y-126581025D03*
D12*
X90221456Y-130323576D03*
%TD*%
D19*
%TO.C,PAD4*%
X195603788Y-161626917D03*
%TD*%
D18*
%TO.C,D20*%
X227798497Y-116953707D03*
X230858203Y-115717505D03*
%TD*%
D19*
%TO.C,PAD3*%
X143171271Y-161626918D03*
%TD*%
D12*
%TO.C,S7*%
X106107848Y-109917506D03*
D13*
X113436268Y-106461098D03*
D14*
X111207359Y-111977842D03*
D13*
X117248053Y-110373936D03*
D12*
X116306870Y-114038178D03*
%TD*%
D21*
%TO.C,PAD5*%
X134463182Y-171800039D03*
%TD*%
D12*
%TO.C,S23*%
X208227272Y-128023196D03*
D13*
X210965199Y-120397171D03*
D14*
X213290049Y-125874175D03*
D13*
X216427332Y-120468626D03*
D12*
X218352826Y-123725154D03*
%TD*%
D11*
%TO.C,D10*%
X122129739Y-129555842D03*
X125167405Y-130845254D03*
%TD*%
D12*
%TO.C,S24*%
X201584843Y-112374614D03*
D13*
X204322770Y-104748589D03*
D14*
X206647620Y-110225593D03*
D13*
X209784903Y-104820044D03*
D12*
X211710397Y-108076572D03*
%TD*%
D20*
%TO.C,D25*%
X200750510Y-146623211D03*
X203788176Y-145333799D03*
%TD*%
D22*
%TO.C,D18*%
X244178283Y-101097407D03*
X247350447Y-100187803D03*
%TD*%
D21*
%TO.C,PAD8*%
X234771947Y-100262244D03*
%TD*%
D11*
%TO.C,D9*%
X115487311Y-145204426D03*
X118524977Y-146493838D03*
%TD*%
D22*
%TO.C,D16*%
X253549956Y-133780304D03*
X256722120Y-132870700D03*
%TD*%
D23*
%TO.C,D7*%
X107916857Y-115717503D03*
X110976563Y-116953705D03*
%TD*%
%TO.C,D6*%
X101548544Y-131479631D03*
X104608250Y-132715833D03*
%TD*%
D12*
%TO.C,S10*%
X120422233Y-123725155D03*
D13*
X127809860Y-120397172D03*
D14*
X125485010Y-125874176D03*
D13*
X131552776Y-124375938D03*
D12*
X130547787Y-128023197D03*
%TD*%
%TO.C,S14*%
X268369659Y-134567289D03*
D13*
X273103540Y-127991358D03*
D14*
X273828663Y-133897008D03*
D13*
X278334384Y-129565613D03*
D12*
X279287667Y-133226727D03*
%TD*%
D24*
%TO.C,JST1*%
X181537529Y-149652132D03*
D25*
X183537529Y-149652132D03*
%TD*%
D26*
%TO.C,D30*%
X197873517Y-181808042D03*
X200509015Y-179822052D03*
%TD*%
D12*
%TO.C,S2*%
X61559171Y-116353445D03*
D13*
X67743298Y-111118076D03*
D14*
X67018175Y-117023726D03*
D13*
X72437917Y-113911026D03*
D12*
X72477179Y-117694007D03*
%TD*%
%TO.C,S4*%
X84333416Y-110950118D03*
D13*
X91260397Y-106746615D03*
D14*
X89620355Y-112466123D03*
D13*
X95460304Y-110239577D03*
D12*
X94907294Y-113982128D03*
%TD*%
D23*
%TO.C,D8*%
X114285168Y-99955380D03*
X117344874Y-101191582D03*
%TD*%
D12*
%TO.C,S25*%
X195370129Y-143801154D03*
D13*
X198108056Y-136175129D03*
D14*
X200432906Y-141652133D03*
D13*
X203570189Y-136246584D03*
D12*
X205495683Y-139503112D03*
%TD*%
D19*
%TO.C,PAD1*%
X153476803Y-137348603D03*
%TD*%
D27*
%TO.C,D29*%
X213182075Y-171433935D03*
X216039961Y-169783935D03*
%TD*%
D21*
%TO.C,PAD6*%
X204311877Y-171800037D03*
%TD*%
D20*
%TO.C,D24*%
X206965223Y-115196673D03*
X210002889Y-113907261D03*
%TD*%
D28*
%TO.C,D14*%
X272763748Y-138763058D03*
X276039150Y-138360892D03*
%TD*%
D12*
%TO.C,S12*%
X133279375Y-139503112D03*
D13*
X140667002Y-136175129D03*
D14*
X138342152Y-141652133D03*
D13*
X144409918Y-140153895D03*
D12*
X143404929Y-143801154D03*
%TD*%
%TO.C,S9*%
X113779805Y-139373737D03*
D13*
X121167432Y-136045754D03*
D14*
X118842582Y-141522758D03*
D13*
X124910348Y-140024520D03*
D12*
X123905359Y-143671779D03*
%TD*%
%TO.C,S15*%
X266297880Y-117694005D03*
D13*
X271031761Y-111118074D03*
D14*
X271756884Y-117023724D03*
D13*
X276262605Y-112692329D03*
D12*
X277215888Y-116353443D03*
%TD*%
D11*
%TO.C,D11*%
X128772167Y-113907260D03*
X131809833Y-115196672D03*
%TD*%
D29*
%TO.C,D1*%
X62735907Y-138360892D03*
X66011309Y-138763058D03*
%TD*%
%TO.C,D2*%
X64807687Y-121487608D03*
X68083089Y-121889774D03*
%TD*%
D12*
%TO.C,S8*%
X112476160Y-94155381D03*
D13*
X119804580Y-90698973D03*
D14*
X117575671Y-96215717D03*
D13*
X123616365Y-94611811D03*
D12*
X122675182Y-98276053D03*
%TD*%
D30*
%TO.C,D5*%
X91424609Y-100187804D03*
X94596775Y-101097408D03*
%TD*%
D12*
%TO.C,S21*%
X216099878Y-98276053D03*
D13*
X218970480Y-90698973D03*
D14*
X221199389Y-96215717D03*
D13*
X224430534Y-90865746D03*
D12*
X226298900Y-94155381D03*
%TD*%
D21*
%TO.C,PAD10*%
X261892359Y-118738692D03*
%TD*%
D20*
%TO.C,D23*%
X213607652Y-130845255D03*
X216645318Y-129555843D03*
%TD*%
D12*
%TO.C,S5*%
X89019249Y-94608670D03*
D13*
X95946230Y-90405167D03*
D14*
X94306188Y-96124675D03*
D13*
X100146137Y-93898129D03*
D12*
X99593127Y-97640680D03*
%TD*%
D30*
%TO.C,D4*%
X86738774Y-116529251D03*
X89910940Y-117438855D03*
%TD*%
D12*
%TO.C,S18*%
X239181930Y-97640679D03*
D13*
X242828827Y-90405167D03*
D14*
X244468869Y-96124674D03*
D13*
X248241537Y-91141756D03*
D12*
X249755808Y-94608669D03*
%TD*%
%TO.C,S20*%
X222468190Y-114038176D03*
D13*
X225338792Y-106461096D03*
D14*
X227567701Y-111977840D03*
D13*
X230798846Y-106627869D03*
D12*
X232667212Y-109917504D03*
%TD*%
%TO.C,S6*%
X99739534Y-125679630D03*
D13*
X107067954Y-122223222D03*
D14*
X104839045Y-127739966D03*
D13*
X110879739Y-126136060D03*
D12*
X109938556Y-129800302D03*
%TD*%
D11*
%TO.C,D12*%
X134986880Y-145333799D03*
X138024546Y-146623211D03*
%TD*%
D21*
%TO.C,PAD9*%
X76882703Y-118738692D03*
%TD*%
D12*
%TO.C,S13*%
X139921802Y-123854528D03*
D13*
X147309429Y-120526545D03*
D14*
X144984579Y-126003549D03*
D13*
X151052345Y-124505311D03*
D12*
X150047356Y-128152570D03*
%TD*%
D22*
%TO.C,D17*%
X248864120Y-117438855D03*
X252036284Y-116529251D03*
%TD*%
D12*
%TO.C,S17*%
X243867764Y-113982128D03*
D13*
X247514661Y-106746616D03*
D14*
X249154703Y-112466123D03*
D13*
X252927371Y-107483205D03*
D12*
X254441642Y-110950118D03*
%TD*%
%TO.C,S27*%
X121750902Y-163788617D03*
D13*
X129489042Y-161385766D03*
D14*
X126514042Y-166538617D03*
D13*
X132719170Y-165791021D03*
D12*
X131277182Y-169288617D03*
%TD*%
%TO.C,S11*%
X127064660Y-108076572D03*
D13*
X134452287Y-104748589D03*
D14*
X132127437Y-110225593D03*
D13*
X138195203Y-108727355D03*
D12*
X137190214Y-112374614D03*
%TD*%
D28*
%TO.C,D15*%
X270691969Y-121889774D03*
X273967371Y-121487608D03*
%TD*%
D12*
%TO.C,S26*%
X188727700Y-128152572D03*
D13*
X191465627Y-120526547D03*
D14*
X193790477Y-126003551D03*
D13*
X196927760Y-120598002D03*
D12*
X198853254Y-123854530D03*
%TD*%
D20*
%TO.C,D22*%
X220250083Y-146493838D03*
X223287749Y-145204426D03*
%TD*%
D18*
%TO.C,D21*%
X221430186Y-101191581D03*
X224489892Y-99955379D03*
%TD*%
D31*
%TO.C,D27*%
X122735102Y-169783935D03*
X125592984Y-171433935D03*
%TD*%
D12*
%TO.C,S19*%
X228836501Y-129800302D03*
D13*
X231707103Y-122223222D03*
D14*
X233936012Y-127739966D03*
D13*
X237167157Y-122389995D03*
D12*
X239035523Y-125679630D03*
%TD*%
%TO.C,S22*%
X214869698Y-143671779D03*
D13*
X217607625Y-136045754D03*
D14*
X219932475Y-141522758D03*
D13*
X223069758Y-136117209D03*
D12*
X224995252Y-139373737D03*
%TD*%
D32*
%TO.C,D28*%
X138266047Y-179822052D03*
X140901545Y-181808042D03*
%TD*%
D12*
%TO.C,S28*%
X138019828Y-173751476D03*
D13*
X145993122Y-172309578D03*
D14*
X142412323Y-177061459D03*
D13*
X148662307Y-177075651D03*
D12*
X146804818Y-180371442D03*
%TD*%
D30*
%TO.C,D3*%
X82052939Y-132870700D03*
X85225105Y-133780304D03*
%TD*%
D12*
%TO.C,S1*%
X59487390Y-133226728D03*
D13*
X65671517Y-127991359D03*
D14*
X64946394Y-133897009D03*
D13*
X70366136Y-130784309D03*
D12*
X70405398Y-134567290D03*
%TD*%
D33*
%TO.C,B1*%
X185617298Y-124855828D03*
X183085910Y-125930336D03*
%TD*%
M02*
