%TF.GenerationSoftware,KiCad,Pcbnew,9.0.4*%
%TF.CreationDate,2025-10-25T14:25:05+08:00*%
%TF.ProjectId,sterna,73746572-6e61-42e6-9b69-6361645f7063,v1.0.0*%
%TF.SameCoordinates,Original*%
%TF.FileFunction,Copper,L1,Top*%
%TF.FilePolarity,Positive*%
%FSLAX46Y46*%
G04 Gerber Fmt 4.6, Leading zero omitted, Abs format (unit mm)*
G04 Created by KiCad (PCBNEW 9.0.4) date 2025-10-25 14:25:05*
%MOMM*%
%LPD*%
G01*
G04 APERTURE LIST*
G04 Aperture macros list*
%AMRotRect*
0 Rectangle, with rotation*
0 The origin of the aperture is its center*
0 $1 length*
0 $2 width*
0 $3 Rotation angle, in degrees counterclockwise*
0 Add horizontal line*
21,1,$1,$2,0,0,$3*%
G04 Aperture macros list end*
%TA.AperFunction,WasherPad*%
%ADD10C,1.000000*%
%TD*%
%TA.AperFunction,SMDPad,CuDef*%
%ADD11RotRect,0.900000X1.200000X337.000000*%
%TD*%
%TA.AperFunction,ComponentPad*%
%ADD12O,2.750000X1.800000*%
%TD*%
%TA.AperFunction,ComponentPad*%
%ADD13R,2.750000X1.800000*%
%TD*%
%TA.AperFunction,ComponentPad*%
%ADD14C,2.000000*%
%TD*%
%TA.AperFunction,SMDPad,CuDef*%
%ADD15RotRect,0.900000X1.200000X22.000000*%
%TD*%
%TA.AperFunction,ComponentPad*%
%ADD16C,4.400000*%
%TD*%
%TA.AperFunction,SMDPad,CuDef*%
%ADD17RotRect,0.900000X1.200000X23.000000*%
%TD*%
%TA.AperFunction,SMDPad,CuDef*%
%ADD18RotRect,0.900000X1.200000X16.000000*%
%TD*%
%TA.AperFunction,SMDPad,CuDef*%
%ADD19RotRect,0.900000X1.200000X338.000000*%
%TD*%
%TA.AperFunction,ComponentPad*%
%ADD20R,1.200000X1.700000*%
%TD*%
%TA.AperFunction,ComponentPad*%
%ADD21O,1.200000X1.700000*%
%TD*%
%TA.AperFunction,SMDPad,CuDef*%
%ADD22RotRect,0.900000X1.200000X37.000000*%
%TD*%
%TA.AperFunction,SMDPad,CuDef*%
%ADD23RotRect,0.900000X1.200000X30.000000*%
%TD*%
%TA.AperFunction,SMDPad,CuDef*%
%ADD24RotRect,0.900000X1.200000X7.000000*%
%TD*%
%TA.AperFunction,SMDPad,CuDef*%
%ADD25RotRect,0.900000X1.200000X353.000000*%
%TD*%
%TA.AperFunction,SMDPad,CuDef*%
%ADD26RotRect,0.900000X1.200000X344.000000*%
%TD*%
%TA.AperFunction,SMDPad,CuDef*%
%ADD27RotRect,0.900000X1.200000X330.000000*%
%TD*%
%TA.AperFunction,SMDPad,CuDef*%
%ADD28RotRect,0.900000X1.200000X323.000000*%
%TD*%
%TA.AperFunction,ViaPad*%
%ADD29C,0.800000*%
%TD*%
%TA.AperFunction,Conductor*%
%ADD30C,0.250000*%
%TD*%
G04 APERTURE END LIST*
D10*
%TO.P,T1,*%
%TO.N,*%
X167337528Y-134652132D03*
X170337528Y-134652132D03*
%TD*%
D11*
%TO.P,D13,1*%
%TO.N,C0*%
X141629309Y-129685216D03*
%TO.P,D13,2*%
%TO.N,inner_top*%
X144666975Y-130974628D03*
%TD*%
D12*
%TO.P,MCU1,1*%
%TO.N,R0*%
X161292529Y-137532132D03*
%TO.P,MCU1,2*%
%TO.N,R1*%
X161292530Y-140072132D03*
%TO.P,MCU1,3*%
%TO.N,R2*%
X161292529Y-142612132D03*
%TO.P,MCU1,4*%
%TO.N,C0*%
X161292529Y-145152132D03*
%TO.P,MCU1,5*%
%TO.N,C1*%
X161292529Y-147692132D03*
%TO.P,MCU1,6*%
%TO.N,C2*%
X161292530Y-150232132D03*
%TO.P,MCU1,7*%
%TO.N,C3*%
X161292529Y-152772132D03*
%TO.P,MCU1,8*%
%TO.N,C4*%
X177482529Y-152772132D03*
%TO.P,MCU1,9*%
%TO.N,R3*%
X177482528Y-150232132D03*
%TO.P,MCU1,10*%
%TO.N,R4*%
X177482529Y-147692132D03*
%TO.P,MCU1,11*%
%TO.N,R5*%
X177482529Y-145152132D03*
%TO.P,MCU1,12*%
%TO.N,VCC*%
X177482529Y-142612132D03*
D13*
%TO.P,MCU1,13*%
%TO.N,GND*%
X177482528Y-140072132D03*
D12*
%TO.P,MCU1,14*%
%TO.N,VUSB*%
X177482529Y-137532132D03*
D14*
%TO.P,MCU1,17*%
%TO.N,RST*%
X168117530Y-139120132D03*
%TO.P,MCU1,19*%
%TO.N,BAT+*%
X164942529Y-144835132D03*
%TD*%
D15*
%TO.P,D19,1*%
%TO.N,C2*%
X234166809Y-132715831D03*
%TO.P,D19,2*%
%TO.N,mirror_middle_bottom*%
X237226515Y-131479629D03*
%TD*%
D16*
%TO.P,PAD2,*%
%TO.N,*%
X185298255Y-137348603D03*
%TD*%
D17*
%TO.P,D26,1*%
%TO.N,C0*%
X194108082Y-130974628D03*
%TO.P,D26,2*%
%TO.N,mirror_inner_top*%
X197145748Y-129685216D03*
%TD*%
D16*
%TO.P,PAD4,*%
%TO.N,*%
X195603788Y-161626917D03*
%TD*%
D15*
%TO.P,D20,1*%
%TO.N,C2*%
X227798497Y-116953707D03*
%TO.P,D20,2*%
%TO.N,mirror_middle_home*%
X230858203Y-115717505D03*
%TD*%
D16*
%TO.P,PAD3,*%
%TO.N,*%
X143171271Y-161626918D03*
%TD*%
D11*
%TO.P,D10,1*%
%TO.N,C1*%
X122129739Y-129555842D03*
%TO.P,D10,2*%
%TO.N,index_home*%
X125167405Y-130845254D03*
%TD*%
D17*
%TO.P,D25,1*%
%TO.N,C0*%
X200750510Y-146623211D03*
%TO.P,D25,2*%
%TO.N,mirror_inner_home*%
X203788176Y-145333799D03*
%TD*%
D18*
%TO.P,D18,1*%
%TO.N,C3*%
X244178283Y-101097407D03*
%TO.P,D18,2*%
%TO.N,mirror_ring_top*%
X247350447Y-100187803D03*
%TD*%
D11*
%TO.P,D9,1*%
%TO.N,C1*%
X115487311Y-145204426D03*
%TO.P,D9,2*%
%TO.N,index_bottom*%
X118524977Y-146493838D03*
%TD*%
D18*
%TO.P,D16,1*%
%TO.N,C3*%
X253549956Y-133780304D03*
%TO.P,D16,2*%
%TO.N,mirror_ring_bottom*%
X256722120Y-132870700D03*
%TD*%
D19*
%TO.P,D7,1*%
%TO.N,C2*%
X107916857Y-115717503D03*
%TO.P,D7,2*%
%TO.N,middle_home*%
X110976563Y-116953705D03*
%TD*%
%TO.P,D6,1*%
%TO.N,C2*%
X101548544Y-131479631D03*
%TO.P,D6,2*%
%TO.N,middle_bottom*%
X104608250Y-132715833D03*
%TD*%
D20*
%TO.P,JST1,1*%
%TO.N,BAT_POS*%
X181537529Y-149652132D03*
D21*
%TO.P,JST1,2*%
%TO.N,GND*%
X183537529Y-149652132D03*
%TD*%
D22*
%TO.P,D30,1*%
%TO.N,C0*%
X197873517Y-181808042D03*
%TO.P,D30,2*%
%TO.N,mirror_reachy_thumb*%
X200509015Y-179822052D03*
%TD*%
D19*
%TO.P,D8,1*%
%TO.N,C2*%
X114285168Y-99955380D03*
%TO.P,D8,2*%
%TO.N,middle_top*%
X117344874Y-101191582D03*
%TD*%
D16*
%TO.P,PAD1,*%
%TO.N,*%
X153476803Y-137348603D03*
%TD*%
D23*
%TO.P,D29,1*%
%TO.N,C4*%
X213182075Y-171433935D03*
%TO.P,D29,2*%
%TO.N,mirror_home_thumb*%
X216039961Y-169783935D03*
%TD*%
D17*
%TO.P,D24,1*%
%TO.N,C1*%
X206965223Y-115196673D03*
%TO.P,D24,2*%
%TO.N,mirror_index_top*%
X210002889Y-113907261D03*
%TD*%
D24*
%TO.P,D14,1*%
%TO.N,C4*%
X272763748Y-138763058D03*
%TO.P,D14,2*%
%TO.N,mirror_pinky_bottom*%
X276039150Y-138360892D03*
%TD*%
D11*
%TO.P,D11,1*%
%TO.N,C1*%
X128772167Y-113907260D03*
%TO.P,D11,2*%
%TO.N,index_top*%
X131809833Y-115196672D03*
%TD*%
D25*
%TO.P,D1,1*%
%TO.N,C4*%
X62735907Y-138360892D03*
%TO.P,D1,2*%
%TO.N,pinky_bottom*%
X66011309Y-138763058D03*
%TD*%
%TO.P,D2,1*%
%TO.N,C4*%
X64807687Y-121487608D03*
%TO.P,D2,2*%
%TO.N,pinky_home*%
X68083089Y-121889774D03*
%TD*%
D26*
%TO.P,D5,1*%
%TO.N,C3*%
X91424609Y-100187804D03*
%TO.P,D5,2*%
%TO.N,ring_top*%
X94596775Y-101097408D03*
%TD*%
D17*
%TO.P,D23,1*%
%TO.N,C1*%
X213607652Y-130845255D03*
%TO.P,D23,2*%
%TO.N,mirror_index_home*%
X216645318Y-129555843D03*
%TD*%
D26*
%TO.P,D4,1*%
%TO.N,C3*%
X86738774Y-116529251D03*
%TO.P,D4,2*%
%TO.N,ring_home*%
X89910940Y-117438855D03*
%TD*%
D11*
%TO.P,D12,1*%
%TO.N,C0*%
X134986880Y-145333799D03*
%TO.P,D12,2*%
%TO.N,inner_home*%
X138024546Y-146623211D03*
%TD*%
D18*
%TO.P,D17,1*%
%TO.N,C3*%
X248864120Y-117438855D03*
%TO.P,D17,2*%
%TO.N,mirror_ring_home*%
X252036284Y-116529251D03*
%TD*%
D24*
%TO.P,D15,1*%
%TO.N,C4*%
X270691969Y-121889774D03*
%TO.P,D15,2*%
%TO.N,mirror_pinky_home*%
X273967371Y-121487608D03*
%TD*%
D17*
%TO.P,D22,1*%
%TO.N,C1*%
X220250083Y-146493838D03*
%TO.P,D22,2*%
%TO.N,mirror_index_bottom*%
X223287749Y-145204426D03*
%TD*%
D15*
%TO.P,D21,1*%
%TO.N,C2*%
X221430186Y-101191581D03*
%TO.P,D21,2*%
%TO.N,mirror_middle_top*%
X224489892Y-99955379D03*
%TD*%
D27*
%TO.P,D27,1*%
%TO.N,C4*%
X122735102Y-169783935D03*
%TO.P,D27,2*%
%TO.N,home_thumb*%
X125592984Y-171433935D03*
%TD*%
D28*
%TO.P,D28,1*%
%TO.N,C0*%
X138266047Y-179822052D03*
%TO.P,D28,2*%
%TO.N,reachy_thumb*%
X140901545Y-181808042D03*
%TD*%
D26*
%TO.P,D3,1*%
%TO.N,C3*%
X82052939Y-132870700D03*
%TO.P,D3,2*%
%TO.N,ring_bottom*%
X85225105Y-133780304D03*
%TD*%
D29*
%TO.N,pinky_bottom*%
X72477630Y-137952080D03*
%TO.N,pinky_home*%
X69964541Y-120263972D03*
%TO.N,ring_bottom*%
X92399432Y-132552831D03*
%TO.N,ring_home*%
X96981378Y-117117862D03*
%TO.N,ring_top*%
X101512712Y-97143077D03*
%TO.N,middle_bottom*%
X112534648Y-130577472D03*
%TO.N,middle_home*%
X118709815Y-115627088D03*
%TO.N,middle_top*%
X125401464Y-98997958D03*
%TO.N,index_bottom*%
X126290333Y-145248733D03*
%TO.N,index_home*%
X133082511Y-129388223D03*
%TO.N,index_top*%
X139535980Y-114199771D03*
%TO.N,inner_home*%
X146108335Y-144748676D03*
%TO.N,inner_top*%
X152844139Y-128868961D03*
%TO.N,mirror_pinky_bottom*%
X282147272Y-134033538D03*
%TO.N,mirror_pinky_home*%
X280038048Y-117265609D03*
%TO.N,mirror_ring_bottom*%
X262087297Y-127617227D03*
%TO.N,mirror_ring_home*%
X257230277Y-110752700D03*
%TO.N,mirror_ring_top*%
X252577810Y-94453699D03*
%TO.N,mirror_middle_bottom*%
X241688211Y-124815040D03*
%TO.N,mirror_middle_home*%
X235502288Y-109437611D03*
%TO.N,mirror_middle_top*%
X229036341Y-93634036D03*
%TO.N,mirror_index_bottom*%
X227520464Y-138466415D03*
%TO.N,mirror_index_home*%
X221126387Y-123307888D03*
%TO.N,mirror_index_top*%
X214330077Y-107287276D03*
%TO.N,mirror_inner_home*%
X208321287Y-138997202D03*
%TO.N,mirror_inner_top*%
X201327784Y-122816063D03*
%TO.N,home_thumb*%
X127468974Y-170043737D03*
%TO.N,reachy_thumb*%
X147685953Y-183258083D03*
%TO.N,mirror_home_thumb*%
X219384769Y-161936669D03*
%TO.N,mirror_reachy_thumb*%
X198097971Y-174304534D03*
%TO.N,C4*%
X177010763Y-158759460D03*
%TO.N,C0*%
X188347520Y-171472790D03*
X133778581Y-151551531D03*
X137849320Y-161002670D03*
%TD*%
D30*
%TO.N,pinky_bottom*%
X66008990Y-138826134D02*
X70632307Y-139393808D01*
X70632307Y-139393808D02*
X72477630Y-137952080D01*
%TO.N,pinky_home*%
X69534471Y-122125430D02*
X69757365Y-121951304D01*
X68080775Y-121952848D02*
X68088750Y-121953828D01*
X69757365Y-121951304D02*
X69964541Y-120263972D01*
X68095282Y-121948723D02*
X69534471Y-122125430D01*
X68088750Y-121953828D02*
X68095282Y-121948723D01*
%TO.N,ring_bottom*%
X92082450Y-133658276D02*
X92399432Y-132552831D01*
X89546804Y-135063806D02*
X92082450Y-133658276D01*
X85222783Y-133843372D02*
X85245927Y-133830549D01*
X85245927Y-133830549D02*
X89546804Y-135063806D01*
%TO.N,ring_home*%
X89908622Y-117501928D02*
X94113382Y-118707627D01*
X94113382Y-118707627D02*
X96981378Y-117117862D01*
%TO.N,ring_top*%
X98520196Y-102318723D02*
X99000827Y-102456540D01*
X94594453Y-101160485D02*
X94617717Y-101167152D01*
X101526495Y-97095010D02*
X101492220Y-97033167D01*
X99000827Y-102456540D02*
X100175872Y-101805197D01*
X101512712Y-97143077D02*
X101526495Y-97095010D01*
X94617717Y-101167152D02*
X94640861Y-101154316D01*
X94640861Y-101154316D02*
X94675144Y-101216161D01*
X94675144Y-101216161D02*
X98520196Y-102318723D01*
X100175872Y-101805197D02*
X101512712Y-97143077D01*
%TO.N,middle_bottom*%
X112534648Y-130577472D02*
X111410831Y-133359015D01*
X108792558Y-134470411D02*
X104605931Y-132778898D01*
X111410831Y-133359015D02*
X108792558Y-134470411D01*
%TO.N,middle_home*%
X118709815Y-115627088D02*
X117866945Y-117713258D01*
X117866945Y-117713258D02*
X115328451Y-118790782D01*
X115328451Y-118790782D02*
X115320881Y-118772933D01*
X115320881Y-118772933D02*
X110974250Y-117016770D01*
%TO.N,middle_top*%
X117342558Y-101254658D02*
X121158296Y-102796315D01*
X121158296Y-102796315D02*
X124427467Y-101408626D01*
X124427467Y-101408626D02*
X125401464Y-98997958D01*
%TO.N,index_bottom*%
X123194996Y-148444650D02*
X118522659Y-146556909D01*
X126290333Y-145248733D02*
X125372552Y-147520336D01*
X125372552Y-147520336D02*
X123194996Y-148444650D01*
%TO.N,index_home*%
X133082511Y-129388223D02*
X132185752Y-131607772D01*
X129606895Y-132702929D02*
X125165093Y-130908332D01*
X129606718Y-132702505D02*
X129606895Y-132702929D01*
X132185752Y-131607772D02*
X129606718Y-132702505D01*
%TO.N,index_top*%
X138693107Y-116285942D02*
X136573903Y-117185489D01*
X136573903Y-117185489D02*
X131807522Y-115259747D01*
X139535980Y-114199771D02*
X138693107Y-116285942D01*
%TO.N,inner_home*%
X144759756Y-148086534D02*
X143164238Y-148763791D01*
X146108335Y-144748676D02*
X144759756Y-148086534D01*
X143164238Y-148763791D02*
X138022224Y-146686288D01*
%TO.N,inner_top*%
X151338753Y-132594939D02*
X151347435Y-132615381D01*
X152844139Y-128868961D02*
X151338753Y-132594939D01*
X151347435Y-132615381D02*
X149992765Y-133190395D01*
X149992765Y-133190395D02*
X144664657Y-131037704D01*
%TO.N,mirror_pinky_bottom*%
X279001483Y-138059955D02*
X282147272Y-134033538D01*
X276036836Y-138423963D02*
X279001483Y-138059955D01*
%TO.N,mirror_pinky_home*%
X276979332Y-121180577D02*
X280038048Y-117265609D01*
X273965059Y-121550686D02*
X276979332Y-121180577D01*
%TO.N,mirror_ring_bottom*%
X262087297Y-127617227D02*
X262743212Y-129904674D01*
X261885168Y-131452625D02*
X256719800Y-132933772D01*
X262743212Y-129904674D02*
X261885168Y-131452625D01*
%TO.N,mirror_ring_home*%
X257230277Y-110752700D02*
X257753997Y-112579096D01*
X257753997Y-112579096D02*
X256190008Y-115400599D01*
X256190008Y-115400599D02*
X252033967Y-116592323D01*
%TO.N,mirror_ring_top*%
X253137245Y-96404716D02*
X251696423Y-99004021D01*
X252577810Y-94453699D02*
X253137245Y-96404716D01*
X251696423Y-99004021D02*
X247348130Y-100250870D01*
%TO.N,mirror_middle_bottom*%
X241946951Y-129634587D02*
X242812030Y-127596599D01*
X242812030Y-127596599D02*
X241688211Y-124815040D01*
X237224199Y-131542697D02*
X241946951Y-129634587D01*
%TO.N,mirror_middle_home*%
X236214036Y-111199250D02*
X235502288Y-109437611D01*
X234975971Y-114115947D02*
X236214036Y-111199250D01*
X230855879Y-115780573D02*
X234975971Y-114115947D01*
%TO.N,mirror_middle_top*%
X229766819Y-95442047D02*
X229036341Y-93634036D01*
X228514945Y-98391278D02*
X229766819Y-95442047D01*
X224487565Y-100018442D02*
X228514945Y-98391278D01*
%TO.N,mirror_index_bottom*%
X228456980Y-140784378D02*
X227520464Y-138466415D01*
X227230599Y-143673546D02*
X228456980Y-140784378D01*
X223285428Y-145267496D02*
X227230599Y-143673546D01*
%TO.N,mirror_index_home*%
X216643012Y-129618917D02*
X220721773Y-127970990D01*
X221894328Y-125208618D02*
X221126387Y-123307888D01*
X220721773Y-127970990D02*
X221894328Y-125208618D01*
%TO.N,mirror_index_top*%
X214027524Y-112343335D02*
X215229132Y-109512517D01*
X215229132Y-109512517D02*
X214330077Y-107287276D01*
X210000570Y-113970328D02*
X214027524Y-112343335D01*
%TO.N,mirror_inner_home*%
X208808276Y-140202539D02*
X208321287Y-138997202D01*
X207186648Y-144022870D02*
X208808276Y-140202539D01*
X203785859Y-145396877D02*
X207186648Y-144022870D01*
%TO.N,mirror_inner_top*%
X201327784Y-122816063D02*
X201312700Y-122851597D01*
X201312700Y-122851597D02*
X201891619Y-124284477D01*
X200075158Y-128563800D02*
X197143432Y-129748293D01*
X201891619Y-124284477D02*
X200075158Y-128563800D01*
%TO.N,home_thumb*%
X126435397Y-170244647D02*
X127468974Y-170043737D01*
X125590667Y-171497006D02*
X126435397Y-170244647D01*
%TO.N,reachy_thumb*%
X144013753Y-183971889D02*
X147685953Y-183258083D01*
X140899223Y-181871113D02*
X144013753Y-183971889D01*
%TO.N,mirror_home_thumb*%
X218120200Y-168442302D02*
X216037648Y-169847003D01*
X219384769Y-161936669D02*
X218120200Y-168442302D01*
%TO.N,mirror_reachy_thumb*%
X198167381Y-174318032D02*
X198097971Y-174304534D01*
X200543944Y-177841432D02*
X198167381Y-174318032D01*
X200823410Y-178255756D02*
X200543944Y-177841432D01*
X200506695Y-179885119D02*
X200823410Y-178255756D01*
%TO.N,C4*%
X119976091Y-160587031D02*
X115131890Y-149174789D01*
X194743999Y-166909830D02*
X208610079Y-166909830D01*
X62733594Y-138423969D02*
X61422468Y-136745809D01*
X119044893Y-167377171D02*
X118228623Y-163177772D01*
X61422468Y-136745809D02*
X61442087Y-136748215D01*
X269075498Y-123142458D02*
X270910347Y-138086135D01*
X186610761Y-158776594D02*
X194743999Y-166909830D01*
X128601611Y-156334409D02*
X122263833Y-167311760D01*
X219525003Y-168942969D02*
X219899149Y-169565646D01*
X270689661Y-121952849D02*
X269932257Y-122045851D01*
X138927379Y-158759464D02*
X138748662Y-158687241D01*
X219899149Y-169565646D02*
X214953483Y-172537302D01*
X214953483Y-172537302D02*
X213664710Y-172215976D01*
X131201176Y-155637871D02*
X128601611Y-156334409D01*
X122876469Y-169598136D02*
X122732788Y-169847006D01*
X268996887Y-137888569D02*
X259151504Y-133709455D01*
X177010763Y-158759460D02*
X159760763Y-158759461D01*
X272761439Y-138826129D02*
X269850813Y-140002099D01*
X269932257Y-122045851D02*
X269075498Y-123142458D01*
X213664710Y-172215976D02*
X213179757Y-171497005D01*
X115131890Y-149174789D02*
X83149317Y-136252989D01*
X122712445Y-169850965D02*
X119044893Y-167377171D01*
X177005214Y-152835200D02*
X177016152Y-152835207D01*
X259151504Y-133709455D02*
X221082551Y-149090308D01*
X122732783Y-169847006D02*
X122712445Y-169850965D01*
X71488653Y-141202646D02*
X64205893Y-140308437D01*
X269850813Y-140002099D02*
X268996887Y-137888569D01*
X61442087Y-136748215D02*
X63149237Y-122844596D01*
X211481502Y-171166898D02*
X208610079Y-166909830D01*
X219012217Y-157393969D02*
X221409671Y-161384002D01*
X64205893Y-140308437D02*
X62733585Y-138423959D01*
X159760763Y-158759461D02*
X138927379Y-158759464D01*
X122263833Y-167311760D02*
X122876469Y-169598136D01*
X221409671Y-161384002D02*
X219525003Y-168942969D01*
X271980260Y-138922049D02*
X272761439Y-138826133D01*
X177027896Y-158776595D02*
X186610761Y-158776594D01*
X177010763Y-158759460D02*
X177027896Y-158776595D01*
X221082551Y-149090308D02*
X219012217Y-157393969D01*
X213179757Y-171497005D02*
X211481502Y-171166898D01*
X83149317Y-136252989D02*
X71488653Y-141202646D01*
X118228623Y-163177772D02*
X119976091Y-160587031D01*
X63149237Y-122844596D02*
X64805371Y-121550677D01*
X270910347Y-138086135D02*
X271980260Y-138922049D01*
X138748662Y-158687241D02*
X131201176Y-155637871D01*
%TO.N,C3*%
X86448881Y-116509855D02*
X86736461Y-116592317D01*
X161765223Y-152835208D02*
X161217865Y-152835205D01*
X252727282Y-135776003D02*
X253547636Y-133843375D01*
X161765214Y-152835206D02*
X161765209Y-153088836D01*
X247767978Y-119475231D02*
X251574335Y-132749555D01*
X155818885Y-158234181D02*
X139010643Y-158234185D01*
X85647311Y-114627458D02*
X89457425Y-101340017D01*
X246948253Y-117342075D02*
X247814077Y-117822010D01*
X242717223Y-102586706D02*
X246948253Y-117342075D01*
X247814077Y-117822010D02*
X248848850Y-117525294D01*
X161765209Y-153088836D02*
X166466853Y-157790490D01*
X161217865Y-152835205D02*
X155818885Y-158234181D01*
X103743097Y-143838402D02*
X83147183Y-135517112D01*
X243381511Y-101388287D02*
X242717223Y-102586706D01*
X84915901Y-117359616D02*
X86448881Y-116509855D01*
X83147183Y-135517112D02*
X82050622Y-132933776D01*
X248861799Y-117501932D02*
X247767978Y-119475231D01*
X86736461Y-116592317D02*
X85647311Y-114627458D01*
X251574335Y-132749555D02*
X253547636Y-133843379D01*
X244175962Y-101160479D02*
X243381511Y-101388287D01*
X103855437Y-144103047D02*
X103743097Y-143838402D01*
X138923143Y-158271318D02*
X103855437Y-144103047D01*
X248848850Y-117525294D02*
X248861799Y-117501932D01*
X198208647Y-157802968D02*
X252727282Y-135776003D01*
X166466853Y-157790490D02*
X198196170Y-157790488D01*
X80995767Y-131030747D02*
X84915901Y-117359616D01*
X89457425Y-101340017D02*
X91422286Y-100250872D01*
X82050622Y-132933778D02*
X80995767Y-131030747D01*
%TO.N,C2*%
X163673141Y-154358959D02*
X166609001Y-157294819D01*
X101546225Y-131542699D02*
X100734365Y-129630075D01*
X100734365Y-129630075D02*
X106001905Y-116592444D01*
X112565486Y-100747436D02*
X114282846Y-100018449D01*
X155632068Y-157783184D02*
X138918881Y-157783180D01*
X161771579Y-150295211D02*
X162271578Y-150295212D01*
X225623295Y-116152272D02*
X220493559Y-103455737D01*
X233076586Y-143228976D02*
X235797125Y-136819807D01*
X220493559Y-103455737D02*
X221427865Y-101254644D01*
X231925579Y-131617518D02*
X226889499Y-119152774D01*
X198205067Y-157294819D02*
X198221573Y-157311322D01*
X107185559Y-114063209D02*
X112565486Y-100747436D01*
X106001905Y-116592444D02*
X107914530Y-115780575D01*
X163673142Y-151696772D02*
X163673141Y-154358959D01*
X104197594Y-143754872D02*
X100311284Y-134599298D01*
X235797125Y-136819807D02*
X234164499Y-132778901D01*
X226889499Y-119152774D02*
X227796181Y-117016771D01*
X166609001Y-157294819D02*
X198205067Y-157294819D01*
X198221573Y-157311322D02*
X233076586Y-143228976D01*
X138918881Y-157783180D02*
X104197594Y-143754872D01*
X234061587Y-132524201D02*
X231925579Y-131617518D01*
X234164497Y-132778912D02*
X234061587Y-132524201D01*
X158368882Y-151434175D02*
X158368891Y-155046379D01*
X161765212Y-150295209D02*
X159207858Y-150295206D01*
X100311284Y-134599298D02*
X101546225Y-131542699D01*
X225693108Y-116124072D02*
X225623295Y-116152272D01*
X162271578Y-150295212D02*
X163673142Y-151696772D01*
X159207858Y-150295206D02*
X158368877Y-151134182D01*
X158368891Y-155046379D02*
X155632068Y-157783184D01*
X227796181Y-117016771D02*
X225693108Y-116124072D01*
X158368877Y-151134182D02*
X158368882Y-151434175D01*
X107914530Y-115780575D02*
X107185559Y-114063209D01*
%TO.N,C1*%
X161765215Y-147755206D02*
X164124138Y-150114134D01*
X121468975Y-129352890D02*
X122127425Y-129618914D01*
X139010015Y-157332181D02*
X155445255Y-157332181D01*
X157917888Y-154859570D02*
X157917885Y-150947374D01*
X164124141Y-154172149D02*
X166693041Y-156741058D01*
X126507273Y-114424179D02*
X128158435Y-113723300D01*
X197970701Y-156843820D02*
X198174759Y-156843820D01*
X115051199Y-146341163D02*
X115484992Y-145267493D01*
X213605344Y-130908329D02*
X213179758Y-131080277D01*
X166749766Y-156797768D02*
X197862217Y-156797767D01*
X198174759Y-156843820D02*
X218845625Y-148492241D01*
X212560636Y-132538839D02*
X217805446Y-145520213D01*
X218845625Y-148492241D02*
X219546935Y-146840069D01*
X217805446Y-145520213D02*
X220247762Y-146556910D01*
X115722892Y-147923578D02*
X115051199Y-146341163D01*
X211549247Y-130035568D02*
X213605344Y-130908329D01*
X128158435Y-113723300D02*
X128769848Y-113970326D01*
X206962900Y-115259741D02*
X206531867Y-115433889D01*
X206531867Y-115433889D02*
X206079946Y-116498557D01*
X197862217Y-156797767D02*
X197970701Y-156843820D01*
X115106710Y-145114662D02*
X114539518Y-143778446D01*
X206079946Y-116498557D02*
X211549247Y-130035568D01*
X157917885Y-150947374D02*
X161110052Y-147755204D01*
X120139892Y-129917045D02*
X121468975Y-129352890D01*
X161110052Y-147755204D02*
X161765215Y-147755206D01*
X115484992Y-145267493D02*
X115106710Y-145114662D01*
X213179758Y-131080277D02*
X212560636Y-132538839D01*
X166693041Y-156741058D02*
X166749766Y-156797768D01*
X139010011Y-157332178D02*
X115722892Y-147923578D01*
X155445255Y-157332181D02*
X157917888Y-154859570D01*
X122127425Y-129618914D02*
X121893691Y-129524477D01*
X121893691Y-129524477D02*
X121131668Y-127729272D01*
X139010011Y-157332178D02*
X139010015Y-157332181D01*
X164124138Y-150114134D02*
X164124141Y-154172149D01*
X114539518Y-143778446D02*
X120139892Y-129917045D01*
X121131668Y-127729272D02*
X126507273Y-114424179D01*
X219546935Y-146840069D02*
X220247767Y-146556915D01*
%TO.N,C0*%
X198515685Y-155488534D02*
X201481542Y-148501397D01*
X144158080Y-136127980D02*
X148654934Y-137944818D01*
X199173963Y-146521757D02*
X193497222Y-132471335D01*
X138263736Y-179885128D02*
X137912261Y-178076959D01*
X141540715Y-129961837D02*
X144158080Y-136127980D01*
X166936571Y-156346767D02*
X196391470Y-156346768D01*
X133122451Y-150005769D02*
X134984559Y-145396871D01*
X201481542Y-148501397D02*
X200748193Y-146686282D01*
X200140237Y-146931915D02*
X199173963Y-146521757D01*
X195840705Y-182581900D02*
X188347520Y-171472790D01*
X161765216Y-145215202D02*
X152291624Y-145215197D01*
X133778581Y-151551531D02*
X133122451Y-150005769D01*
X148654934Y-137944818D02*
X151334925Y-144258505D01*
X164575143Y-153985338D02*
X166779856Y-156190057D01*
X152291624Y-145215197D02*
X151334925Y-144258505D01*
X133948427Y-143111926D02*
X138875876Y-130916071D01*
X134028362Y-143144214D02*
X133948427Y-143111926D01*
X134984562Y-145396880D02*
X134028362Y-143144214D01*
X164575140Y-148025135D02*
X164575139Y-152546771D01*
X166779856Y-156190057D02*
X166879857Y-156290055D01*
X140439829Y-174329681D02*
X137849320Y-161002670D01*
X164575139Y-152546771D02*
X164575143Y-153985338D01*
X141626992Y-129748300D02*
X141540715Y-129961837D01*
X196598913Y-182729277D02*
X195840705Y-182581900D01*
X138875876Y-130916071D02*
X141626992Y-129748300D01*
X161765207Y-145215204D02*
X161765210Y-145338839D01*
X197871199Y-181871112D02*
X196598913Y-182729277D01*
X161765207Y-145215204D02*
X164575140Y-148025135D01*
X137912261Y-178076959D02*
X140300034Y-174536943D01*
X200748192Y-146686286D02*
X200140237Y-146931915D01*
X196391470Y-156346768D02*
X198515685Y-155488534D01*
X193497222Y-132471335D02*
X194105764Y-131037703D01*
X140300034Y-174536943D02*
X140439829Y-174329681D01*
X166779856Y-156190057D02*
X166936571Y-156346767D01*
%TO.N,GND*%
X183535213Y-149715200D02*
X183535216Y-144700516D01*
X183535216Y-144700516D02*
X178969905Y-140135204D01*
X178969905Y-140135204D02*
X177005215Y-140135213D01*
%TD*%
%TA.AperFunction,Conductor*%
%TO.N,inner_top*%
G36*
X152465396Y-128793589D02*
G01*
X152842203Y-128867580D01*
X152846467Y-128869347D01*
X153165422Y-129083595D01*
X153170379Y-129091053D01*
X153168610Y-129099831D01*
X153167516Y-129101220D01*
X152668710Y-129644448D01*
X152660590Y-129648224D01*
X152655709Y-129647383D01*
X152438960Y-129559811D01*
X152432573Y-129553535D01*
X152431647Y-129548652D01*
X152443829Y-129091189D01*
X152451456Y-128804759D01*
X152455102Y-128796582D01*
X152463463Y-128793376D01*
X152465396Y-128793589D01*
G37*
%TD.AperFunction*%
%TD*%
%TA.AperFunction,Conductor*%
%TO.N,mirror_middle_top*%
G36*
X225293660Y-99554153D02*
G01*
X225300644Y-99559758D01*
X225301235Y-99561003D01*
X225390402Y-99781700D01*
X225390324Y-99790655D01*
X225389189Y-99792720D01*
X225092432Y-100223507D01*
X225084917Y-100228376D01*
X225077895Y-100227494D01*
X224672806Y-100040580D01*
X224499611Y-99960665D01*
X224493536Y-99954088D01*
X224493889Y-99945141D01*
X224744776Y-99404570D01*
X224751367Y-99398511D01*
X224758658Y-99398265D01*
X225293660Y-99554153D01*
G37*
%TD.AperFunction*%
%TD*%
%TA.AperFunction,Conductor*%
%TO.N,inner_home*%
G36*
X138605800Y-146408283D02*
G01*
X138611170Y-146413226D01*
X138879971Y-146894233D01*
X138881016Y-146903127D01*
X138880606Y-146904324D01*
X138791439Y-147125020D01*
X138785163Y-147131407D01*
X138782803Y-147132126D01*
X138263875Y-147232013D01*
X138255103Y-147230212D01*
X138250716Y-147224655D01*
X138215346Y-147130923D01*
X138027758Y-146633805D01*
X138028044Y-146624857D01*
X138034572Y-146618731D01*
X138596853Y-146407978D01*
X138605800Y-146408283D01*
G37*
%TD.AperFunction*%
%TD*%
%TA.AperFunction,Conductor*%
%TO.N,C1*%
G36*
X162648726Y-147520343D02*
G01*
X162653379Y-147526559D01*
X163081660Y-148890237D01*
X163080870Y-148899157D01*
X163078771Y-148902016D01*
X162912030Y-149068757D01*
X162903757Y-149072184D01*
X162900236Y-149071641D01*
X161393284Y-148596020D01*
X161386425Y-148590262D01*
X161385648Y-148581342D01*
X161386046Y-148580266D01*
X161764392Y-147697095D01*
X161770800Y-147690840D01*
X161772866Y-147690228D01*
X162639945Y-147518588D01*
X162648726Y-147520343D01*
G37*
%TD.AperFunction*%
%TD*%
%TA.AperFunction,Conductor*%
%TO.N,mirror_home_thumb*%
G36*
X219388963Y-161938376D02*
G01*
X219708005Y-162152617D01*
X219712962Y-162160074D01*
X219711435Y-162168480D01*
X219359139Y-162738607D01*
X219351875Y-162743844D01*
X219346953Y-162743942D01*
X219117418Y-162699324D01*
X219109951Y-162694382D01*
X219108119Y-162689815D01*
X219018801Y-162168480D01*
X218994374Y-162025906D01*
X218996355Y-162017174D01*
X219003594Y-162012462D01*
X219380178Y-161936650D01*
X219388963Y-161938376D01*
G37*
%TD.AperFunction*%
%TD*%
%TA.AperFunction,Conductor*%
%TO.N,index_home*%
G36*
X132703768Y-129312851D02*
G01*
X133080575Y-129386842D01*
X133084839Y-129388609D01*
X133403794Y-129602857D01*
X133408751Y-129610315D01*
X133406982Y-129619093D01*
X133405888Y-129620482D01*
X132907080Y-130163710D01*
X132898960Y-130167486D01*
X132894079Y-130166645D01*
X132677330Y-130079072D01*
X132670943Y-130072796D01*
X132670017Y-130067913D01*
X132682204Y-129610315D01*
X132689828Y-129324021D01*
X132693474Y-129315844D01*
X132701835Y-129312638D01*
X132703768Y-129312851D01*
G37*
%TD.AperFunction*%
%TD*%
%TA.AperFunction,Conductor*%
%TO.N,middle_bottom*%
G36*
X105182858Y-132497649D02*
G01*
X105188273Y-132502547D01*
X105464505Y-132987179D01*
X105465624Y-132996064D01*
X105465188Y-132997356D01*
X105376020Y-133218052D01*
X105369744Y-133224439D01*
X105367478Y-133225140D01*
X104855074Y-133328141D01*
X104846288Y-133326411D01*
X104841858Y-133320896D01*
X104611558Y-132726392D01*
X104611765Y-132717440D01*
X104618240Y-132711257D01*
X105173906Y-132497422D01*
X105182858Y-132497649D01*
G37*
%TD.AperFunction*%
%TD*%
%TA.AperFunction,Conductor*%
%TO.N,GND*%
G36*
X183660852Y-148217088D02*
G01*
X183663288Y-148220650D01*
X184033453Y-149062067D01*
X184033648Y-149071019D01*
X184031642Y-149074375D01*
X183546427Y-149642708D01*
X183538449Y-149646775D01*
X183529932Y-149644009D01*
X183528631Y-149642708D01*
X183043392Y-149074347D01*
X183040626Y-149065830D01*
X183041558Y-149062090D01*
X183407157Y-148220697D01*
X183413597Y-148214476D01*
X183417887Y-148213661D01*
X183652581Y-148213661D01*
X183660852Y-148217088D01*
G37*
%TD.AperFunction*%
%TD*%
%TA.AperFunction,Conductor*%
%TO.N,C2*%
G36*
X227799900Y-116956210D02*
G01*
X227802128Y-116959294D01*
X228063688Y-117484398D01*
X228064309Y-117493332D01*
X228061287Y-117498084D01*
X227506562Y-118026789D01*
X227498209Y-118030017D01*
X227493918Y-118029090D01*
X227278339Y-117937582D01*
X227272063Y-117931195D01*
X227271222Y-117926304D01*
X227290031Y-117493332D01*
X227312958Y-116965571D01*
X227316741Y-116957457D01*
X227324606Y-116954381D01*
X227791617Y-116952811D01*
X227799900Y-116956210D01*
G37*
%TD.AperFunction*%
%TD*%
%TA.AperFunction,Conductor*%
%TO.N,C0*%
G36*
X134672599Y-144333576D02*
G01*
X135225070Y-144780402D01*
X135229347Y-144788269D01*
X135228397Y-144794266D01*
X134990326Y-145327868D01*
X134983825Y-145334027D01*
X134979769Y-145334800D01*
X134506441Y-145339972D01*
X134498131Y-145336636D01*
X134494637Y-145329020D01*
X134437538Y-144435115D01*
X134440430Y-144426642D01*
X134444640Y-144423601D01*
X134660670Y-144331902D01*
X134669624Y-144331825D01*
X134672599Y-144333576D01*
G37*
%TD.AperFunction*%
%TD*%
%TA.AperFunction,Conductor*%
%TO.N,C4*%
G36*
X272286672Y-138501564D02*
G01*
X272754176Y-138756949D01*
X272759794Y-138763923D01*
X272758835Y-138772826D01*
X272758708Y-138773052D01*
X272394906Y-139405289D01*
X272387810Y-139410751D01*
X272381265Y-139410618D01*
X271973936Y-139282904D01*
X271967067Y-139277159D01*
X271966592Y-139276132D01*
X271877440Y-139055473D01*
X271877518Y-139046520D01*
X271878827Y-139044209D01*
X272271607Y-138504942D01*
X272279246Y-138500274D01*
X272286672Y-138501564D01*
G37*
%TD.AperFunction*%
%TD*%
%TA.AperFunction,Conductor*%
%TO.N,C2*%
G36*
X107598714Y-114708228D02*
G01*
X108155077Y-115163762D01*
X108159307Y-115171655D01*
X108158351Y-115177579D01*
X107920273Y-115711634D01*
X107913775Y-115717795D01*
X107909815Y-115718568D01*
X107438409Y-115727771D01*
X107430071Y-115724506D01*
X107426509Y-115716883D01*
X107363694Y-114809749D01*
X107366541Y-114801260D01*
X107370791Y-114798173D01*
X107586734Y-114706511D01*
X107595687Y-114706434D01*
X107598714Y-114708228D01*
G37*
%TD.AperFunction*%
%TD*%
%TA.AperFunction,Conductor*%
%TO.N,C3*%
G36*
X243643439Y-100838163D02*
G01*
X244168213Y-101091439D01*
X244174174Y-101098121D01*
X244173664Y-101107062D01*
X244173656Y-101107078D01*
X243889354Y-101693770D01*
X243882662Y-101699721D01*
X243873723Y-101699197D01*
X243873620Y-101699147D01*
X243464922Y-101496153D01*
X243464455Y-101495907D01*
X243257548Y-101381219D01*
X243251973Y-101374211D01*
X243252987Y-101365314D01*
X243253717Y-101364161D01*
X243628851Y-100841874D01*
X243636460Y-100837154D01*
X243643439Y-100838163D01*
G37*
%TD.AperFunction*%
%TD*%
%TA.AperFunction,Conductor*%
%TO.N,C0*%
G36*
X141289237Y-129361583D02*
G01*
X141625060Y-129679926D01*
X141628707Y-129688104D01*
X141628251Y-129691667D01*
X141464505Y-130258046D01*
X141458915Y-130265041D01*
X141453815Y-130266483D01*
X140643604Y-130304586D01*
X140635179Y-130301552D01*
X140632284Y-130297471D01*
X140618518Y-130265041D01*
X140540918Y-130082225D01*
X140540841Y-130073271D01*
X140543541Y-130069258D01*
X141273043Y-129361675D01*
X141281366Y-129358375D01*
X141289237Y-129361583D01*
G37*
%TD.AperFunction*%
%TD*%
%TA.AperFunction,Conductor*%
%TO.N,C1*%
G36*
X115304576Y-144480804D02*
G01*
X115310314Y-144487679D01*
X115310504Y-144488360D01*
X115484750Y-145193409D01*
X115483408Y-145202263D01*
X115476199Y-145207574D01*
X115475632Y-145207700D01*
X114964556Y-145307395D01*
X114955780Y-145305615D01*
X114951018Y-145298953D01*
X114924980Y-145202263D01*
X114783385Y-144676465D01*
X114784543Y-144667588D01*
X114790107Y-144662657D01*
X115010350Y-144569169D01*
X115011400Y-144568784D01*
X115295659Y-144479999D01*
X115304576Y-144480804D01*
G37*
%TD.AperFunction*%
%TD*%
%TA.AperFunction,Conductor*%
%TO.N,pinky_home*%
G36*
X69968666Y-120265669D02*
G01*
X69968711Y-120265699D01*
X70288413Y-120480348D01*
X70293371Y-120487805D01*
X70292252Y-120495497D01*
X69995449Y-121061374D01*
X69988572Y-121067108D01*
X69983662Y-121067552D01*
X69751562Y-121039054D01*
X69743768Y-121034644D01*
X69741628Y-121030240D01*
X69575145Y-120353863D01*
X69576495Y-120345011D01*
X69583710Y-120339706D01*
X69584165Y-120339603D01*
X69959879Y-120263943D01*
X69968666Y-120265669D01*
G37*
%TD.AperFunction*%
%TD*%
%TA.AperFunction,Conductor*%
%TO.N,C4*%
G36*
X270207695Y-121574943D02*
G01*
X270357067Y-121671685D01*
X270682748Y-121882616D01*
X270687829Y-121889988D01*
X270686208Y-121898795D01*
X270686198Y-121898811D01*
X270317286Y-122466433D01*
X270309904Y-122471502D01*
X270301100Y-122469867D01*
X270300737Y-122469621D01*
X269952823Y-122222979D01*
X269952401Y-122222665D01*
X269765430Y-122076587D01*
X269761020Y-122068793D01*
X269763413Y-122060164D01*
X269763866Y-122059620D01*
X270192589Y-121576992D01*
X270200644Y-121573083D01*
X270207695Y-121574943D01*
G37*
%TD.AperFunction*%
%TD*%
%TA.AperFunction,Conductor*%
%TO.N,C2*%
G36*
X234025686Y-132121427D02*
G01*
X234033489Y-132125818D01*
X234035700Y-132130470D01*
X234166193Y-132709410D01*
X234164669Y-132718235D01*
X234162464Y-132720806D01*
X233816791Y-133021894D01*
X233808301Y-133024743D01*
X233800456Y-133020949D01*
X233105105Y-132257394D01*
X233102068Y-132248970D01*
X233102983Y-132244949D01*
X233194302Y-132029816D01*
X233200688Y-132023542D01*
X233206467Y-132022774D01*
X234025686Y-132121427D01*
G37*
%TD.AperFunction*%
%TD*%
%TA.AperFunction,Conductor*%
%TO.N,C4*%
G36*
X212844306Y-170939854D02*
G01*
X212849329Y-170944006D01*
X213010558Y-171180790D01*
X213177264Y-171425619D01*
X213178610Y-171427595D01*
X213180434Y-171436362D01*
X213178661Y-171440689D01*
X212909683Y-171842473D01*
X212902233Y-171847441D01*
X212894101Y-171846091D01*
X212179716Y-171432729D01*
X212174272Y-171425619D01*
X212174091Y-171420373D01*
X212218980Y-171189435D01*
X212223922Y-171181969D01*
X212226155Y-171180792D01*
X212835354Y-170939712D01*
X212844306Y-170939854D01*
G37*
%TD.AperFunction*%
%TD*%
%TA.AperFunction,Conductor*%
%TO.N,C0*%
G36*
X160322978Y-144406626D02*
G01*
X161748364Y-145141733D01*
X161754146Y-145148571D01*
X161753400Y-145157495D01*
X161748364Y-145162531D01*
X160322461Y-145897904D01*
X160313537Y-145898650D01*
X160312415Y-145898227D01*
X160311675Y-145897904D01*
X160292010Y-145889314D01*
X159041839Y-145343264D01*
X159035629Y-145336812D01*
X159034822Y-145332542D01*
X159034822Y-145097206D01*
X159038249Y-145088936D01*
X159040994Y-145086898D01*
X160312097Y-144406708D01*
X160321006Y-144405827D01*
X160322978Y-144406626D01*
G37*
%TD.AperFunction*%
%TD*%
%TA.AperFunction,Conductor*%
%TO.N,pinky_home*%
G36*
X68588287Y-121532542D02*
G01*
X68980663Y-121927954D01*
X68984058Y-121936240D01*
X68983971Y-121937621D01*
X68954963Y-122173876D01*
X68950553Y-122181670D01*
X68948564Y-122182924D01*
X68480127Y-122416092D01*
X68471193Y-122416711D01*
X68465477Y-122412536D01*
X68297124Y-122182924D01*
X68089029Y-121899108D01*
X68086902Y-121890411D01*
X68091547Y-121882756D01*
X68573086Y-121531331D01*
X68581788Y-121529223D01*
X68588287Y-121532542D01*
G37*
%TD.AperFunction*%
%TD*%
%TA.AperFunction,Conductor*%
%TO.N,C2*%
G36*
X101230403Y-130470346D02*
G01*
X101344026Y-130563380D01*
X101786767Y-130925892D01*
X101790997Y-130933785D01*
X101790041Y-130939709D01*
X101551960Y-131473762D01*
X101545462Y-131479923D01*
X101541502Y-131480696D01*
X101070096Y-131489898D01*
X101061758Y-131486633D01*
X101058196Y-131479010D01*
X100995383Y-130571869D01*
X100998230Y-130563380D01*
X101002480Y-130560293D01*
X101218423Y-130468630D01*
X101227376Y-130468553D01*
X101230403Y-130470346D01*
G37*
%TD.AperFunction*%
%TD*%
%TA.AperFunction,Conductor*%
%TO.N,C2*%
G36*
X101551590Y-131490824D02*
G01*
X101552971Y-131494019D01*
X101738884Y-132196472D01*
X101737687Y-132205346D01*
X101734116Y-132209165D01*
X101296176Y-132504565D01*
X101287401Y-132506350D01*
X101285250Y-132505713D01*
X101064678Y-132416597D01*
X101058291Y-132410321D01*
X101057739Y-132408700D01*
X101002428Y-132196472D01*
X100920017Y-131880260D01*
X100921247Y-131871392D01*
X100925149Y-131867382D01*
X101535472Y-131487081D01*
X101544306Y-131485615D01*
X101551590Y-131490824D01*
G37*
%TD.AperFunction*%
%TD*%
%TA.AperFunction,Conductor*%
%TO.N,mirror_inner_home*%
G36*
X208708797Y-138923601D02*
G01*
X208713754Y-138931059D01*
X208713969Y-138933002D01*
X208733780Y-139676892D01*
X208730574Y-139685253D01*
X208726467Y-139688051D01*
X208509718Y-139775624D01*
X208500763Y-139775546D01*
X208496717Y-139772689D01*
X208278935Y-139535513D01*
X207997908Y-139229459D01*
X207994838Y-139221050D01*
X207998614Y-139212930D01*
X207999995Y-139211841D01*
X208318959Y-138997587D01*
X208323220Y-138995821D01*
X208700021Y-138921832D01*
X208708797Y-138923601D01*
G37*
%TD.AperFunction*%
%TD*%
%TA.AperFunction,Conductor*%
%TO.N,C4*%
G36*
X176928817Y-158372268D02*
G01*
X176934926Y-158378815D01*
X176935438Y-158380605D01*
X177011296Y-158757149D01*
X177011296Y-158761771D01*
X176935438Y-159138314D01*
X176930444Y-159145747D01*
X176921657Y-159147473D01*
X176919867Y-159146961D01*
X176226048Y-158887303D01*
X176219501Y-158881194D01*
X176218449Y-158876349D01*
X176218449Y-158642574D01*
X176221876Y-158634302D01*
X176226048Y-158631617D01*
X176919868Y-158371958D01*
X176928817Y-158372268D01*
G37*
%TD.AperFunction*%
%TD*%
%TA.AperFunction,Conductor*%
%TO.N,mirror_ring_home*%
G36*
X257548977Y-110815923D02*
G01*
X257612393Y-110828684D01*
X257619828Y-110833675D01*
X257621746Y-110841104D01*
X257570185Y-111474237D01*
X257566098Y-111482204D01*
X257561749Y-111484534D01*
X257336969Y-111548991D01*
X257328072Y-111547977D01*
X257324379Y-111544757D01*
X257277539Y-111482204D01*
X256905070Y-110984786D01*
X256902855Y-110976111D01*
X256907423Y-110968409D01*
X256907913Y-110968061D01*
X257225953Y-110754457D01*
X257234729Y-110752690D01*
X257548977Y-110815923D01*
G37*
%TD.AperFunction*%
%TD*%
%TA.AperFunction,Conductor*%
%TO.N,C3*%
G36*
X91048923Y-99903267D02*
G01*
X91419749Y-100182995D01*
X91424290Y-100190712D01*
X91424221Y-100194390D01*
X91320902Y-100773493D01*
X91316075Y-100781036D01*
X91311044Y-100783020D01*
X90521947Y-100896139D01*
X90513272Y-100893920D01*
X90510054Y-100890229D01*
X90450627Y-100783020D01*
X90396630Y-100685608D01*
X90395617Y-100676713D01*
X90397847Y-100672483D01*
X91032864Y-99905148D01*
X91040778Y-99900960D01*
X91048923Y-99903267D01*
G37*
%TD.AperFunction*%
%TD*%
%TA.AperFunction,Conductor*%
%TO.N,C2*%
G36*
X227576251Y-116399731D02*
G01*
X227580037Y-116404707D01*
X227614680Y-116491462D01*
X227796613Y-116947077D01*
X227796498Y-116956031D01*
X227794169Y-116959538D01*
X227464555Y-117301343D01*
X227456345Y-117304919D01*
X227448456Y-117302050D01*
X226787270Y-116727164D01*
X226783275Y-116719150D01*
X226784177Y-116713763D01*
X226875939Y-116497584D01*
X226882326Y-116491308D01*
X226885127Y-116490563D01*
X227567591Y-116397454D01*
X227576251Y-116399731D01*
G37*
%TD.AperFunction*%
%TD*%
%TA.AperFunction,Conductor*%
%TO.N,mirror_pinky_home*%
G36*
X274371431Y-121021266D02*
G01*
X274848201Y-121312771D01*
X274853472Y-121320010D01*
X274853711Y-121321327D01*
X274882720Y-121557580D01*
X274880327Y-121566209D01*
X274878665Y-121567937D01*
X274480304Y-121905083D01*
X274471776Y-121907812D01*
X274465238Y-121905125D01*
X273975372Y-121495253D01*
X273971226Y-121487316D01*
X273973907Y-121478772D01*
X274356372Y-121023719D01*
X274364318Y-121019592D01*
X274371431Y-121021266D01*
G37*
%TD.AperFunction*%
%TD*%
%TA.AperFunction,Conductor*%
%TO.N,mirror_index_top*%
G36*
X214717587Y-107213675D02*
G01*
X214722544Y-107221133D01*
X214722759Y-107223076D01*
X214742569Y-107966966D01*
X214739363Y-107975327D01*
X214735256Y-107978125D01*
X214518507Y-108065698D01*
X214509552Y-108065620D01*
X214505506Y-108062763D01*
X214287016Y-107824816D01*
X214006698Y-107519533D01*
X214003628Y-107511124D01*
X214007404Y-107503004D01*
X214008785Y-107501915D01*
X214327749Y-107287661D01*
X214332010Y-107285895D01*
X214708811Y-107211906D01*
X214717587Y-107213675D01*
G37*
%TD.AperFunction*%
%TD*%
%TA.AperFunction,Conductor*%
%TO.N,C1*%
G36*
X220027939Y-145939664D02*
G01*
X220031668Y-145944598D01*
X220248228Y-146487275D01*
X220248111Y-146496229D01*
X220245851Y-146499661D01*
X219920468Y-146842842D01*
X219912289Y-146846488D01*
X219904346Y-146843660D01*
X219903395Y-146842842D01*
X219504596Y-146499661D01*
X219230355Y-146263667D01*
X219226320Y-146255674D01*
X219227217Y-146250228D01*
X219237196Y-146226716D01*
X219318942Y-146034134D01*
X219325328Y-146027859D01*
X219328196Y-146027105D01*
X220019294Y-145937331D01*
X220027939Y-145939664D01*
G37*
%TD.AperFunction*%
%TD*%
%TA.AperFunction,Conductor*%
%TO.N,mirror_inner_top*%
G36*
X201676355Y-122885303D02*
G01*
X201710629Y-122892195D01*
X201718064Y-122897185D01*
X201720022Y-122903756D01*
X201715333Y-123506493D01*
X201711842Y-123514739D01*
X201708016Y-123517250D01*
X201491271Y-123604820D01*
X201482316Y-123604742D01*
X201478005Y-123601586D01*
X201003758Y-123048280D01*
X201000975Y-123039768D01*
X201005027Y-123031783D01*
X201006104Y-123030963D01*
X201323362Y-122817854D01*
X201332137Y-122816086D01*
X201676355Y-122885303D01*
G37*
%TD.AperFunction*%
%TD*%
%TA.AperFunction,Conductor*%
%TO.N,C1*%
G36*
X115490122Y-145215733D02*
G01*
X115491515Y-145219063D01*
X115665166Y-145924702D01*
X115663815Y-145933555D01*
X115660432Y-145937140D01*
X115234788Y-146229709D01*
X115226029Y-146231571D01*
X115223778Y-146230915D01*
X115003323Y-146141845D01*
X114996936Y-146135569D01*
X114996360Y-146133855D01*
X114943680Y-145924702D01*
X114861390Y-145597990D01*
X114862693Y-145589132D01*
X114866606Y-145585169D01*
X115474029Y-145211890D01*
X115482871Y-145210479D01*
X115490122Y-145215733D01*
G37*
%TD.AperFunction*%
%TD*%
%TA.AperFunction,Conductor*%
%TO.N,C3*%
G36*
X253388400Y-133205678D02*
G01*
X253391615Y-133211017D01*
X253548798Y-133773518D01*
X253547724Y-133782408D01*
X253545045Y-133785635D01*
X253181313Y-134090428D01*
X253172770Y-134093115D01*
X253165228Y-134089425D01*
X252851816Y-133752225D01*
X252566890Y-133445673D01*
X252563769Y-133437282D01*
X252565226Y-133432040D01*
X252679076Y-133226651D01*
X252686084Y-133221077D01*
X252688999Y-133220628D01*
X253380041Y-133202470D01*
X253388400Y-133205678D01*
G37*
%TD.AperFunction*%
%TD*%
%TA.AperFunction,Conductor*%
%TO.N,C0*%
G36*
X162648726Y-144980343D02*
G01*
X162653379Y-144986559D01*
X163081659Y-146350238D01*
X163080869Y-146359158D01*
X163078770Y-146362017D01*
X162912029Y-146528759D01*
X162903756Y-146532186D01*
X162900234Y-146531643D01*
X161393282Y-146056020D01*
X161386424Y-146050262D01*
X161385647Y-146041341D01*
X161386044Y-146040267D01*
X161764392Y-145157095D01*
X161770800Y-145150840D01*
X161772866Y-145150228D01*
X162639945Y-144978588D01*
X162648726Y-144980343D01*
G37*
%TD.AperFunction*%
%TD*%
%TA.AperFunction,Conductor*%
%TO.N,index_bottom*%
G36*
X125911590Y-145173361D02*
G01*
X126288397Y-145247352D01*
X126292661Y-145249119D01*
X126611616Y-145463367D01*
X126616573Y-145470825D01*
X126614804Y-145479603D01*
X126613710Y-145480992D01*
X126114905Y-146024220D01*
X126106785Y-146027996D01*
X126101904Y-146027155D01*
X125885155Y-145939583D01*
X125878768Y-145933307D01*
X125877842Y-145928424D01*
X125889793Y-145479603D01*
X125897650Y-145184531D01*
X125901296Y-145176354D01*
X125909657Y-145173148D01*
X125911590Y-145173361D01*
G37*
%TD.AperFunction*%
%TD*%
%TA.AperFunction,Conductor*%
%TO.N,C0*%
G36*
X200147298Y-146331960D02*
G01*
X200160876Y-146338515D01*
X200740876Y-146618506D01*
X200746837Y-146625189D01*
X200746327Y-146634129D01*
X200746319Y-146634146D01*
X200494896Y-147152899D01*
X200488204Y-147158849D01*
X200480660Y-147158893D01*
X199903119Y-146965973D01*
X199896358Y-146960102D01*
X199895729Y-146951169D01*
X199896056Y-146950304D01*
X199988791Y-146731835D01*
X200131213Y-146338514D01*
X200137252Y-146331902D01*
X200146197Y-146331497D01*
X200147298Y-146331960D01*
G37*
%TD.AperFunction*%
%TD*%
%TA.AperFunction,Conductor*%
%TO.N,middle_bottom*%
G36*
X112155905Y-130502100D02*
G01*
X112532712Y-130576091D01*
X112536976Y-130577858D01*
X112855931Y-130792106D01*
X112860888Y-130799564D01*
X112859119Y-130808342D01*
X112858025Y-130809731D01*
X112359218Y-131352959D01*
X112351098Y-131356735D01*
X112346217Y-131355894D01*
X112129468Y-131268321D01*
X112123081Y-131262045D01*
X112122155Y-131257162D01*
X112141965Y-130513270D01*
X112145611Y-130505093D01*
X112153972Y-130501887D01*
X112155905Y-130502100D01*
G37*
%TD.AperFunction*%
%TD*%
%TA.AperFunction,Conductor*%
%TO.N,mirror_home_thumb*%
G36*
X216737233Y-169220118D02*
G01*
X216745105Y-169224387D01*
X216745716Y-169225212D01*
X216878827Y-169422556D01*
X216880612Y-169431331D01*
X216879807Y-169433877D01*
X216655807Y-169934579D01*
X216649300Y-169940731D01*
X216642186Y-169941125D01*
X216050481Y-169787441D01*
X216043335Y-169782045D01*
X216042098Y-169773176D01*
X216199182Y-169173837D01*
X216204594Y-169166705D01*
X216211714Y-169165168D01*
X216737233Y-169220118D01*
G37*
%TD.AperFunction*%
%TD*%
%TA.AperFunction,Conductor*%
%TO.N,ring_bottom*%
G36*
X85781923Y-133499840D02*
G01*
X86109549Y-133944496D01*
X86111698Y-133953189D01*
X86111377Y-133954661D01*
X86045767Y-134183473D01*
X86040192Y-134190481D01*
X86038148Y-134191371D01*
X85537017Y-134354805D01*
X85528089Y-134354113D01*
X85523031Y-134349122D01*
X85229596Y-133790409D01*
X85228783Y-133781491D01*
X85234512Y-133774612D01*
X85767088Y-133496409D01*
X85776006Y-133495617D01*
X85781923Y-133499840D01*
G37*
%TD.AperFunction*%
%TD*%
%TA.AperFunction,Conductor*%
%TO.N,C0*%
G36*
X194109457Y-130977123D02*
G01*
X194111750Y-130980264D01*
X194373734Y-131504251D01*
X194374369Y-131513183D01*
X194371295Y-131517996D01*
X193820673Y-132037103D01*
X193812302Y-132040285D01*
X193808075Y-132039360D01*
X193592409Y-131947815D01*
X193586133Y-131941428D01*
X193585289Y-131936607D01*
X193620929Y-130990761D01*
X193624664Y-130982626D01*
X193632475Y-130979506D01*
X194101142Y-130973797D01*
X194109457Y-130977123D01*
G37*
%TD.AperFunction*%
%TD*%
%TA.AperFunction,Conductor*%
%TO.N,mirror_middle_top*%
G36*
X229423851Y-93560435D02*
G01*
X229428808Y-93567893D01*
X229429023Y-93569836D01*
X229448831Y-94313728D01*
X229445625Y-94322089D01*
X229441518Y-94324887D01*
X229224769Y-94412459D01*
X229215814Y-94412381D01*
X229211768Y-94409524D01*
X228991020Y-94169116D01*
X228712962Y-93866293D01*
X228709892Y-93857884D01*
X228713668Y-93849764D01*
X228715049Y-93848675D01*
X229034013Y-93634421D01*
X229038274Y-93632655D01*
X229415075Y-93558666D01*
X229423851Y-93560435D01*
G37*
%TD.AperFunction*%
%TD*%
%TA.AperFunction,Conductor*%
%TO.N,mirror_index_home*%
G36*
X221513897Y-123234287D02*
G01*
X221518854Y-123241745D01*
X221519069Y-123243688D01*
X221538878Y-123987579D01*
X221535672Y-123995940D01*
X221531565Y-123998738D01*
X221314816Y-124086310D01*
X221305861Y-124086232D01*
X221301815Y-124083375D01*
X221082586Y-123844622D01*
X220803008Y-123540145D01*
X220799938Y-123531736D01*
X220803714Y-123523616D01*
X220805095Y-123522527D01*
X221124059Y-123308273D01*
X221128320Y-123306507D01*
X221505121Y-123232518D01*
X221513897Y-123234287D01*
G37*
%TD.AperFunction*%
%TD*%
%TA.AperFunction,Conductor*%
%TO.N,C4*%
G36*
X122567597Y-169175268D02*
G01*
X122571634Y-169181374D01*
X122732849Y-169773180D01*
X122731717Y-169782063D01*
X122724635Y-169787544D01*
X122724610Y-169787550D01*
X122128504Y-169948519D01*
X122119624Y-169947368D01*
X122114836Y-169942136D01*
X121886722Y-169448903D01*
X121886360Y-169439958D01*
X121887638Y-169437458D01*
X122020753Y-169240108D01*
X122028219Y-169235168D01*
X122029061Y-169235036D01*
X122558982Y-169172829D01*
X122567597Y-169175268D01*
G37*
%TD.AperFunction*%
%TD*%
%TA.AperFunction,Conductor*%
%TO.N,home_thumb*%
G36*
X127253025Y-169720500D02*
G01*
X127467235Y-170039496D01*
X127469002Y-170048275D01*
X127468992Y-170048328D01*
X127393181Y-170424908D01*
X127388189Y-170432342D01*
X127379735Y-170434131D01*
X126715827Y-170320388D01*
X126708252Y-170315613D01*
X126706319Y-170311091D01*
X126661700Y-170081552D01*
X126663485Y-170072778D01*
X126667033Y-170069369D01*
X127237164Y-169717069D01*
X127246001Y-169715636D01*
X127253025Y-169720500D01*
G37*
%TD.AperFunction*%
%TD*%
%TA.AperFunction,Conductor*%
%TO.N,C3*%
G36*
X86378347Y-116189250D02*
G01*
X86564445Y-116364128D01*
X86733755Y-116523230D01*
X86737437Y-116531393D01*
X86736551Y-116536236D01*
X86511896Y-117078168D01*
X86505562Y-117084499D01*
X86498489Y-117085096D01*
X85915690Y-116952320D01*
X85908385Y-116947141D01*
X85908056Y-116946584D01*
X85906350Y-116943506D01*
X85793780Y-116740429D01*
X85792767Y-116731534D01*
X85795962Y-116726270D01*
X86362288Y-116189286D01*
X86370648Y-116186081D01*
X86378347Y-116189250D01*
G37*
%TD.AperFunction*%
%TD*%
%TA.AperFunction,Conductor*%
%TO.N,C4*%
G36*
X122746033Y-168631367D02*
G01*
X122750357Y-168635722D01*
X123138447Y-169319091D01*
X123139553Y-169327977D01*
X123137021Y-169332638D01*
X122739912Y-169779773D01*
X122731856Y-169783684D01*
X122728663Y-169783434D01*
X122284884Y-169686338D01*
X122277535Y-169681222D01*
X122275955Y-169672407D01*
X122275991Y-169672251D01*
X122502820Y-168699390D01*
X122508035Y-168692114D01*
X122511178Y-168690751D01*
X122737157Y-168630199D01*
X122746033Y-168631367D01*
G37*
%TD.AperFunction*%
%TD*%
%TA.AperFunction,Conductor*%
%TO.N,C1*%
G36*
X128492158Y-113436890D02*
G01*
X128767005Y-113896695D01*
X128768308Y-113905554D01*
X128762965Y-113912741D01*
X128762833Y-113912818D01*
X128134602Y-114277293D01*
X128125727Y-114278481D01*
X128118611Y-114273044D01*
X128118116Y-114272093D01*
X127965128Y-113941358D01*
X127964977Y-113941018D01*
X127871812Y-113721537D01*
X127871734Y-113712582D01*
X127877716Y-113706325D01*
X128477253Y-113432251D01*
X128486200Y-113431929D01*
X128492158Y-113436890D01*
G37*
%TD.AperFunction*%
%TD*%
%TA.AperFunction,Conductor*%
%TO.N,mirror_pinky_home*%
G36*
X280033877Y-117263880D02*
G01*
X280041333Y-117268837D01*
X280041363Y-117268882D01*
X280253516Y-117588029D01*
X280255242Y-117596816D01*
X280250249Y-117604250D01*
X280249828Y-117604517D01*
X279653840Y-117965063D01*
X279644988Y-117966413D01*
X279640581Y-117964272D01*
X279456309Y-117820304D01*
X279451899Y-117812510D01*
X279452342Y-117807605D01*
X279642608Y-117197593D01*
X279648343Y-117190717D01*
X279656034Y-117189598D01*
X280033877Y-117263880D01*
G37*
%TD.AperFunction*%
%TD*%
%TA.AperFunction,Conductor*%
%TO.N,middle_home*%
G36*
X111551172Y-116735520D02*
G01*
X111556587Y-116740418D01*
X111832819Y-117225049D01*
X111833938Y-117233934D01*
X111833502Y-117235226D01*
X111744334Y-117455922D01*
X111738058Y-117462309D01*
X111735792Y-117463010D01*
X111223387Y-117566013D01*
X111214601Y-117564283D01*
X111210171Y-117558768D01*
X111084336Y-117233934D01*
X110979871Y-116964263D01*
X110980078Y-116955312D01*
X110986553Y-116949129D01*
X111542220Y-116735293D01*
X111551172Y-116735520D01*
G37*
%TD.AperFunction*%
%TD*%
%TA.AperFunction,Conductor*%
%TO.N,pinky_bottom*%
G36*
X66516149Y-138408585D02*
G01*
X66874114Y-138772415D01*
X66908207Y-138807066D01*
X66911567Y-138815367D01*
X66911480Y-138816698D01*
X66882472Y-139052952D01*
X66878062Y-139060746D01*
X66876028Y-139062022D01*
X66407974Y-139292526D01*
X66399038Y-139293107D01*
X66393347Y-139288917D01*
X66227188Y-139060746D01*
X66017218Y-138772414D01*
X66015119Y-138763710D01*
X66019789Y-138756071D01*
X66500944Y-138407317D01*
X66509652Y-138405237D01*
X66516149Y-138408585D01*
G37*
%TD.AperFunction*%
%TD*%
%TA.AperFunction,Conductor*%
%TO.N,C1*%
G36*
X220239316Y-146489334D02*
G01*
X220246144Y-146495126D01*
X220246876Y-146504050D01*
X220246871Y-146504068D01*
X220042588Y-147136487D01*
X220036784Y-147143307D01*
X220027858Y-147144025D01*
X220027519Y-147143909D01*
X219616451Y-146997110D01*
X219615814Y-146996862D01*
X219397506Y-146904195D01*
X219391230Y-146897808D01*
X219391308Y-146888853D01*
X219391630Y-146888159D01*
X219679015Y-146319706D01*
X219685804Y-146313871D01*
X219693032Y-146313848D01*
X220239316Y-146489334D01*
G37*
%TD.AperFunction*%
%TD*%
%TA.AperFunction,Conductor*%
%TO.N,ring_top*%
G36*
X101516991Y-97144805D02*
G01*
X101517035Y-97144835D01*
X101835075Y-97358438D01*
X101840033Y-97365896D01*
X101838265Y-97374674D01*
X101837917Y-97375164D01*
X101418613Y-97935134D01*
X101410912Y-97939702D01*
X101406023Y-97939368D01*
X101181243Y-97874913D01*
X101174235Y-97869338D01*
X101172807Y-97864616D01*
X101132944Y-97375164D01*
X101121242Y-97231479D01*
X101123986Y-97222957D01*
X101130594Y-97219061D01*
X101508205Y-97143078D01*
X101516991Y-97144805D01*
G37*
%TD.AperFunction*%
%TD*%
%TA.AperFunction,Conductor*%
%TO.N,mirror_index_bottom*%
G36*
X224080084Y-144799344D02*
G01*
X224092445Y-144802835D01*
X224099475Y-144808382D01*
X224100113Y-144809712D01*
X224189281Y-145030411D01*
X224189203Y-145039366D01*
X224188124Y-145041350D01*
X223898244Y-145469815D01*
X223890769Y-145474747D01*
X223883744Y-145473925D01*
X223297511Y-145209619D01*
X223291378Y-145203095D01*
X223291653Y-145194146D01*
X223535750Y-144655939D01*
X223542287Y-144649821D01*
X223549581Y-144649513D01*
X224080084Y-144799344D01*
G37*
%TD.AperFunction*%
%TD*%
%TA.AperFunction,Conductor*%
%TO.N,C4*%
G36*
X64392250Y-121264118D02*
G01*
X64756406Y-121459112D01*
X64802129Y-121483595D01*
X64807805Y-121490521D01*
X64808303Y-121494188D01*
X64794306Y-122081959D01*
X64790683Y-122090148D01*
X64785973Y-122092886D01*
X64027894Y-122320423D01*
X64018984Y-122319519D01*
X64015310Y-122316420D01*
X63871246Y-122132029D01*
X63868853Y-122123400D01*
X63870411Y-122118844D01*
X64376678Y-121268446D01*
X64383852Y-121263092D01*
X64392250Y-121264118D01*
G37*
%TD.AperFunction*%
%TD*%
%TA.AperFunction,Conductor*%
%TO.N,C3*%
G36*
X86314578Y-115566571D02*
G01*
X86914578Y-115952790D01*
X86919679Y-115960149D01*
X86919390Y-115966188D01*
X86741526Y-116523023D01*
X86735745Y-116529861D01*
X86731864Y-116531069D01*
X86263596Y-116590900D01*
X86254955Y-116588549D01*
X86250597Y-116581356D01*
X86091515Y-115692224D01*
X86093431Y-115683478D01*
X86097358Y-115679933D01*
X86302578Y-115566177D01*
X86311473Y-115565164D01*
X86314578Y-115566571D01*
G37*
%TD.AperFunction*%
%TD*%
%TA.AperFunction,Conductor*%
%TO.N,mirror_inner_home*%
G36*
X204592875Y-144932216D02*
G01*
X204599905Y-144937763D01*
X204600543Y-144939093D01*
X204689712Y-145159793D01*
X204689634Y-145168748D01*
X204688554Y-145170732D01*
X204398673Y-145599193D01*
X204391199Y-145604125D01*
X204384174Y-145603303D01*
X203797938Y-145338992D01*
X203791805Y-145332468D01*
X203792080Y-145323519D01*
X204036178Y-144785316D01*
X204042716Y-144779198D01*
X204050013Y-144778890D01*
X204592875Y-144932216D01*
G37*
%TD.AperFunction*%
%TD*%
%TA.AperFunction,Conductor*%
%TO.N,mirror_ring_top*%
G36*
X247676279Y-99662925D02*
G01*
X248192425Y-99875081D01*
X248198772Y-99881394D01*
X248199222Y-99882676D01*
X248264832Y-100111487D01*
X248263818Y-100120384D01*
X248262460Y-100122335D01*
X247922019Y-100518682D01*
X247914029Y-100522725D01*
X247907146Y-100521104D01*
X247359552Y-100194089D01*
X247354207Y-100186906D01*
X247355507Y-100178046D01*
X247355520Y-100178024D01*
X247395456Y-100111487D01*
X247661803Y-99667725D01*
X247668998Y-99662397D01*
X247676279Y-99662925D01*
G37*
%TD.AperFunction*%
%TD*%
%TA.AperFunction,Conductor*%
%TO.N,C0*%
G36*
X200763804Y-146630733D02*
G01*
X201354087Y-146995632D01*
X201369022Y-147004865D01*
X201374257Y-147012130D01*
X201374208Y-147017705D01*
X201237509Y-147554345D01*
X201232146Y-147561516D01*
X201230554Y-147562305D01*
X201010127Y-147651362D01*
X201001172Y-147651284D01*
X200999050Y-147650110D01*
X200577307Y-147355936D01*
X200572482Y-147348392D01*
X200572640Y-147343544D01*
X200654875Y-147009382D01*
X200746295Y-146637890D01*
X200751599Y-146630677D01*
X200760452Y-146629326D01*
X200763804Y-146630733D01*
G37*
%TD.AperFunction*%
%TD*%
%TA.AperFunction,Conductor*%
%TO.N,GND*%
G36*
X178858853Y-139603576D02*
G01*
X178862213Y-139606583D01*
X179609090Y-140595624D01*
X179611341Y-140604292D01*
X179608026Y-140610948D01*
X179440416Y-140778558D01*
X179435808Y-140781396D01*
X178862040Y-140970643D01*
X178853255Y-140970052D01*
X177035543Y-140085403D01*
X177029604Y-140078702D01*
X177030143Y-140069763D01*
X177036844Y-140063824D01*
X177037754Y-140063551D01*
X178849991Y-139602296D01*
X178858853Y-139603576D01*
G37*
%TD.AperFunction*%
%TD*%
%TA.AperFunction,Conductor*%
%TO.N,C0*%
G36*
X137853872Y-161002643D02*
G01*
X138230492Y-161078463D01*
X138237925Y-161083454D01*
X138239714Y-161091908D01*
X138125969Y-161755816D01*
X138121194Y-161763391D01*
X138116669Y-161765325D01*
X137887134Y-161809942D01*
X137878359Y-161808157D01*
X137874949Y-161804607D01*
X137827179Y-161727301D01*
X137522652Y-161234479D01*
X137521219Y-161225642D01*
X137526082Y-161218619D01*
X137845081Y-161004407D01*
X137853858Y-161002641D01*
X137853872Y-161002643D01*
G37*
%TD.AperFunction*%
%TD*%
%TA.AperFunction,Conductor*%
%TO.N,mirror_pinky_bottom*%
G36*
X276443210Y-137894549D02*
G01*
X276919980Y-138186050D01*
X276925251Y-138193289D01*
X276925490Y-138194606D01*
X276954498Y-138430859D01*
X276952105Y-138439488D01*
X276950443Y-138441216D01*
X276552083Y-138778364D01*
X276543555Y-138781093D01*
X276537017Y-138778406D01*
X276047151Y-138368537D01*
X276043005Y-138360600D01*
X276045686Y-138352056D01*
X276428151Y-137897002D01*
X276436097Y-137892875D01*
X276443210Y-137894549D01*
G37*
%TD.AperFunction*%
%TD*%
%TA.AperFunction,Conductor*%
%TO.N,ring_home*%
G36*
X96657450Y-116901392D02*
G01*
X96891670Y-117057143D01*
X96978190Y-117114677D01*
X96983181Y-117122112D01*
X96983192Y-117122165D01*
X97057040Y-117498091D01*
X97055272Y-117506869D01*
X97047814Y-117511827D01*
X97047223Y-117511927D01*
X96354773Y-117611394D01*
X96346096Y-117609178D01*
X96342876Y-117605485D01*
X96229508Y-117400965D01*
X96228494Y-117392068D01*
X96230822Y-117387721D01*
X96642057Y-116903560D01*
X96650022Y-116899475D01*
X96657450Y-116901392D01*
G37*
%TD.AperFunction*%
%TD*%
%TA.AperFunction,Conductor*%
%TO.N,reachy_thumb*%
G36*
X147470004Y-182934846D02*
G01*
X147684214Y-183253842D01*
X147685981Y-183262621D01*
X147685971Y-183262674D01*
X147610160Y-183639254D01*
X147605168Y-183646688D01*
X147596714Y-183648477D01*
X146932806Y-183534732D01*
X146925231Y-183529957D01*
X146923298Y-183525435D01*
X146878679Y-183295896D01*
X146880464Y-183287122D01*
X146884012Y-183283713D01*
X147454143Y-182931415D01*
X147462980Y-182929982D01*
X147470004Y-182934846D01*
G37*
%TD.AperFunction*%
%TD*%
%TA.AperFunction,Conductor*%
%TO.N,middle_top*%
G36*
X117919481Y-100973402D02*
G01*
X117924896Y-100978300D01*
X118201126Y-101462935D01*
X118202245Y-101471820D01*
X118201809Y-101473112D01*
X118112641Y-101693808D01*
X118106365Y-101700195D01*
X118104099Y-101700896D01*
X117591696Y-101803894D01*
X117582909Y-101802164D01*
X117578480Y-101796649D01*
X117541116Y-101700195D01*
X117348182Y-101202140D01*
X117348389Y-101193189D01*
X117354864Y-101187006D01*
X117910529Y-100973175D01*
X117919481Y-100973402D01*
G37*
%TD.AperFunction*%
%TD*%
%TA.AperFunction,Conductor*%
%TO.N,mirror_ring_home*%
G36*
X252362120Y-116004377D02*
G01*
X252878261Y-116216533D01*
X252884610Y-116222847D01*
X252885060Y-116224129D01*
X252950670Y-116452939D01*
X252949656Y-116461836D01*
X252948298Y-116463788D01*
X252607857Y-116860133D01*
X252599867Y-116864175D01*
X252592983Y-116862554D01*
X252045390Y-116535538D01*
X252040044Y-116528354D01*
X252041344Y-116519494D01*
X252041357Y-116519472D01*
X252081291Y-116452939D01*
X252347641Y-116009175D01*
X252354836Y-116003847D01*
X252362120Y-116004377D01*
G37*
%TD.AperFunction*%
%TD*%
%TA.AperFunction,Conductor*%
%TO.N,mirror_reachy_thumb*%
G36*
X198488710Y-174230299D02*
G01*
X198493374Y-174236586D01*
X198682239Y-174853283D01*
X198681385Y-174862197D01*
X198677595Y-174866409D01*
X198483718Y-174997182D01*
X198474943Y-174998967D01*
X198471117Y-174997491D01*
X197886186Y-174643443D01*
X197880882Y-174636228D01*
X197882235Y-174627376D01*
X197882485Y-174626980D01*
X198094712Y-174307764D01*
X198102143Y-174302775D01*
X198479932Y-174228532D01*
X198488710Y-174230299D01*
G37*
%TD.AperFunction*%
%TD*%
%TA.AperFunction,Conductor*%
%TO.N,C3*%
G36*
X162647514Y-152600582D02*
G01*
X162652482Y-152608032D01*
X162652487Y-152608057D01*
X162941125Y-154083060D01*
X162939351Y-154091837D01*
X162937916Y-154093580D01*
X162771063Y-154260433D01*
X162762790Y-154263860D01*
X162758330Y-154262976D01*
X161337105Y-153676889D01*
X161330763Y-153670567D01*
X161330749Y-153661613D01*
X161331049Y-153660945D01*
X161764273Y-152776628D01*
X161770989Y-152770707D01*
X161772497Y-152770301D01*
X162638735Y-152598827D01*
X162647514Y-152600582D01*
G37*
%TD.AperFunction*%
%TD*%
%TA.AperFunction,Conductor*%
%TO.N,mirror_ring_top*%
G36*
X252896510Y-94516922D02*
G01*
X252959926Y-94529683D01*
X252967361Y-94534674D01*
X252969279Y-94542103D01*
X252917711Y-95175240D01*
X252913624Y-95183207D01*
X252909275Y-95185537D01*
X252684494Y-95249991D01*
X252675597Y-95248977D01*
X252671904Y-95245757D01*
X252625067Y-95183207D01*
X252252603Y-94685785D01*
X252250388Y-94677109D01*
X252254956Y-94669408D01*
X252255446Y-94669060D01*
X252573486Y-94455456D01*
X252582262Y-94453689D01*
X252896510Y-94516922D01*
G37*
%TD.AperFunction*%
%TD*%
%TA.AperFunction,Conductor*%
%TO.N,C0*%
G36*
X197840864Y-181802888D02*
G01*
X197862729Y-181805889D01*
X197870459Y-181810408D01*
X197872729Y-181819071D01*
X197872726Y-181819096D01*
X197787514Y-182430047D01*
X197782977Y-182437768D01*
X197776266Y-182440126D01*
X197233937Y-182455881D01*
X197225568Y-182452696D01*
X197223897Y-182450729D01*
X197209947Y-182430047D01*
X197090788Y-182253386D01*
X197089004Y-182244613D01*
X197089271Y-182243524D01*
X197241651Y-181730681D01*
X197247291Y-181723728D01*
X197254453Y-181722424D01*
X197840864Y-181802888D01*
G37*
%TD.AperFunction*%
%TD*%
%TA.AperFunction,Conductor*%
%TO.N,mirror_ring_bottom*%
G36*
X257047952Y-132345824D02*
G01*
X257564099Y-132557981D01*
X257570446Y-132564294D01*
X257570896Y-132565576D01*
X257636506Y-132794386D01*
X257635492Y-132803283D01*
X257634134Y-132805234D01*
X257293692Y-133201581D01*
X257285702Y-133205624D01*
X257278819Y-133204003D01*
X256731225Y-132876986D01*
X256725880Y-132869803D01*
X256727180Y-132860943D01*
X256727193Y-132860921D01*
X256904461Y-132565576D01*
X257033476Y-132350624D01*
X257040671Y-132345296D01*
X257047952Y-132345824D01*
G37*
%TD.AperFunction*%
%TD*%
%TA.AperFunction,Conductor*%
%TO.N,C1*%
G36*
X121942709Y-128826229D02*
G01*
X121950128Y-128831244D01*
X121951723Y-128834885D01*
X122126934Y-129543834D01*
X122125592Y-129552688D01*
X122118383Y-129557999D01*
X122116898Y-129558266D01*
X121626551Y-129614023D01*
X121617944Y-129611553D01*
X121613714Y-129604467D01*
X121484698Y-128886165D01*
X121486609Y-128877419D01*
X121491639Y-128873331D01*
X121709824Y-128780716D01*
X121716739Y-128780024D01*
X121942709Y-128826229D01*
G37*
%TD.AperFunction*%
%TD*%
%TA.AperFunction,Conductor*%
%TO.N,ring_top*%
G36*
X95146962Y-100839490D02*
G01*
X95322716Y-101097133D01*
X95467758Y-101309753D01*
X95469590Y-101318518D01*
X95469340Y-101319571D01*
X95403731Y-101548372D01*
X95398156Y-101555380D01*
X95395708Y-101556394D01*
X94901299Y-101698122D01*
X94892402Y-101697108D01*
X94887570Y-101692027D01*
X94600977Y-101107660D01*
X94600411Y-101098723D01*
X94606327Y-101092005D01*
X95132172Y-100835566D01*
X95141107Y-100835021D01*
X95146962Y-100839490D01*
G37*
%TD.AperFunction*%
%TD*%
%TA.AperFunction,Conductor*%
%TO.N,pinky_bottom*%
G36*
X72154788Y-137736344D02*
G01*
X72155209Y-137736611D01*
X72272465Y-137814556D01*
X72474356Y-137948765D01*
X72479348Y-137956196D01*
X72479359Y-137956251D01*
X72553640Y-138334093D01*
X72551874Y-138342872D01*
X72545644Y-138347519D01*
X71935638Y-138537784D01*
X71926720Y-138536976D01*
X71922934Y-138533818D01*
X71778966Y-138349546D01*
X71776573Y-138340917D01*
X71778173Y-138336290D01*
X72138722Y-137740297D01*
X72145936Y-137734994D01*
X72154788Y-137736344D01*
G37*
%TD.AperFunction*%
%TD*%
%TA.AperFunction,Conductor*%
%TO.N,mirror_index_top*%
G36*
X210795224Y-113502177D02*
G01*
X210807585Y-113505668D01*
X210814615Y-113511215D01*
X210815253Y-113512545D01*
X210904421Y-113733244D01*
X210904343Y-113742199D01*
X210903264Y-113744183D01*
X210613384Y-114172649D01*
X210605909Y-114177581D01*
X210598884Y-114176759D01*
X210012651Y-113912454D01*
X210006518Y-113905930D01*
X210006793Y-113896981D01*
X210250890Y-113358771D01*
X210257427Y-113352654D01*
X210264721Y-113352346D01*
X210795224Y-113502177D01*
G37*
%TD.AperFunction*%
%TD*%
%TA.AperFunction,Conductor*%
%TO.N,inner_home*%
G36*
X145729592Y-144673304D02*
G01*
X146106399Y-144747295D01*
X146110663Y-144749062D01*
X146429618Y-144963310D01*
X146434575Y-144970768D01*
X146432806Y-144979546D01*
X146431712Y-144980935D01*
X145932905Y-145524163D01*
X145924785Y-145527939D01*
X145919904Y-145527098D01*
X145703155Y-145439525D01*
X145696768Y-145433249D01*
X145695842Y-145428366D01*
X145715652Y-144684474D01*
X145719298Y-144676297D01*
X145727659Y-144673091D01*
X145729592Y-144673304D01*
G37*
%TD.AperFunction*%
%TD*%
%TA.AperFunction,Conductor*%
%TO.N,mirror_pinky_bottom*%
G36*
X282143101Y-134031809D02*
G01*
X282150557Y-134036766D01*
X282150587Y-134036811D01*
X282362740Y-134355958D01*
X282364466Y-134364745D01*
X282359473Y-134372179D01*
X282359052Y-134372446D01*
X281763064Y-134732992D01*
X281754212Y-134734342D01*
X281749805Y-134732201D01*
X281565533Y-134588233D01*
X281561123Y-134580439D01*
X281561566Y-134575534D01*
X281751832Y-133965522D01*
X281757567Y-133958646D01*
X281765258Y-133957527D01*
X282143101Y-134031809D01*
G37*
%TD.AperFunction*%
%TD*%
%TA.AperFunction,Conductor*%
%TO.N,C3*%
G36*
X248857386Y-117437266D02*
G01*
X248865281Y-117441491D01*
X248867174Y-117444763D01*
X249075183Y-117993598D01*
X249074910Y-118002548D01*
X249071465Y-118006948D01*
X248463987Y-118483657D01*
X248455363Y-118486069D01*
X248451092Y-118484686D01*
X248246300Y-118371168D01*
X248240725Y-118364160D01*
X248240395Y-118359247D01*
X248380418Y-117401247D01*
X248385004Y-117393558D01*
X248393145Y-117391298D01*
X248857386Y-117437266D01*
G37*
%TD.AperFunction*%
%TD*%
%TA.AperFunction,Conductor*%
%TO.N,mirror_middle_bottom*%
G36*
X242075721Y-124741439D02*
G01*
X242080678Y-124748897D01*
X242080893Y-124750840D01*
X242100703Y-125494731D01*
X242097497Y-125503092D01*
X242093390Y-125505890D01*
X241876641Y-125593462D01*
X241867686Y-125593384D01*
X241863640Y-125590527D01*
X241645150Y-125352580D01*
X241364832Y-125047297D01*
X241361762Y-125038888D01*
X241365538Y-125030768D01*
X241366919Y-125029679D01*
X241685883Y-124815425D01*
X241690144Y-124813659D01*
X242066945Y-124739670D01*
X242075721Y-124741439D01*
G37*
%TD.AperFunction*%
%TD*%
%TA.AperFunction,Conductor*%
%TO.N,C4*%
G36*
X213196684Y-171440344D02*
G01*
X213863670Y-171725085D01*
X213869932Y-171731483D01*
X213870683Y-171737306D01*
X213821792Y-172125603D01*
X213821536Y-172126971D01*
X213764381Y-172356209D01*
X213759055Y-172363408D01*
X213750199Y-172364731D01*
X213748986Y-172364358D01*
X213159577Y-172147308D01*
X213152998Y-172141234D01*
X213151930Y-172135847D01*
X213180401Y-171450617D01*
X213184168Y-171442496D01*
X213192577Y-171439415D01*
X213196684Y-171440344D01*
G37*
%TD.AperFunction*%
%TD*%
%TA.AperFunction,Conductor*%
%TO.N,mirror_middle_home*%
G36*
X231661972Y-115316284D02*
G01*
X231668956Y-115321889D01*
X231669547Y-115323134D01*
X231758715Y-115543830D01*
X231758637Y-115552785D01*
X231757502Y-115554850D01*
X231460744Y-115985634D01*
X231453229Y-115990503D01*
X231446207Y-115989621D01*
X231038622Y-115801555D01*
X230867922Y-115722791D01*
X230861847Y-115716214D01*
X230862200Y-115707267D01*
X231113088Y-115166699D01*
X231119679Y-115160640D01*
X231126970Y-115160394D01*
X231661972Y-115316284D01*
G37*
%TD.AperFunction*%
%TD*%
%TA.AperFunction,Conductor*%
%TO.N,C4*%
G36*
X62164892Y-137487606D02*
G01*
X62814681Y-137763551D01*
X62820957Y-137769939D01*
X62821686Y-137776004D01*
X62737599Y-138354272D01*
X62733018Y-138361966D01*
X62729346Y-138363806D01*
X62275946Y-138498190D01*
X62267040Y-138497255D01*
X62261585Y-138490859D01*
X61964338Y-137646757D01*
X61964823Y-137637817D01*
X61968168Y-137633654D01*
X62153118Y-137489155D01*
X62161746Y-137486763D01*
X62164892Y-137487606D01*
G37*
%TD.AperFunction*%
%TD*%
%TA.AperFunction,Conductor*%
%TO.N,C0*%
G36*
X138177573Y-178780571D02*
G01*
X138180179Y-178782978D01*
X138619859Y-179334568D01*
X138622336Y-179343174D01*
X138620087Y-179348858D01*
X138270779Y-179816945D01*
X138263085Y-179821526D01*
X138258828Y-179821361D01*
X137794607Y-179716647D01*
X137787290Y-179711484D01*
X137785637Y-179703332D01*
X137846405Y-179334568D01*
X137929031Y-178833164D01*
X137933756Y-178825560D01*
X137938339Y-178823583D01*
X138168797Y-178778786D01*
X138177573Y-178780571D01*
G37*
%TD.AperFunction*%
%TD*%
%TA.AperFunction,Conductor*%
%TO.N,C1*%
G36*
X206953395Y-115193502D02*
G01*
X206960909Y-115198370D01*
X206962780Y-115207127D01*
X206962632Y-115207814D01*
X206788174Y-115913715D01*
X206782863Y-115920924D01*
X206774282Y-115922330D01*
X206488408Y-115858897D01*
X206486370Y-115858245D01*
X206266586Y-115764953D01*
X206260310Y-115758566D01*
X206259855Y-115751162D01*
X206431639Y-115108335D01*
X206437085Y-115101227D01*
X206445059Y-115099850D01*
X206953395Y-115193502D01*
G37*
%TD.AperFunction*%
%TD*%
%TA.AperFunction,Conductor*%
%TO.N,index_home*%
G36*
X125748660Y-130630325D02*
G01*
X125754030Y-130635268D01*
X126022831Y-131116273D01*
X126023876Y-131125167D01*
X126023466Y-131126364D01*
X125934299Y-131347060D01*
X125928023Y-131353447D01*
X125925663Y-131354166D01*
X125406735Y-131454054D01*
X125397963Y-131452253D01*
X125393576Y-131446696D01*
X125272697Y-131126364D01*
X125170617Y-130855848D01*
X125170903Y-130846901D01*
X125177431Y-130840774D01*
X125739713Y-130630020D01*
X125748660Y-130630325D01*
G37*
%TD.AperFunction*%
%TD*%
%TA.AperFunction,Conductor*%
%TO.N,C2*%
G36*
X162521503Y-149742412D02*
G01*
X162522005Y-149743237D01*
X163292800Y-151136212D01*
X163293807Y-151145110D01*
X163290836Y-151150150D01*
X163124287Y-151316699D01*
X163116014Y-151320126D01*
X163114673Y-151320049D01*
X161500114Y-151133751D01*
X161492288Y-151129398D01*
X161489832Y-151120787D01*
X161490285Y-151118646D01*
X161765590Y-150235380D01*
X161770270Y-150229127D01*
X162505280Y-149739166D01*
X162514063Y-149737429D01*
X162521503Y-149742412D01*
G37*
%TD.AperFunction*%
%TD*%
%TA.AperFunction,Conductor*%
%TO.N,C1*%
G36*
X121849900Y-129065970D02*
G01*
X121855590Y-129071000D01*
X122124872Y-129545260D01*
X122125977Y-129554146D01*
X122120475Y-129561211D01*
X122120459Y-129561221D01*
X121497542Y-129913595D01*
X121488654Y-129914685D01*
X121481597Y-129909172D01*
X121481090Y-129908164D01*
X121322275Y-129550954D01*
X121229206Y-129331697D01*
X121229129Y-129322744D01*
X121235404Y-129316357D01*
X121840948Y-129065965D01*
X121849900Y-129065970D01*
G37*
%TD.AperFunction*%
%TD*%
%TA.AperFunction,Conductor*%
%TO.N,C2*%
G36*
X160323509Y-149486897D02*
G01*
X160462985Y-149558775D01*
X161748076Y-150221035D01*
X161753859Y-150227870D01*
X161753115Y-150236794D01*
X161748083Y-150241830D01*
X160322347Y-150977960D01*
X160313423Y-150978711D01*
X160312495Y-150978371D01*
X159176037Y-150506837D01*
X159172248Y-150504303D01*
X159007400Y-150339455D01*
X159003973Y-150331182D01*
X159007400Y-150322909D01*
X159009355Y-150321335D01*
X160311841Y-149487442D01*
X160320656Y-149485869D01*
X160323509Y-149486897D01*
G37*
%TD.AperFunction*%
%TD*%
%TA.AperFunction,Conductor*%
%TO.N,mirror_reachy_thumb*%
G36*
X200602634Y-178773907D02*
G01*
X200833056Y-178818697D01*
X200840524Y-178823639D01*
X200842363Y-178828251D01*
X200988675Y-179702377D01*
X200986661Y-179711102D01*
X200979736Y-179715716D01*
X200516212Y-179821349D01*
X200507384Y-179819846D01*
X200504266Y-179816980D01*
X200152873Y-179350406D01*
X200150634Y-179341738D01*
X200153017Y-179336144D01*
X200591202Y-178778166D01*
X200599007Y-178773777D01*
X200602634Y-178773907D01*
G37*
%TD.AperFunction*%
%TD*%
%TA.AperFunction,Conductor*%
%TO.N,index_top*%
G36*
X139157237Y-114124399D02*
G01*
X139534044Y-114198390D01*
X139538308Y-114200157D01*
X139857263Y-114414405D01*
X139862220Y-114421863D01*
X139860451Y-114430641D01*
X139859357Y-114432030D01*
X139360548Y-114975258D01*
X139352428Y-114979034D01*
X139347547Y-114978193D01*
X139130798Y-114890620D01*
X139124411Y-114884344D01*
X139123485Y-114879461D01*
X139143297Y-114135569D01*
X139146943Y-114127392D01*
X139155304Y-114124186D01*
X139157237Y-114124399D01*
G37*
%TD.AperFunction*%
%TD*%
%TA.AperFunction,Conductor*%
%TO.N,index_bottom*%
G36*
X119106232Y-146278907D02*
G01*
X119111602Y-146283850D01*
X119380405Y-146764854D01*
X119381450Y-146773748D01*
X119381040Y-146774945D01*
X119291873Y-146995641D01*
X119285597Y-147002028D01*
X119283237Y-147002747D01*
X118764307Y-147102636D01*
X118755535Y-147100835D01*
X118751148Y-147095278D01*
X118716231Y-147002747D01*
X118528189Y-146504432D01*
X118528475Y-146495485D01*
X118535003Y-146489358D01*
X119097285Y-146278602D01*
X119106232Y-146278907D01*
G37*
%TD.AperFunction*%
%TD*%
%TA.AperFunction,Conductor*%
%TO.N,C0*%
G36*
X188737559Y-171398693D02*
G01*
X188742423Y-171405717D01*
X188896452Y-172057967D01*
X188895018Y-172066806D01*
X188891608Y-172070356D01*
X188697752Y-172201115D01*
X188688977Y-172202900D01*
X188684452Y-172200966D01*
X188134570Y-171811942D01*
X188129795Y-171804367D01*
X188131583Y-171795914D01*
X188344261Y-171476020D01*
X188351692Y-171471031D01*
X188728780Y-171396926D01*
X188737559Y-171398693D01*
G37*
%TD.AperFunction*%
%TD*%
%TA.AperFunction,Conductor*%
%TO.N,mirror_inner_top*%
G36*
X197950447Y-129283633D02*
G01*
X197957477Y-129289180D01*
X197958115Y-129290510D01*
X198047284Y-129511210D01*
X198047206Y-129520165D01*
X198046126Y-129522149D01*
X197756245Y-129950610D01*
X197748771Y-129955542D01*
X197741746Y-129954720D01*
X197155510Y-129690409D01*
X197149377Y-129683885D01*
X197149652Y-129674936D01*
X197393750Y-129136733D01*
X197400288Y-129130615D01*
X197407585Y-129130307D01*
X197950447Y-129283633D01*
G37*
%TD.AperFunction*%
%TD*%
%TA.AperFunction,Conductor*%
%TO.N,C1*%
G36*
X213385512Y-130291079D02*
G01*
X213389240Y-130296013D01*
X213605797Y-130838692D01*
X213605680Y-130847646D01*
X213603420Y-130851078D01*
X213278036Y-131194258D01*
X213269857Y-131197904D01*
X213261914Y-131195076D01*
X213260963Y-131194258D01*
X212858179Y-130847646D01*
X212587922Y-130615079D01*
X212583887Y-130607086D01*
X212584784Y-130601639D01*
X212676511Y-130385543D01*
X212682896Y-130379270D01*
X212685764Y-130378516D01*
X213376868Y-130288746D01*
X213385512Y-130291079D01*
G37*
%TD.AperFunction*%
%TD*%
%TA.AperFunction,Conductor*%
%TO.N,C2*%
G36*
X107572729Y-115395870D02*
G01*
X107912525Y-115712224D01*
X107916246Y-115720369D01*
X107915801Y-115724009D01*
X107753779Y-116289682D01*
X107748206Y-116296691D01*
X107743021Y-116298150D01*
X106943484Y-116331655D01*
X106935074Y-116328577D01*
X106932224Y-116324537D01*
X106920873Y-116297797D01*
X106840820Y-116109205D01*
X106840742Y-116100250D01*
X106843390Y-116096288D01*
X107556561Y-115396083D01*
X107564864Y-115392733D01*
X107572729Y-115395870D01*
G37*
%TD.AperFunction*%
%TD*%
%TA.AperFunction,Conductor*%
%TO.N,mirror_middle_home*%
G36*
X235889798Y-109364010D02*
G01*
X235894755Y-109371468D01*
X235894970Y-109373411D01*
X235914780Y-110117301D01*
X235911574Y-110125662D01*
X235907467Y-110128460D01*
X235690718Y-110216033D01*
X235681763Y-110215955D01*
X235677717Y-110213098D01*
X235459227Y-109975151D01*
X235178909Y-109669868D01*
X235175839Y-109661459D01*
X235179615Y-109653339D01*
X235180996Y-109652250D01*
X235499960Y-109437996D01*
X235504221Y-109436230D01*
X235881022Y-109362241D01*
X235889798Y-109364010D01*
G37*
%TD.AperFunction*%
%TD*%
%TA.AperFunction,Conductor*%
%TO.N,C2*%
G36*
X113941040Y-99633747D02*
G01*
X114280836Y-99950101D01*
X114284557Y-99958246D01*
X114284112Y-99961886D01*
X114122090Y-100527558D01*
X114116517Y-100534567D01*
X114111332Y-100536026D01*
X113311794Y-100569533D01*
X113303385Y-100566455D01*
X113300534Y-100562415D01*
X113289332Y-100536026D01*
X113209130Y-100347083D01*
X113209052Y-100338128D01*
X113211700Y-100334166D01*
X113924872Y-99633960D01*
X113933175Y-99630610D01*
X113941040Y-99633747D01*
G37*
%TD.AperFunction*%
%TD*%
%TA.AperFunction,Conductor*%
%TO.N,C2*%
G36*
X221431589Y-101194084D02*
G01*
X221433817Y-101197168D01*
X221695376Y-101722273D01*
X221695997Y-101731207D01*
X221692975Y-101735959D01*
X221138250Y-102264658D01*
X221129897Y-102267886D01*
X221125606Y-102266959D01*
X220910027Y-102175452D01*
X220903751Y-102169065D01*
X220902910Y-102164174D01*
X220921513Y-101735959D01*
X220944647Y-101203443D01*
X220948430Y-101195329D01*
X220956295Y-101192253D01*
X221423306Y-101190685D01*
X221431589Y-101194084D01*
G37*
%TD.AperFunction*%
%TD*%
%TA.AperFunction,Conductor*%
%TO.N,middle_home*%
G36*
X118331072Y-115551716D02*
G01*
X118707879Y-115625707D01*
X118712143Y-115627474D01*
X119031098Y-115841722D01*
X119036055Y-115849180D01*
X119034286Y-115857958D01*
X119033192Y-115859347D01*
X118534384Y-116402575D01*
X118526264Y-116406351D01*
X118521383Y-116405510D01*
X118304634Y-116317937D01*
X118298247Y-116311661D01*
X118297321Y-116306778D01*
X118309508Y-115849180D01*
X118317132Y-115562886D01*
X118320778Y-115554709D01*
X118329139Y-115551503D01*
X118331072Y-115551716D01*
G37*
%TD.AperFunction*%
%TD*%
%TA.AperFunction,Conductor*%
%TO.N,C3*%
G36*
X253543396Y-133779038D02*
G01*
X253551488Y-133782871D01*
X253553360Y-133785655D01*
X253810828Y-134321266D01*
X253811324Y-134330207D01*
X253808642Y-134334521D01*
X253225237Y-134930262D01*
X253217000Y-134933775D01*
X253212306Y-134932846D01*
X252997280Y-134841573D01*
X252991004Y-134835186D01*
X252990188Y-134829884D01*
X253029202Y-134334521D01*
X253073891Y-133767089D01*
X253077957Y-133759113D01*
X253086132Y-133756324D01*
X253543396Y-133779038D01*
G37*
%TD.AperFunction*%
%TD*%
%TA.AperFunction,Conductor*%
%TO.N,mirror_middle_bottom*%
G36*
X238030287Y-131078412D02*
G01*
X238037271Y-131084017D01*
X238037862Y-131085262D01*
X238127029Y-131305959D01*
X238126951Y-131314914D01*
X238125816Y-131316979D01*
X237829057Y-131747761D01*
X237821542Y-131752630D01*
X237814520Y-131751748D01*
X237393877Y-131557655D01*
X237236234Y-131484915D01*
X237230159Y-131478338D01*
X237230512Y-131469391D01*
X237481401Y-130928825D01*
X237487992Y-130922766D01*
X237495283Y-130922520D01*
X238030287Y-131078412D01*
G37*
%TD.AperFunction*%
%TD*%
%TA.AperFunction,Conductor*%
%TO.N,mirror_index_home*%
G36*
X217450017Y-129154260D02*
G01*
X217457047Y-129159807D01*
X217457685Y-129161137D01*
X217546854Y-129381835D01*
X217546776Y-129390790D01*
X217545697Y-129392774D01*
X217255815Y-129821237D01*
X217248340Y-129826169D01*
X217241315Y-129825347D01*
X217232199Y-129821237D01*
X216995559Y-129714545D01*
X216655080Y-129561036D01*
X216648947Y-129554512D01*
X216649222Y-129545563D01*
X216893320Y-129007360D01*
X216899858Y-129001242D01*
X216907155Y-129000934D01*
X217450017Y-129154260D01*
G37*
%TD.AperFunction*%
%TD*%
%TA.AperFunction,Conductor*%
%TO.N,C3*%
G36*
X248326961Y-117171116D02*
G01*
X248494652Y-117254464D01*
X248854580Y-117433361D01*
X248860463Y-117440111D01*
X248859849Y-117449045D01*
X248859838Y-117449068D01*
X248571336Y-118026287D01*
X248564572Y-118032155D01*
X248557536Y-118032271D01*
X248061327Y-117884738D01*
X248054373Y-117879095D01*
X248053416Y-117876754D01*
X247987806Y-117647942D01*
X247988820Y-117639047D01*
X247989449Y-117638037D01*
X248312155Y-117174903D01*
X248319695Y-117170075D01*
X248326961Y-117171116D01*
G37*
%TD.AperFunction*%
%TD*%
%TA.AperFunction,Conductor*%
%TO.N,index_top*%
G36*
X132391088Y-114981742D02*
G01*
X132396458Y-114986685D01*
X132665260Y-115467689D01*
X132666305Y-115476583D01*
X132665895Y-115477780D01*
X132576727Y-115698476D01*
X132570451Y-115704863D01*
X132568091Y-115705582D01*
X132049163Y-115805470D01*
X132040391Y-115803669D01*
X132036004Y-115798112D01*
X131813046Y-115207269D01*
X131813332Y-115198318D01*
X131819861Y-115192191D01*
X132382141Y-114981437D01*
X132391088Y-114981742D01*
G37*
%TD.AperFunction*%
%TD*%
%TA.AperFunction,Conductor*%
%TO.N,mirror_ring_bottom*%
G36*
X262405997Y-127680450D02*
G01*
X262469413Y-127693211D01*
X262476848Y-127698202D01*
X262478766Y-127705631D01*
X262427201Y-128338766D01*
X262423114Y-128346733D01*
X262418765Y-128349063D01*
X262193985Y-128413518D01*
X262185088Y-128412504D01*
X262181395Y-128409284D01*
X262134557Y-128346733D01*
X261762090Y-127849313D01*
X261759875Y-127840637D01*
X261764443Y-127832936D01*
X261764933Y-127832588D01*
X262082973Y-127618984D01*
X262091749Y-127617217D01*
X262405997Y-127680450D01*
G37*
%TD.AperFunction*%
%TD*%
%TA.AperFunction,Conductor*%
%TO.N,reachy_thumb*%
G36*
X141528476Y-181725728D02*
G01*
X141532613Y-181731728D01*
X141684236Y-182245599D01*
X141683290Y-182254504D01*
X141682714Y-182255453D01*
X141549606Y-182452794D01*
X141542138Y-182457736D01*
X141539544Y-182457945D01*
X140998001Y-182441190D01*
X140989838Y-182437509D01*
X140986773Y-182431095D01*
X140961175Y-182245599D01*
X140902318Y-181819095D01*
X140904582Y-181810434D01*
X140912308Y-181805909D01*
X141519817Y-181723445D01*
X141528476Y-181725728D01*
G37*
%TD.AperFunction*%
%TD*%
%TA.AperFunction,Conductor*%
%TO.N,C3*%
G36*
X81628746Y-131908024D02*
G01*
X82228743Y-132294239D01*
X82233844Y-132301598D01*
X82233555Y-132307637D01*
X82055691Y-132864472D01*
X82049910Y-132871310D01*
X82046029Y-132872518D01*
X81577761Y-132932349D01*
X81569120Y-132929998D01*
X81564762Y-132922805D01*
X81405682Y-132033675D01*
X81407598Y-132024929D01*
X81411525Y-132021384D01*
X81616745Y-131907630D01*
X81625641Y-131906617D01*
X81628746Y-131908024D01*
G37*
%TD.AperFunction*%
%TD*%
%TA.AperFunction,Conductor*%
%TO.N,C3*%
G36*
X161766039Y-152775160D02*
G01*
X161770357Y-152782142D01*
X161941089Y-153644633D01*
X161939334Y-153653414D01*
X161933210Y-153658038D01*
X159928415Y-154306038D01*
X159919489Y-154305322D01*
X159916544Y-154303178D01*
X159749198Y-154135831D01*
X159745771Y-154127558D01*
X159745971Y-154125403D01*
X159955971Y-153010936D01*
X159960871Y-153003443D01*
X159965984Y-153001499D01*
X161757399Y-152772808D01*
X161766039Y-152775160D01*
G37*
%TD.AperFunction*%
%TD*%
%TA.AperFunction,Conductor*%
%TO.N,C4*%
G36*
X63202150Y-138244174D02*
G01*
X63207376Y-138250824D01*
X63493905Y-139189411D01*
X63493043Y-139198324D01*
X63489918Y-139202047D01*
X63305479Y-139346145D01*
X63296850Y-139348538D01*
X63292408Y-139347047D01*
X63042300Y-139202047D01*
X62614133Y-138953817D01*
X62608695Y-138946704D01*
X62608571Y-138941206D01*
X62733754Y-138367155D01*
X62738865Y-138359803D01*
X62742279Y-138358315D01*
X63193287Y-138242905D01*
X63202150Y-138244174D01*
G37*
%TD.AperFunction*%
%TD*%
%TA.AperFunction,Conductor*%
%TO.N,C1*%
G36*
X161766215Y-147695077D02*
G01*
X161770305Y-147701878D01*
X161941039Y-148564379D01*
X161939284Y-148573160D01*
X161932887Y-148577869D01*
X159852045Y-149194683D01*
X159843139Y-149193748D01*
X159840447Y-149191738D01*
X159673213Y-149024505D01*
X159669786Y-149016232D01*
X159670101Y-149013535D01*
X159937514Y-147886933D01*
X159942758Y-147879678D01*
X159947702Y-147877999D01*
X161757636Y-147692511D01*
X161766215Y-147695077D01*
G37*
%TD.AperFunction*%
%TD*%
%TA.AperFunction,Conductor*%
%TO.N,home_thumb*%
G36*
X126109559Y-170511467D02*
G01*
X126111298Y-170512434D01*
X126307982Y-170645099D01*
X126312924Y-170652567D01*
X126313116Y-170655533D01*
X126283147Y-171132131D01*
X126279208Y-171140173D01*
X126276074Y-171142153D01*
X125607818Y-171428175D01*
X125598864Y-171428280D01*
X125592458Y-171422023D01*
X125591531Y-171418046D01*
X125554623Y-170727231D01*
X125557603Y-170718789D01*
X125562148Y-170715673D01*
X126100610Y-170511200D01*
X126109559Y-170511467D01*
G37*
%TD.AperFunction*%
%TD*%
%TA.AperFunction,Conductor*%
%TO.N,C4*%
G36*
X177101822Y-158372332D02*
G01*
X177795706Y-158648660D01*
X177802123Y-158654904D01*
X177803076Y-158659529D01*
X177803076Y-158893295D01*
X177799649Y-158901568D01*
X177795244Y-158904337D01*
X177101483Y-159147331D01*
X177092542Y-159146832D01*
X177086573Y-159140157D01*
X177086145Y-159138600D01*
X177084249Y-159129189D01*
X177010229Y-158761768D01*
X177010229Y-158757151D01*
X177086029Y-158380891D01*
X177091023Y-158373460D01*
X177099810Y-158371734D01*
X177101822Y-158372332D01*
G37*
%TD.AperFunction*%
%TD*%
%TA.AperFunction,Conductor*%
%TO.N,C0*%
G36*
X134989691Y-145345106D02*
G01*
X134991084Y-145348436D01*
X135164735Y-146054075D01*
X135163384Y-146062928D01*
X135160001Y-146066513D01*
X134734360Y-146359083D01*
X134725601Y-146360945D01*
X134723350Y-146360289D01*
X134502895Y-146271220D01*
X134496508Y-146264944D01*
X134495932Y-146263230D01*
X134360962Y-145727364D01*
X134362265Y-145718506D01*
X134366178Y-145714543D01*
X134973598Y-145341263D01*
X134982440Y-145339852D01*
X134989691Y-145345106D01*
G37*
%TD.AperFunction*%
%TD*%
%TA.AperFunction,Conductor*%
%TO.N,C4*%
G36*
X272270816Y-138373432D02*
G01*
X272271185Y-138373711D01*
X272619616Y-138649123D01*
X272755342Y-138756406D01*
X272759708Y-138764225D01*
X272757266Y-138772840D01*
X272757254Y-138772855D01*
X272377472Y-139251778D01*
X272369647Y-139256131D01*
X272362662Y-139254757D01*
X271834191Y-138963778D01*
X271828596Y-138956786D01*
X271829585Y-138947886D01*
X271830607Y-138946336D01*
X271976073Y-138760150D01*
X272254478Y-138376038D01*
X272262107Y-138371351D01*
X272270816Y-138373432D01*
G37*
%TD.AperFunction*%
%TD*%
%TA.AperFunction,Conductor*%
%TO.N,C2*%
G36*
X234179893Y-132723339D02*
G01*
X234787974Y-133104465D01*
X234793164Y-133111763D01*
X234793074Y-133117360D01*
X234653644Y-133646530D01*
X234648222Y-133653657D01*
X234646713Y-133654397D01*
X234426167Y-133743503D01*
X234417212Y-133743425D01*
X234415178Y-133742311D01*
X233981158Y-133445378D01*
X233976264Y-133437879D01*
X233976453Y-133432729D01*
X234162370Y-132730259D01*
X234167800Y-132723140D01*
X234176674Y-132721943D01*
X234179893Y-132723339D01*
G37*
%TD.AperFunction*%
%TD*%
%TA.AperFunction,Conductor*%
%TO.N,C3*%
G36*
X82524941Y-132850574D02*
G01*
X82528739Y-132858337D01*
X82610852Y-133926818D01*
X82608069Y-133935330D01*
X82603758Y-133938485D01*
X82388763Y-134029745D01*
X82379808Y-134029823D01*
X82375784Y-134027112D01*
X81792457Y-133424433D01*
X81789166Y-133416105D01*
X81790333Y-133411200D01*
X82049520Y-132876032D01*
X82056209Y-132870082D01*
X82059485Y-132869447D01*
X82516513Y-132847547D01*
X82524941Y-132850574D01*
G37*
%TD.AperFunction*%
%TD*%
%TA.AperFunction,Conductor*%
%TO.N,ring_home*%
G36*
X90465233Y-117166985D02*
G01*
X90655881Y-117433258D01*
X90790349Y-117621067D01*
X90792379Y-117629787D01*
X90792083Y-117631102D01*
X90726472Y-117859910D01*
X90720897Y-117866918D01*
X90718702Y-117867857D01*
X90220132Y-118023012D01*
X90211214Y-118022198D01*
X90206241Y-118017172D01*
X89915323Y-117449016D01*
X89914602Y-117440091D01*
X89920403Y-117433271D01*
X90450412Y-117163369D01*
X90459338Y-117162669D01*
X90465233Y-117166985D01*
G37*
%TD.AperFunction*%
%TD*%
%TA.AperFunction,Conductor*%
%TO.N,C0*%
G36*
X142089459Y-129724191D02*
G01*
X142097405Y-129728319D01*
X142100105Y-129736857D01*
X142100098Y-129736936D01*
X142007047Y-130732054D01*
X142002865Y-130739972D01*
X141999969Y-130741735D01*
X141784657Y-130833128D01*
X141775703Y-130833206D01*
X141770764Y-130829429D01*
X141292095Y-130198413D01*
X141289826Y-130189751D01*
X141291712Y-130184808D01*
X141625070Y-129690007D01*
X141632533Y-129685062D01*
X141635778Y-129684890D01*
X142089459Y-129724191D01*
G37*
%TD.AperFunction*%
%TD*%
%TA.AperFunction,Conductor*%
%TO.N,C1*%
G36*
X213595784Y-130842110D02*
G01*
X213603313Y-130846959D01*
X213605207Y-130855711D01*
X213605053Y-130856429D01*
X213430581Y-131562387D01*
X213425270Y-131569596D01*
X213416782Y-131571022D01*
X213134043Y-131510702D01*
X213131912Y-131510030D01*
X212912137Y-131416742D01*
X212905861Y-131410355D01*
X212905393Y-131403001D01*
X213074776Y-130758518D01*
X213080193Y-130751391D01*
X213088179Y-130749983D01*
X213595784Y-130842110D01*
G37*
%TD.AperFunction*%
%TD*%
%TA.AperFunction,Conductor*%
%TO.N,C0*%
G36*
X133589644Y-150779237D02*
G01*
X133987272Y-151198626D01*
X134101645Y-151319258D01*
X134104851Y-151327620D01*
X134101205Y-151335798D01*
X134099679Y-151337020D01*
X133780928Y-151551136D01*
X133776658Y-151552905D01*
X133399629Y-151626942D01*
X133390851Y-151625173D01*
X133385894Y-151617715D01*
X133385687Y-151615971D01*
X133354278Y-150879128D01*
X133357349Y-150870718D01*
X133361392Y-150867862D01*
X133576587Y-150776518D01*
X133585540Y-150776441D01*
X133589644Y-150779237D01*
G37*
%TD.AperFunction*%
%TD*%
%TA.AperFunction,Conductor*%
%TO.N,mirror_index_bottom*%
G36*
X227907974Y-138392814D02*
G01*
X227912931Y-138400272D01*
X227913146Y-138402215D01*
X227932956Y-139146105D01*
X227929750Y-139154466D01*
X227925643Y-139157264D01*
X227708894Y-139244837D01*
X227699939Y-139244759D01*
X227695893Y-139241902D01*
X227477403Y-139003955D01*
X227197085Y-138698672D01*
X227194015Y-138690263D01*
X227197791Y-138682143D01*
X227199172Y-138681054D01*
X227518136Y-138466800D01*
X227522397Y-138465034D01*
X227899198Y-138391045D01*
X227907974Y-138392814D01*
G37*
%TD.AperFunction*%
%TD*%
%TA.AperFunction,Conductor*%
%TO.N,inner_top*%
G36*
X145248230Y-130759699D02*
G01*
X145253600Y-130764642D01*
X145522401Y-131245648D01*
X145523446Y-131254542D01*
X145523036Y-131255739D01*
X145433869Y-131476435D01*
X145427593Y-131482822D01*
X145425232Y-131483541D01*
X144906303Y-131583428D01*
X144897532Y-131581627D01*
X144893145Y-131576070D01*
X144858229Y-131483541D01*
X144670187Y-130985222D01*
X144670473Y-130976274D01*
X144677001Y-130970148D01*
X145239283Y-130759394D01*
X145248230Y-130759699D01*
G37*
%TD.AperFunction*%
%TD*%
%TA.AperFunction,Conductor*%
%TO.N,middle_top*%
G36*
X125022721Y-98922586D02*
G01*
X125399528Y-98996577D01*
X125403792Y-98998344D01*
X125576228Y-99114172D01*
X125722746Y-99212592D01*
X125727703Y-99220050D01*
X125725934Y-99228828D01*
X125724840Y-99230217D01*
X125226027Y-99773444D01*
X125217907Y-99777220D01*
X125213026Y-99776379D01*
X124996278Y-99688805D01*
X124989891Y-99682528D01*
X124988965Y-99677645D01*
X125001155Y-99220050D01*
X125008781Y-98933755D01*
X125012427Y-98925578D01*
X125020789Y-98922373D01*
X125022721Y-98922586D01*
G37*
%TD.AperFunction*%
%TD*%
%TA.AperFunction,Conductor*%
%TO.N,ring_bottom*%
G36*
X92403711Y-132554559D02*
G01*
X92403755Y-132554589D01*
X92721795Y-132768192D01*
X92726753Y-132775650D01*
X92724985Y-132784428D01*
X92724637Y-132784918D01*
X92305333Y-133344888D01*
X92297632Y-133349456D01*
X92292743Y-133349122D01*
X92067963Y-133284666D01*
X92060955Y-133279091D01*
X92059527Y-133274369D01*
X92019664Y-132784918D01*
X92007962Y-132641233D01*
X92010706Y-132632711D01*
X92017314Y-132628815D01*
X92394925Y-132552832D01*
X92403711Y-132554559D01*
G37*
%TD.AperFunction*%
%TD*%
M02*
