%TF.GenerationSoftware,KiCad,Pcbnew,9.0.4*%
%TF.CreationDate,2025-10-25T19:08:00+08:00*%
%TF.ProjectId,sterna,73746572-6e61-42e6-9b69-6361645f7063,v1.0.0*%
%TF.SameCoordinates,Original*%
%TF.FileFunction,Paste,Bot*%
%TF.FilePolarity,Positive*%
%FSLAX46Y46*%
G04 Gerber Fmt 4.6, Leading zero omitted, Abs format (unit mm)*
G04 Created by KiCad (PCBNEW 9.0.4) date 2025-10-25 19:08:00*
%MOMM*%
%LPD*%
G01*
G04 APERTURE LIST*
G04 Aperture macros list*
%AMRotRect*
0 Rectangle, with rotation*
0 The origin of the aperture is its center*
0 $1 length*
0 $2 width*
0 $3 Rotation angle, in degrees counterclockwise*
0 Add horizontal line*
21,1,$1,$2,0,0,$3*%
G04 Aperture macros list end*
%ADD10RotRect,1.550000X1.000000X113.000000*%
%ADD11RotRect,2.600000X2.600000X217.000000*%
%ADD12RotRect,2.600000X2.600000X210.000000*%
%ADD13RotRect,2.600000X2.600000X196.000000*%
%ADD14RotRect,2.600000X2.600000X203.000000*%
%ADD15RotRect,2.600000X2.600000X187.000000*%
%ADD16RotRect,2.600000X2.600000X202.000000*%
%ADD17RotRect,2.600000X2.600000X143.000000*%
%ADD18RotRect,2.600000X2.600000X150.000000*%
%ADD19RotRect,2.600000X2.600000X164.000000*%
%ADD20RotRect,2.600000X2.600000X158.000000*%
%ADD21RotRect,2.600000X2.600000X157.000000*%
%ADD22RotRect,2.600000X2.600000X173.000000*%
%ADD23R,0.900000X0.900000*%
%ADD24R,0.900000X1.250000*%
G04 APERTURE END LIST*
D10*
%TO.C,B1*%
X190854010Y-124609314D03*
X192905348Y-129441965D03*
X192418868Y-123945071D03*
X194470206Y-128777722D03*
%TD*%
D11*
%TO.C,S30*%
X198476908Y-175580957D03*
X209025142Y-170386992D03*
%TD*%
D12*
%TO.C,S29*%
X214760290Y-164323703D03*
X225862883Y-160453959D03*
%TD*%
D13*
%TO.C,S16*%
X257362874Y-125291215D03*
X269071848Y-124222380D03*
%TD*%
D14*
%TO.C,S23*%
X216261050Y-122977252D03*
X227752490Y-120489418D03*
%TD*%
%TO.C,S24*%
X209618622Y-107328669D03*
X221110062Y-104840835D03*
%TD*%
D15*
%TO.C,S14*%
X278163457Y-129690917D03*
X289895477Y-130466928D03*
%TD*%
D14*
%TO.C,S25*%
X203403909Y-138755209D03*
X214895349Y-136267375D03*
%TD*%
D15*
%TO.C,S15*%
X276091679Y-112817634D03*
X287823699Y-113593645D03*
%TD*%
D16*
%TO.C,S21*%
X224244459Y-93226244D03*
X235777567Y-90939342D03*
%TD*%
D13*
%TO.C,S18*%
X247991198Y-92608316D03*
X259700172Y-91539481D03*
%TD*%
D16*
%TO.C,S20*%
X230612771Y-108988369D03*
X242145879Y-106701467D03*
%TD*%
D13*
%TO.C,S17*%
X252677034Y-108949764D03*
X264386008Y-107880929D03*
%TD*%
D14*
%TO.C,S26*%
X196761481Y-123106627D03*
X208252921Y-120618793D03*
%TD*%
D16*
%TO.C,S19*%
X236981083Y-124750494D03*
X248514191Y-122463592D03*
%TD*%
D14*
%TO.C,S22*%
X222903479Y-138625833D03*
X234394919Y-136137999D03*
%TD*%
D17*
%TO.C,S28*%
X151688098Y-171639070D03*
X159588345Y-180347031D03*
%TD*%
D18*
%TO.C,S27*%
X134963314Y-161048703D03*
X143865907Y-168728959D03*
%TD*%
D19*
%TO.C,S3*%
X91736934Y-123485787D03*
X102233105Y-128784174D03*
%TD*%
D20*
%TO.C,S7*%
X118710244Y-106534701D03*
X128595083Y-112901212D03*
%TD*%
D21*
%TO.C,S10*%
X133105714Y-120417963D03*
X142877936Y-126956018D03*
%TD*%
D22*
%TO.C,S2*%
X72803216Y-112019391D03*
X83999011Y-115610584D03*
%TD*%
D19*
%TO.C,S4*%
X96422770Y-107144342D03*
X106918941Y-112442729D03*
%TD*%
D21*
%TO.C,S12*%
X145962853Y-136195923D03*
X155735075Y-142733978D03*
%TD*%
%TO.C,S9*%
X126463283Y-136066545D03*
X136235505Y-142604600D03*
%TD*%
D20*
%TO.C,S8*%
X125078559Y-90772576D03*
X134963398Y-97139087D03*
%TD*%
%TO.C,S6*%
X112341933Y-122296821D03*
X122226772Y-128663332D03*
%TD*%
D21*
%TO.C,S13*%
X152605280Y-120547336D03*
X162377502Y-127085391D03*
%TD*%
%TO.C,S11*%
X139748139Y-104769381D03*
X149520361Y-111307436D03*
%TD*%
D22*
%TO.C,S1*%
X70731433Y-128892672D03*
X81927228Y-132483865D03*
%TD*%
D19*
%TO.C,S5*%
X101108605Y-90802893D03*
X111604776Y-96101280D03*
%TD*%
D23*
%TO.C,T1*%
X173448034Y-134852571D03*
X173448034Y-137052570D03*
X180848034Y-134852570D03*
X180848034Y-137052569D03*
D24*
X174898034Y-138027570D03*
X177898034Y-138027571D03*
X179398034Y-138027570D03*
%TD*%
M02*
