%TF.GenerationSoftware,KiCad,Pcbnew,9.0.4*%
%TF.CreationDate,2025-10-25T14:25:06+08:00*%
%TF.ProjectId,sterna,73746572-6e61-42e6-9b69-6361645f7063,v1.0.0*%
%TF.SameCoordinates,Original*%
%TF.FileFunction,Soldermask,Bot*%
%TF.FilePolarity,Negative*%
%FSLAX46Y46*%
G04 Gerber Fmt 4.6, Leading zero omitted, Abs format (unit mm)*
G04 Created by KiCad (PCBNEW 9.0.4) date 2025-10-25 14:25:06*
%MOMM*%
%LPD*%
G01*
G04 APERTURE LIST*
G04 Aperture macros list*
%AMRotRect*
0 Rectangle, with rotation*
0 The origin of the aperture is its center*
0 $1 length*
0 $2 width*
0 $3 Rotation angle, in degrees counterclockwise*
0 Add horizontal line*
21,1,$1,$2,0,0,$3*%
G04 Aperture macros list end*
%ADD10R,0.900000X0.900000*%
%ADD11C,1.000000*%
%ADD12R,0.900000X1.250000*%
%ADD13C,1.701800*%
%ADD14C,3.000000*%
%ADD15C,3.429000*%
%ADD16RotRect,2.600000X2.600000X37.000000*%
%ADD17O,2.750000X1.800000*%
%ADD18R,2.750000X1.800000*%
%ADD19C,2.000000*%
%ADD20RotRect,2.600000X2.600000X30.000000*%
%ADD21C,4.400000*%
%ADD22C,2.200000*%
%ADD23RotRect,2.600000X2.600000X16.000000*%
%ADD24RotRect,2.600000X2.600000X344.000000*%
%ADD25RotRect,2.600000X2.600000X338.000000*%
%ADD26RotRect,2.600000X2.600000X23.000000*%
%ADD27RotRect,2.600000X2.600000X337.000000*%
%ADD28RotRect,2.600000X2.600000X7.000000*%
%ADD29R,1.200000X1.700000*%
%ADD30O,1.200000X1.700000*%
%ADD31RotRect,2.600000X2.600000X353.000000*%
%ADD32RotRect,2.600000X2.600000X22.000000*%
%ADD33RotRect,2.600000X2.600000X330.000000*%
%ADD34RotRect,2.600000X2.600000X323.000000*%
%ADD35C,0.750000*%
%ADD36RotRect,1.550000X1.000000X113.000000*%
G04 APERTURE END LIST*
D10*
%TO.C,T1*%
X165137528Y-133552132D03*
X165137528Y-135752132D03*
D11*
X167337528Y-134652132D03*
X170337528Y-134652132D03*
D10*
X172537528Y-133552132D03*
X172537528Y-135752132D03*
D12*
X166587528Y-136727132D03*
X169587528Y-136727133D03*
X171087528Y-136727132D03*
%TD*%
D13*
%TO.C,S30*%
X191970239Y-180371442D03*
D14*
X192781935Y-172309578D03*
D15*
X196362734Y-177061459D03*
D14*
X198099105Y-171057501D03*
D13*
X200755229Y-173751476D03*
D16*
X190166403Y-174280523D03*
X200714637Y-169086557D03*
%TD*%
D17*
%TO.C,MCU1*%
X161292529Y-137532132D03*
X161292530Y-140072132D03*
X161292529Y-142612132D03*
X161292529Y-145152132D03*
X161292529Y-147692132D03*
X161292530Y-150232132D03*
X161292529Y-152772132D03*
X177482529Y-152772132D03*
X177482528Y-150232132D03*
X177482529Y-147692132D03*
X177482529Y-145152132D03*
X177482529Y-142612132D03*
D18*
X177482528Y-140072132D03*
D17*
X177482529Y-137532132D03*
D19*
X168117530Y-139120132D03*
X164942529Y-144835132D03*
%TD*%
D13*
%TO.C,S29*%
X207497875Y-169288616D03*
D14*
X209286015Y-161385765D03*
D15*
X212261015Y-166538616D03*
D14*
X214716142Y-160791021D03*
D13*
X217024155Y-163788616D03*
D20*
X206449782Y-163023265D03*
X217552375Y-159153520D03*
%TD*%
D21*
%TO.C,PAD2*%
X185298255Y-137348603D03*
%TD*%
D22*
%TO.C,PAD7*%
X104003111Y-100262244D03*
%TD*%
D13*
%TO.C,S16*%
X248553601Y-130323576D03*
D14*
X252200498Y-123088064D03*
D15*
X253840540Y-128807571D03*
D14*
X257613208Y-123824653D03*
D13*
X259127479Y-127291566D03*
D23*
X249052366Y-123990776D03*
X260761339Y-122921941D03*
%TD*%
D13*
%TO.C,S3*%
X79647578Y-127291566D03*
D14*
X86574559Y-123088063D03*
D15*
X84934517Y-128807571D03*
D14*
X90774466Y-126581025D03*
D13*
X90221456Y-130323576D03*
D24*
X83426427Y-122185352D03*
X93922598Y-127483739D03*
%TD*%
D21*
%TO.C,PAD4*%
X195603788Y-161626917D03*
%TD*%
%TO.C,PAD3*%
X143171271Y-161626918D03*
%TD*%
D13*
%TO.C,S7*%
X106107848Y-109917506D03*
D14*
X113436268Y-106461098D03*
D15*
X111207359Y-111977842D03*
D14*
X117248053Y-110373936D03*
D13*
X116306870Y-114038178D03*
D25*
X110399741Y-105234262D03*
X120284580Y-111600772D03*
%TD*%
D22*
%TO.C,PAD5*%
X134463182Y-171800039D03*
%TD*%
D13*
%TO.C,S23*%
X208227272Y-128023196D03*
D14*
X210965199Y-120397171D03*
D15*
X213290049Y-125874175D03*
D14*
X216427332Y-120468626D03*
D13*
X218352826Y-123725154D03*
D26*
X207950544Y-121676816D03*
X219441985Y-119188982D03*
%TD*%
D13*
%TO.C,S24*%
X201584843Y-112374614D03*
D14*
X204322770Y-104748589D03*
D15*
X206647620Y-110225593D03*
D14*
X209784903Y-104820044D03*
D13*
X211710397Y-108076572D03*
D26*
X201308115Y-106028234D03*
X212799556Y-103540400D03*
%TD*%
D22*
%TO.C,PAD8*%
X234771947Y-100262244D03*
%TD*%
D13*
%TO.C,S10*%
X120422233Y-123725155D03*
D14*
X127809860Y-120397172D03*
D15*
X125485010Y-125874176D03*
D14*
X131552776Y-124375938D03*
D13*
X130547787Y-128023197D03*
D27*
X124795207Y-119117528D03*
X134567429Y-125655583D03*
%TD*%
D13*
%TO.C,S14*%
X268369659Y-134567289D03*
D14*
X273103540Y-127991358D03*
D15*
X273828663Y-133897008D03*
D14*
X278334384Y-129565613D03*
D13*
X279287667Y-133226727D03*
D28*
X269852952Y-128390480D03*
X281584972Y-129166492D03*
%TD*%
D29*
%TO.C,JST1*%
X181537529Y-149652132D03*
D30*
X183537529Y-149652132D03*
%TD*%
D13*
%TO.C,S2*%
X61559171Y-116353445D03*
D14*
X67743298Y-111118076D03*
D15*
X67018175Y-117023726D03*
D14*
X72437917Y-113911026D03*
D13*
X72477179Y-117694007D03*
D31*
X64492710Y-110718954D03*
X75688504Y-114310147D03*
%TD*%
D13*
%TO.C,S4*%
X84333416Y-110950118D03*
D14*
X91260397Y-106746615D03*
D15*
X89620355Y-112466123D03*
D14*
X95460304Y-110239577D03*
D13*
X94907294Y-113982128D03*
D24*
X88112265Y-105843904D03*
X98608436Y-111142291D03*
%TD*%
D13*
%TO.C,S25*%
X195370129Y-143801154D03*
D14*
X198108056Y-136175129D03*
D15*
X200432906Y-141652133D03*
D14*
X203570189Y-136246584D03*
D13*
X205495683Y-139503112D03*
D26*
X195093401Y-137454774D03*
X206584842Y-134966940D03*
%TD*%
D21*
%TO.C,PAD1*%
X153476803Y-137348603D03*
%TD*%
D22*
%TO.C,PAD6*%
X204311877Y-171800037D03*
%TD*%
D13*
%TO.C,S12*%
X133279375Y-139503112D03*
D14*
X140667002Y-136175129D03*
D15*
X138342152Y-141652133D03*
D14*
X144409918Y-140153895D03*
D13*
X143404929Y-143801154D03*
D27*
X137652349Y-134895485D03*
X147424571Y-141433540D03*
%TD*%
D13*
%TO.C,S9*%
X113779805Y-139373737D03*
D14*
X121167432Y-136045754D03*
D15*
X118842582Y-141522758D03*
D14*
X124910348Y-140024520D03*
D13*
X123905359Y-143671779D03*
D27*
X118152779Y-134766110D03*
X127925001Y-141304165D03*
%TD*%
D13*
%TO.C,S15*%
X266297880Y-117694005D03*
D14*
X271031761Y-111118074D03*
D15*
X271756884Y-117023724D03*
D14*
X276262605Y-112692329D03*
D13*
X277215888Y-116353443D03*
D28*
X267781173Y-111517196D03*
X279513193Y-112293208D03*
%TD*%
D13*
%TO.C,S8*%
X112476160Y-94155381D03*
D14*
X119804580Y-90698973D03*
D15*
X117575671Y-96215717D03*
D14*
X123616365Y-94611811D03*
D13*
X122675182Y-98276053D03*
D25*
X116768053Y-89472137D03*
X126652892Y-95838647D03*
%TD*%
D13*
%TO.C,S21*%
X216099878Y-98276053D03*
D14*
X218970480Y-90698973D03*
D15*
X221199389Y-96215717D03*
D14*
X224430534Y-90865746D03*
D13*
X226298900Y-94155381D03*
D32*
X215933953Y-91925810D03*
X227467061Y-89638908D03*
%TD*%
D22*
%TO.C,PAD10*%
X261892359Y-118738692D03*
%TD*%
D13*
%TO.C,S5*%
X89019249Y-94608670D03*
D14*
X95946230Y-90405167D03*
D15*
X94306188Y-96124675D03*
D14*
X100146137Y-93898129D03*
D13*
X99593127Y-97640680D03*
D24*
X92798098Y-89502456D03*
X103294269Y-94800843D03*
%TD*%
D13*
%TO.C,S18*%
X239181930Y-97640679D03*
D14*
X242828827Y-90405167D03*
D15*
X244468869Y-96124674D03*
D14*
X248241537Y-91141756D03*
D13*
X249755808Y-94608669D03*
D23*
X239680695Y-91307879D03*
X251389668Y-90239044D03*
%TD*%
D13*
%TO.C,S20*%
X222468190Y-114038176D03*
D14*
X225338792Y-106461096D03*
D15*
X227567701Y-111977840D03*
D14*
X230798846Y-106627869D03*
D13*
X232667212Y-109917504D03*
D32*
X222302265Y-107687933D03*
X233835373Y-105401031D03*
%TD*%
D13*
%TO.C,S6*%
X99739534Y-125679630D03*
D14*
X107067954Y-122223222D03*
D15*
X104839045Y-127739966D03*
D14*
X110879739Y-126136060D03*
D13*
X109938556Y-129800302D03*
D25*
X104031427Y-120996386D03*
X113916266Y-127362896D03*
%TD*%
D22*
%TO.C,PAD9*%
X76882703Y-118738692D03*
%TD*%
D13*
%TO.C,S13*%
X139921802Y-123854528D03*
D14*
X147309429Y-120526545D03*
D15*
X144984579Y-126003549D03*
D14*
X151052345Y-124505311D03*
D13*
X150047356Y-128152570D03*
D27*
X144294776Y-119246901D03*
X154066998Y-125784956D03*
%TD*%
D13*
%TO.C,S17*%
X243867764Y-113982128D03*
D14*
X247514661Y-106746616D03*
D15*
X249154703Y-112466123D03*
D14*
X252927371Y-107483205D03*
D13*
X254441642Y-110950118D03*
D23*
X244366529Y-107649328D03*
X256075502Y-106580493D03*
%TD*%
D13*
%TO.C,S27*%
X121750902Y-163788617D03*
D14*
X129489042Y-161385766D03*
D15*
X126514042Y-166538617D03*
D14*
X132719170Y-165791021D03*
D13*
X131277182Y-169288617D03*
D33*
X126652809Y-159748266D03*
X135555402Y-167428520D03*
%TD*%
D13*
%TO.C,S11*%
X127064660Y-108076572D03*
D14*
X134452287Y-104748589D03*
D15*
X132127437Y-110225593D03*
D14*
X138195203Y-108727355D03*
D13*
X137190214Y-112374614D03*
D27*
X131437634Y-103468945D03*
X141209856Y-110007000D03*
%TD*%
D13*
%TO.C,S26*%
X188727700Y-128152572D03*
D14*
X191465627Y-120526547D03*
D15*
X193790477Y-126003551D03*
D14*
X196927760Y-120598002D03*
D13*
X198853254Y-123854530D03*
D26*
X188450972Y-121806192D03*
X199942413Y-119318358D03*
%TD*%
D13*
%TO.C,S19*%
X228836501Y-129800302D03*
D14*
X231707103Y-122223222D03*
D15*
X233936012Y-127739966D03*
D14*
X237167157Y-122389995D03*
D13*
X239035523Y-125679630D03*
D32*
X228670576Y-123450059D03*
X240203684Y-121163157D03*
%TD*%
D13*
%TO.C,S22*%
X214869698Y-143671779D03*
D14*
X217607625Y-136045754D03*
D15*
X219932475Y-141522758D03*
D14*
X223069758Y-136117209D03*
D13*
X224995252Y-139373737D03*
D26*
X214592970Y-137325399D03*
X226084411Y-134837565D03*
%TD*%
D13*
%TO.C,S28*%
X138019828Y-173751476D03*
D14*
X145993122Y-172309578D03*
D15*
X142412323Y-177061459D03*
D14*
X148662307Y-177075651D03*
D13*
X146804818Y-180371442D03*
D34*
X143377592Y-170338634D03*
X151277838Y-179046595D03*
%TD*%
D13*
%TO.C,S1*%
X59487390Y-133226728D03*
D14*
X65671517Y-127991359D03*
D15*
X64946394Y-133897009D03*
D14*
X70366136Y-130784309D03*
D13*
X70405398Y-134567290D03*
D31*
X62420929Y-127592237D03*
X73616723Y-131183430D03*
%TD*%
D35*
%TO.C,B1*%
X185617298Y-124855828D03*
X183085910Y-125930336D03*
D36*
X184594845Y-128141529D03*
X182543506Y-123308878D03*
X186159702Y-127477286D03*
X184108363Y-122644635D03*
%TD*%
M02*
